M48
; DRILL file {KiCad 8.0.0} date 2024-03-05T20:17:21-0600
; FORMAT={-:-/ absolute / inch / decimal}
; #@! TF.CreationDate,2024-03-05T20:17:21-06:00
; #@! TF.GenerationSoftware,Kicad,Pcbnew,8.0.0
; #@! TF.FileFunction,Plated,1,4,PTH
FMAT,2
INCH
; #@! TA.AperFunction,Plated,PTH,ViaDrill
T1C0.0118
; #@! TA.AperFunction,Plated,PTH,ComponentDrill
T2C0.0236
; #@! TA.AperFunction,Plated,PTH,ComponentDrill
T3C0.0394
; #@! TA.AperFunction,Plated,PTH,ComponentDrill
T4C0.0512
%
G90
G05
T1
X3.9764Y-4.2913
X3.9764Y-4.3504
X4.0Y-4.0
X4.0Y-4.05
X4.0Y-4.1
X4.0Y-4.15
X4.0Y-4.5
X4.0Y-4.55
X4.0Y-4.7
X4.0157Y-3.9685
X4.0472Y-3.9528
X4.05Y-4.0
X4.05Y-4.05
X4.05Y-4.1
X4.05Y-4.15
X4.05Y-4.5
X4.05Y-4.55
X4.05Y-4.7
X4.0827Y-4.1811
X4.0945Y-4.0157
X4.1Y-4.5
X4.1Y-4.55
X4.1Y-4.7
X4.1024Y-3.9567
X4.1181Y-3.9882
X4.1181Y-4.1654
X4.1181Y-4.626
X4.1417Y-4.1929
X4.15Y-4.5
X4.15Y-4.55
X4.15Y-4.6
X4.15Y-4.65
X4.15Y-4.7
X4.1535Y-3.9567
X4.1535Y-4.0157
X4.1732Y-4.1654
X4.1772Y-3.9882
X4.1772Y-4.126
X4.2Y-4.5
X4.2Y-4.55
X4.2Y-4.6
X4.2Y-4.65
X4.2Y-4.7
X4.2126Y-3.9567
X4.2126Y-4.0157
X4.2244Y-4.2913
X4.2244Y-4.3465
X4.2441Y-3.9882
X4.25Y-4.5
X4.25Y-4.55
X4.25Y-4.6
X4.25Y-4.65
X4.25Y-4.7
X4.2598Y-4.3543
X4.2677Y-4.2835
X4.2717Y-3.9567
X4.2795Y-4.1732
X4.2913Y-4.3543
X4.2913Y-4.4094
X4.2913Y-4.4567
X4.3Y-4.5
X4.3Y-4.55
X4.3Y-4.6
X4.3Y-4.65
X4.3Y-4.7
X4.3031Y-4.2362
X4.3031Y-4.2835
X4.3228Y-4.3701
X4.3307Y-4.0354
X4.3307Y-4.0748
X4.3346Y-4.2677
X4.3386Y-4.4094
X4.3465Y-4.4567
X4.3465Y-4.5039
X4.35Y-4.55
X4.35Y-4.6
X4.35Y-4.65
X4.35Y-4.7
X4.3504Y-4.2362
X4.3504Y-4.2992
X4.3543Y-4.3543
X4.3722Y-4.2677
X4.378Y-4.185
X4.3898Y-4.0354
X4.3898Y-4.0945
X4.4Y-4.6
X4.4Y-4.65
X4.4Y-4.7
X4.4159Y-4.252
X4.4291Y-3.9803
X4.45Y-4.65
X4.45Y-4.7
X4.4573Y-4.2835
X4.4646Y-4.3634
X4.4648Y-4.2466
X4.468Y-4.4418
X4.4685Y-4.0157
X4.4803Y-4.5512
X4.4882Y-3.9567
X4.4882Y-4.2992
X4.4961Y-4.4014
X4.5Y-4.0
X4.5Y-4.65
X4.5Y-4.7
X4.5039Y-4.3701
X4.5276Y-4.0748
X4.5354Y-4.3858
X4.5433Y-4.2756
X4.5433Y-4.4528
X4.5472Y-4.5118
X4.55Y-4.65
X4.55Y-4.7
X4.5591Y-4.3059
X4.5669Y-3.9567
X4.5748Y-4.3661
X4.5866Y-4.0748
X4.5984Y-4.5394
X4.6Y-4.65
X4.6Y-4.7
X4.6217Y-4.4997
X4.626Y-3.9567
X4.6366Y-4.0633
X4.6457Y-4.1142
X4.65Y-4.65
X4.65Y-4.7
X4.6535Y-4.252
X4.6535Y-4.2913
X4.6535Y-4.3307
X4.6535Y-4.3701
X4.6571Y-4.4632
X4.6805Y-4.1299
X4.685Y-4.2126
X4.685Y-4.252
X4.685Y-4.2913
X4.685Y-4.3307
X4.685Y-4.3701
X4.689Y-4.4685
X4.689Y-4.4685
X4.7Y-4.65
X4.7Y-4.7
X4.7165Y-4.0866
X4.7165Y-4.1181
X4.7205Y-4.4646
X4.7244Y-3.9567
X4.7244Y-4.2126
X4.7244Y-4.252
X4.7244Y-4.2913
X4.7244Y-4.3307
X4.7244Y-4.3701
X4.75Y-4.65
X4.75Y-4.7
X4.7638Y-4.2126
X4.7638Y-4.252
X4.7638Y-4.2913
X4.7638Y-4.3307
X4.7638Y-4.3701
X4.7717Y-4.5276
X4.8031Y-4.2126
X4.8031Y-4.252
X4.8031Y-4.2913
X4.8031Y-4.3307
X4.8031Y-4.3701
X4.811Y-4.5276
X4.8425Y-4.2126
X4.8425Y-4.252
X4.8425Y-4.2913
X4.8425Y-4.3307
X4.8425Y-4.3701
X4.8504Y-3.9803
X4.8622Y-4.7008
X4.8819Y-4.5276
X4.9116Y-4.4004
X4.9134Y-4.3228
X4.9157Y-4.2459
X4.9213Y-4.1929
X4.9213Y-4.5276
X4.9528Y-4.0748
X4.9528Y-4.2362
X4.9606Y-4.1142
X4.969Y-4.1571
X4.9764Y-4.2756
X4.9882Y-4.0709
X5.0Y-3.9764
X5.0Y-4.1142
X5.0Y-4.3307
X5.0Y-4.3701
X5.0Y-4.4803
X5.0Y-4.5276
X5.0197Y-4.0748
X5.0394Y-4.2244
X5.0394Y-4.5276
X5.0472Y-4.4567
X5.0502Y-4.1811
X5.0591Y-3.9764
X5.0591Y-4.0748
X5.0945Y-4.6575
X5.1Y-4.0
X5.1142Y-4.2717
X5.1142Y-4.6063
X5.1181Y-4.3937
X5.15Y-4.0
X5.15Y-4.7
X5.1575Y-4.5748
X5.1598Y-4.1992
X5.1598Y-4.2492
X5.1598Y-4.2992
X5.1654Y-4.15
X5.1732Y-4.3386
X5.2Y-4.0
X5.2Y-4.1
X5.2Y-4.55
X5.2Y-4.7
X5.2098Y-4.1992
X5.2098Y-4.2492
X5.2098Y-4.2992
X5.2098Y-4.3492
X5.2283Y-4.4331
X5.25Y-4.0
X5.25Y-4.1
X5.25Y-4.4
X5.25Y-4.55
X5.25Y-4.7
X5.2598Y-4.1992
X5.2598Y-4.2492
X5.2598Y-4.2992
X5.2598Y-4.3492
X5.2756Y-4.4331
T3
X4.5817Y-4.0089
X4.6817Y-4.0089
X4.7817Y-4.0089
X4.811Y-4.6575
X4.911Y-4.6575
X5.011Y-4.6575
T4
X4.0165Y-4.2244
X4.0165Y-4.4244
X4.1165Y-4.3244
X4.2165Y-4.2244
X4.2165Y-4.4244
T2
G00X5.1075Y-4.149
M15
G01X5.072Y-4.149
M16
G05
G00X5.1075Y-4.4896
M15
G01X5.072Y-4.4896
M16
G05
G00X5.2669Y-4.149
M15
G01X5.2433Y-4.149
M16
G05
G00X5.2669Y-4.4896
M15
G01X5.2433Y-4.4896
M16
G05
M30
