%TF.GenerationSoftware,KiCad,Pcbnew,8.0.0*%
%TF.CreationDate,2024-03-05T20:17:21-06:00*%
%TF.ProjectId,rigel-a-hw,72696765-6c2d-4612-9d68-772e6b696361,rev?*%
%TF.SameCoordinates,Original*%
%TF.FileFunction,Copper,L1,Top*%
%TF.FilePolarity,Positive*%
%FSLAX46Y46*%
G04 Gerber Fmt 4.6, Leading zero omitted, Abs format (unit mm)*
G04 Created by KiCad (PCBNEW 8.0.0) date 2024-03-05 20:17:21*
%MOMM*%
%LPD*%
G01*
G04 APERTURE LIST*
G04 Aperture macros list*
%AMRoundRect*
0 Rectangle with rounded corners*
0 $1 Rounding radius*
0 $2 $3 $4 $5 $6 $7 $8 $9 X,Y pos of 4 corners*
0 Add a 4 corners polygon primitive as box body*
4,1,4,$2,$3,$4,$5,$6,$7,$8,$9,$2,$3,0*
0 Add four circle primitives for the rounded corners*
1,1,$1+$1,$2,$3*
1,1,$1+$1,$4,$5*
1,1,$1+$1,$6,$7*
1,1,$1+$1,$8,$9*
0 Add four rect primitives between the rounded corners*
20,1,$1+$1,$2,$3,$4,$5,0*
20,1,$1+$1,$4,$5,$6,$7,0*
20,1,$1+$1,$6,$7,$8,$9,0*
20,1,$1+$1,$8,$9,$2,$3,0*%
G04 Aperture macros list end*
%TA.AperFunction,SMDPad,CuDef*%
%ADD10RoundRect,0.140000X-0.170000X0.140000X-0.170000X-0.140000X0.170000X-0.140000X0.170000X0.140000X0*%
%TD*%
%TA.AperFunction,SMDPad,CuDef*%
%ADD11RoundRect,0.140000X0.140000X0.170000X-0.140000X0.170000X-0.140000X-0.170000X0.140000X-0.170000X0*%
%TD*%
%TA.AperFunction,SMDPad,CuDef*%
%ADD12C,0.320000*%
%TD*%
%TA.AperFunction,SMDPad,CuDef*%
%ADD13RoundRect,0.062500X-0.062500X0.375000X-0.062500X-0.375000X0.062500X-0.375000X0.062500X0.375000X0*%
%TD*%
%TA.AperFunction,SMDPad,CuDef*%
%ADD14RoundRect,0.062500X-0.375000X0.062500X-0.375000X-0.062500X0.375000X-0.062500X0.375000X0.062500X0*%
%TD*%
%TA.AperFunction,HeatsinkPad*%
%ADD15R,5.600000X5.600000*%
%TD*%
%TA.AperFunction,ComponentPad*%
%ADD16C,2.300000*%
%TD*%
%TA.AperFunction,ComponentPad*%
%ADD17R,1.700000X1.700000*%
%TD*%
%TA.AperFunction,ComponentPad*%
%ADD18O,1.700000X1.700000*%
%TD*%
%TA.AperFunction,ComponentPad*%
%ADD19O,1.800000X1.200000*%
%TD*%
%TA.AperFunction,ComponentPad*%
%ADD20O,2.000000X1.100000*%
%TD*%
%TA.AperFunction,ViaPad*%
%ADD21C,0.450000*%
%TD*%
%TA.AperFunction,Conductor*%
%ADD22C,0.200000*%
%TD*%
%TA.AperFunction,Conductor*%
%ADD23C,0.300000*%
%TD*%
%TA.AperFunction,Conductor*%
%ADD24C,0.342392*%
%TD*%
%TA.AperFunction,Conductor*%
%ADD25C,0.250000*%
%TD*%
G04 APERTURE END LIST*
D10*
%TO.P,C22,1*%
%TO.N,Net-(IC1-RFO_OUT)*%
X111400000Y-113920000D03*
%TO.P,C22,2*%
%TO.N,GND*%
X111400000Y-114880000D03*
%TD*%
D11*
%TO.P,C20,1*%
%TO.N,Net-(IC1-RFI_IN)*%
X109480000Y-109800000D03*
%TO.P,C20,2*%
%TO.N,Net-(U6-IN)*%
X108520000Y-109800000D03*
%TD*%
D12*
%TO.P,IC1,A1,RFO_IN*%
%TO.N,Net-(IC1-RFO_IN)*%
X112600000Y-111140000D03*
%TO.P,IC1,A2,RFI_N_OUT*%
%TO.N,/RFI-*%
X112600000Y-110430000D03*
%TO.P,IC1,A3,RFI_P_OUT*%
%TO.N,/RFI+*%
X112600000Y-109800000D03*
%TO.P,IC1,B1,GND2*%
%TO.N,GND*%
X111825000Y-111480000D03*
%TO.P,IC1,B2,GND3*%
X111910000Y-110640000D03*
%TO.P,IC1,C1,RFO_OUT*%
%TO.N,Net-(IC1-RFO_OUT)*%
X111220000Y-111480000D03*
%TO.P,IC1,C2,GND1*%
%TO.N,GND*%
X111220000Y-110640000D03*
%TO.P,IC1,C3,RFI_IN*%
%TO.N,Net-(IC1-RFI_IN)*%
X111220000Y-109800000D03*
%TD*%
D13*
%TO.P,U1,1,PB3*%
%TO.N,unconnected-(U1-PB3-Pad1)*%
X123360000Y-105662500D03*
%TO.P,U1,2,PB4*%
%TO.N,unconnected-(U1-PB4-Pad2)*%
X122860000Y-105662500D03*
%TO.P,U1,3,PB5*%
%TO.N,unconnected-(U1-PB5-Pad3)*%
X122360000Y-105662500D03*
%TO.P,U1,4,PB6*%
%TO.N,/USART1_TX*%
X121860000Y-105662500D03*
%TO.P,U1,5,PB7*%
%TO.N,/USART1_RX*%
X121360000Y-105662500D03*
%TO.P,U1,6,PB8*%
%TO.N,unconnected-(U1-PB8-Pad6)*%
X120860000Y-105662500D03*
%TO.P,U1,7,PA0*%
%TO.N,unconnected-(U1-PA0-Pad7)*%
X120360000Y-105662500D03*
%TO.P,U1,8,PA1*%
%TO.N,unconnected-(U1-PA1-Pad8)*%
X119860000Y-105662500D03*
%TO.P,U1,9,PA2*%
%TO.N,/USART2_TX*%
X119360000Y-105662500D03*
%TO.P,U1,10,PA3*%
%TO.N,/USART2_RX*%
X118860000Y-105662500D03*
%TO.P,U1,11,VDD*%
%TO.N,+3.3V*%
X118360000Y-105662500D03*
%TO.P,U1,12,PA4*%
%TO.N,unconnected-(U1-PA4-Pad12)*%
X117860000Y-105662500D03*
D14*
%TO.P,U1,13,PA5*%
%TO.N,unconnected-(U1-PA5-Pad13)*%
X117172500Y-106350000D03*
%TO.P,U1,14,PA6*%
%TO.N,unconnected-(U1-PA6-Pad14)*%
X117172500Y-106850000D03*
%TO.P,U1,15,PA7*%
%TO.N,unconnected-(U1-PA7-Pad15)*%
X117172500Y-107350000D03*
%TO.P,U1,16,PA8*%
%TO.N,/TIM1_CH1_LED_1*%
X117172500Y-107850000D03*
%TO.P,U1,17,PA9*%
%TO.N,/TIM1_CH2_LED_2*%
X117172500Y-108350000D03*
%TO.P,U1,18,NRST*%
%TO.N,/RESET*%
X117172500Y-108850000D03*
%TO.P,U1,19,PH3*%
%TO.N,/BOOT0*%
X117172500Y-109350000D03*
%TO.P,U1,20,RFI_P*%
%TO.N,/RFI+*%
X117172500Y-109850000D03*
%TO.P,U1,21,RFI_N*%
%TO.N,/RFI-*%
X117172500Y-110350000D03*
%TO.P,U1,22,RFO_LP*%
%TO.N,unconnected-(U1-RFO_LP-Pad22)*%
X117172500Y-110850000D03*
%TO.P,U1,23,RFO_HP*%
%TO.N,unconnected-(U1-RFO_HP-Pad23)*%
X117172500Y-111350000D03*
%TO.P,U1,24,VR_PA*%
%TO.N,unconnected-(U1-VR_PA-Pad24)*%
X117172500Y-111850000D03*
D13*
%TO.P,U1,25,VDDPA*%
%TO.N,+3.3V*%
X117860000Y-112537500D03*
%TO.P,U1,26,OSC_IN*%
%TO.N,/OSC_IN*%
X118360000Y-112537500D03*
%TO.P,U1,27,OSC_OUT*%
%TO.N,unconnected-(U1-OSC_OUT-Pad27)*%
X118860000Y-112537500D03*
%TO.P,U1,28,VDDRF*%
%TO.N,+3.3V*%
X119360000Y-112537500D03*
%TO.P,U1,29,VDDRF1V55*%
%TO.N,+1V5*%
X119860000Y-112537500D03*
%TO.P,U1,30,PB0*%
%TO.N,/PB0-VDD_TCXO*%
X120360000Y-112537500D03*
%TO.P,U1,31,PB2*%
%TO.N,unconnected-(U1-PB2-Pad31)*%
X120860000Y-112537500D03*
%TO.P,U1,32,PB12*%
%TO.N,unconnected-(U1-PB12-Pad32)*%
X121360000Y-112537500D03*
%TO.P,U1,33,PA10*%
%TO.N,unconnected-(U1-PA10-Pad33)*%
X121860000Y-112537500D03*
%TO.P,U1,34,PA11*%
%TO.N,unconnected-(U1-PA11-Pad34)*%
X122360000Y-112537500D03*
%TO.P,U1,35,PA12*%
%TO.N,unconnected-(U1-PA12-Pad35)*%
X122860000Y-112537500D03*
%TO.P,U1,36,PA13*%
%TO.N,/JTMS{slash}SWDIO*%
X123360000Y-112537500D03*
D14*
%TO.P,U1,37,VBAT*%
%TO.N,+3.3V*%
X124047500Y-111850000D03*
%TO.P,U1,38,PC13*%
%TO.N,unconnected-(U1-PC13-Pad38)*%
X124047500Y-111350000D03*
%TO.P,U1,39,PC14*%
%TO.N,unconnected-(U1-PC14-Pad39)*%
X124047500Y-110850000D03*
%TO.P,U1,40,PC15*%
%TO.N,unconnected-(U1-PC15-Pad40)*%
X124047500Y-110350000D03*
%TO.P,U1,41,VDDA*%
%TO.N,Net-(U1-VDDA)*%
X124047500Y-109850000D03*
%TO.P,U1,42,PA14*%
%TO.N,/JTCK{slash}SWCLK*%
X124047500Y-109350000D03*
%TO.P,U1,43,PA15*%
%TO.N,unconnected-(U1-PA15-Pad43)*%
X124047500Y-108850000D03*
%TO.P,U1,44,VDD*%
%TO.N,+3.3V*%
X124047500Y-108350000D03*
%TO.P,U1,45,VFBSMPS*%
%TO.N,+1V5*%
X124047500Y-107850000D03*
%TO.P,U1,46,VDDSMPS*%
%TO.N,+3.3V*%
X124047500Y-107350000D03*
%TO.P,U1,47,VLXSMPS*%
%TO.N,unconnected-(U1-VLXSMPS-Pad47)*%
X124047500Y-106850000D03*
%TO.P,U1,48,VSSSMPS*%
%TO.N,GND*%
X124047500Y-106350000D03*
D15*
%TO.P,U1,49,VSS*%
X120610000Y-109100000D03*
%TD*%
D10*
%TO.P,C21,1*%
%TO.N,Net-(IC1-RFO_IN)*%
X112800000Y-114320000D03*
%TO.P,C21,2*%
%TO.N,GND*%
X112800000Y-115280000D03*
%TD*%
D16*
%TO.P,U6,1,GND*%
%TO.N,GND*%
X102019990Y-107300000D03*
%TO.P,U6,2,GND*%
X102019990Y-112380010D03*
%TO.P,U6,3,GND*%
X107100000Y-112380010D03*
%TO.P,U6,4,GND*%
X107100000Y-107300000D03*
%TO.P,U6,5,IN*%
%TO.N,Net-(U6-IN)*%
X104559995Y-109840005D03*
%TD*%
D17*
%TO.P,J3,1,Pin_1*%
%TO.N,GND*%
X116375000Y-101825000D03*
D18*
%TO.P,J3,2,Pin_2*%
%TO.N,/USART1_RX*%
X118915000Y-101825000D03*
%TO.P,J3,3,Pin_3*%
%TO.N,/USART1_TX*%
X121455000Y-101825000D03*
%TD*%
D19*
%TO.P,U4,13,SHELL*%
%TO.N,unconnected-(U4-SHELL-Pad13)_0*%
X133479960Y-105384861D03*
D20*
%TO.N,unconnected-(U4-SHELL-Pad13)*%
X129279807Y-105384861D03*
D19*
%TO.P,U4,14,SHELL*%
%TO.N,unconnected-(U4-SHELL-Pad14)_0*%
X133479960Y-114034849D03*
D20*
%TO.N,unconnected-(U4-SHELL-Pad14)*%
X129279807Y-114034849D03*
%TD*%
D17*
%TO.P,J1,1,Pin_1*%
%TO.N,GND*%
X127280000Y-118300000D03*
D18*
%TO.P,J1,2,Pin_2*%
%TO.N,/JTCK{slash}SWCLK*%
X124740000Y-118300000D03*
%TO.P,J1,3,Pin_3*%
%TO.N,/JTMS{slash}SWDIO*%
X122200000Y-118300000D03*
%TD*%
D21*
%TO.N,+3.3V*%
X119100000Y-113500000D03*
%TO.N,GND*%
X126213102Y-105591148D03*
%TO.N,+3.3V*%
X125800000Y-107600000D03*
X126400000Y-108600000D03*
%TO.N,+1V5*%
X124859082Y-107847105D03*
%TO.N,GND*%
X134000000Y-112600000D03*
X132800000Y-112600000D03*
%TO.N,/RESET*%
X115400000Y-108600000D03*
%TO.N,+3.3V*%
X119800000Y-103800000D03*
%TO.N,+1V5*%
X119900000Y-113400000D03*
%TO.N,GND*%
X104140000Y-115570000D03*
X114300000Y-119380000D03*
X129540000Y-101600000D03*
X107950000Y-114300000D03*
X123000000Y-108000000D03*
X133350000Y-111760000D03*
X131060000Y-106660000D03*
X128500000Y-103500000D03*
X109220000Y-116840000D03*
X132080000Y-115570000D03*
X109800000Y-111000000D03*
X120000000Y-100500000D03*
X115500000Y-114600000D03*
X128500000Y-101000000D03*
X102870000Y-104140000D03*
X118200000Y-110000000D03*
X127000000Y-111000000D03*
X121000000Y-108000000D03*
X101600000Y-119380000D03*
X116000000Y-100500000D03*
X114000000Y-109200000D03*
X113215018Y-108800000D03*
X113800000Y-115600000D03*
X133600000Y-107930000D03*
X129900000Y-117000000D03*
X111500000Y-104000000D03*
X106000000Y-105800000D03*
X118200000Y-109000000D03*
X118110000Y-118110000D03*
X102000000Y-100800000D03*
X105410000Y-116840000D03*
X110500000Y-109200000D03*
X114200000Y-111795000D03*
X104200000Y-100500000D03*
X132080000Y-119380000D03*
X124000000Y-115000000D03*
X132080000Y-104140000D03*
X128200000Y-113200000D03*
X109000000Y-110600000D03*
X119000000Y-107000000D03*
X103700000Y-106200000D03*
X122000000Y-108000000D03*
X121200000Y-115000000D03*
X110100000Y-108400000D03*
X126000000Y-104500000D03*
X113030000Y-119380000D03*
X102870000Y-101600000D03*
X104600000Y-101300000D03*
X105500000Y-100500000D03*
X133600000Y-110470000D03*
X114000000Y-100500000D03*
X107300000Y-109000000D03*
X123000000Y-107000000D03*
X132330000Y-106660000D03*
X105500000Y-102000000D03*
X120000000Y-107000000D03*
X101600000Y-104140000D03*
X123000000Y-110000000D03*
X121000000Y-109000000D03*
X132330000Y-110470000D03*
X133350000Y-101600000D03*
X109000000Y-113200000D03*
X125800000Y-103500000D03*
X104600000Y-105800000D03*
X116840000Y-119380000D03*
X109300000Y-108800000D03*
X133350000Y-115570000D03*
X113405054Y-107863208D03*
X105410000Y-114300000D03*
X116500000Y-103500000D03*
X123000000Y-109000000D03*
X122000000Y-109000000D03*
X122200000Y-115000000D03*
X110490000Y-116840000D03*
X110490000Y-115570000D03*
X119000000Y-111000000D03*
X107300000Y-110400000D03*
X119380000Y-118110000D03*
X115570000Y-119380000D03*
X108200000Y-110600000D03*
X132330000Y-109200000D03*
X113030000Y-118110000D03*
X121000000Y-107000000D03*
X106680000Y-118110000D03*
X110500000Y-107600000D03*
X122000000Y-111000000D03*
X133600000Y-109200000D03*
X109220000Y-118110000D03*
X127500000Y-103500000D03*
X120650000Y-119380000D03*
X121000000Y-111000000D03*
X108700000Y-106000000D03*
X107000000Y-100500000D03*
X112165018Y-108000000D03*
X120000000Y-111000000D03*
X107950000Y-118110000D03*
X110600000Y-110600000D03*
X114300000Y-101600000D03*
X104600000Y-117500000D03*
X125000000Y-115000000D03*
X110490000Y-119380000D03*
X110000000Y-102500000D03*
X109220000Y-115570000D03*
X101600000Y-115570000D03*
X128275000Y-106200000D03*
X110000000Y-103500000D03*
X113500000Y-102000000D03*
X107950000Y-119380000D03*
X101000000Y-110500000D03*
X110400000Y-113200000D03*
X131060000Y-107930000D03*
X104140000Y-119380000D03*
X133350000Y-104140000D03*
X111055010Y-108400000D03*
X101600000Y-105410000D03*
X113400000Y-110830000D03*
X123000000Y-111000000D03*
X104140000Y-114300000D03*
X106680000Y-119380000D03*
X114300000Y-118110000D03*
X108500000Y-100500000D03*
X127000000Y-101000000D03*
X106680000Y-116840000D03*
X102870000Y-114300000D03*
X104000000Y-102000000D03*
X119380000Y-119380000D03*
X119000000Y-110000000D03*
X128000000Y-115000000D03*
X109220000Y-119380000D03*
X120650000Y-118110000D03*
X130810000Y-101600000D03*
X132330000Y-107930000D03*
X116840000Y-118110000D03*
X127000000Y-110000000D03*
X101000000Y-109000000D03*
X101600000Y-114300000D03*
X123500000Y-119400000D03*
X110490000Y-118110000D03*
X107000000Y-102000000D03*
X108400000Y-108800000D03*
X122000000Y-107000000D03*
X116200000Y-110900000D03*
X102800000Y-100400000D03*
X106100000Y-104800000D03*
X131060000Y-109200000D03*
X107950000Y-116840000D03*
X133600000Y-106660000D03*
X107950000Y-115570000D03*
X102870000Y-105410000D03*
X105410000Y-118110000D03*
X117500000Y-100500000D03*
X115570000Y-118110000D03*
X131000000Y-116200000D03*
X127000000Y-104500000D03*
X120000000Y-110000000D03*
X114400000Y-111000000D03*
X111500000Y-102500000D03*
X130810000Y-119380000D03*
X115200000Y-111400000D03*
X118200000Y-111000000D03*
X101600000Y-101600000D03*
X102870000Y-119380000D03*
X109300000Y-107600000D03*
X115000000Y-103500000D03*
X105410000Y-119380000D03*
X111760000Y-119380000D03*
X113488028Y-112821833D03*
X118200000Y-108000000D03*
X120000000Y-108000000D03*
X122000000Y-110000000D03*
X129400000Y-118300000D03*
X105200000Y-106500000D03*
X133350000Y-119380000D03*
X131200000Y-105410000D03*
X121000000Y-110000000D03*
X106100000Y-101300000D03*
X111760000Y-118110000D03*
X110200000Y-112000000D03*
X109000000Y-112000000D03*
X110400000Y-114400000D03*
X132080000Y-101600000D03*
X131400000Y-110200000D03*
X120000000Y-109000000D03*
X106680000Y-115570000D03*
X117770033Y-103206970D03*
X102870000Y-115570000D03*
X111760000Y-116840000D03*
X105410000Y-115570000D03*
X102870000Y-102870000D03*
X107800000Y-101300000D03*
X101600000Y-102870000D03*
X119000000Y-109000000D03*
X109220000Y-114300000D03*
X127000000Y-115000000D03*
X106680000Y-114300000D03*
X119000000Y-108000000D03*
X118110000Y-119380000D03*
X115400000Y-113100000D03*
%TO.N,+3.3V*%
X126700000Y-103400000D03*
X118000000Y-104500000D03*
X117391971Y-114291386D03*
X123200000Y-101100000D03*
X119100000Y-113500000D03*
X125000000Y-106500000D03*
X124755131Y-111770495D03*
%TO.N,+5V*%
X128000000Y-107300000D03*
X130000000Y-111600000D03*
%TO.N,/PB0-VDD_TCXO*%
X116800000Y-115300000D03*
%TO.N,/OSC_IN*%
X118290538Y-113366470D03*
%TO.N,Net-(U4-CC1)*%
X127000000Y-113800000D03*
X129900000Y-108500000D03*
%TO.N,/BOOT0*%
X115800000Y-109370000D03*
%TO.N,/TIM1_CH1_LED_1*%
X112500000Y-101100000D03*
%TO.N,/USART2_RX*%
X118884625Y-104900000D03*
%TO.N,/USART2_TX*%
X119800000Y-104600000D03*
%TO.N,/TIM1_CH2_LED_2*%
X111200000Y-106300000D03*
%TO.N,Net-(U1-VDDA)*%
X124800000Y-109800000D03*
%TD*%
D22*
%TO.N,Net-(U4-CC1)*%
X127000000Y-113600000D02*
X127000000Y-113800000D01*
X129900000Y-110700000D02*
X127000000Y-113600000D01*
X129900000Y-108500000D02*
X129900000Y-110700000D01*
D23*
%TO.N,+5V*%
X130485000Y-111115000D02*
X130000000Y-111600000D01*
X130485000Y-108168173D02*
X130485000Y-111115000D01*
X130201827Y-107885000D02*
X130485000Y-108168173D01*
X128585000Y-107885000D02*
X130201827Y-107885000D01*
X128000000Y-107300000D02*
X128585000Y-107885000D01*
D22*
%TO.N,/JTCK{slash}SWCLK*%
X125017463Y-109275000D02*
X125600000Y-109857537D01*
X125600000Y-109857537D02*
X125600000Y-117440000D01*
X125600000Y-117440000D02*
X124740000Y-118300000D01*
X124122500Y-109275000D02*
X125017463Y-109275000D01*
X124047500Y-109350000D02*
X124122500Y-109275000D01*
D23*
%TO.N,+3.3V*%
X124570096Y-107350000D02*
X124047500Y-107350000D01*
X125000000Y-106500000D02*
X125000000Y-106920096D01*
X125000000Y-106920096D02*
X124570096Y-107350000D01*
D22*
X125800000Y-107800000D02*
X125800000Y-107600000D01*
X125212955Y-108387045D02*
X125800000Y-107800000D01*
X124084545Y-108387045D02*
X125212955Y-108387045D01*
X124084545Y-108387045D02*
X124047500Y-108350000D01*
X126187045Y-108387045D02*
X124084545Y-108387045D01*
X126400000Y-108600000D02*
X126187045Y-108387045D01*
D23*
%TO.N,Net-(U1-VDDA)*%
X124800000Y-109800000D02*
X124750000Y-109850000D01*
X124750000Y-109850000D02*
X124047500Y-109850000D01*
%TO.N,+3.3V*%
X124755131Y-111770495D02*
X124675626Y-111850000D01*
X124675626Y-111850000D02*
X124047500Y-111850000D01*
D22*
%TO.N,/RESET*%
X116022463Y-108850000D02*
X117172500Y-108850000D01*
X115772463Y-108600000D02*
X116022463Y-108850000D01*
X115400000Y-108600000D02*
X115772463Y-108600000D01*
%TO.N,/BOOT0*%
X115800000Y-109370000D02*
X115820000Y-109350000D01*
X115820000Y-109350000D02*
X117172500Y-109350000D01*
%TO.N,/USART2_TX*%
X119800000Y-104727088D02*
X119360000Y-105167088D01*
X119800000Y-104600000D02*
X119800000Y-104727088D01*
X119360000Y-105167088D02*
X119360000Y-105662500D01*
%TO.N,+3.3V*%
X118200000Y-104700000D02*
X118000000Y-104500000D01*
X118200000Y-105050614D02*
X118200000Y-104700000D01*
X118360000Y-105210614D02*
X118200000Y-105050614D01*
X118360000Y-105662500D02*
X118360000Y-105210614D01*
D23*
%TO.N,+1V5*%
X119860000Y-113360000D02*
X119860000Y-112537500D01*
X124750000Y-107850000D02*
X124047500Y-107850000D01*
X119900000Y-113400000D02*
X119860000Y-113360000D01*
D24*
%TO.N,GND*%
X111910000Y-110640000D02*
X111910000Y-111395000D01*
X111910000Y-110640000D02*
X111220000Y-110640000D01*
X111910000Y-111395000D02*
X111825000Y-111480000D01*
D22*
%TO.N,+3.3V*%
X119360000Y-113240000D02*
X119360000Y-112537500D01*
D25*
X117391971Y-113005529D02*
X117860000Y-112537500D01*
D22*
X117800000Y-112597500D02*
X117860000Y-112537500D01*
X119100000Y-113500000D02*
X119360000Y-113240000D01*
D25*
X117391971Y-114291386D02*
X117391971Y-113005529D01*
%TO.N,/PB0-VDD_TCXO*%
X120360000Y-112537500D02*
X120360000Y-113082182D01*
X120600000Y-113477818D02*
X118777818Y-115300000D01*
X120600000Y-113322182D02*
X120600000Y-113477818D01*
X118777818Y-115300000D02*
X116800000Y-115300000D01*
X120360000Y-113082182D02*
X120600000Y-113322182D01*
D23*
%TO.N,/OSC_IN*%
X118290538Y-113366470D02*
X118360000Y-113297008D01*
X118360000Y-113297008D02*
X118360000Y-112537500D01*
%TO.N,Net-(U6-IN)*%
X108520000Y-109800000D02*
X104600000Y-109800000D01*
X104600000Y-109800000D02*
X104559995Y-109840005D01*
%TO.N,Net-(IC1-RFO_IN)*%
X112800000Y-111340000D02*
X112600000Y-111140000D01*
X112800000Y-114320000D02*
X112800000Y-111340000D01*
D22*
%TO.N,/RFI-*%
X116471249Y-110305000D02*
X113181174Y-110305000D01*
X113181174Y-110305000D02*
X113056174Y-110430000D01*
X117172500Y-110350000D02*
X116516249Y-110350000D01*
X113056174Y-110430000D02*
X112600000Y-110430000D01*
X116516249Y-110350000D02*
X116471249Y-110305000D01*
D23*
%TO.N,Net-(IC1-RFI_IN)*%
X111220000Y-109800000D02*
X109480000Y-109800000D01*
D22*
%TO.N,/RFI+*%
X116471249Y-109895000D02*
X113181174Y-109895000D01*
X113086174Y-109800000D02*
X112600000Y-109800000D01*
X117172500Y-109850000D02*
X116516249Y-109850000D01*
X116516249Y-109850000D02*
X116471249Y-109895000D01*
X113181174Y-109895000D02*
X113086174Y-109800000D01*
%TO.N,/JTMS{slash}SWDIO*%
X123345000Y-116855000D02*
X122370000Y-117830000D01*
X123345000Y-116855000D02*
X123345000Y-112552500D01*
%TO.N,/USART1_TX*%
X121860000Y-102260000D02*
X121860000Y-105662500D01*
%TO.N,/USART1_RX*%
X118960000Y-101900000D02*
X121360000Y-104300000D01*
X121360000Y-104300000D02*
X121360000Y-105662500D01*
D23*
%TO.N,/TIM1_CH1_LED_1*%
X117172500Y-107850000D02*
X116457106Y-107850000D01*
X112500000Y-103892894D02*
X112500000Y-101100000D01*
X116457106Y-107850000D02*
X112500000Y-103892894D01*
D22*
%TO.N,/USART2_RX*%
X118884625Y-104900000D02*
X118884625Y-105637875D01*
D23*
%TO.N,/TIM1_CH2_LED_2*%
X111200000Y-106300000D02*
X112000000Y-107100000D01*
X115000000Y-107100000D02*
X116300000Y-108400000D01*
X116599904Y-108400000D02*
X116649904Y-108350000D01*
X116300000Y-108400000D02*
X116599904Y-108400000D01*
X116649904Y-108350000D02*
X117172500Y-108350000D01*
X112000000Y-107100000D02*
X115000000Y-107100000D01*
%TO.N,Net-(IC1-RFO_OUT)*%
X111220000Y-113740000D02*
X111220000Y-111480000D01*
X111400000Y-113920000D02*
X111220000Y-113740000D01*
%TD*%
%TA.AperFunction,Conductor*%
%TO.N,GND*%
G36*
X133004042Y-100127765D02*
G01*
X133025793Y-100129190D01*
X133236316Y-100142988D01*
X133252375Y-100145103D01*
X133476677Y-100189720D01*
X133492322Y-100193912D01*
X133708886Y-100267426D01*
X133723857Y-100273627D01*
X133926505Y-100373561D01*
X133928960Y-100374772D01*
X133943008Y-100382882D01*
X134133152Y-100509933D01*
X134146016Y-100519804D01*
X134317946Y-100670584D01*
X134329415Y-100682053D01*
X134480195Y-100853983D01*
X134490069Y-100866851D01*
X134617117Y-101056992D01*
X134625227Y-101071039D01*
X134726369Y-101276135D01*
X134732576Y-101291120D01*
X134779761Y-101430123D01*
X134806084Y-101507666D01*
X134810282Y-101523334D01*
X134854894Y-101747612D01*
X134857012Y-101763693D01*
X134872235Y-101995956D01*
X134872500Y-102004066D01*
X134872500Y-117995933D01*
X134872235Y-118004043D01*
X134857012Y-118236306D01*
X134854894Y-118252387D01*
X134810282Y-118476665D01*
X134806084Y-118492333D01*
X134732576Y-118708879D01*
X134726369Y-118723864D01*
X134625227Y-118928960D01*
X134617117Y-118943007D01*
X134490069Y-119133148D01*
X134480195Y-119146016D01*
X134329415Y-119317946D01*
X134317946Y-119329415D01*
X134146016Y-119480195D01*
X134133148Y-119490069D01*
X133943007Y-119617117D01*
X133928960Y-119625227D01*
X133723864Y-119726369D01*
X133708879Y-119732576D01*
X133492333Y-119806084D01*
X133476665Y-119810282D01*
X133252387Y-119854894D01*
X133236306Y-119857012D01*
X133004043Y-119872235D01*
X132995933Y-119872500D01*
X102004067Y-119872500D01*
X101995957Y-119872235D01*
X101763693Y-119857012D01*
X101747612Y-119854894D01*
X101523334Y-119810282D01*
X101507666Y-119806084D01*
X101291120Y-119732576D01*
X101276135Y-119726369D01*
X101071039Y-119625227D01*
X101056992Y-119617117D01*
X100866851Y-119490069D01*
X100853983Y-119480195D01*
X100682053Y-119329415D01*
X100670584Y-119317946D01*
X100554907Y-119186043D01*
X100519801Y-119146012D01*
X100509930Y-119133148D01*
X100382882Y-118943007D01*
X100374772Y-118928960D01*
X100295631Y-118768477D01*
X100273627Y-118723857D01*
X100267426Y-118708886D01*
X100193912Y-118492322D01*
X100189720Y-118476677D01*
X100145103Y-118252375D01*
X100142988Y-118236316D01*
X100127765Y-118004042D01*
X100127500Y-117995933D01*
X100127500Y-117602351D01*
X101199500Y-117602351D01*
X101231522Y-117804534D01*
X101294781Y-117999223D01*
X101387715Y-118181613D01*
X101508028Y-118347213D01*
X101652786Y-118491971D01*
X101807749Y-118604556D01*
X101818390Y-118612287D01*
X101934607Y-118671503D01*
X102000776Y-118705218D01*
X102000778Y-118705218D01*
X102000781Y-118705220D01*
X102105137Y-118739127D01*
X102195465Y-118768477D01*
X102296557Y-118784488D01*
X102397648Y-118800500D01*
X102397649Y-118800500D01*
X102602351Y-118800500D01*
X102602352Y-118800500D01*
X102804534Y-118768477D01*
X102999219Y-118705220D01*
X103181610Y-118612287D01*
X103325299Y-118507892D01*
X103347213Y-118491971D01*
X103347215Y-118491968D01*
X103347219Y-118491966D01*
X103491966Y-118347219D01*
X103491968Y-118347215D01*
X103491971Y-118347213D01*
X103560865Y-118252387D01*
X103612287Y-118181610D01*
X103705220Y-117999219D01*
X103768477Y-117804534D01*
X103800500Y-117602352D01*
X103800500Y-117397648D01*
X103768477Y-117195466D01*
X103764328Y-117182698D01*
X103719798Y-117045649D01*
X103705220Y-117000781D01*
X103705218Y-117000778D01*
X103705218Y-117000776D01*
X103651769Y-116895878D01*
X103612287Y-116818390D01*
X103568219Y-116757735D01*
X103491971Y-116652786D01*
X103347213Y-116508028D01*
X103181613Y-116387715D01*
X103181612Y-116387714D01*
X103181610Y-116387713D01*
X103124653Y-116358691D01*
X102999223Y-116294781D01*
X102804534Y-116231522D01*
X102629995Y-116203878D01*
X102602352Y-116199500D01*
X102397648Y-116199500D01*
X102373329Y-116203351D01*
X102195465Y-116231522D01*
X102000776Y-116294781D01*
X101818386Y-116387715D01*
X101652786Y-116508028D01*
X101508028Y-116652786D01*
X101387715Y-116818386D01*
X101294781Y-117000776D01*
X101231522Y-117195465D01*
X101199500Y-117397648D01*
X101199500Y-117602351D01*
X100127500Y-117602351D01*
X100127500Y-109840005D01*
X101648037Y-109840005D01*
X101660075Y-110085047D01*
X101660075Y-110085053D01*
X101660076Y-110085055D01*
X101695000Y-110320500D01*
X101696073Y-110327730D01*
X101747950Y-110534834D01*
X101755686Y-110565715D01*
X101755691Y-110565732D01*
X101838330Y-110796693D01*
X101838338Y-110796713D01*
X101943233Y-111018496D01*
X101943236Y-111018501D01*
X101943237Y-111018503D01*
X102052531Y-111200850D01*
X102069362Y-111228930D01*
X102169597Y-111364082D01*
X102215514Y-111425993D01*
X102264461Y-111479997D01*
X102380270Y-111607771D01*
X102462216Y-111682043D01*
X102559806Y-111770495D01*
X102562053Y-111772531D01*
X102759111Y-111918679D01*
X102969545Y-112044808D01*
X103191328Y-112149703D01*
X103191342Y-112149708D01*
X103191347Y-112149710D01*
X103367217Y-112212637D01*
X103422325Y-112232355D01*
X103660311Y-112291968D01*
X103902994Y-112327966D01*
X104148037Y-112340005D01*
X104393079Y-112327966D01*
X104635762Y-112291968D01*
X104873748Y-112232355D01*
X105104745Y-112149703D01*
X105326528Y-112044808D01*
X105536962Y-111918679D01*
X105544054Y-111913419D01*
X105571875Y-111892786D01*
X105637447Y-111868661D01*
X105705653Y-111883817D01*
X105748822Y-111923460D01*
X105799999Y-111999999D01*
X105800000Y-112000000D01*
X106079949Y-111480000D01*
X110844882Y-111480000D01*
X110857973Y-111562650D01*
X110859500Y-111582049D01*
X110859500Y-113692539D01*
X110859500Y-113787461D01*
X110875275Y-113846334D01*
X110879500Y-113878427D01*
X110879500Y-114093260D01*
X110889426Y-114161391D01*
X110940803Y-114266485D01*
X111023514Y-114349196D01*
X111023515Y-114349196D01*
X111023517Y-114349198D01*
X111128607Y-114400573D01*
X111162673Y-114405536D01*
X111196739Y-114410500D01*
X111196740Y-114410500D01*
X111603261Y-114410500D01*
X111625971Y-114407191D01*
X111671393Y-114400573D01*
X111776483Y-114349198D01*
X111859198Y-114266483D01*
X111910573Y-114161393D01*
X111920500Y-114093260D01*
X111920500Y-113746740D01*
X111918305Y-113731678D01*
X111911333Y-113683821D01*
X111910573Y-113678607D01*
X111859198Y-113573517D01*
X111859196Y-113573515D01*
X111859196Y-113573514D01*
X111776485Y-113490803D01*
X111768180Y-113486743D01*
X111671393Y-113439427D01*
X111671391Y-113439426D01*
X111667891Y-113438345D01*
X111664269Y-113435944D01*
X111662742Y-113435198D01*
X111662840Y-113434997D01*
X111609651Y-113399745D01*
X111581526Y-113335787D01*
X111580500Y-113319872D01*
X111580500Y-111582049D01*
X111582027Y-111562650D01*
X111595118Y-111480000D01*
X111595118Y-111479997D01*
X111576759Y-111364084D01*
X111523478Y-111259512D01*
X111440487Y-111176521D01*
X111335915Y-111123240D01*
X111220002Y-111104882D01*
X111219998Y-111104882D01*
X111104084Y-111123240D01*
X110999512Y-111176521D01*
X110916521Y-111259512D01*
X110863240Y-111364084D01*
X110844882Y-111479997D01*
X110844882Y-111480000D01*
X106079949Y-111480000D01*
X106180168Y-111293845D01*
X106189745Y-111278771D01*
X106226711Y-111228930D01*
X106352840Y-111018496D01*
X106457735Y-110796713D01*
X106467718Y-110768812D01*
X106474264Y-110750519D01*
X106481832Y-110733513D01*
X106755211Y-110225718D01*
X106804322Y-110176022D01*
X106864393Y-110160500D01*
X108023457Y-110160500D01*
X108090496Y-110180185D01*
X108111133Y-110196814D01*
X108173517Y-110259198D01*
X108278607Y-110310573D01*
X108312673Y-110315536D01*
X108346739Y-110320500D01*
X108346740Y-110320500D01*
X108693261Y-110320500D01*
X108715971Y-110317191D01*
X108761393Y-110310573D01*
X108866483Y-110259198D01*
X108886228Y-110239453D01*
X108912319Y-110213363D01*
X108973642Y-110179878D01*
X109043334Y-110184862D01*
X109087681Y-110213363D01*
X109133514Y-110259196D01*
X109133515Y-110259196D01*
X109133517Y-110259198D01*
X109238607Y-110310573D01*
X109272673Y-110315536D01*
X109306739Y-110320500D01*
X109306740Y-110320500D01*
X109653261Y-110320500D01*
X109675971Y-110317191D01*
X109721393Y-110310573D01*
X109826483Y-110259198D01*
X109888863Y-110196817D01*
X109950184Y-110163334D01*
X109976543Y-110160500D01*
X111117951Y-110160500D01*
X111137347Y-110162026D01*
X111157180Y-110165168D01*
X111219999Y-110175118D01*
X111220000Y-110175118D01*
X111220002Y-110175118D01*
X111335915Y-110156759D01*
X111335916Y-110156758D01*
X111335918Y-110156758D01*
X111440489Y-110103477D01*
X111523477Y-110020489D01*
X111576758Y-109915918D01*
X111576758Y-109915916D01*
X111576759Y-109915915D01*
X111595118Y-109800002D01*
X111595118Y-109799997D01*
X111576759Y-109684084D01*
X111523478Y-109579512D01*
X111440487Y-109496521D01*
X111335915Y-109443240D01*
X111220002Y-109424882D01*
X111219999Y-109424882D01*
X111189095Y-109429777D01*
X111137347Y-109437973D01*
X111117951Y-109439500D01*
X109976543Y-109439500D01*
X109909504Y-109419815D01*
X109888866Y-109403185D01*
X109826483Y-109340802D01*
X109721393Y-109289427D01*
X109721391Y-109289426D01*
X109653261Y-109279500D01*
X109653260Y-109279500D01*
X109306740Y-109279500D01*
X109306739Y-109279500D01*
X109238608Y-109289426D01*
X109133514Y-109340803D01*
X109087681Y-109386637D01*
X109026358Y-109420122D01*
X108956666Y-109415138D01*
X108912319Y-109386637D01*
X108866485Y-109340803D01*
X108761391Y-109289426D01*
X108693261Y-109279500D01*
X108693260Y-109279500D01*
X108346740Y-109279500D01*
X108346739Y-109279500D01*
X108278608Y-109289426D01*
X108173516Y-109340802D01*
X108144320Y-109369999D01*
X108111136Y-109403182D01*
X108049816Y-109436666D01*
X108023457Y-109439500D01*
X106842089Y-109439500D01*
X106775050Y-109419815D01*
X106733769Y-109375855D01*
X106459330Y-108883315D01*
X106450847Y-108868091D01*
X106447074Y-108860756D01*
X106436250Y-108837870D01*
X106352840Y-108661513D01*
X106226711Y-108451079D01*
X106226710Y-108451078D01*
X106226708Y-108451074D01*
X106198467Y-108412996D01*
X106189749Y-108399492D01*
X105937524Y-107946818D01*
X105800000Y-107699999D01*
X105799999Y-107699999D01*
X105747928Y-107766948D01*
X105691231Y-107807781D01*
X105621460Y-107811478D01*
X105576184Y-107790418D01*
X105536963Y-107761330D01*
X105326535Y-107635205D01*
X105326533Y-107635204D01*
X105326528Y-107635201D01*
X105104745Y-107530306D01*
X105104725Y-107530298D01*
X104873764Y-107447659D01*
X104873752Y-107447655D01*
X104873748Y-107447654D01*
X104635762Y-107388041D01*
X104635761Y-107388040D01*
X104635758Y-107388040D01*
X104393087Y-107352044D01*
X104393085Y-107352043D01*
X104393079Y-107352043D01*
X104148037Y-107340005D01*
X104148036Y-107340005D01*
X104128203Y-107340979D01*
X103902994Y-107352043D01*
X103902988Y-107352043D01*
X103902985Y-107352044D01*
X103660314Y-107388040D01*
X103422325Y-107447654D01*
X103422308Y-107447659D01*
X103191347Y-107530298D01*
X103191327Y-107530306D01*
X103043972Y-107600000D01*
X102975227Y-107632514D01*
X102969537Y-107635205D01*
X102759113Y-107761328D01*
X102562047Y-107907482D01*
X102380270Y-108072238D01*
X102215514Y-108254015D01*
X102069360Y-108451081D01*
X101943237Y-108661505D01*
X101943234Y-108661511D01*
X101943233Y-108661513D01*
X101926191Y-108697545D01*
X101838338Y-108883295D01*
X101838330Y-108883315D01*
X101755691Y-109114276D01*
X101755686Y-109114293D01*
X101696072Y-109352282D01*
X101661627Y-109584500D01*
X101660075Y-109594962D01*
X101648037Y-109840005D01*
X100127500Y-109840005D01*
X100127500Y-106300000D01*
X110760022Y-106300000D01*
X110777843Y-106423955D01*
X110777844Y-106423959D01*
X110821257Y-106519017D01*
X110829867Y-106537870D01*
X110911876Y-106632513D01*
X110919732Y-106637561D01*
X110924760Y-106640969D01*
X110926829Y-106642446D01*
X110926832Y-106642450D01*
X111249091Y-106872635D01*
X111278816Y-106893867D01*
X111279035Y-106893999D01*
X111279390Y-106894277D01*
X111282725Y-106896659D01*
X111282620Y-106896805D01*
X111302678Y-106912502D01*
X111711528Y-107321352D01*
X111778648Y-107388472D01*
X111840113Y-107423959D01*
X111856698Y-107433535D01*
X111860852Y-107435933D01*
X111952539Y-107460500D01*
X114799314Y-107460500D01*
X114866353Y-107480185D01*
X114886995Y-107496819D01*
X115357576Y-107967400D01*
X115391061Y-108028723D01*
X115386077Y-108098415D01*
X115344205Y-108154348D01*
X115304832Y-108174058D01*
X115217226Y-108199782D01*
X115217220Y-108199785D01*
X115111880Y-108267483D01*
X115111877Y-108267485D01*
X115029867Y-108362130D01*
X115029866Y-108362131D01*
X114977844Y-108476040D01*
X114977843Y-108476044D01*
X114960022Y-108600000D01*
X114977843Y-108723955D01*
X114977844Y-108723959D01*
X115029866Y-108837868D01*
X115029867Y-108837870D01*
X115076781Y-108892011D01*
X115111877Y-108932514D01*
X115111880Y-108932516D01*
X115217220Y-109000214D01*
X115217222Y-109000214D01*
X115217227Y-109000218D01*
X115306864Y-109026538D01*
X115320537Y-109030553D01*
X115379315Y-109068328D01*
X115408339Y-109131884D01*
X115398396Y-109201041D01*
X115377844Y-109246043D01*
X115377843Y-109246044D01*
X115364220Y-109340802D01*
X115360022Y-109370000D01*
X115370014Y-109439500D01*
X115370497Y-109442853D01*
X115360554Y-109512011D01*
X115314799Y-109564815D01*
X115247759Y-109584500D01*
X113361150Y-109584500D01*
X113294111Y-109564815D01*
X113283462Y-109556234D01*
X113283271Y-109556484D01*
X113276822Y-109551535D01*
X113206025Y-109510661D01*
X113206024Y-109510660D01*
X113206023Y-109510660D01*
X113127053Y-109489500D01*
X113127052Y-109489500D01*
X113127051Y-109489500D01*
X112978222Y-109489500D01*
X112955370Y-109487376D01*
X112950171Y-109486401D01*
X112893591Y-109475792D01*
X112653496Y-109430774D01*
X112653484Y-109430772D01*
X112634320Y-109428062D01*
X112632724Y-109427909D01*
X112632238Y-109427863D01*
X112632233Y-109427862D01*
X112632226Y-109427862D01*
X112615478Y-109426789D01*
X112604021Y-109425518D01*
X112600003Y-109424882D01*
X112599997Y-109424882D01*
X112484084Y-109443240D01*
X112379512Y-109496521D01*
X112296521Y-109579512D01*
X112243240Y-109684084D01*
X112224882Y-109799997D01*
X112224882Y-109800002D01*
X112243240Y-109915915D01*
X112296522Y-110020488D01*
X112303355Y-110027322D01*
X112336838Y-110088646D01*
X112331851Y-110158338D01*
X112303355Y-110202678D01*
X112296522Y-110209511D01*
X112243240Y-110314084D01*
X112224882Y-110429997D01*
X112224882Y-110430002D01*
X112243240Y-110545915D01*
X112296521Y-110650487D01*
X112343353Y-110697320D01*
X112376837Y-110758643D01*
X112371852Y-110828335D01*
X112343353Y-110872680D01*
X112296521Y-110919512D01*
X112243240Y-111024084D01*
X112224882Y-111139997D01*
X112224882Y-111140002D01*
X112243240Y-111255915D01*
X112296521Y-111360487D01*
X112296523Y-111360489D01*
X112379511Y-111443477D01*
X112379514Y-111443478D01*
X112387408Y-111449214D01*
X112385217Y-111452228D01*
X112422575Y-111487492D01*
X112439500Y-111550030D01*
X112439500Y-113823456D01*
X112419815Y-113890495D01*
X112403181Y-113911137D01*
X112340803Y-113973514D01*
X112289426Y-114078608D01*
X112279500Y-114146739D01*
X112279500Y-114493260D01*
X112289426Y-114561391D01*
X112340803Y-114666485D01*
X112423514Y-114749196D01*
X112423515Y-114749196D01*
X112423517Y-114749198D01*
X112528607Y-114800573D01*
X112562673Y-114805536D01*
X112596739Y-114810500D01*
X112596740Y-114810500D01*
X113003261Y-114810500D01*
X113026191Y-114807159D01*
X113071393Y-114800573D01*
X113176483Y-114749198D01*
X113259198Y-114666483D01*
X113310573Y-114561393D01*
X113320500Y-114493260D01*
X113320500Y-114146740D01*
X113310573Y-114078607D01*
X113259198Y-113973517D01*
X113259196Y-113973515D01*
X113259196Y-113973514D01*
X113196819Y-113911137D01*
X113163334Y-113849814D01*
X113160500Y-113823456D01*
X113160500Y-111292541D01*
X113160500Y-111292539D01*
X113135933Y-111200852D01*
X113088472Y-111118648D01*
X113021352Y-111051528D01*
X112932056Y-110962232D01*
X112909251Y-110930844D01*
X112904130Y-110920793D01*
X112891235Y-110852123D01*
X112917513Y-110787383D01*
X112974620Y-110747127D01*
X113014616Y-110740500D01*
X113097050Y-110740500D01*
X113097053Y-110740500D01*
X113176023Y-110719340D01*
X113246826Y-110678462D01*
X113273469Y-110651819D01*
X113334792Y-110618334D01*
X113361150Y-110615500D01*
X116321882Y-110615500D01*
X116383880Y-110632111D01*
X116396400Y-110639340D01*
X116432593Y-110649037D01*
X116492253Y-110685401D01*
X116522783Y-110748248D01*
X116524500Y-110768812D01*
X116524500Y-110939390D01*
X116540339Y-111019017D01*
X116540339Y-111019018D01*
X116540340Y-111019019D01*
X116548419Y-111031110D01*
X116569296Y-111097788D01*
X116550811Y-111165168D01*
X116548423Y-111168883D01*
X116548100Y-111169367D01*
X116540339Y-111180982D01*
X116524500Y-111260609D01*
X116524500Y-111439390D01*
X116540339Y-111519017D01*
X116540339Y-111519018D01*
X116540340Y-111519019D01*
X116548419Y-111531110D01*
X116569296Y-111597788D01*
X116550811Y-111665168D01*
X116548423Y-111668883D01*
X116545706Y-111672949D01*
X116540339Y-111680982D01*
X116524500Y-111760609D01*
X116524500Y-111939390D01*
X116540339Y-112019018D01*
X116540339Y-112019019D01*
X116566268Y-112057824D01*
X116600678Y-112109322D01*
X116637064Y-112133634D01*
X116690980Y-112169660D01*
X116770609Y-112185499D01*
X116770612Y-112185500D01*
X116770614Y-112185500D01*
X117400500Y-112185500D01*
X117467539Y-112205185D01*
X117513294Y-112257989D01*
X117524500Y-112309500D01*
X117524500Y-112347169D01*
X117504815Y-112414208D01*
X117488181Y-112434850D01*
X117123505Y-112799525D01*
X117123503Y-112799528D01*
X117079335Y-112876030D01*
X117079335Y-112876031D01*
X117056471Y-112961360D01*
X117056471Y-112961362D01*
X117056471Y-113967297D01*
X117036786Y-114034336D01*
X117026186Y-114048497D01*
X117021840Y-114053511D01*
X117021837Y-114053517D01*
X116969815Y-114167426D01*
X116969814Y-114167430D01*
X116951993Y-114291386D01*
X116969814Y-114415341D01*
X116969815Y-114415345D01*
X117017448Y-114519643D01*
X117021838Y-114529256D01*
X117103847Y-114623899D01*
X117103848Y-114623900D01*
X117103851Y-114623902D01*
X117209189Y-114691599D01*
X117209193Y-114691600D01*
X117209198Y-114691604D01*
X117209203Y-114691605D01*
X117215248Y-114694366D01*
X117268053Y-114740120D01*
X117287739Y-114807159D01*
X117268056Y-114874199D01*
X117215253Y-114919955D01*
X117146095Y-114929900D01*
X117136205Y-114928066D01*
X116943550Y-114884191D01*
X116943532Y-114884188D01*
X116938580Y-114883837D01*
X116912430Y-114879126D01*
X116862618Y-114864500D01*
X116862615Y-114864500D01*
X116737385Y-114864500D01*
X116737384Y-114864500D01*
X116617227Y-114899782D01*
X116617220Y-114899785D01*
X116511880Y-114967483D01*
X116511877Y-114967485D01*
X116429867Y-115062130D01*
X116429866Y-115062131D01*
X116377844Y-115176040D01*
X116377843Y-115176044D01*
X116360022Y-115300000D01*
X116377843Y-115423955D01*
X116377844Y-115423959D01*
X116429866Y-115537868D01*
X116429867Y-115537870D01*
X116511876Y-115632513D01*
X116511877Y-115632514D01*
X116511880Y-115632516D01*
X116617220Y-115700214D01*
X116617222Y-115700214D01*
X116617227Y-115700218D01*
X116710110Y-115727491D01*
X116737384Y-115735500D01*
X116737385Y-115735500D01*
X116862617Y-115735500D01*
X116862617Y-115735499D01*
X116912800Y-115720764D01*
X116937537Y-115716859D01*
X116937501Y-115716573D01*
X116943537Y-115715809D01*
X116943545Y-115715809D01*
X117282587Y-115638595D01*
X117310120Y-115635500D01*
X118821984Y-115635500D01*
X118821987Y-115635500D01*
X118907316Y-115612636D01*
X118983820Y-115568467D01*
X120795792Y-113756492D01*
X120795797Y-113756489D01*
X120806000Y-113746285D01*
X120806002Y-113746285D01*
X120868467Y-113683820D01*
X120912636Y-113607316D01*
X120917100Y-113590652D01*
X120917102Y-113590650D01*
X120928678Y-113547447D01*
X120935500Y-113521988D01*
X120935500Y-113433649D01*
X120935500Y-113290026D01*
X120955185Y-113222987D01*
X121007989Y-113177232D01*
X121020464Y-113173203D01*
X121029014Y-113169660D01*
X121029019Y-113169660D01*
X121041108Y-113161581D01*
X121107785Y-113140703D01*
X121175166Y-113159187D01*
X121178878Y-113161573D01*
X121190981Y-113169660D01*
X121190983Y-113169660D01*
X121190985Y-113169661D01*
X121270609Y-113185499D01*
X121270612Y-113185500D01*
X121270614Y-113185500D01*
X121449388Y-113185500D01*
X121449389Y-113185499D01*
X121529019Y-113169660D01*
X121541108Y-113161581D01*
X121607785Y-113140703D01*
X121675166Y-113159187D01*
X121678878Y-113161573D01*
X121690981Y-113169660D01*
X121690983Y-113169660D01*
X121690985Y-113169661D01*
X121770609Y-113185499D01*
X121770612Y-113185500D01*
X121770614Y-113185500D01*
X121949388Y-113185500D01*
X121949389Y-113185499D01*
X122029019Y-113169660D01*
X122041108Y-113161581D01*
X122107785Y-113140703D01*
X122175166Y-113159187D01*
X122178878Y-113161573D01*
X122190981Y-113169660D01*
X122190983Y-113169660D01*
X122190985Y-113169661D01*
X122270609Y-113185499D01*
X122270612Y-113185500D01*
X122270614Y-113185500D01*
X122449388Y-113185500D01*
X122449389Y-113185499D01*
X122529019Y-113169660D01*
X122541108Y-113161581D01*
X122607785Y-113140703D01*
X122675166Y-113159187D01*
X122678878Y-113161573D01*
X122690981Y-113169660D01*
X122690983Y-113169660D01*
X122690985Y-113169661D01*
X122770609Y-113185499D01*
X122770612Y-113185500D01*
X122910500Y-113185500D01*
X122977539Y-113205185D01*
X123023294Y-113257989D01*
X123034500Y-113309500D01*
X123034500Y-116645768D01*
X123014815Y-116712807D01*
X122963787Y-116757735D01*
X122507595Y-116974845D01*
X121792133Y-117315345D01*
X121792130Y-117315346D01*
X121792126Y-117315349D01*
X121791521Y-117315708D01*
X121786705Y-117318422D01*
X121607963Y-117413962D01*
X121446484Y-117546484D01*
X121313960Y-117707965D01*
X121313956Y-117707972D01*
X121215488Y-117892193D01*
X121215487Y-117892196D01*
X121154844Y-118092107D01*
X121134369Y-118300000D01*
X121154844Y-118507892D01*
X121154845Y-118507894D01*
X121215485Y-118707799D01*
X121215486Y-118707802D01*
X121215487Y-118707803D01*
X121215488Y-118707806D01*
X121313956Y-118892027D01*
X121313960Y-118892034D01*
X121446484Y-119053515D01*
X121607965Y-119186039D01*
X121607972Y-119186043D01*
X121792193Y-119284511D01*
X121792194Y-119284511D01*
X121792201Y-119284515D01*
X121992106Y-119345155D01*
X121992105Y-119345155D01*
X122010745Y-119346990D01*
X122200000Y-119365631D01*
X122407894Y-119345155D01*
X122607799Y-119284515D01*
X122792033Y-119186040D01*
X122953515Y-119053515D01*
X123086040Y-118892033D01*
X123184515Y-118707799D01*
X123245155Y-118507894D01*
X123261055Y-118346450D01*
X123262728Y-118334990D01*
X123263383Y-118331613D01*
X123263387Y-118331605D01*
X123486418Y-117182696D01*
X123518518Y-117120639D01*
X123520410Y-117118703D01*
X123593462Y-117045652D01*
X123632710Y-116977671D01*
X123634340Y-116974848D01*
X123655500Y-116895878D01*
X123655500Y-113158249D01*
X123657651Y-113135253D01*
X123658560Y-113130437D01*
X123678162Y-113026570D01*
X123678377Y-113025465D01*
X123679658Y-113019020D01*
X123679660Y-113019019D01*
X123695500Y-112939386D01*
X123695500Y-112309500D01*
X123715185Y-112242461D01*
X123767989Y-112196706D01*
X123819500Y-112185500D01*
X123890410Y-112185500D01*
X123922502Y-112189725D01*
X123965884Y-112201348D01*
X124000039Y-112210500D01*
X124297576Y-112210500D01*
X124320499Y-112212636D01*
X124335002Y-112215365D01*
X124335005Y-112215364D01*
X124335006Y-112215365D01*
X124517596Y-112213470D01*
X124745839Y-112211102D01*
X124754792Y-112209259D01*
X124758283Y-112208541D01*
X124783281Y-112205995D01*
X124817747Y-112205995D01*
X124849381Y-112196706D01*
X124937904Y-112170713D01*
X125043255Y-112103008D01*
X125071787Y-112070079D01*
X125130564Y-112032305D01*
X125200434Y-112032305D01*
X125259212Y-112070079D01*
X125288238Y-112133634D01*
X125289500Y-112151282D01*
X125289500Y-116746540D01*
X125269815Y-116813579D01*
X125222238Y-116856798D01*
X124325688Y-117318156D01*
X124321094Y-117321056D01*
X124313372Y-117325548D01*
X124147963Y-117413962D01*
X123986484Y-117546484D01*
X123853960Y-117707965D01*
X123853956Y-117707972D01*
X123755488Y-117892193D01*
X123755487Y-117892196D01*
X123694844Y-118092107D01*
X123674369Y-118300000D01*
X123694844Y-118507892D01*
X123694845Y-118507894D01*
X123755485Y-118707799D01*
X123755486Y-118707802D01*
X123755487Y-118707803D01*
X123755488Y-118707806D01*
X123853956Y-118892027D01*
X123853960Y-118892034D01*
X123986484Y-119053515D01*
X124147965Y-119186039D01*
X124147972Y-119186043D01*
X124332193Y-119284511D01*
X124332194Y-119284511D01*
X124332201Y-119284515D01*
X124532106Y-119345155D01*
X124532105Y-119345155D01*
X124550745Y-119346990D01*
X124740000Y-119365631D01*
X124947894Y-119345155D01*
X125147799Y-119284515D01*
X125332033Y-119186040D01*
X125493515Y-119053515D01*
X125626040Y-118892033D01*
X125724515Y-118707799D01*
X125785155Y-118507894D01*
X125803627Y-118320333D01*
X125805032Y-118310300D01*
X125805659Y-118306852D01*
X125805658Y-118306852D01*
X125805660Y-118306849D01*
X125860813Y-117633078D01*
X125870408Y-117602351D01*
X131099500Y-117602351D01*
X131131522Y-117804534D01*
X131194781Y-117999223D01*
X131287715Y-118181613D01*
X131408028Y-118347213D01*
X131552786Y-118491971D01*
X131707749Y-118604556D01*
X131718390Y-118612287D01*
X131834607Y-118671503D01*
X131900776Y-118705218D01*
X131900778Y-118705218D01*
X131900781Y-118705220D01*
X132005137Y-118739127D01*
X132095465Y-118768477D01*
X132196557Y-118784488D01*
X132297648Y-118800500D01*
X132297649Y-118800500D01*
X132502351Y-118800500D01*
X132502352Y-118800500D01*
X132704534Y-118768477D01*
X132899219Y-118705220D01*
X133081610Y-118612287D01*
X133225299Y-118507892D01*
X133247213Y-118491971D01*
X133247215Y-118491968D01*
X133247219Y-118491966D01*
X133391966Y-118347219D01*
X133391968Y-118347215D01*
X133391971Y-118347213D01*
X133460865Y-118252387D01*
X133512287Y-118181610D01*
X133605220Y-117999219D01*
X133668477Y-117804534D01*
X133700500Y-117602352D01*
X133700500Y-117397648D01*
X133668477Y-117195466D01*
X133664328Y-117182698D01*
X133619798Y-117045649D01*
X133605220Y-117000781D01*
X133605218Y-117000778D01*
X133605218Y-117000776D01*
X133551769Y-116895878D01*
X133512287Y-116818390D01*
X133468219Y-116757735D01*
X133391971Y-116652786D01*
X133247213Y-116508028D01*
X133081613Y-116387715D01*
X133081612Y-116387714D01*
X133081610Y-116387713D01*
X133024653Y-116358691D01*
X132899223Y-116294781D01*
X132704534Y-116231522D01*
X132529995Y-116203878D01*
X132502352Y-116199500D01*
X132297648Y-116199500D01*
X132273329Y-116203351D01*
X132095465Y-116231522D01*
X131900776Y-116294781D01*
X131718386Y-116387715D01*
X131552786Y-116508028D01*
X131408028Y-116652786D01*
X131287715Y-116818386D01*
X131194781Y-117000776D01*
X131131522Y-117195465D01*
X131099500Y-117397648D01*
X131099500Y-117602351D01*
X125870408Y-117602351D01*
X125877014Y-117581197D01*
X125889340Y-117559849D01*
X125910500Y-117480878D01*
X125910500Y-117399121D01*
X125910500Y-117031184D01*
X125910913Y-117021068D01*
X125910947Y-117020648D01*
X125913746Y-116986460D01*
X125914285Y-116977671D01*
X125914324Y-116976716D01*
X125914429Y-116973559D01*
X125912576Y-116963566D01*
X125910500Y-116940967D01*
X125910500Y-113800000D01*
X126560022Y-113800000D01*
X126577843Y-113923955D01*
X126577844Y-113923959D01*
X126618759Y-114013547D01*
X126629867Y-114037870D01*
X126692157Y-114109756D01*
X126711877Y-114132514D01*
X126711880Y-114132516D01*
X126817220Y-114200214D01*
X126817222Y-114200214D01*
X126817227Y-114200218D01*
X126910110Y-114227491D01*
X126937384Y-114235500D01*
X126937385Y-114235500D01*
X127062616Y-114235500D01*
X127084843Y-114228972D01*
X127182773Y-114200218D01*
X127288124Y-114132513D01*
X127370133Y-114037870D01*
X127422156Y-113923956D01*
X127436041Y-113827370D01*
X127439580Y-113810848D01*
X127440649Y-113807122D01*
X127455772Y-113624871D01*
X127480931Y-113559692D01*
X127491657Y-113547455D01*
X129370442Y-111668670D01*
X129431763Y-111635187D01*
X129501455Y-111640171D01*
X129557388Y-111682043D01*
X129577097Y-111721415D01*
X129577842Y-111723953D01*
X129619525Y-111815225D01*
X129629867Y-111837870D01*
X129667362Y-111881141D01*
X129696387Y-111944694D01*
X129686444Y-112013853D01*
X129640690Y-112066658D01*
X129605747Y-112082117D01*
X129587510Y-112087004D01*
X129587503Y-112087006D01*
X129461983Y-112159475D01*
X129461975Y-112159481D01*
X129359481Y-112261975D01*
X129359475Y-112261983D01*
X129287006Y-112387503D01*
X129287004Y-112387508D01*
X129279850Y-112414208D01*
X129249487Y-112527524D01*
X129249487Y-112672476D01*
X129266793Y-112737062D01*
X129287004Y-112812491D01*
X129287006Y-112812496D01*
X129359475Y-112938016D01*
X129359479Y-112938021D01*
X129359480Y-112938023D01*
X129461977Y-113040520D01*
X129461978Y-113040521D01*
X129461980Y-113040522D01*
X129466206Y-113042962D01*
X129514422Y-113093529D01*
X129527645Y-113162136D01*
X129501677Y-113227001D01*
X129444762Y-113267529D01*
X129404206Y-113274349D01*
X128754899Y-113274349D01*
X128607984Y-113303572D01*
X128607976Y-113303574D01*
X128469577Y-113360900D01*
X128469568Y-113360905D01*
X128345016Y-113444129D01*
X128345012Y-113444132D01*
X128239090Y-113550054D01*
X128239087Y-113550058D01*
X128155863Y-113674610D01*
X128155858Y-113674619D01*
X128098532Y-113813018D01*
X128098530Y-113813026D01*
X128069307Y-113959941D01*
X128069307Y-114109756D01*
X128098530Y-114256671D01*
X128098532Y-114256679D01*
X128155858Y-114395078D01*
X128155863Y-114395087D01*
X128239087Y-114519639D01*
X128239090Y-114519643D01*
X128345012Y-114625565D01*
X128345016Y-114625568D01*
X128469568Y-114708792D01*
X128469574Y-114708795D01*
X128469575Y-114708796D01*
X128607977Y-114766124D01*
X128754899Y-114795348D01*
X128754903Y-114795349D01*
X128754904Y-114795349D01*
X129804711Y-114795349D01*
X129804712Y-114795348D01*
X129951637Y-114766124D01*
X130090039Y-114708796D01*
X130214598Y-114625568D01*
X130320526Y-114519640D01*
X130403754Y-114395081D01*
X130461082Y-114256679D01*
X130489327Y-114114680D01*
X132369460Y-114114680D01*
X132400605Y-114271255D01*
X132400608Y-114271267D01*
X132461702Y-114418763D01*
X132461704Y-114418767D01*
X132550399Y-114551508D01*
X132550405Y-114551516D01*
X132663292Y-114664403D01*
X132663300Y-114664409D01*
X132796041Y-114753104D01*
X132796045Y-114753106D01*
X132943541Y-114814200D01*
X132943546Y-114814202D01*
X133100128Y-114845348D01*
X133100132Y-114845349D01*
X133100133Y-114845349D01*
X133859788Y-114845349D01*
X133859789Y-114845348D01*
X134016374Y-114814202D01*
X134163876Y-114753105D01*
X134163878Y-114753104D01*
X134230195Y-114708792D01*
X134296624Y-114664406D01*
X134409517Y-114551513D01*
X134498216Y-114418765D01*
X134501640Y-114410500D01*
X134559311Y-114271267D01*
X134559313Y-114271263D01*
X134590460Y-114114676D01*
X134590460Y-113955022D01*
X134559313Y-113798435D01*
X134559311Y-113798430D01*
X134498217Y-113650934D01*
X134498215Y-113650930D01*
X134409520Y-113518189D01*
X134409514Y-113518181D01*
X134296627Y-113405294D01*
X134296619Y-113405288D01*
X134163878Y-113316593D01*
X134163874Y-113316591D01*
X134016378Y-113255497D01*
X134016366Y-113255494D01*
X133859791Y-113224349D01*
X133859787Y-113224349D01*
X133100133Y-113224349D01*
X133100128Y-113224349D01*
X132943553Y-113255494D01*
X132943541Y-113255497D01*
X132796045Y-113316591D01*
X132796041Y-113316593D01*
X132663300Y-113405288D01*
X132663292Y-113405294D01*
X132550405Y-113518181D01*
X132550399Y-113518189D01*
X132461704Y-113650930D01*
X132461702Y-113650934D01*
X132400608Y-113798430D01*
X132400605Y-113798442D01*
X132369460Y-113955017D01*
X132369460Y-114114680D01*
X130489327Y-114114680D01*
X130490307Y-114109752D01*
X130490307Y-113959946D01*
X130461082Y-113813019D01*
X130409662Y-113688881D01*
X130403755Y-113674619D01*
X130403750Y-113674610D01*
X130320526Y-113550058D01*
X130320523Y-113550054D01*
X130214601Y-113444132D01*
X130214597Y-113444129D01*
X130090045Y-113360905D01*
X130090035Y-113360900D01*
X130027176Y-113334863D01*
X129972773Y-113291022D01*
X129950708Y-113224728D01*
X129967987Y-113157028D01*
X130012627Y-113112916D01*
X130138023Y-113040520D01*
X130240520Y-112938023D01*
X130276311Y-112876031D01*
X130312993Y-112812496D01*
X130312995Y-112812491D01*
X130312996Y-112812490D01*
X130350513Y-112672476D01*
X130350513Y-112527524D01*
X130312996Y-112387510D01*
X130312995Y-112387508D01*
X130312993Y-112387503D01*
X130240524Y-112261983D01*
X130240518Y-112261975D01*
X130167382Y-112188839D01*
X130133897Y-112127516D01*
X130138881Y-112057824D01*
X130180753Y-112001891D01*
X130187997Y-111996860D01*
X130288124Y-111932513D01*
X130370133Y-111837870D01*
X130422156Y-111723956D01*
X130422376Y-111722426D01*
X130423018Y-111721018D01*
X130424654Y-111715449D01*
X130425454Y-111715684D01*
X130451399Y-111658870D01*
X130457418Y-111652404D01*
X130773472Y-111336352D01*
X130820933Y-111254148D01*
X130845500Y-111162461D01*
X130845500Y-111067539D01*
X130845500Y-108120712D01*
X130820933Y-108029025D01*
X130773472Y-107946821D01*
X130706352Y-107879701D01*
X130423179Y-107596528D01*
X130382077Y-107572797D01*
X130340976Y-107549067D01*
X130287856Y-107534834D01*
X130249288Y-107524500D01*
X130249287Y-107524500D01*
X130143508Y-107524500D01*
X130076469Y-107504815D01*
X130030714Y-107452011D01*
X130020770Y-107382853D01*
X130049795Y-107319297D01*
X130081508Y-107293113D01*
X130125900Y-107267483D01*
X130138023Y-107260484D01*
X130240520Y-107157987D01*
X130295863Y-107062130D01*
X130312993Y-107032460D01*
X130312995Y-107032455D01*
X130312996Y-107032454D01*
X130350513Y-106892440D01*
X130350513Y-106747488D01*
X130312996Y-106607474D01*
X130312995Y-106607472D01*
X130312993Y-106607467D01*
X130240524Y-106481947D01*
X130240518Y-106481939D01*
X130138024Y-106379445D01*
X130138019Y-106379441D01*
X130012373Y-106306900D01*
X129964158Y-106256333D01*
X129950934Y-106187726D01*
X129976902Y-106122862D01*
X130026919Y-106084953D01*
X130090039Y-106058808D01*
X130214598Y-105975580D01*
X130320526Y-105869652D01*
X130403754Y-105745093D01*
X130461082Y-105606691D01*
X130489327Y-105464692D01*
X132369460Y-105464692D01*
X132400605Y-105621267D01*
X132400608Y-105621279D01*
X132461702Y-105768775D01*
X132461704Y-105768779D01*
X132550399Y-105901520D01*
X132550405Y-105901528D01*
X132663292Y-106014415D01*
X132663300Y-106014421D01*
X132796041Y-106103116D01*
X132796045Y-106103118D01*
X132943541Y-106164212D01*
X132943546Y-106164214D01*
X133100128Y-106195360D01*
X133100132Y-106195361D01*
X133100133Y-106195361D01*
X133859788Y-106195361D01*
X133859789Y-106195360D01*
X134016374Y-106164214D01*
X134163876Y-106103117D01*
X134163878Y-106103116D01*
X134230195Y-106058804D01*
X134296624Y-106014418D01*
X134409517Y-105901525D01*
X134498216Y-105768777D01*
X134508028Y-105745090D01*
X134559311Y-105621279D01*
X134559313Y-105621275D01*
X134590460Y-105464688D01*
X134590460Y-105305034D01*
X134559313Y-105148447D01*
X134535385Y-105090679D01*
X134498217Y-105000946D01*
X134498215Y-105000942D01*
X134409520Y-104868201D01*
X134409514Y-104868193D01*
X134296627Y-104755306D01*
X134296619Y-104755300D01*
X134163878Y-104666605D01*
X134163874Y-104666603D01*
X134016378Y-104605509D01*
X134016366Y-104605506D01*
X133859791Y-104574361D01*
X133859787Y-104574361D01*
X133100133Y-104574361D01*
X133100128Y-104574361D01*
X132943553Y-104605506D01*
X132943541Y-104605509D01*
X132796045Y-104666603D01*
X132796041Y-104666605D01*
X132663300Y-104755300D01*
X132663292Y-104755306D01*
X132550405Y-104868193D01*
X132550399Y-104868201D01*
X132461704Y-105000942D01*
X132461702Y-105000946D01*
X132400608Y-105148442D01*
X132400605Y-105148454D01*
X132369460Y-105305029D01*
X132369460Y-105464692D01*
X130489327Y-105464692D01*
X130490307Y-105459764D01*
X130490307Y-105309958D01*
X130461082Y-105163031D01*
X130403754Y-105024629D01*
X130403753Y-105024628D01*
X130403750Y-105024622D01*
X130320526Y-104900070D01*
X130320523Y-104900066D01*
X130214601Y-104794144D01*
X130214597Y-104794141D01*
X130090045Y-104710917D01*
X130090036Y-104710912D01*
X129951637Y-104653586D01*
X129951629Y-104653584D01*
X129804714Y-104624361D01*
X129804710Y-104624361D01*
X128754904Y-104624361D01*
X128754899Y-104624361D01*
X128607984Y-104653584D01*
X128607976Y-104653586D01*
X128469577Y-104710912D01*
X128469568Y-104710917D01*
X128345016Y-104794141D01*
X128345012Y-104794144D01*
X128239090Y-104900066D01*
X128239087Y-104900070D01*
X128155863Y-105024622D01*
X128155858Y-105024631D01*
X128098532Y-105163030D01*
X128098530Y-105163038D01*
X128069307Y-105309953D01*
X128069307Y-105459768D01*
X128098530Y-105606683D01*
X128098532Y-105606691D01*
X128155858Y-105745090D01*
X128155863Y-105745099D01*
X128239087Y-105869651D01*
X128239090Y-105869655D01*
X128345012Y-105975577D01*
X128345016Y-105975580D01*
X128469568Y-106058804D01*
X128469577Y-106058809D01*
X128500745Y-106071719D01*
X128607977Y-106116136D01*
X128748152Y-106144018D01*
X128754899Y-106145360D01*
X128754903Y-106145361D01*
X129404646Y-106145361D01*
X129471685Y-106165046D01*
X129517440Y-106217850D01*
X129527384Y-106287008D01*
X129498359Y-106350564D01*
X129466646Y-106376748D01*
X129461980Y-106379441D01*
X129461975Y-106379445D01*
X129359481Y-106481939D01*
X129359475Y-106481947D01*
X129287006Y-106607467D01*
X129287004Y-106607472D01*
X129276491Y-106646707D01*
X129249487Y-106747488D01*
X129249487Y-106892440D01*
X129269615Y-106967557D01*
X129287004Y-107032455D01*
X129287006Y-107032460D01*
X129359475Y-107157980D01*
X129359479Y-107157985D01*
X129359480Y-107157987D01*
X129461977Y-107260484D01*
X129461978Y-107260485D01*
X129461980Y-107260486D01*
X129518492Y-107293113D01*
X129566707Y-107343679D01*
X129579931Y-107412286D01*
X129553963Y-107477151D01*
X129497049Y-107517680D01*
X129456492Y-107524500D01*
X128785686Y-107524500D01*
X128718647Y-107504815D01*
X128698005Y-107488181D01*
X128457432Y-107247608D01*
X128423947Y-107186285D01*
X128422374Y-107177563D01*
X128422156Y-107176044D01*
X128422154Y-107176040D01*
X128387428Y-107100000D01*
X128370133Y-107062130D01*
X128288124Y-106967487D01*
X128288123Y-106967486D01*
X128288122Y-106967485D01*
X128288119Y-106967483D01*
X128182779Y-106899785D01*
X128182775Y-106899783D01*
X128182773Y-106899782D01*
X128090320Y-106872635D01*
X128062616Y-106864500D01*
X128062615Y-106864500D01*
X127937385Y-106864500D01*
X127937384Y-106864500D01*
X127817227Y-106899782D01*
X127817220Y-106899785D01*
X127711880Y-106967483D01*
X127711877Y-106967485D01*
X127629867Y-107062130D01*
X127629866Y-107062131D01*
X127577844Y-107176040D01*
X127577843Y-107176044D01*
X127560022Y-107300000D01*
X127577843Y-107423955D01*
X127577844Y-107423959D01*
X127626779Y-107531108D01*
X127629867Y-107537870D01*
X127711876Y-107632513D01*
X127711877Y-107632514D01*
X127711880Y-107632516D01*
X127817224Y-107700217D01*
X127817226Y-107700217D01*
X127817227Y-107700218D01*
X127890441Y-107721715D01*
X127943187Y-107753011D01*
X128363648Y-108173472D01*
X128445852Y-108220933D01*
X128537539Y-108245500D01*
X128632461Y-108245500D01*
X129353510Y-108245500D01*
X129420549Y-108265185D01*
X129466304Y-108317989D01*
X129476247Y-108387145D01*
X129463467Y-108476040D01*
X129460022Y-108500000D01*
X129477843Y-108623954D01*
X129478963Y-108626406D01*
X129487933Y-108654483D01*
X129488495Y-108657407D01*
X129488496Y-108657412D01*
X129575314Y-108950283D01*
X129584386Y-108980884D01*
X129589500Y-109016127D01*
X129589500Y-110520023D01*
X129569815Y-110587062D01*
X129553181Y-110607704D01*
X126971783Y-113189101D01*
X126957210Y-113201576D01*
X126942420Y-113212371D01*
X126942417Y-113212374D01*
X126873742Y-113286991D01*
X126870186Y-113290697D01*
X126751541Y-113409344D01*
X126751538Y-113409348D01*
X126742244Y-113425445D01*
X126726100Y-113447411D01*
X126689901Y-113486743D01*
X126681271Y-113500537D01*
X126669867Y-113515966D01*
X126629867Y-113562130D01*
X126629866Y-113562131D01*
X126577844Y-113676040D01*
X126577843Y-113676044D01*
X126560022Y-113800000D01*
X125910500Y-113800000D01*
X125910500Y-109816661D01*
X125910499Y-109816657D01*
X125895483Y-109760613D01*
X125895483Y-109760612D01*
X125889340Y-109737688D01*
X125858391Y-109684084D01*
X125848462Y-109666886D01*
X125208115Y-109026538D01*
X125208114Y-109026537D01*
X125208111Y-109026535D01*
X125137314Y-108985661D01*
X125137313Y-108985660D01*
X125137312Y-108985660D01*
X125058342Y-108964500D01*
X125058341Y-108964500D01*
X125058340Y-108964500D01*
X124819500Y-108964500D01*
X124752461Y-108944815D01*
X124706706Y-108892011D01*
X124695500Y-108840500D01*
X124695500Y-108821545D01*
X124715185Y-108754506D01*
X124767989Y-108708751D01*
X124819500Y-108697545D01*
X125172076Y-108697545D01*
X125253834Y-108697545D01*
X125886092Y-108697545D01*
X125953131Y-108717230D01*
X125998886Y-108770033D01*
X126029866Y-108837868D01*
X126029867Y-108837870D01*
X126076781Y-108892011D01*
X126111877Y-108932514D01*
X126111880Y-108932516D01*
X126217220Y-109000214D01*
X126217222Y-109000214D01*
X126217227Y-109000218D01*
X126306864Y-109026538D01*
X126337384Y-109035500D01*
X126337385Y-109035500D01*
X126462616Y-109035500D01*
X126493136Y-109026538D01*
X126582773Y-109000218D01*
X126688124Y-108932513D01*
X126770133Y-108837870D01*
X126822156Y-108723956D01*
X126839978Y-108600000D01*
X126822156Y-108476044D01*
X126822155Y-108476040D01*
X126770133Y-108362131D01*
X126770133Y-108362130D01*
X126688124Y-108267487D01*
X126688123Y-108267486D01*
X126688122Y-108267485D01*
X126688119Y-108267483D01*
X126582779Y-108199785D01*
X126582775Y-108199783D01*
X126582773Y-108199782D01*
X126518747Y-108180982D01*
X126462616Y-108164500D01*
X126462615Y-108164500D01*
X126453565Y-108164500D01*
X126386526Y-108144815D01*
X126378077Y-108138875D01*
X126377693Y-108138580D01*
X126306896Y-108097706D01*
X126306895Y-108097705D01*
X126306894Y-108097705D01*
X126251383Y-108082830D01*
X126227921Y-108076544D01*
X126219864Y-108075484D01*
X126220287Y-108072271D01*
X126167803Y-108056860D01*
X126122048Y-108004056D01*
X126112104Y-107934898D01*
X126141129Y-107871342D01*
X126170133Y-107837870D01*
X126222156Y-107723956D01*
X126239978Y-107600000D01*
X126222156Y-107476044D01*
X126222155Y-107476040D01*
X126182163Y-107388472D01*
X126170133Y-107362130D01*
X126088124Y-107267487D01*
X126088123Y-107267486D01*
X126088122Y-107267485D01*
X126088119Y-107267483D01*
X125982779Y-107199785D01*
X125982775Y-107199783D01*
X125982773Y-107199782D01*
X125918747Y-107180982D01*
X125862616Y-107164500D01*
X125862615Y-107164500D01*
X125737385Y-107164500D01*
X125737384Y-107164500D01*
X125617227Y-107199782D01*
X125617220Y-107199785D01*
X125511880Y-107267483D01*
X125511877Y-107267485D01*
X125429867Y-107362130D01*
X125429866Y-107362131D01*
X125377844Y-107476040D01*
X125375346Y-107484552D01*
X125372088Y-107483595D01*
X125349840Y-107532243D01*
X125291042Y-107569986D01*
X125221173Y-107569950D01*
X125162459Y-107532195D01*
X125147206Y-107514592D01*
X125147205Y-107514591D01*
X125147203Y-107514589D01*
X125135494Y-107507065D01*
X125089738Y-107454262D01*
X125079794Y-107385104D01*
X125108818Y-107321548D01*
X125114832Y-107315087D01*
X125288472Y-107141448D01*
X125335933Y-107059244D01*
X125360500Y-106967557D01*
X125360500Y-106872635D01*
X125360500Y-106866416D01*
X125364685Y-106834474D01*
X125414768Y-106646613D01*
X125415123Y-106646707D01*
X125420671Y-106629012D01*
X125422156Y-106623956D01*
X125425918Y-106597788D01*
X125439978Y-106500000D01*
X125422156Y-106376044D01*
X125422155Y-106376040D01*
X125384989Y-106294660D01*
X125370133Y-106262130D01*
X125288124Y-106167487D01*
X125288123Y-106167486D01*
X125288122Y-106167485D01*
X125288119Y-106167483D01*
X125182779Y-106099785D01*
X125182775Y-106099783D01*
X125182773Y-106099782D01*
X125120262Y-106081427D01*
X125062616Y-106064500D01*
X125062615Y-106064500D01*
X124937385Y-106064500D01*
X124937384Y-106064500D01*
X124817227Y-106099782D01*
X124817220Y-106099785D01*
X124711880Y-106167483D01*
X124711877Y-106167485D01*
X124629867Y-106262130D01*
X124629866Y-106262131D01*
X124577844Y-106376040D01*
X124577843Y-106376044D01*
X124573228Y-106408148D01*
X124544203Y-106471703D01*
X124485424Y-106509477D01*
X124450490Y-106514500D01*
X123645614Y-106514500D01*
X123622533Y-106519091D01*
X123579845Y-106515270D01*
X123565548Y-106530627D01*
X123475678Y-106590677D01*
X123415339Y-106680980D01*
X123415339Y-106680981D01*
X123399500Y-106760609D01*
X123399500Y-106939390D01*
X123415339Y-107019017D01*
X123415339Y-107019018D01*
X123415340Y-107019019D01*
X123423419Y-107031110D01*
X123444296Y-107097788D01*
X123425811Y-107165168D01*
X123423423Y-107168883D01*
X123420706Y-107172949D01*
X123415339Y-107180982D01*
X123399500Y-107260609D01*
X123399500Y-107439390D01*
X123415339Y-107519017D01*
X123415339Y-107519018D01*
X123415340Y-107519019D01*
X123423419Y-107531110D01*
X123444296Y-107597788D01*
X123425811Y-107665168D01*
X123423423Y-107668883D01*
X123420706Y-107672949D01*
X123415339Y-107680982D01*
X123399500Y-107760609D01*
X123399500Y-107939390D01*
X123415339Y-108019017D01*
X123415339Y-108019018D01*
X123415340Y-108019019D01*
X123423419Y-108031110D01*
X123444296Y-108097788D01*
X123425811Y-108165168D01*
X123423423Y-108168883D01*
X123420706Y-108172949D01*
X123415339Y-108180982D01*
X123399500Y-108260609D01*
X123399500Y-108439390D01*
X123415339Y-108519017D01*
X123415339Y-108519018D01*
X123415340Y-108519019D01*
X123423419Y-108531110D01*
X123444296Y-108597788D01*
X123425811Y-108665168D01*
X123423423Y-108668883D01*
X123420706Y-108672949D01*
X123415339Y-108680982D01*
X123399500Y-108760609D01*
X123399500Y-108939390D01*
X123415339Y-109019017D01*
X123415339Y-109019018D01*
X123415340Y-109019019D01*
X123423419Y-109031110D01*
X123444296Y-109097788D01*
X123425811Y-109165168D01*
X123423423Y-109168883D01*
X123420706Y-109172949D01*
X123415339Y-109180982D01*
X123399500Y-109260609D01*
X123399500Y-109439390D01*
X123415339Y-109519017D01*
X123415339Y-109519018D01*
X123415340Y-109519019D01*
X123423419Y-109531110D01*
X123444296Y-109597788D01*
X123425811Y-109665168D01*
X123423423Y-109668883D01*
X123420706Y-109672949D01*
X123415339Y-109680982D01*
X123399500Y-109760609D01*
X123399500Y-109939390D01*
X123415339Y-110019017D01*
X123415339Y-110019018D01*
X123415340Y-110019019D01*
X123423419Y-110031110D01*
X123444296Y-110097788D01*
X123425811Y-110165168D01*
X123423423Y-110168883D01*
X123420706Y-110172949D01*
X123415339Y-110180982D01*
X123399500Y-110260609D01*
X123399500Y-110439390D01*
X123415339Y-110519017D01*
X123415339Y-110519018D01*
X123415340Y-110519019D01*
X123423419Y-110531110D01*
X123444296Y-110597788D01*
X123425811Y-110665168D01*
X123423423Y-110668883D01*
X123420706Y-110672949D01*
X123415339Y-110680982D01*
X123399500Y-110760609D01*
X123399500Y-110939390D01*
X123415339Y-111019017D01*
X123415339Y-111019018D01*
X123415340Y-111019019D01*
X123423419Y-111031110D01*
X123444296Y-111097788D01*
X123425811Y-111165168D01*
X123423423Y-111168883D01*
X123423100Y-111169367D01*
X123415339Y-111180982D01*
X123399500Y-111260609D01*
X123399500Y-111439390D01*
X123415339Y-111519017D01*
X123415339Y-111519018D01*
X123415340Y-111519019D01*
X123423419Y-111531110D01*
X123444296Y-111597788D01*
X123425811Y-111665168D01*
X123423423Y-111668883D01*
X123420706Y-111672949D01*
X123415339Y-111680982D01*
X123399500Y-111760609D01*
X123399500Y-111765500D01*
X123379815Y-111832539D01*
X123327011Y-111878294D01*
X123275500Y-111889500D01*
X123270611Y-111889500D01*
X123190982Y-111905339D01*
X123178890Y-111913419D01*
X123112212Y-111934296D01*
X123044832Y-111915811D01*
X123041110Y-111913419D01*
X123029019Y-111905340D01*
X123029018Y-111905339D01*
X123029017Y-111905339D01*
X122949389Y-111889500D01*
X122949386Y-111889500D01*
X122770614Y-111889500D01*
X122770611Y-111889500D01*
X122690982Y-111905339D01*
X122678890Y-111913419D01*
X122612212Y-111934296D01*
X122544832Y-111915811D01*
X122541110Y-111913419D01*
X122529019Y-111905340D01*
X122529018Y-111905339D01*
X122529017Y-111905339D01*
X122449389Y-111889500D01*
X122449386Y-111889500D01*
X122270614Y-111889500D01*
X122270611Y-111889500D01*
X122190982Y-111905339D01*
X122178890Y-111913419D01*
X122112212Y-111934296D01*
X122044832Y-111915811D01*
X122041110Y-111913419D01*
X122029019Y-111905340D01*
X122029018Y-111905339D01*
X122029017Y-111905339D01*
X121949389Y-111889500D01*
X121949386Y-111889500D01*
X121770614Y-111889500D01*
X121770611Y-111889500D01*
X121690982Y-111905339D01*
X121678890Y-111913419D01*
X121612212Y-111934296D01*
X121544832Y-111915811D01*
X121541110Y-111913419D01*
X121529019Y-111905340D01*
X121529018Y-111905339D01*
X121529017Y-111905339D01*
X121449389Y-111889500D01*
X121449386Y-111889500D01*
X121270614Y-111889500D01*
X121270611Y-111889500D01*
X121190982Y-111905339D01*
X121178890Y-111913419D01*
X121112212Y-111934296D01*
X121044832Y-111915811D01*
X121041110Y-111913419D01*
X121029019Y-111905340D01*
X121029018Y-111905339D01*
X121029017Y-111905339D01*
X120949389Y-111889500D01*
X120949386Y-111889500D01*
X120770614Y-111889500D01*
X120770611Y-111889500D01*
X120690982Y-111905339D01*
X120678890Y-111913419D01*
X120612212Y-111934296D01*
X120544832Y-111915811D01*
X120541110Y-111913419D01*
X120529019Y-111905340D01*
X120529018Y-111905339D01*
X120529017Y-111905339D01*
X120449389Y-111889500D01*
X120449386Y-111889500D01*
X120270614Y-111889500D01*
X120270611Y-111889500D01*
X120190982Y-111905339D01*
X120178890Y-111913419D01*
X120112212Y-111934296D01*
X120044832Y-111915811D01*
X120041110Y-111913419D01*
X120029019Y-111905340D01*
X120029018Y-111905339D01*
X120029017Y-111905339D01*
X119949389Y-111889500D01*
X119949386Y-111889500D01*
X119770614Y-111889500D01*
X119770611Y-111889500D01*
X119690982Y-111905339D01*
X119678890Y-111913419D01*
X119612212Y-111934296D01*
X119544832Y-111915811D01*
X119541110Y-111913419D01*
X119529019Y-111905340D01*
X119529018Y-111905339D01*
X119529017Y-111905339D01*
X119449389Y-111889500D01*
X119449386Y-111889500D01*
X119270614Y-111889500D01*
X119270611Y-111889500D01*
X119190982Y-111905339D01*
X119178890Y-111913419D01*
X119112212Y-111934296D01*
X119044832Y-111915811D01*
X119041110Y-111913419D01*
X119029019Y-111905340D01*
X119029018Y-111905339D01*
X119029017Y-111905339D01*
X118949389Y-111889500D01*
X118949386Y-111889500D01*
X118770614Y-111889500D01*
X118770611Y-111889500D01*
X118690982Y-111905339D01*
X118678890Y-111913419D01*
X118612212Y-111934296D01*
X118544832Y-111915811D01*
X118541110Y-111913419D01*
X118529019Y-111905340D01*
X118529018Y-111905339D01*
X118529017Y-111905339D01*
X118449389Y-111889500D01*
X118449386Y-111889500D01*
X118270614Y-111889500D01*
X118270611Y-111889500D01*
X118190982Y-111905339D01*
X118178890Y-111913419D01*
X118112212Y-111934296D01*
X118044832Y-111915811D01*
X118041110Y-111913419D01*
X118029019Y-111905340D01*
X118029018Y-111905339D01*
X118029017Y-111905339D01*
X117949389Y-111889500D01*
X117949386Y-111889500D01*
X117944500Y-111889500D01*
X117877461Y-111869815D01*
X117831706Y-111817011D01*
X117820500Y-111765500D01*
X117820500Y-111760611D01*
X117820499Y-111760609D01*
X117804661Y-111680985D01*
X117804660Y-111680982D01*
X117804660Y-111680981D01*
X117796581Y-111668890D01*
X117775703Y-111602215D01*
X117794187Y-111534834D01*
X117796582Y-111531108D01*
X117804660Y-111519019D01*
X117820500Y-111439386D01*
X117820500Y-111260614D01*
X117820500Y-111260611D01*
X117820499Y-111260609D01*
X117804661Y-111180985D01*
X117804660Y-111180982D01*
X117804660Y-111180981D01*
X117796581Y-111168890D01*
X117775703Y-111102215D01*
X117794187Y-111034834D01*
X117796582Y-111031108D01*
X117804660Y-111019019D01*
X117820500Y-110939386D01*
X117820500Y-110760614D01*
X117820500Y-110760611D01*
X117820499Y-110760609D01*
X117804661Y-110680985D01*
X117804660Y-110680982D01*
X117804660Y-110680981D01*
X117796581Y-110668890D01*
X117775703Y-110602215D01*
X117794187Y-110534834D01*
X117796582Y-110531108D01*
X117804660Y-110519019D01*
X117820500Y-110439386D01*
X117820500Y-110260614D01*
X117820500Y-110260611D01*
X117820499Y-110260609D01*
X117804661Y-110180985D01*
X117804660Y-110180982D01*
X117804660Y-110180981D01*
X117796581Y-110168890D01*
X117775703Y-110102215D01*
X117794187Y-110034834D01*
X117796582Y-110031108D01*
X117799112Y-110027322D01*
X117804660Y-110019019D01*
X117820500Y-109939386D01*
X117820500Y-109760614D01*
X117820500Y-109760612D01*
X117820500Y-109760611D01*
X117820499Y-109760609D01*
X117804661Y-109680985D01*
X117804660Y-109680982D01*
X117804660Y-109680981D01*
X117796581Y-109668890D01*
X117775703Y-109602215D01*
X117794187Y-109534834D01*
X117796582Y-109531108D01*
X117799037Y-109527434D01*
X117804660Y-109519019D01*
X117820500Y-109439386D01*
X117820500Y-109260614D01*
X117820500Y-109260611D01*
X117820499Y-109260609D01*
X117804661Y-109180985D01*
X117804660Y-109180982D01*
X117804660Y-109180981D01*
X117796581Y-109168890D01*
X117775703Y-109102215D01*
X117794187Y-109034834D01*
X117796582Y-109031108D01*
X117799635Y-109026539D01*
X117804660Y-109019019D01*
X117820500Y-108939386D01*
X117820500Y-108760614D01*
X117820500Y-108760611D01*
X117820499Y-108760609D01*
X117804661Y-108680985D01*
X117804660Y-108680982D01*
X117804660Y-108680981D01*
X117796581Y-108668890D01*
X117775703Y-108602215D01*
X117794187Y-108534834D01*
X117796582Y-108531108D01*
X117804660Y-108519019D01*
X117820500Y-108439386D01*
X117820500Y-108260614D01*
X117820500Y-108260611D01*
X117820499Y-108260609D01*
X117804661Y-108180985D01*
X117804660Y-108180982D01*
X117804660Y-108180981D01*
X117796581Y-108168890D01*
X117775703Y-108102215D01*
X117794187Y-108034834D01*
X117796582Y-108031108D01*
X117797974Y-108029025D01*
X117804660Y-108019019D01*
X117820500Y-107939386D01*
X117820500Y-107760614D01*
X117820500Y-107760611D01*
X117820499Y-107760609D01*
X117804661Y-107680985D01*
X117804660Y-107680982D01*
X117804660Y-107680981D01*
X117796581Y-107668890D01*
X117775703Y-107602215D01*
X117794187Y-107534834D01*
X117796582Y-107531108D01*
X117797118Y-107530306D01*
X117804660Y-107519019D01*
X117820500Y-107439386D01*
X117820500Y-107260614D01*
X117820500Y-107260611D01*
X117820499Y-107260609D01*
X117804661Y-107180985D01*
X117804660Y-107180982D01*
X117804660Y-107180981D01*
X117796581Y-107168890D01*
X117775703Y-107102215D01*
X117794187Y-107034834D01*
X117796582Y-107031108D01*
X117804660Y-107019019D01*
X117820500Y-106939386D01*
X117820500Y-106760614D01*
X117820500Y-106760611D01*
X117820499Y-106760609D01*
X117804661Y-106680985D01*
X117804660Y-106680982D01*
X117804660Y-106680981D01*
X117796581Y-106668890D01*
X117775703Y-106602215D01*
X117794187Y-106534834D01*
X117796582Y-106531108D01*
X117804660Y-106519019D01*
X117820500Y-106439386D01*
X117820500Y-106434500D01*
X117840185Y-106367461D01*
X117892989Y-106321706D01*
X117944500Y-106310500D01*
X117949388Y-106310500D01*
X117949389Y-106310499D01*
X118029019Y-106294660D01*
X118041108Y-106286581D01*
X118107785Y-106265703D01*
X118175166Y-106284187D01*
X118178878Y-106286573D01*
X118190981Y-106294660D01*
X118190983Y-106294660D01*
X118190985Y-106294661D01*
X118270609Y-106310499D01*
X118270612Y-106310500D01*
X118270614Y-106310500D01*
X118449388Y-106310500D01*
X118449389Y-106310499D01*
X118529019Y-106294660D01*
X118541108Y-106286581D01*
X118607785Y-106265703D01*
X118675166Y-106284187D01*
X118678878Y-106286573D01*
X118690981Y-106294660D01*
X118690983Y-106294660D01*
X118690985Y-106294661D01*
X118770609Y-106310499D01*
X118770612Y-106310500D01*
X118770614Y-106310500D01*
X118949388Y-106310500D01*
X118949389Y-106310499D01*
X119029019Y-106294660D01*
X119041108Y-106286581D01*
X119107785Y-106265703D01*
X119175166Y-106284187D01*
X119178878Y-106286573D01*
X119190981Y-106294660D01*
X119190983Y-106294660D01*
X119190985Y-106294661D01*
X119270609Y-106310499D01*
X119270612Y-106310500D01*
X119270614Y-106310500D01*
X119449388Y-106310500D01*
X119449389Y-106310499D01*
X119529019Y-106294660D01*
X119541108Y-106286581D01*
X119607785Y-106265703D01*
X119675166Y-106284187D01*
X119678878Y-106286573D01*
X119690981Y-106294660D01*
X119690983Y-106294660D01*
X119690985Y-106294661D01*
X119770609Y-106310499D01*
X119770612Y-106310500D01*
X119770614Y-106310500D01*
X119949388Y-106310500D01*
X119949389Y-106310499D01*
X120029019Y-106294660D01*
X120041108Y-106286581D01*
X120107785Y-106265703D01*
X120175166Y-106284187D01*
X120178878Y-106286573D01*
X120190981Y-106294660D01*
X120190983Y-106294660D01*
X120190985Y-106294661D01*
X120270609Y-106310499D01*
X120270612Y-106310500D01*
X120270614Y-106310500D01*
X120449388Y-106310500D01*
X120449389Y-106310499D01*
X120529019Y-106294660D01*
X120541108Y-106286581D01*
X120607785Y-106265703D01*
X120675166Y-106284187D01*
X120678878Y-106286573D01*
X120690981Y-106294660D01*
X120690983Y-106294660D01*
X120690985Y-106294661D01*
X120770609Y-106310499D01*
X120770612Y-106310500D01*
X120770614Y-106310500D01*
X120949388Y-106310500D01*
X120949389Y-106310499D01*
X121029019Y-106294660D01*
X121041108Y-106286581D01*
X121107785Y-106265703D01*
X121175166Y-106284187D01*
X121178878Y-106286573D01*
X121190981Y-106294660D01*
X121190983Y-106294660D01*
X121190985Y-106294661D01*
X121270609Y-106310499D01*
X121270612Y-106310500D01*
X121270614Y-106310500D01*
X121449388Y-106310500D01*
X121449389Y-106310499D01*
X121529019Y-106294660D01*
X121541108Y-106286581D01*
X121607785Y-106265703D01*
X121675166Y-106284187D01*
X121678878Y-106286573D01*
X121690981Y-106294660D01*
X121690983Y-106294660D01*
X121690985Y-106294661D01*
X121770609Y-106310499D01*
X121770612Y-106310500D01*
X121770614Y-106310500D01*
X121949388Y-106310500D01*
X121949389Y-106310499D01*
X122029019Y-106294660D01*
X122041108Y-106286581D01*
X122107785Y-106265703D01*
X122175166Y-106284187D01*
X122178878Y-106286573D01*
X122190981Y-106294660D01*
X122190983Y-106294660D01*
X122190985Y-106294661D01*
X122270609Y-106310499D01*
X122270612Y-106310500D01*
X122270614Y-106310500D01*
X122449388Y-106310500D01*
X122449389Y-106310499D01*
X122529019Y-106294660D01*
X122541108Y-106286581D01*
X122607785Y-106265703D01*
X122675166Y-106284187D01*
X122678878Y-106286573D01*
X122690981Y-106294660D01*
X122690983Y-106294660D01*
X122690985Y-106294661D01*
X122770609Y-106310499D01*
X122770612Y-106310500D01*
X122770614Y-106310500D01*
X122949388Y-106310500D01*
X122949389Y-106310499D01*
X123029019Y-106294660D01*
X123041108Y-106286581D01*
X123107785Y-106265703D01*
X123175166Y-106284187D01*
X123178878Y-106286573D01*
X123190981Y-106294660D01*
X123190983Y-106294660D01*
X123190985Y-106294661D01*
X123270609Y-106310499D01*
X123270612Y-106310500D01*
X123270614Y-106310500D01*
X123449384Y-106310500D01*
X123449386Y-106310500D01*
X123472464Y-106305909D01*
X123515153Y-106309728D01*
X123529452Y-106294371D01*
X123566747Y-106269451D01*
X123619322Y-106234322D01*
X123679660Y-106144019D01*
X123695500Y-106064386D01*
X123695500Y-105260614D01*
X123695500Y-105260611D01*
X123695499Y-105260609D01*
X123679660Y-105180981D01*
X123679660Y-105180980D01*
X123655491Y-105144810D01*
X123619322Y-105090678D01*
X123572355Y-105059296D01*
X123529019Y-105030339D01*
X123449389Y-105014500D01*
X123449386Y-105014500D01*
X123270614Y-105014500D01*
X123270611Y-105014500D01*
X123190982Y-105030339D01*
X123178890Y-105038419D01*
X123112212Y-105059296D01*
X123044832Y-105040811D01*
X123041110Y-105038419D01*
X123029019Y-105030340D01*
X123029018Y-105030339D01*
X123029017Y-105030339D01*
X122949389Y-105014500D01*
X122949386Y-105014500D01*
X122770614Y-105014500D01*
X122770611Y-105014500D01*
X122690982Y-105030339D01*
X122678890Y-105038419D01*
X122612212Y-105059296D01*
X122544832Y-105040811D01*
X122541110Y-105038419D01*
X122529019Y-105030340D01*
X122529018Y-105030339D01*
X122529017Y-105030339D01*
X122449389Y-105014500D01*
X122449386Y-105014500D01*
X122294500Y-105014500D01*
X122227461Y-104994815D01*
X122181706Y-104942011D01*
X122170500Y-104890500D01*
X122170500Y-103466846D01*
X122173474Y-103439853D01*
X122182363Y-103400000D01*
X126260022Y-103400000D01*
X126277843Y-103523955D01*
X126277844Y-103523959D01*
X126329866Y-103637868D01*
X126329867Y-103637870D01*
X126399791Y-103718566D01*
X126411877Y-103732514D01*
X126411880Y-103732516D01*
X126517220Y-103800214D01*
X126517222Y-103800214D01*
X126517227Y-103800218D01*
X126596439Y-103823477D01*
X126637384Y-103835500D01*
X126637385Y-103835500D01*
X126762616Y-103835500D01*
X126784843Y-103828972D01*
X126882773Y-103800218D01*
X126988124Y-103732513D01*
X127070133Y-103637870D01*
X127122156Y-103523956D01*
X127139978Y-103400000D01*
X127122156Y-103276044D01*
X127122155Y-103276040D01*
X127070133Y-103162131D01*
X127070133Y-103162130D01*
X126988124Y-103067487D01*
X126988123Y-103067486D01*
X126988122Y-103067485D01*
X126988119Y-103067483D01*
X126882779Y-102999785D01*
X126882775Y-102999783D01*
X126882773Y-102999782D01*
X126822694Y-102982141D01*
X126762616Y-102964500D01*
X126762615Y-102964500D01*
X126637385Y-102964500D01*
X126637384Y-102964500D01*
X126517227Y-102999782D01*
X126517220Y-102999785D01*
X126411880Y-103067483D01*
X126411877Y-103067485D01*
X126329867Y-103162130D01*
X126329866Y-103162131D01*
X126277844Y-103276040D01*
X126277843Y-103276044D01*
X126260022Y-103400000D01*
X122182363Y-103400000D01*
X122449525Y-102202147D01*
X122449710Y-102202188D01*
X122452204Y-102190967D01*
X122500154Y-102032896D01*
X122500155Y-102032894D01*
X122503793Y-101995956D01*
X122520631Y-101825000D01*
X122500155Y-101617106D01*
X122439515Y-101417201D01*
X122397112Y-101337870D01*
X122341043Y-101232972D01*
X122341039Y-101232965D01*
X122231917Y-101100000D01*
X122760022Y-101100000D01*
X122777843Y-101223955D01*
X122777844Y-101223959D01*
X122819272Y-101314670D01*
X122829867Y-101337870D01*
X122898608Y-101417201D01*
X122911877Y-101432514D01*
X122911880Y-101432516D01*
X123017220Y-101500214D01*
X123017222Y-101500214D01*
X123017227Y-101500218D01*
X123095952Y-101523334D01*
X123137384Y-101535500D01*
X123137385Y-101535500D01*
X123262616Y-101535500D01*
X123284843Y-101528972D01*
X123382773Y-101500218D01*
X123488124Y-101432513D01*
X123570133Y-101337870D01*
X123622156Y-101223956D01*
X123639978Y-101100000D01*
X123622156Y-100976044D01*
X123622155Y-100976040D01*
X123570133Y-100862131D01*
X123570133Y-100862130D01*
X123488124Y-100767487D01*
X123488123Y-100767486D01*
X123488122Y-100767485D01*
X123488119Y-100767483D01*
X123382779Y-100699785D01*
X123382775Y-100699783D01*
X123382773Y-100699782D01*
X123301586Y-100675943D01*
X123262616Y-100664500D01*
X123262615Y-100664500D01*
X123137385Y-100664500D01*
X123137384Y-100664500D01*
X123017227Y-100699782D01*
X123017220Y-100699785D01*
X122911880Y-100767483D01*
X122911877Y-100767485D01*
X122829867Y-100862130D01*
X122829866Y-100862131D01*
X122777844Y-100976040D01*
X122777843Y-100976044D01*
X122760022Y-101100000D01*
X122231917Y-101100000D01*
X122208515Y-101071484D01*
X122047034Y-100938960D01*
X122047027Y-100938956D01*
X121862806Y-100840488D01*
X121862803Y-100840487D01*
X121862802Y-100840486D01*
X121862799Y-100840485D01*
X121662894Y-100779845D01*
X121662892Y-100779844D01*
X121662894Y-100779844D01*
X121455000Y-100759369D01*
X121247107Y-100779844D01*
X121129606Y-100815488D01*
X121047201Y-100840485D01*
X121047198Y-100840486D01*
X121047196Y-100840487D01*
X121047193Y-100840488D01*
X120862972Y-100938956D01*
X120862965Y-100938960D01*
X120701484Y-101071484D01*
X120568960Y-101232965D01*
X120568956Y-101232972D01*
X120470488Y-101417193D01*
X120470487Y-101417196D01*
X120470486Y-101417198D01*
X120470485Y-101417201D01*
X120461689Y-101446198D01*
X120409844Y-101617107D01*
X120389369Y-101825000D01*
X120409844Y-102032892D01*
X120430058Y-102099529D01*
X120470485Y-102232799D01*
X120470486Y-102232802D01*
X120470487Y-102232803D01*
X120470488Y-102232806D01*
X120568956Y-102417027D01*
X120568961Y-102417034D01*
X120702043Y-102579197D01*
X120702462Y-102579632D01*
X121090513Y-102999782D01*
X121516592Y-103461107D01*
X121547617Y-103523709D01*
X121549500Y-103545238D01*
X121549500Y-103751024D01*
X121529815Y-103818063D01*
X121477011Y-103863818D01*
X121407853Y-103873762D01*
X121344297Y-103844737D01*
X121337819Y-103838705D01*
X120383747Y-102884633D01*
X120353317Y-102834710D01*
X120271634Y-102579197D01*
X119909432Y-101446198D01*
X119908700Y-101444060D01*
X119906580Y-101437867D01*
X119906239Y-101436934D01*
X119903693Y-101430123D01*
X119901181Y-101422694D01*
X119899514Y-101417198D01*
X119801043Y-101232972D01*
X119801039Y-101232965D01*
X119668515Y-101071484D01*
X119507034Y-100938960D01*
X119507027Y-100938956D01*
X119322806Y-100840488D01*
X119322803Y-100840487D01*
X119322802Y-100840486D01*
X119322799Y-100840485D01*
X119122894Y-100779845D01*
X119122892Y-100779844D01*
X119122894Y-100779844D01*
X118915000Y-100759369D01*
X118707107Y-100779844D01*
X118589606Y-100815488D01*
X118507201Y-100840485D01*
X118507198Y-100840486D01*
X118507196Y-100840487D01*
X118507193Y-100840488D01*
X118322972Y-100938956D01*
X118322965Y-100938960D01*
X118161484Y-101071484D01*
X118028960Y-101232965D01*
X118028956Y-101232972D01*
X117930488Y-101417193D01*
X117930487Y-101417196D01*
X117930486Y-101417198D01*
X117930485Y-101417201D01*
X117921689Y-101446198D01*
X117869844Y-101617107D01*
X117849369Y-101825000D01*
X117869844Y-102032892D01*
X117890058Y-102099529D01*
X117930485Y-102232799D01*
X117930486Y-102232802D01*
X117930487Y-102232803D01*
X117930488Y-102232806D01*
X118028956Y-102417027D01*
X118028960Y-102417034D01*
X118161484Y-102578515D01*
X118322965Y-102711039D01*
X118322972Y-102711043D01*
X118507199Y-102809514D01*
X118507201Y-102809515D01*
X118511352Y-102810774D01*
X118514436Y-102811710D01*
X118530396Y-102817780D01*
X118530738Y-102817937D01*
X118530742Y-102817940D01*
X119583091Y-103183318D01*
X119639965Y-103223902D01*
X119665869Y-103288792D01*
X119652579Y-103357386D01*
X119609459Y-103404773D01*
X119511878Y-103467485D01*
X119511877Y-103467485D01*
X119429867Y-103562130D01*
X119429866Y-103562131D01*
X119377844Y-103676040D01*
X119377843Y-103676044D01*
X119360022Y-103800000D01*
X119377843Y-103923955D01*
X119377844Y-103923959D01*
X119427205Y-104032042D01*
X119429867Y-104037870D01*
X119496049Y-104114248D01*
X119499991Y-104118797D01*
X119529016Y-104182353D01*
X119519072Y-104251511D01*
X119499991Y-104281203D01*
X119429867Y-104362130D01*
X119429866Y-104362131D01*
X119377844Y-104476043D01*
X119377843Y-104476047D01*
X119377459Y-104478717D01*
X119374426Y-104493415D01*
X119371494Y-104504261D01*
X119334997Y-104563841D01*
X119272082Y-104594230D01*
X119202725Y-104585782D01*
X119180497Y-104571833D01*
X119180210Y-104572281D01*
X119067404Y-104499785D01*
X119067400Y-104499783D01*
X119067398Y-104499782D01*
X118986555Y-104476044D01*
X118947241Y-104464500D01*
X118947240Y-104464500D01*
X118822010Y-104464500D01*
X118822009Y-104464500D01*
X118701852Y-104499782D01*
X118701850Y-104499783D01*
X118627339Y-104547668D01*
X118560299Y-104567352D01*
X118493260Y-104547667D01*
X118447505Y-104494863D01*
X118438785Y-104468051D01*
X118427871Y-104414352D01*
X118426653Y-104407324D01*
X118422156Y-104376046D01*
X118422155Y-104376040D01*
X118418939Y-104368999D01*
X118414361Y-104357486D01*
X118411553Y-104349248D01*
X118411549Y-104349239D01*
X118410743Y-104347987D01*
X118402221Y-104332392D01*
X118370133Y-104262131D01*
X118370133Y-104262130D01*
X118288124Y-104167487D01*
X118288123Y-104167486D01*
X118288122Y-104167485D01*
X118288119Y-104167483D01*
X118182779Y-104099785D01*
X118182775Y-104099783D01*
X118182773Y-104099782D01*
X118122694Y-104082141D01*
X118062616Y-104064500D01*
X118062615Y-104064500D01*
X117937385Y-104064500D01*
X117937384Y-104064500D01*
X117817227Y-104099782D01*
X117817220Y-104099785D01*
X117711880Y-104167483D01*
X117711877Y-104167485D01*
X117629867Y-104262130D01*
X117629866Y-104262131D01*
X117577844Y-104376040D01*
X117577843Y-104376044D01*
X117560022Y-104500000D01*
X117577843Y-104623955D01*
X117577844Y-104623959D01*
X117629866Y-104737868D01*
X117629866Y-104737869D01*
X117629867Y-104737870D01*
X117711876Y-104832513D01*
X117711877Y-104832514D01*
X117717685Y-104839216D01*
X117715843Y-104840811D01*
X117746570Y-104888617D01*
X117746574Y-104958486D01*
X117708803Y-105017267D01*
X117696487Y-105026660D01*
X117623834Y-105075205D01*
X117610001Y-105084449D01*
X117600677Y-105090679D01*
X117540339Y-105180980D01*
X117540339Y-105180981D01*
X117524500Y-105260609D01*
X117524500Y-105890500D01*
X117504815Y-105957539D01*
X117452011Y-106003294D01*
X117400500Y-106014500D01*
X116770611Y-106014500D01*
X116690981Y-106030339D01*
X116690980Y-106030339D01*
X116600678Y-106090678D01*
X116540339Y-106180980D01*
X116540339Y-106180981D01*
X116524500Y-106260609D01*
X116524500Y-106439390D01*
X116540339Y-106519017D01*
X116540339Y-106519018D01*
X116540340Y-106519019D01*
X116548419Y-106531110D01*
X116569296Y-106597788D01*
X116550811Y-106665168D01*
X116548423Y-106668883D01*
X116545706Y-106672949D01*
X116540339Y-106680982D01*
X116524500Y-106760609D01*
X116524500Y-106939390D01*
X116540339Y-107019017D01*
X116540339Y-107019018D01*
X116540340Y-107019019D01*
X116548419Y-107031110D01*
X116569296Y-107097788D01*
X116550811Y-107165168D01*
X116548423Y-107168883D01*
X116543642Y-107176040D01*
X116533555Y-107191136D01*
X116532638Y-107190523D01*
X116496500Y-107235361D01*
X116430204Y-107257419D01*
X116362506Y-107240134D01*
X116338109Y-107221179D01*
X112896819Y-103779889D01*
X112863334Y-103718566D01*
X112860500Y-103692208D01*
X112860500Y-101605789D01*
X112863685Y-101581739D01*
X112863197Y-101581658D01*
X112935308Y-101148983D01*
X112936386Y-101140398D01*
X112937465Y-101131809D01*
X112937624Y-101129938D01*
X112938297Y-101118287D01*
X112938296Y-101118283D01*
X112938628Y-101112544D01*
X112939686Y-101102030D01*
X112939978Y-101100000D01*
X112922156Y-100976044D01*
X112922155Y-100976043D01*
X112922155Y-100976040D01*
X112870133Y-100862131D01*
X112870133Y-100862130D01*
X112788124Y-100767487D01*
X112788123Y-100767486D01*
X112788122Y-100767485D01*
X112788119Y-100767483D01*
X112682779Y-100699785D01*
X112682775Y-100699783D01*
X112682773Y-100699782D01*
X112601586Y-100675943D01*
X112562616Y-100664500D01*
X112562615Y-100664500D01*
X112437385Y-100664500D01*
X112437384Y-100664500D01*
X112317227Y-100699782D01*
X112317220Y-100699785D01*
X112211880Y-100767483D01*
X112211877Y-100767485D01*
X112129867Y-100862130D01*
X112129866Y-100862131D01*
X112077844Y-100976040D01*
X112077843Y-100976044D01*
X112060022Y-101099999D01*
X112063576Y-101124723D01*
X112064777Y-101146218D01*
X112064691Y-101148981D01*
X112064692Y-101148987D01*
X112064692Y-101148989D01*
X112112683Y-101436934D01*
X112135803Y-101575657D01*
X112135866Y-101575911D01*
X112135921Y-101576369D01*
X112136593Y-101580396D01*
X112136416Y-101580425D01*
X112139500Y-101605709D01*
X112139500Y-103940354D01*
X112164067Y-104032043D01*
X112167434Y-104037874D01*
X112211528Y-104114246D01*
X112211530Y-104114248D01*
X114625101Y-106527819D01*
X114658586Y-106589142D01*
X114653602Y-106658834D01*
X114611730Y-106714767D01*
X114546266Y-106739184D01*
X114537420Y-106739500D01*
X112200686Y-106739500D01*
X112133647Y-106719815D01*
X112113005Y-106703181D01*
X111812560Y-106402736D01*
X111797808Y-106383480D01*
X111797405Y-106383769D01*
X111791884Y-106376040D01*
X111581444Y-106081424D01*
X111571679Y-106064536D01*
X111570133Y-106062131D01*
X111570133Y-106062130D01*
X111559878Y-106050294D01*
X111552696Y-106041175D01*
X111544955Y-106030339D01*
X111542450Y-106026832D01*
X111531830Y-106013161D01*
X111531224Y-106012443D01*
X111530619Y-106011724D01*
X111522858Y-106003012D01*
X111517364Y-105998146D01*
X111517689Y-105997778D01*
X111502738Y-105984352D01*
X111488124Y-105967487D01*
X111488123Y-105967485D01*
X111382779Y-105899785D01*
X111382775Y-105899783D01*
X111382773Y-105899782D01*
X111322694Y-105882141D01*
X111262616Y-105864500D01*
X111262615Y-105864500D01*
X111137385Y-105864500D01*
X111137384Y-105864500D01*
X111017227Y-105899782D01*
X111017220Y-105899785D01*
X110911880Y-105967483D01*
X110911877Y-105967485D01*
X110829867Y-106062130D01*
X110829866Y-106062131D01*
X110777844Y-106176040D01*
X110777843Y-106176044D01*
X110760022Y-106300000D01*
X100127500Y-106300000D01*
X100127500Y-102004066D01*
X100127765Y-101995957D01*
X100136639Y-101860556D01*
X100142988Y-101763681D01*
X100145103Y-101747625D01*
X100189721Y-101523318D01*
X100193910Y-101507681D01*
X100267427Y-101291108D01*
X100273624Y-101276147D01*
X100374775Y-101071033D01*
X100382878Y-101056998D01*
X100509938Y-100866839D01*
X100519795Y-100853994D01*
X100670589Y-100682047D01*
X100682047Y-100670589D01*
X100853994Y-100519795D01*
X100866839Y-100509938D01*
X101056998Y-100382878D01*
X101071033Y-100374775D01*
X101276147Y-100273624D01*
X101291108Y-100267427D01*
X101507681Y-100193910D01*
X101523318Y-100189721D01*
X101747625Y-100145103D01*
X101763681Y-100142988D01*
X101975734Y-100129090D01*
X101995958Y-100127765D01*
X102004067Y-100127500D01*
X102029101Y-100127500D01*
X132970899Y-100127500D01*
X132995933Y-100127500D01*
X133004042Y-100127765D01*
G37*
%TD.AperFunction*%
%TD*%
%TA.AperFunction,Conductor*%
%TO.N,Net-(U4-CC1)*%
G36*
X127117513Y-113357626D02*
G01*
X127117863Y-113357962D01*
X127246825Y-113486924D01*
X127250252Y-113495197D01*
X127250212Y-113496165D01*
X127225887Y-113789301D01*
X127221788Y-113797262D01*
X127214264Y-113800033D01*
X127004191Y-113800691D01*
X126995907Y-113797290D01*
X126995844Y-113797227D01*
X126848767Y-113648837D01*
X126845377Y-113640549D01*
X126848467Y-113632679D01*
X127100982Y-113358311D01*
X127109105Y-113354545D01*
X127117513Y-113357626D01*
G37*
%TD.AperFunction*%
%TD*%
%TA.AperFunction,Conductor*%
%TO.N,Net-(U4-CC1)*%
G36*
X130098194Y-108582048D02*
G01*
X130104500Y-108588406D01*
X130104890Y-108596164D01*
X130002483Y-108941625D01*
X129996846Y-108948583D01*
X129991265Y-108950000D01*
X129808735Y-108950000D01*
X129800462Y-108946573D01*
X129797517Y-108941625D01*
X129695109Y-108596164D01*
X129696044Y-108587258D01*
X129701803Y-108582049D01*
X129895480Y-108500893D01*
X129904431Y-108500857D01*
X130098194Y-108582048D01*
G37*
%TD.AperFunction*%
%TD*%
%TA.AperFunction,Conductor*%
%TO.N,/JTCK{slash}SWCLK*%
G36*
X125695576Y-116959650D02*
G01*
X125699003Y-116967923D01*
X125698964Y-116968878D01*
X125590878Y-118289267D01*
X125586788Y-118297233D01*
X125579231Y-118300012D01*
X124747831Y-118300990D01*
X124739554Y-118297573D01*
X124737006Y-118293763D01*
X124418835Y-117524651D01*
X124418839Y-117515696D01*
X124424292Y-117509775D01*
X124717844Y-117358715D01*
X125497481Y-116957520D01*
X125502834Y-116956223D01*
X125687303Y-116956223D01*
X125695576Y-116959650D01*
G37*
%TD.AperFunction*%
%TD*%
%TA.AperFunction,Conductor*%
%TO.N,/JTCK{slash}SWCLK*%
G36*
X124603331Y-109178807D02*
G01*
X124607468Y-109186748D01*
X124607513Y-109187772D01*
X124607513Y-109366660D01*
X124604086Y-109374933D01*
X124599629Y-109377720D01*
X124486720Y-109416680D01*
X124481117Y-109417183D01*
X124055764Y-109351432D01*
X124048111Y-109346781D01*
X124045877Y-109340646D01*
X124038940Y-109236427D01*
X124041810Y-109227947D01*
X124049587Y-109223998D01*
X124594790Y-109176117D01*
X124603331Y-109178807D01*
G37*
%TD.AperFunction*%
%TD*%
%TA.AperFunction,Conductor*%
%TO.N,+3.3V*%
G36*
X125005213Y-106501181D02*
G01*
X125198461Y-106582160D01*
X125204767Y-106588518D01*
X125205244Y-106595965D01*
X125090147Y-107027697D01*
X125084705Y-107034808D01*
X125075828Y-107035988D01*
X125070569Y-107032956D01*
X124874780Y-106837167D01*
X124871922Y-106832499D01*
X124795450Y-106596366D01*
X124796161Y-106587439D01*
X124802084Y-106581959D01*
X124996197Y-106501169D01*
X125005150Y-106501155D01*
X125005213Y-106501181D01*
G37*
%TD.AperFunction*%
%TD*%
%TA.AperFunction,Conductor*%
%TO.N,+3.3V*%
G36*
X124475726Y-108253446D02*
G01*
X124601140Y-108284828D01*
X124608334Y-108290161D01*
X124610000Y-108296178D01*
X124610000Y-108475094D01*
X124606573Y-108483367D01*
X124598300Y-108486794D01*
X124598052Y-108486791D01*
X124054226Y-108475251D01*
X124046027Y-108471650D01*
X124042777Y-108463306D01*
X124042778Y-108463242D01*
X124046203Y-108359015D01*
X124049900Y-108350861D01*
X124055295Y-108347995D01*
X124470292Y-108253390D01*
X124475726Y-108253446D01*
G37*
%TD.AperFunction*%
%TD*%
%TA.AperFunction,Conductor*%
%TO.N,+3.3V*%
G36*
X124475726Y-108253446D02*
G01*
X124601140Y-108284828D01*
X124608334Y-108290161D01*
X124610000Y-108296178D01*
X124610000Y-108475094D01*
X124606573Y-108483367D01*
X124598300Y-108486794D01*
X124598052Y-108486791D01*
X124054226Y-108475251D01*
X124046027Y-108471650D01*
X124042777Y-108463306D01*
X124042778Y-108463242D01*
X124046203Y-108359015D01*
X124049900Y-108350861D01*
X124055295Y-108347995D01*
X124470292Y-108253390D01*
X124475726Y-108253446D01*
G37*
%TD.AperFunction*%
%TD*%
%TA.AperFunction,Conductor*%
%TO.N,Net-(U1-VDDA)*%
G36*
X124712693Y-109596075D02*
G01*
X124717982Y-109601879D01*
X124800080Y-109797805D01*
X124800989Y-109802379D01*
X124800054Y-110012671D01*
X124796590Y-110020929D01*
X124788302Y-110024319D01*
X124787690Y-110024300D01*
X124370982Y-110000626D01*
X124362917Y-109996736D01*
X124359946Y-109988945D01*
X124359946Y-109708665D01*
X124363373Y-109700392D01*
X124368232Y-109697474D01*
X124438672Y-109676006D01*
X124442080Y-109675499D01*
X124448400Y-109675499D01*
X124525117Y-109660240D01*
X124552802Y-109641740D01*
X124555866Y-109640289D01*
X124703782Y-109595209D01*
X124712693Y-109596075D01*
G37*
%TD.AperFunction*%
%TD*%
%TA.AperFunction,Conductor*%
%TO.N,+3.3V*%
G36*
X124667321Y-111566978D02*
G01*
X124673454Y-111573189D01*
X124755211Y-111768300D01*
X124756120Y-111772874D01*
X124755182Y-111983967D01*
X124751718Y-111992225D01*
X124743603Y-111995614D01*
X124332766Y-111999877D01*
X124324458Y-111996537D01*
X124320946Y-111988299D01*
X124320945Y-111988178D01*
X124320945Y-111707960D01*
X124324372Y-111699687D01*
X124328348Y-111697078D01*
X124380954Y-111676315D01*
X124385248Y-111675499D01*
X124448400Y-111675499D01*
X124525117Y-111660240D01*
X124612112Y-111602112D01*
X124625534Y-111582024D01*
X124630962Y-111577644D01*
X124658369Y-111566828D01*
X124667321Y-111566978D01*
G37*
%TD.AperFunction*%
%TD*%
%TA.AperFunction,Conductor*%
%TO.N,/RESET*%
G36*
X116800055Y-108725849D02*
G01*
X117114913Y-108830523D01*
X117140102Y-108838897D01*
X117146872Y-108844759D01*
X117147514Y-108853691D01*
X117141652Y-108860461D01*
X117140102Y-108861103D01*
X116800059Y-108974149D01*
X116794822Y-108974643D01*
X116791117Y-108974149D01*
X116782345Y-108972979D01*
X116620154Y-108951353D01*
X116612406Y-108946863D01*
X116610000Y-108939756D01*
X116610000Y-108762200D01*
X116613427Y-108753927D01*
X116621700Y-108750500D01*
X116646048Y-108750500D01*
X116684762Y-108740126D01*
X116686193Y-108739840D01*
X116794826Y-108725356D01*
X116800055Y-108725849D01*
G37*
%TD.AperFunction*%
%TD*%
%TA.AperFunction,Conductor*%
%TO.N,/BOOT0*%
G36*
X116800055Y-109225849D02*
G01*
X117114913Y-109330523D01*
X117140102Y-109338897D01*
X117146872Y-109344759D01*
X117147514Y-109353691D01*
X117141652Y-109360461D01*
X117140102Y-109361103D01*
X116800059Y-109474149D01*
X116794822Y-109474643D01*
X116791117Y-109474149D01*
X116782345Y-109472979D01*
X116620154Y-109451353D01*
X116612406Y-109446863D01*
X116610000Y-109439756D01*
X116610000Y-109260243D01*
X116613427Y-109251970D01*
X116620153Y-109248646D01*
X116794826Y-109225356D01*
X116800055Y-109225849D01*
G37*
%TD.AperFunction*%
%TD*%
%TA.AperFunction,Conductor*%
%TO.N,/BOOT0*%
G36*
X116237099Y-109247821D02*
G01*
X116244321Y-109253111D01*
X116246022Y-109259186D01*
X116246022Y-109441740D01*
X116242595Y-109450013D01*
X116238239Y-109452765D01*
X115896534Y-109574167D01*
X115887591Y-109573707D01*
X115881826Y-109567664D01*
X115800893Y-109374519D01*
X115800857Y-109365568D01*
X115882243Y-109171339D01*
X115888601Y-109165034D01*
X115895807Y-109164496D01*
X116237099Y-109247821D01*
G37*
%TD.AperFunction*%
%TD*%
%TA.AperFunction,Conductor*%
%TO.N,/USART2_TX*%
G36*
X119604384Y-104518914D02*
G01*
X119798506Y-104598392D01*
X119802382Y-104600983D01*
X119950202Y-104750123D01*
X119953592Y-104758411D01*
X119950128Y-104766669D01*
X119949465Y-104767278D01*
X119638165Y-105031584D01*
X119629640Y-105034326D01*
X119622319Y-105030938D01*
X119493313Y-104901932D01*
X119489886Y-104893659D01*
X119490291Y-104890606D01*
X119528268Y-104750123D01*
X119588667Y-104526691D01*
X119594134Y-104519601D01*
X119603015Y-104518451D01*
X119604384Y-104518914D01*
G37*
%TD.AperFunction*%
%TD*%
%TA.AperFunction,Conductor*%
%TO.N,/USART2_TX*%
G36*
X119349822Y-105062033D02*
G01*
X119475058Y-105187269D01*
X119478456Y-105194719D01*
X119484836Y-105285176D01*
X119484260Y-105289711D01*
X119373197Y-105621650D01*
X119367323Y-105628409D01*
X119358390Y-105629033D01*
X119351631Y-105623159D01*
X119350633Y-105620250D01*
X119272749Y-105233918D01*
X119273194Y-105227688D01*
X119330526Y-105066386D01*
X119336524Y-105059740D01*
X119345467Y-105059282D01*
X119349822Y-105062033D01*
G37*
%TD.AperFunction*%
%TD*%
%TA.AperFunction,Conductor*%
%TO.N,+3.3V*%
G36*
X118203744Y-104419289D02*
G01*
X118210050Y-104425647D01*
X118210688Y-104427750D01*
X118297148Y-104853128D01*
X118295437Y-104861918D01*
X118288012Y-104866924D01*
X118285682Y-104867158D01*
X118104117Y-104867158D01*
X118096791Y-104864581D01*
X117851042Y-104667242D01*
X117846737Y-104659390D01*
X117849245Y-104650793D01*
X117850056Y-104649885D01*
X117998331Y-104500679D01*
X118002188Y-104498104D01*
X118194790Y-104419252D01*
X118203744Y-104419289D01*
G37*
%TD.AperFunction*%
%TD*%
%TA.AperFunction,Conductor*%
%TO.N,+3.3V*%
G36*
X118356783Y-105073945D02*
G01*
X118359277Y-105077640D01*
X118420658Y-105222015D01*
X118421478Y-105228212D01*
X118362065Y-105653483D01*
X118357527Y-105661202D01*
X118350895Y-105663557D01*
X118246509Y-105667283D01*
X118238119Y-105664153D01*
X118234407Y-105656193D01*
X118211341Y-105208302D01*
X118214338Y-105199865D01*
X118214733Y-105199449D01*
X118340238Y-105073944D01*
X118348510Y-105070518D01*
X118356783Y-105073945D01*
G37*
%TD.AperFunction*%
%TD*%
%TA.AperFunction,Conductor*%
%TO.N,+1V5*%
G36*
X120009356Y-112961383D02*
G01*
X120012364Y-112966554D01*
X120034081Y-113045532D01*
X120034500Y-113048634D01*
X120034500Y-113125037D01*
X120056680Y-113207819D01*
X120056682Y-113207823D01*
X120097980Y-113279352D01*
X120099129Y-113282100D01*
X120105145Y-113303977D01*
X120104035Y-113312862D01*
X120098386Y-113317870D01*
X119902194Y-113400080D01*
X119897620Y-113400989D01*
X119687606Y-113400056D01*
X119679348Y-113396592D01*
X119675958Y-113388304D01*
X119675995Y-113387433D01*
X119709147Y-112968733D01*
X119713216Y-112960756D01*
X119720810Y-112957956D01*
X120001083Y-112957956D01*
X120009356Y-112961383D01*
G37*
%TD.AperFunction*%
%TD*%
%TA.AperFunction,Conductor*%
%TO.N,+3.3V*%
G36*
X119370461Y-112568347D02*
G01*
X119371103Y-112569897D01*
X119484149Y-112909940D01*
X119484643Y-112915177D01*
X119461354Y-113089846D01*
X119456864Y-113097594D01*
X119449757Y-113100000D01*
X119270243Y-113100000D01*
X119261970Y-113096573D01*
X119258646Y-113089846D01*
X119235356Y-112915172D01*
X119235849Y-112909944D01*
X119348897Y-112569896D01*
X119354759Y-112563127D01*
X119363691Y-112562485D01*
X119370461Y-112568347D01*
G37*
%TD.AperFunction*%
%TD*%
%TA.AperFunction,Conductor*%
%TO.N,+3.3V*%
G36*
X119451702Y-113161122D02*
G01*
X119455129Y-113169395D01*
X119454455Y-113173310D01*
X119311978Y-113574542D01*
X119305980Y-113581192D01*
X119297037Y-113581653D01*
X119296519Y-113581455D01*
X119104521Y-113502851D01*
X119098163Y-113496545D01*
X119017893Y-113301823D01*
X119017908Y-113292870D01*
X119023099Y-113287099D01*
X119257378Y-113159126D01*
X119262987Y-113157695D01*
X119443429Y-113157695D01*
X119451702Y-113161122D01*
G37*
%TD.AperFunction*%
%TD*%
%TA.AperFunction,Conductor*%
%TO.N,/PB0-VDD_TCXO*%
G36*
X117240898Y-115172927D02*
G01*
X117248204Y-115178105D01*
X117250000Y-115184335D01*
X117250000Y-115415664D01*
X117246573Y-115423937D01*
X117240898Y-115427072D01*
X116895692Y-115505689D01*
X116886864Y-115504185D01*
X116882303Y-115498803D01*
X116851378Y-115425000D01*
X116800893Y-115304519D01*
X116800857Y-115295568D01*
X116882304Y-115101194D01*
X116888661Y-115094890D01*
X116895690Y-115094310D01*
X117240898Y-115172927D01*
G37*
%TD.AperFunction*%
%TD*%
%TA.AperFunction,Conductor*%
%TO.N,/OSC_IN*%
G36*
X118506721Y-112933714D02*
G01*
X118510147Y-112941838D01*
X118515388Y-113354673D01*
X118512067Y-113362989D01*
X118503838Y-113366521D01*
X118503741Y-113366522D01*
X118292917Y-113367459D01*
X118288343Y-113366550D01*
X118092950Y-113284675D01*
X118086644Y-113278317D01*
X118086477Y-113269885D01*
X118207199Y-112937988D01*
X118213247Y-112931384D01*
X118218194Y-112930287D01*
X118498448Y-112930287D01*
X118506721Y-112933714D01*
G37*
%TD.AperFunction*%
%TD*%
%TA.AperFunction,Conductor*%
%TO.N,Net-(U6-IN)*%
G36*
X105144897Y-108849166D02*
G01*
X105748336Y-109159333D01*
X106696590Y-109646736D01*
X106702381Y-109653565D01*
X106702941Y-109657141D01*
X106702941Y-109943164D01*
X106699514Y-109951437D01*
X106696986Y-109953356D01*
X105152911Y-110823651D01*
X105144021Y-110824728D01*
X105137090Y-110819406D01*
X104562469Y-109845891D01*
X104561215Y-109837025D01*
X104562413Y-109834093D01*
X105129421Y-108853712D01*
X105136528Y-108848268D01*
X105144897Y-108849166D01*
G37*
%TD.AperFunction*%
%TD*%
%TA.AperFunction,Conductor*%
%TO.N,/RFI-*%
G36*
X116800055Y-110225849D02*
G01*
X117114913Y-110330523D01*
X117140102Y-110338897D01*
X117146872Y-110344759D01*
X117147514Y-110353691D01*
X117141652Y-110360461D01*
X117140102Y-110361103D01*
X116800059Y-110474149D01*
X116794822Y-110474643D01*
X116791117Y-110474149D01*
X116782345Y-110472979D01*
X116620154Y-110451353D01*
X116612406Y-110446863D01*
X116610000Y-110439756D01*
X116610000Y-110260243D01*
X116613427Y-110251970D01*
X116620153Y-110248646D01*
X116794826Y-110225356D01*
X116800055Y-110225849D01*
G37*
%TD.AperFunction*%
%TD*%
%TA.AperFunction,Conductor*%
%TO.N,/RFI-*%
G36*
X112613762Y-110272580D02*
G01*
X112910457Y-110328210D01*
X112917956Y-110333103D01*
X112920000Y-110339710D01*
X112920000Y-110520289D01*
X112916573Y-110528562D01*
X112910456Y-110531789D01*
X112613768Y-110587418D01*
X112605005Y-110585574D01*
X112600112Y-110578074D01*
X112599912Y-110575991D01*
X112599000Y-110430073D01*
X112599000Y-110429927D01*
X112599606Y-110333103D01*
X112599912Y-110284006D01*
X112603391Y-110275756D01*
X112611685Y-110272381D01*
X112613762Y-110272580D01*
G37*
%TD.AperFunction*%
%TD*%
%TA.AperFunction,Conductor*%
%TO.N,/RFI+*%
G36*
X112613762Y-109642580D02*
G01*
X112910457Y-109698210D01*
X112917956Y-109703103D01*
X112920000Y-109709710D01*
X112920000Y-109890289D01*
X112916573Y-109898562D01*
X112910456Y-109901789D01*
X112613768Y-109957418D01*
X112605005Y-109955574D01*
X112600112Y-109948074D01*
X112599912Y-109945991D01*
X112599000Y-109800073D01*
X112599000Y-109799927D01*
X112599606Y-109703103D01*
X112599912Y-109654006D01*
X112603391Y-109645756D01*
X112611685Y-109642381D01*
X112613762Y-109642580D01*
G37*
%TD.AperFunction*%
%TD*%
%TA.AperFunction,Conductor*%
%TO.N,/RFI+*%
G36*
X116800055Y-109725849D02*
G01*
X117114913Y-109830523D01*
X117140102Y-109838897D01*
X117146872Y-109844759D01*
X117147514Y-109853691D01*
X117141652Y-109860461D01*
X117140102Y-109861103D01*
X116800059Y-109974149D01*
X116794822Y-109974643D01*
X116791117Y-109974149D01*
X116782345Y-109972979D01*
X116620154Y-109951353D01*
X116612406Y-109946863D01*
X116610000Y-109939756D01*
X116610000Y-109760243D01*
X116613427Y-109751970D01*
X116620153Y-109748646D01*
X116794826Y-109725356D01*
X116800055Y-109725849D01*
G37*
%TD.AperFunction*%
%TD*%
%TA.AperFunction,Conductor*%
%TO.N,/JTMS{slash}SWDIO*%
G36*
X123157375Y-116912886D02*
G01*
X123288556Y-117044067D01*
X123291983Y-117052340D01*
X123291769Y-117054570D01*
X123051836Y-118290538D01*
X123046895Y-118298006D01*
X123040360Y-118300008D01*
X122207127Y-118300700D01*
X122198851Y-118297280D01*
X122196303Y-118293466D01*
X121878956Y-117524962D01*
X121878965Y-117516007D01*
X121884740Y-117509932D01*
X123144077Y-116910593D01*
X123153017Y-116910133D01*
X123157375Y-116912886D01*
G37*
%TD.AperFunction*%
%TD*%
%TA.AperFunction,Conductor*%
%TO.N,/JTMS{slash}SWDIO*%
G36*
X123369484Y-112571283D02*
G01*
X123370292Y-112573379D01*
X123473421Y-112942893D01*
X123473649Y-112948208D01*
X123446799Y-113090470D01*
X123441897Y-113097964D01*
X123435302Y-113100000D01*
X123256092Y-113100000D01*
X123247819Y-113096573D01*
X123244409Y-113088923D01*
X123235118Y-112914714D01*
X123235698Y-112910400D01*
X123347921Y-112572830D01*
X123353782Y-112566063D01*
X123362714Y-112565421D01*
X123369484Y-112571283D01*
G37*
%TD.AperFunction*%
%TD*%
%TA.AperFunction,Conductor*%
%TO.N,/USART1_TX*%
G36*
X121958030Y-105103427D02*
G01*
X121961354Y-105110154D01*
X121984643Y-105284822D01*
X121984149Y-105290059D01*
X121871103Y-105630102D01*
X121865241Y-105636872D01*
X121856309Y-105637514D01*
X121849539Y-105631652D01*
X121848897Y-105630102D01*
X121840523Y-105604913D01*
X121735849Y-105290055D01*
X121735356Y-105284826D01*
X121758646Y-105110153D01*
X121763136Y-105102406D01*
X121770243Y-105100000D01*
X121949757Y-105100000D01*
X121958030Y-105103427D01*
G37*
%TD.AperFunction*%
%TD*%
%TA.AperFunction,Conductor*%
%TO.N,/USART1_TX*%
G36*
X121462232Y-101827004D02*
G01*
X122231230Y-102146513D01*
X122237555Y-102152852D01*
X122238160Y-102159865D01*
X121962041Y-103397878D01*
X121956896Y-103405207D01*
X121950622Y-103407031D01*
X121765120Y-103407031D01*
X121756847Y-103403604D01*
X121756525Y-103403269D01*
X120861581Y-102434294D01*
X120858485Y-102425892D01*
X120861895Y-102418091D01*
X121449466Y-101829543D01*
X121457734Y-101826110D01*
X121462232Y-101827004D01*
G37*
%TD.AperFunction*%
%TD*%
%TA.AperFunction,Conductor*%
%TO.N,/USART1_RX*%
G36*
X119697511Y-101504576D02*
G01*
X119703836Y-101510915D01*
X119704166Y-101511818D01*
X120167636Y-102961593D01*
X120166891Y-102970517D01*
X120164765Y-102973429D01*
X120033571Y-103104623D01*
X120025298Y-103108050D01*
X120021460Y-103107403D01*
X118601425Y-102614362D01*
X118594734Y-102608411D01*
X118594210Y-102599471D01*
X118594449Y-102598843D01*
X118912438Y-101828783D01*
X118918759Y-101822448D01*
X119688557Y-101504567D01*
X119697511Y-101504576D01*
G37*
%TD.AperFunction*%
%TD*%
%TA.AperFunction,Conductor*%
%TO.N,/USART1_RX*%
G36*
X121458030Y-105103427D02*
G01*
X121461354Y-105110154D01*
X121484643Y-105284822D01*
X121484149Y-105290059D01*
X121371103Y-105630102D01*
X121365241Y-105636872D01*
X121356309Y-105637514D01*
X121349539Y-105631652D01*
X121348897Y-105630102D01*
X121340523Y-105604913D01*
X121235849Y-105290055D01*
X121235356Y-105284826D01*
X121258646Y-105110153D01*
X121263136Y-105102406D01*
X121270243Y-105100000D01*
X121449757Y-105100000D01*
X121458030Y-105103427D01*
G37*
%TD.AperFunction*%
%TD*%
%TA.AperFunction,Conductor*%
%TO.N,/TIM1_CH1_LED_1*%
G36*
X112711252Y-101099938D02*
G01*
X112719508Y-101103402D01*
X112722898Y-101111690D01*
X112722739Y-101113561D01*
X112651630Y-101540223D01*
X112646890Y-101547821D01*
X112640089Y-101550000D01*
X112359911Y-101550000D01*
X112351638Y-101546573D01*
X112348370Y-101540223D01*
X112277260Y-101113561D01*
X112279280Y-101104838D01*
X112286878Y-101100097D01*
X112288737Y-101099938D01*
X112500000Y-101099000D01*
X112711252Y-101099938D01*
G37*
%TD.AperFunction*%
%TD*%
%TA.AperFunction,Conductor*%
%TO.N,/USART2_RX*%
G36*
X118981221Y-105103427D02*
G01*
X118984648Y-105111677D01*
X118984996Y-105285593D01*
X118984399Y-105289307D01*
X118872603Y-105625590D01*
X118866741Y-105632360D01*
X118857809Y-105633002D01*
X118851039Y-105627140D01*
X118850160Y-105624781D01*
X118753917Y-105246081D01*
X118753829Y-105240705D01*
X118782612Y-105109198D01*
X118787728Y-105101849D01*
X118794041Y-105100000D01*
X118972948Y-105100000D01*
X118981221Y-105103427D01*
G37*
%TD.AperFunction*%
%TD*%
%TA.AperFunction,Conductor*%
%TO.N,/USART2_RX*%
G36*
X119082819Y-104982048D02*
G01*
X119089125Y-104988406D01*
X119089515Y-104996164D01*
X118987108Y-105341625D01*
X118981471Y-105348583D01*
X118975890Y-105350000D01*
X118793360Y-105350000D01*
X118785087Y-105346573D01*
X118782142Y-105341625D01*
X118679734Y-104996164D01*
X118680669Y-104987258D01*
X118686428Y-104982049D01*
X118880105Y-104900893D01*
X118889056Y-104900857D01*
X119082819Y-104982048D01*
G37*
%TD.AperFunction*%
%TD*%
%TA.AperFunction,Conductor*%
%TO.N,/TIM1_CH2_LED_2*%
G36*
X111365879Y-106150653D02*
G01*
X111367090Y-106152089D01*
X111618503Y-106504067D01*
X111620523Y-106512790D01*
X111617255Y-106519140D01*
X111419140Y-106717255D01*
X111410867Y-106720682D01*
X111404067Y-106718503D01*
X111052089Y-106467090D01*
X111047348Y-106459492D01*
X111049368Y-106450769D01*
X111050569Y-106449343D01*
X111199293Y-106299293D01*
X111349335Y-106150577D01*
X111357621Y-106147189D01*
X111365879Y-106150653D01*
G37*
%TD.AperFunction*%
%TD*%
M02*
