%TF.GenerationSoftware,KiCad,Pcbnew,8.0.0*%
%TF.CreationDate,2024-03-05T20:17:21-06:00*%
%TF.ProjectId,rigel-a-hw,72696765-6c2d-4612-9d68-772e6b696361,rev?*%
%TF.SameCoordinates,Original*%
%TF.FileFunction,Legend,Bot*%
%TF.FilePolarity,Positive*%
%FSLAX46Y46*%
G04 Gerber Fmt 4.6, Leading zero omitted, Abs format (unit mm)*
G04 Created by KiCad (PCBNEW 8.0.0) date 2024-03-05 20:17:21*
%MOMM*%
%LPD*%
G01*
G04 APERTURE LIST*
G04 Aperture macros list*
%AMRoundRect*
0 Rectangle with rounded corners*
0 $1 Rounding radius*
0 $2 $3 $4 $5 $6 $7 $8 $9 X,Y pos of 4 corners*
0 Add a 4 corners polygon primitive as box body*
4,1,4,$2,$3,$4,$5,$6,$7,$8,$9,$2,$3,0*
0 Add four circle primitives for the rounded corners*
1,1,$1+$1,$2,$3*
1,1,$1+$1,$4,$5*
1,1,$1+$1,$6,$7*
1,1,$1+$1,$8,$9*
0 Add four rect primitives between the rounded corners*
20,1,$1+$1,$2,$3,$4,$5,0*
20,1,$1+$1,$4,$5,$6,$7,0*
20,1,$1+$1,$6,$7,$8,$9,0*
20,1,$1+$1,$8,$9,$2,$3,0*%
G04 Aperture macros list end*
%ADD10C,0.110000*%
%ADD11C,0.120000*%
%ADD12C,0.220000*%
%ADD13C,0.150000*%
%ADD14C,0.170000*%
%ADD15C,0.000000*%
%ADD16C,2.200000*%
%ADD17RoundRect,0.140000X0.140000X0.170000X-0.140000X0.170000X-0.140000X-0.170000X0.140000X-0.170000X0*%
%ADD18C,2.300000*%
%ADD19RoundRect,0.225000X0.250000X-0.225000X0.250000X0.225000X-0.250000X0.225000X-0.250000X-0.225000X0*%
%ADD20R,1.700000X1.700000*%
%ADD21O,1.700000X1.700000*%
%ADD22RoundRect,0.140000X-0.140000X-0.170000X0.140000X-0.170000X0.140000X0.170000X-0.140000X0.170000X0*%
%ADD23C,0.700025*%
%ADD24R,1.100000X0.550013*%
%ADD25R,1.100000X0.300000*%
%ADD26O,1.800000X1.200000*%
%ADD27O,2.000000X1.100000*%
%ADD28O,1.620015X0.280010*%
%ADD29RoundRect,0.135000X0.185000X-0.135000X0.185000X0.135000X-0.185000X0.135000X-0.185000X-0.135000X0*%
%ADD30RoundRect,0.225000X0.225000X0.250000X-0.225000X0.250000X-0.225000X-0.250000X0.225000X-0.250000X0*%
%ADD31R,0.600000X0.750013*%
%ADD32RoundRect,0.140000X-0.170000X0.140000X-0.170000X-0.140000X0.170000X-0.140000X0.170000X0.140000X0*%
%ADD33R,1.399543X1.000000*%
%ADD34R,1.377013X1.132537*%
%ADD35R,1.070003X0.600000*%
%ADD36RoundRect,0.200000X0.275000X-0.200000X0.275000X0.200000X-0.275000X0.200000X-0.275000X-0.200000X0*%
%ADD37RoundRect,0.200000X0.200000X0.275000X-0.200000X0.275000X-0.200000X-0.275000X0.200000X-0.275000X0*%
G04 APERTURE END LIST*
D10*
X112420786Y-118995684D02*
X112483584Y-118964732D01*
X112483584Y-118964732D02*
X112583584Y-118964732D01*
X112583584Y-118964732D02*
X112687453Y-118995684D01*
X112687453Y-118995684D02*
X112761858Y-119057589D01*
X112761858Y-119057589D02*
X112802929Y-119119494D01*
X112802929Y-119119494D02*
X112851739Y-119243303D01*
X112851739Y-119243303D02*
X112863346Y-119336160D01*
X112863346Y-119336160D02*
X112845489Y-119459970D01*
X112845489Y-119459970D02*
X112819893Y-119521875D01*
X112819893Y-119521875D02*
X112760965Y-119583780D01*
X112760965Y-119583780D02*
X112664834Y-119614732D01*
X112664834Y-119614732D02*
X112598167Y-119614732D01*
X112598167Y-119614732D02*
X112494298Y-119583780D01*
X112494298Y-119583780D02*
X112457096Y-119552827D01*
X112457096Y-119552827D02*
X112430012Y-119336160D01*
X112430012Y-119336160D02*
X112563346Y-119336160D01*
X111764834Y-119614732D02*
X111959477Y-119305208D01*
X112164834Y-119614732D02*
X112083584Y-118964732D01*
X112083584Y-118964732D02*
X111816917Y-118964732D01*
X111816917Y-118964732D02*
X111754120Y-118995684D01*
X111754120Y-118995684D02*
X111724655Y-119026637D01*
X111724655Y-119026637D02*
X111699060Y-119088541D01*
X111699060Y-119088541D02*
X111710667Y-119181399D01*
X111710667Y-119181399D02*
X111751739Y-119243303D01*
X111751739Y-119243303D02*
X111788941Y-119274256D01*
X111788941Y-119274256D02*
X111859477Y-119305208D01*
X111859477Y-119305208D02*
X112126143Y-119305208D01*
X111250251Y-118964732D02*
X111116917Y-118964732D01*
X111116917Y-118964732D02*
X111054120Y-118995684D01*
X111054120Y-118995684D02*
X110995191Y-119057589D01*
X110995191Y-119057589D02*
X110977334Y-119181399D01*
X110977334Y-119181399D02*
X111004417Y-119398065D01*
X111004417Y-119398065D02*
X111053227Y-119521875D01*
X111053227Y-119521875D02*
X111127632Y-119583780D01*
X111127632Y-119583780D02*
X111198167Y-119614732D01*
X111198167Y-119614732D02*
X111331501Y-119614732D01*
X111331501Y-119614732D02*
X111394298Y-119583780D01*
X111394298Y-119583780D02*
X111453227Y-119521875D01*
X111453227Y-119521875D02*
X111471084Y-119398065D01*
X111471084Y-119398065D02*
X111444001Y-119181399D01*
X111444001Y-119181399D02*
X111395191Y-119057589D01*
X111395191Y-119057589D02*
X111320786Y-118995684D01*
X111320786Y-118995684D02*
X111250251Y-118964732D01*
X110650251Y-118964732D02*
X110716025Y-119490922D01*
X110716025Y-119490922D02*
X110690429Y-119552827D01*
X110690429Y-119552827D02*
X110660965Y-119583780D01*
X110660965Y-119583780D02*
X110598168Y-119614732D01*
X110598168Y-119614732D02*
X110464834Y-119614732D01*
X110464834Y-119614732D02*
X110394299Y-119583780D01*
X110394299Y-119583780D02*
X110357096Y-119552827D01*
X110357096Y-119552827D02*
X110316025Y-119490922D01*
X110316025Y-119490922D02*
X110250251Y-118964732D01*
X109998168Y-119614732D02*
X109916918Y-118964732D01*
X109916918Y-118964732D02*
X109598168Y-119614732D01*
X109598168Y-119614732D02*
X109516918Y-118964732D01*
X109264835Y-119614732D02*
X109183585Y-118964732D01*
X109183585Y-118964732D02*
X109016918Y-118964732D01*
X109016918Y-118964732D02*
X108920787Y-118995684D01*
X108920787Y-118995684D02*
X108861859Y-119057589D01*
X108861859Y-119057589D02*
X108836263Y-119119494D01*
X108836263Y-119119494D02*
X108818406Y-119243303D01*
X108818406Y-119243303D02*
X108830013Y-119336160D01*
X108830013Y-119336160D02*
X108878823Y-119459970D01*
X108878823Y-119459970D02*
X108919894Y-119521875D01*
X108919894Y-119521875D02*
X108994299Y-119583780D01*
X108994299Y-119583780D02*
X109098168Y-119614732D01*
X109098168Y-119614732D02*
X109264835Y-119614732D01*
X108060966Y-119583780D02*
X107964835Y-119614732D01*
X107964835Y-119614732D02*
X107798169Y-119614732D01*
X107798169Y-119614732D02*
X107727633Y-119583780D01*
X107727633Y-119583780D02*
X107690430Y-119552827D01*
X107690430Y-119552827D02*
X107649359Y-119490922D01*
X107649359Y-119490922D02*
X107641621Y-119429018D01*
X107641621Y-119429018D02*
X107667216Y-119367113D01*
X107667216Y-119367113D02*
X107696680Y-119336160D01*
X107696680Y-119336160D02*
X107759478Y-119305208D01*
X107759478Y-119305208D02*
X107888942Y-119274256D01*
X107888942Y-119274256D02*
X107951740Y-119243303D01*
X107951740Y-119243303D02*
X107981204Y-119212351D01*
X107981204Y-119212351D02*
X108006800Y-119150446D01*
X108006800Y-119150446D02*
X107999061Y-119088541D01*
X107999061Y-119088541D02*
X107957990Y-119026637D01*
X107957990Y-119026637D02*
X107920788Y-118995684D01*
X107920788Y-118995684D02*
X107850252Y-118964732D01*
X107850252Y-118964732D02*
X107683585Y-118964732D01*
X107683585Y-118964732D02*
X107587454Y-118995684D01*
X107383585Y-118964732D02*
X106983585Y-118964732D01*
X107264835Y-119614732D02*
X107183585Y-118964732D01*
X106841621Y-119429018D02*
X106508288Y-119429018D01*
X106931502Y-119614732D02*
X106616919Y-118964732D01*
X106616919Y-118964732D02*
X106464835Y-119614732D01*
X106250252Y-118964732D02*
X105850252Y-118964732D01*
X106131502Y-119614732D02*
X106050252Y-118964732D01*
X105698169Y-119614732D02*
X105616919Y-118964732D01*
X105150253Y-118964732D02*
X105016919Y-118964732D01*
X105016919Y-118964732D02*
X104954122Y-118995684D01*
X104954122Y-118995684D02*
X104895193Y-119057589D01*
X104895193Y-119057589D02*
X104877336Y-119181399D01*
X104877336Y-119181399D02*
X104904419Y-119398065D01*
X104904419Y-119398065D02*
X104953229Y-119521875D01*
X104953229Y-119521875D02*
X105027634Y-119583780D01*
X105027634Y-119583780D02*
X105098169Y-119614732D01*
X105098169Y-119614732D02*
X105231503Y-119614732D01*
X105231503Y-119614732D02*
X105294300Y-119583780D01*
X105294300Y-119583780D02*
X105353229Y-119521875D01*
X105353229Y-119521875D02*
X105371086Y-119398065D01*
X105371086Y-119398065D02*
X105344003Y-119181399D01*
X105344003Y-119181399D02*
X105295193Y-119057589D01*
X105295193Y-119057589D02*
X105220788Y-118995684D01*
X105220788Y-118995684D02*
X105150253Y-118964732D01*
X104631503Y-119614732D02*
X104550253Y-118964732D01*
X104550253Y-118964732D02*
X104231503Y-119614732D01*
X104231503Y-119614732D02*
X104150253Y-118964732D01*
D11*
X129787719Y-115833950D02*
X129854386Y-115795855D01*
X129854386Y-115795855D02*
X129954386Y-115795855D01*
X129954386Y-115795855D02*
X130054386Y-115833950D01*
X130054386Y-115833950D02*
X130121053Y-115910140D01*
X130121053Y-115910140D02*
X130154386Y-115986331D01*
X130154386Y-115986331D02*
X130187719Y-116138712D01*
X130187719Y-116138712D02*
X130187719Y-116252998D01*
X130187719Y-116252998D02*
X130154386Y-116405379D01*
X130154386Y-116405379D02*
X130121053Y-116481569D01*
X130121053Y-116481569D02*
X130054386Y-116557760D01*
X130054386Y-116557760D02*
X129954386Y-116595855D01*
X129954386Y-116595855D02*
X129887719Y-116595855D01*
X129887719Y-116595855D02*
X129787719Y-116557760D01*
X129787719Y-116557760D02*
X129754386Y-116519664D01*
X129754386Y-116519664D02*
X129754386Y-116252998D01*
X129754386Y-116252998D02*
X129887719Y-116252998D01*
X129454386Y-116595855D02*
X129454386Y-115795855D01*
X129454386Y-115795855D02*
X129054386Y-116595855D01*
X129054386Y-116595855D02*
X129054386Y-115795855D01*
X128721053Y-116595855D02*
X128721053Y-115795855D01*
X128721053Y-115795855D02*
X128554386Y-115795855D01*
X128554386Y-115795855D02*
X128454386Y-115833950D01*
X128454386Y-115833950D02*
X128387720Y-115910140D01*
X128387720Y-115910140D02*
X128354386Y-115986331D01*
X128354386Y-115986331D02*
X128321053Y-116138712D01*
X128321053Y-116138712D02*
X128321053Y-116252998D01*
X128321053Y-116252998D02*
X128354386Y-116405379D01*
X128354386Y-116405379D02*
X128387720Y-116481569D01*
X128387720Y-116481569D02*
X128454386Y-116557760D01*
X128454386Y-116557760D02*
X128554386Y-116595855D01*
X128554386Y-116595855D02*
X128721053Y-116595855D01*
X127521053Y-116557760D02*
X127421053Y-116595855D01*
X127421053Y-116595855D02*
X127254387Y-116595855D01*
X127254387Y-116595855D02*
X127187720Y-116557760D01*
X127187720Y-116557760D02*
X127154387Y-116519664D01*
X127154387Y-116519664D02*
X127121053Y-116443474D01*
X127121053Y-116443474D02*
X127121053Y-116367283D01*
X127121053Y-116367283D02*
X127154387Y-116291093D01*
X127154387Y-116291093D02*
X127187720Y-116252998D01*
X127187720Y-116252998D02*
X127254387Y-116214902D01*
X127254387Y-116214902D02*
X127387720Y-116176807D01*
X127387720Y-116176807D02*
X127454387Y-116138712D01*
X127454387Y-116138712D02*
X127487720Y-116100617D01*
X127487720Y-116100617D02*
X127521053Y-116024426D01*
X127521053Y-116024426D02*
X127521053Y-115948236D01*
X127521053Y-115948236D02*
X127487720Y-115872045D01*
X127487720Y-115872045D02*
X127454387Y-115833950D01*
X127454387Y-115833950D02*
X127387720Y-115795855D01*
X127387720Y-115795855D02*
X127221053Y-115795855D01*
X127221053Y-115795855D02*
X127121053Y-115833950D01*
X126887720Y-115795855D02*
X126721053Y-116595855D01*
X126721053Y-116595855D02*
X126587720Y-116024426D01*
X126587720Y-116024426D02*
X126454386Y-116595855D01*
X126454386Y-116595855D02*
X126287720Y-115795855D01*
X125621053Y-116519664D02*
X125654386Y-116557760D01*
X125654386Y-116557760D02*
X125754386Y-116595855D01*
X125754386Y-116595855D02*
X125821053Y-116595855D01*
X125821053Y-116595855D02*
X125921053Y-116557760D01*
X125921053Y-116557760D02*
X125987720Y-116481569D01*
X125987720Y-116481569D02*
X126021053Y-116405379D01*
X126021053Y-116405379D02*
X126054386Y-116252998D01*
X126054386Y-116252998D02*
X126054386Y-116138712D01*
X126054386Y-116138712D02*
X126021053Y-115986331D01*
X126021053Y-115986331D02*
X125987720Y-115910140D01*
X125987720Y-115910140D02*
X125921053Y-115833950D01*
X125921053Y-115833950D02*
X125821053Y-115795855D01*
X125821053Y-115795855D02*
X125754386Y-115795855D01*
X125754386Y-115795855D02*
X125654386Y-115833950D01*
X125654386Y-115833950D02*
X125621053Y-115872045D01*
X124987720Y-116595855D02*
X125321053Y-116595855D01*
X125321053Y-116595855D02*
X125321053Y-115795855D01*
X124754386Y-116595855D02*
X124754386Y-115795855D01*
X124354386Y-116595855D02*
X124654386Y-116138712D01*
X124354386Y-115795855D02*
X124754386Y-116252998D01*
X123554386Y-116557760D02*
X123454386Y-116595855D01*
X123454386Y-116595855D02*
X123287720Y-116595855D01*
X123287720Y-116595855D02*
X123221053Y-116557760D01*
X123221053Y-116557760D02*
X123187720Y-116519664D01*
X123187720Y-116519664D02*
X123154386Y-116443474D01*
X123154386Y-116443474D02*
X123154386Y-116367283D01*
X123154386Y-116367283D02*
X123187720Y-116291093D01*
X123187720Y-116291093D02*
X123221053Y-116252998D01*
X123221053Y-116252998D02*
X123287720Y-116214902D01*
X123287720Y-116214902D02*
X123421053Y-116176807D01*
X123421053Y-116176807D02*
X123487720Y-116138712D01*
X123487720Y-116138712D02*
X123521053Y-116100617D01*
X123521053Y-116100617D02*
X123554386Y-116024426D01*
X123554386Y-116024426D02*
X123554386Y-115948236D01*
X123554386Y-115948236D02*
X123521053Y-115872045D01*
X123521053Y-115872045D02*
X123487720Y-115833950D01*
X123487720Y-115833950D02*
X123421053Y-115795855D01*
X123421053Y-115795855D02*
X123254386Y-115795855D01*
X123254386Y-115795855D02*
X123154386Y-115833950D01*
X122921053Y-115795855D02*
X122754386Y-116595855D01*
X122754386Y-116595855D02*
X122621053Y-116024426D01*
X122621053Y-116024426D02*
X122487719Y-116595855D01*
X122487719Y-116595855D02*
X122321053Y-115795855D01*
X122054386Y-116595855D02*
X122054386Y-115795855D01*
X122054386Y-115795855D02*
X121887719Y-115795855D01*
X121887719Y-115795855D02*
X121787719Y-115833950D01*
X121787719Y-115833950D02*
X121721053Y-115910140D01*
X121721053Y-115910140D02*
X121687719Y-115986331D01*
X121687719Y-115986331D02*
X121654386Y-116138712D01*
X121654386Y-116138712D02*
X121654386Y-116252998D01*
X121654386Y-116252998D02*
X121687719Y-116405379D01*
X121687719Y-116405379D02*
X121721053Y-116481569D01*
X121721053Y-116481569D02*
X121787719Y-116557760D01*
X121787719Y-116557760D02*
X121887719Y-116595855D01*
X121887719Y-116595855D02*
X122054386Y-116595855D01*
X121354386Y-116595855D02*
X121354386Y-115795855D01*
X120887720Y-115795855D02*
X120754386Y-115795855D01*
X120754386Y-115795855D02*
X120687720Y-115833950D01*
X120687720Y-115833950D02*
X120621053Y-115910140D01*
X120621053Y-115910140D02*
X120587720Y-116062521D01*
X120587720Y-116062521D02*
X120587720Y-116329188D01*
X120587720Y-116329188D02*
X120621053Y-116481569D01*
X120621053Y-116481569D02*
X120687720Y-116557760D01*
X120687720Y-116557760D02*
X120754386Y-116595855D01*
X120754386Y-116595855D02*
X120887720Y-116595855D01*
X120887720Y-116595855D02*
X120954386Y-116557760D01*
X120954386Y-116557760D02*
X121021053Y-116481569D01*
X121021053Y-116481569D02*
X121054386Y-116329188D01*
X121054386Y-116329188D02*
X121054386Y-116062521D01*
X121054386Y-116062521D02*
X121021053Y-115910140D01*
X121021053Y-115910140D02*
X120954386Y-115833950D01*
X120954386Y-115833950D02*
X120887720Y-115795855D01*
X108587719Y-100974760D02*
X108487719Y-101008093D01*
X108487719Y-101008093D02*
X108321053Y-101008093D01*
X108321053Y-101008093D02*
X108254386Y-100974760D01*
X108254386Y-100974760D02*
X108221053Y-100941426D01*
X108221053Y-100941426D02*
X108187719Y-100874760D01*
X108187719Y-100874760D02*
X108187719Y-100808093D01*
X108187719Y-100808093D02*
X108221053Y-100741426D01*
X108221053Y-100741426D02*
X108254386Y-100708093D01*
X108254386Y-100708093D02*
X108321053Y-100674760D01*
X108321053Y-100674760D02*
X108454386Y-100641426D01*
X108454386Y-100641426D02*
X108521053Y-100608093D01*
X108521053Y-100608093D02*
X108554386Y-100574760D01*
X108554386Y-100574760D02*
X108587719Y-100508093D01*
X108587719Y-100508093D02*
X108587719Y-100441426D01*
X108587719Y-100441426D02*
X108554386Y-100374760D01*
X108554386Y-100374760D02*
X108521053Y-100341426D01*
X108521053Y-100341426D02*
X108454386Y-100308093D01*
X108454386Y-100308093D02*
X108287719Y-100308093D01*
X108287719Y-100308093D02*
X108187719Y-100341426D01*
X107987719Y-100308093D02*
X107587719Y-100308093D01*
X107787719Y-101008093D02*
X107787719Y-100308093D01*
X107387719Y-100808093D02*
X107054386Y-100808093D01*
X107454386Y-101008093D02*
X107221053Y-100308093D01*
X107221053Y-100308093D02*
X106987719Y-101008093D01*
X106854386Y-100308093D02*
X106454386Y-100308093D01*
X106654386Y-101008093D02*
X106654386Y-100308093D01*
X105687720Y-101008093D02*
X105687720Y-100308093D01*
X105354387Y-101008093D02*
X105354387Y-100308093D01*
X105354387Y-100308093D02*
X104954387Y-101008093D01*
X104954387Y-101008093D02*
X104954387Y-100308093D01*
X104387721Y-100641426D02*
X104621054Y-100641426D01*
X104621054Y-101008093D02*
X104621054Y-100308093D01*
X104621054Y-100308093D02*
X104287721Y-100308093D01*
X103887721Y-100308093D02*
X103754387Y-100308093D01*
X103754387Y-100308093D02*
X103687721Y-100341426D01*
X103687721Y-100341426D02*
X103621054Y-100408093D01*
X103621054Y-100408093D02*
X103587721Y-100541426D01*
X103587721Y-100541426D02*
X103587721Y-100774760D01*
X103587721Y-100774760D02*
X103621054Y-100908093D01*
X103621054Y-100908093D02*
X103687721Y-100974760D01*
X103687721Y-100974760D02*
X103754387Y-101008093D01*
X103754387Y-101008093D02*
X103887721Y-101008093D01*
X103887721Y-101008093D02*
X103954387Y-100974760D01*
X103954387Y-100974760D02*
X104021054Y-100908093D01*
X104021054Y-100908093D02*
X104054387Y-100774760D01*
X104054387Y-100774760D02*
X104054387Y-100541426D01*
X104054387Y-100541426D02*
X104021054Y-100408093D01*
X104021054Y-100408093D02*
X103954387Y-100341426D01*
X103954387Y-100341426D02*
X103887721Y-100308093D01*
D12*
X106811216Y-115717226D02*
X107161216Y-115050560D01*
X107554073Y-115717226D02*
X107379073Y-114317226D01*
X107379073Y-114317226D02*
X106883835Y-114317226D01*
X106883835Y-114317226D02*
X106768359Y-114383893D01*
X106768359Y-114383893D02*
X106714787Y-114450560D01*
X106714787Y-114450560D02*
X106669549Y-114583893D01*
X106669549Y-114583893D02*
X106694549Y-114783893D01*
X106694549Y-114783893D02*
X106773121Y-114917226D01*
X106773121Y-114917226D02*
X106843359Y-114983893D01*
X106843359Y-114983893D02*
X106975502Y-115050560D01*
X106975502Y-115050560D02*
X107470740Y-115050560D01*
X106254073Y-115717226D02*
X106079073Y-114317226D01*
X104787406Y-114383893D02*
X104902882Y-114317226D01*
X104902882Y-114317226D02*
X105088596Y-114317226D01*
X105088596Y-114317226D02*
X105282644Y-114383893D01*
X105282644Y-114383893D02*
X105423120Y-114517226D01*
X105423120Y-114517226D02*
X105501692Y-114650560D01*
X105501692Y-114650560D02*
X105596930Y-114917226D01*
X105596930Y-114917226D02*
X105621930Y-115117226D01*
X105621930Y-115117226D02*
X105593358Y-115383893D01*
X105593358Y-115383893D02*
X105548120Y-115517226D01*
X105548120Y-115517226D02*
X105440977Y-115650560D01*
X105440977Y-115650560D02*
X105263596Y-115717226D01*
X105263596Y-115717226D02*
X105139787Y-115717226D01*
X105139787Y-115717226D02*
X104945739Y-115650560D01*
X104945739Y-115650560D02*
X104875501Y-115583893D01*
X104875501Y-115583893D02*
X104817168Y-115117226D01*
X104817168Y-115117226D02*
X105064787Y-115117226D01*
X104243358Y-114983893D02*
X103810025Y-114983893D01*
X103715977Y-115717226D02*
X104335025Y-115717226D01*
X104335025Y-115717226D02*
X104160025Y-114317226D01*
X104160025Y-114317226D02*
X103540977Y-114317226D01*
X102539787Y-115717226D02*
X103158835Y-115717226D01*
X103158835Y-115717226D02*
X102983835Y-114317226D01*
X101127883Y-115317226D02*
X100508835Y-115317226D01*
X101301692Y-115717226D02*
X100693359Y-114317226D01*
X100693359Y-114317226D02*
X100435026Y-115717226D01*
D13*
X120010839Y-118922200D02*
X119867982Y-118969819D01*
X119867982Y-118969819D02*
X119629887Y-118969819D01*
X119629887Y-118969819D02*
X119534649Y-118922200D01*
X119534649Y-118922200D02*
X119487030Y-118874580D01*
X119487030Y-118874580D02*
X119439411Y-118779342D01*
X119439411Y-118779342D02*
X119439411Y-118684104D01*
X119439411Y-118684104D02*
X119487030Y-118588866D01*
X119487030Y-118588866D02*
X119534649Y-118541247D01*
X119534649Y-118541247D02*
X119629887Y-118493628D01*
X119629887Y-118493628D02*
X119820363Y-118446009D01*
X119820363Y-118446009D02*
X119915601Y-118398390D01*
X119915601Y-118398390D02*
X119963220Y-118350771D01*
X119963220Y-118350771D02*
X120010839Y-118255533D01*
X120010839Y-118255533D02*
X120010839Y-118160295D01*
X120010839Y-118160295D02*
X119963220Y-118065057D01*
X119963220Y-118065057D02*
X119915601Y-118017438D01*
X119915601Y-118017438D02*
X119820363Y-117969819D01*
X119820363Y-117969819D02*
X119582268Y-117969819D01*
X119582268Y-117969819D02*
X119439411Y-118017438D01*
X119106077Y-117969819D02*
X118867982Y-118969819D01*
X118867982Y-118969819D02*
X118677506Y-118255533D01*
X118677506Y-118255533D02*
X118487030Y-118969819D01*
X118487030Y-118969819D02*
X118248935Y-117969819D01*
X117867982Y-118969819D02*
X117867982Y-117969819D01*
X117867982Y-117969819D02*
X117629887Y-117969819D01*
X117629887Y-117969819D02*
X117487030Y-118017438D01*
X117487030Y-118017438D02*
X117391792Y-118112676D01*
X117391792Y-118112676D02*
X117344173Y-118207914D01*
X117344173Y-118207914D02*
X117296554Y-118398390D01*
X117296554Y-118398390D02*
X117296554Y-118541247D01*
X117296554Y-118541247D02*
X117344173Y-118731723D01*
X117344173Y-118731723D02*
X117391792Y-118826961D01*
X117391792Y-118826961D02*
X117487030Y-118922200D01*
X117487030Y-118922200D02*
X117629887Y-118969819D01*
X117629887Y-118969819D02*
X117867982Y-118969819D01*
D11*
X121554386Y-103395855D02*
X121154386Y-103395855D01*
X121354386Y-104195855D02*
X121354386Y-103395855D01*
X120987720Y-103395855D02*
X120521053Y-104195855D01*
X120521053Y-103395855D02*
X120987720Y-104195855D01*
X119321053Y-104195855D02*
X119554386Y-103814902D01*
X119721053Y-104195855D02*
X119721053Y-103395855D01*
X119721053Y-103395855D02*
X119454386Y-103395855D01*
X119454386Y-103395855D02*
X119387720Y-103433950D01*
X119387720Y-103433950D02*
X119354386Y-103472045D01*
X119354386Y-103472045D02*
X119321053Y-103548236D01*
X119321053Y-103548236D02*
X119321053Y-103662521D01*
X119321053Y-103662521D02*
X119354386Y-103738712D01*
X119354386Y-103738712D02*
X119387720Y-103776807D01*
X119387720Y-103776807D02*
X119454386Y-103814902D01*
X119454386Y-103814902D02*
X119721053Y-103814902D01*
X119087720Y-103395855D02*
X118621053Y-104195855D01*
X118621053Y-103395855D02*
X119087720Y-104195855D01*
X117454386Y-103433950D02*
X117521053Y-103395855D01*
X117521053Y-103395855D02*
X117621053Y-103395855D01*
X117621053Y-103395855D02*
X117721053Y-103433950D01*
X117721053Y-103433950D02*
X117787720Y-103510140D01*
X117787720Y-103510140D02*
X117821053Y-103586331D01*
X117821053Y-103586331D02*
X117854386Y-103738712D01*
X117854386Y-103738712D02*
X117854386Y-103852998D01*
X117854386Y-103852998D02*
X117821053Y-104005379D01*
X117821053Y-104005379D02*
X117787720Y-104081569D01*
X117787720Y-104081569D02*
X117721053Y-104157760D01*
X117721053Y-104157760D02*
X117621053Y-104195855D01*
X117621053Y-104195855D02*
X117554386Y-104195855D01*
X117554386Y-104195855D02*
X117454386Y-104157760D01*
X117454386Y-104157760D02*
X117421053Y-104119664D01*
X117421053Y-104119664D02*
X117421053Y-103852998D01*
X117421053Y-103852998D02*
X117554386Y-103852998D01*
X117121053Y-104195855D02*
X117121053Y-103395855D01*
X117121053Y-103395855D02*
X116721053Y-104195855D01*
X116721053Y-104195855D02*
X116721053Y-103395855D01*
X116387720Y-104195855D02*
X116387720Y-103395855D01*
X116387720Y-103395855D02*
X116221053Y-103395855D01*
X116221053Y-103395855D02*
X116121053Y-103433950D01*
X116121053Y-103433950D02*
X116054387Y-103510140D01*
X116054387Y-103510140D02*
X116021053Y-103586331D01*
X116021053Y-103586331D02*
X115987720Y-103738712D01*
X115987720Y-103738712D02*
X115987720Y-103852998D01*
X115987720Y-103852998D02*
X116021053Y-104005379D01*
X116021053Y-104005379D02*
X116054387Y-104081569D01*
X116054387Y-104081569D02*
X116121053Y-104157760D01*
X116121053Y-104157760D02*
X116221053Y-104195855D01*
X116221053Y-104195855D02*
X116387720Y-104195855D01*
X132008093Y-106445613D02*
X132508093Y-106445613D01*
X132508093Y-106445613D02*
X132608093Y-106412280D01*
X132608093Y-106412280D02*
X132674760Y-106345613D01*
X132674760Y-106345613D02*
X132708093Y-106245613D01*
X132708093Y-106245613D02*
X132708093Y-106178947D01*
X132708093Y-107112280D02*
X132708093Y-106778946D01*
X132708093Y-106778946D02*
X132008093Y-106778946D01*
X132641426Y-107745613D02*
X132674760Y-107712280D01*
X132674760Y-107712280D02*
X132708093Y-107612280D01*
X132708093Y-107612280D02*
X132708093Y-107545613D01*
X132708093Y-107545613D02*
X132674760Y-107445613D01*
X132674760Y-107445613D02*
X132608093Y-107378947D01*
X132608093Y-107378947D02*
X132541426Y-107345613D01*
X132541426Y-107345613D02*
X132408093Y-107312280D01*
X132408093Y-107312280D02*
X132308093Y-107312280D01*
X132308093Y-107312280D02*
X132174760Y-107345613D01*
X132174760Y-107345613D02*
X132108093Y-107378947D01*
X132108093Y-107378947D02*
X132041426Y-107445613D01*
X132041426Y-107445613D02*
X132008093Y-107545613D01*
X132008093Y-107545613D02*
X132008093Y-107612280D01*
X132008093Y-107612280D02*
X132041426Y-107712280D01*
X132041426Y-107712280D02*
X132074760Y-107745613D01*
X132008093Y-108245613D02*
X132508093Y-108245613D01*
X132508093Y-108245613D02*
X132608093Y-108212280D01*
X132608093Y-108212280D02*
X132674760Y-108145613D01*
X132674760Y-108145613D02*
X132708093Y-108045613D01*
X132708093Y-108045613D02*
X132708093Y-107978947D01*
X132708093Y-108912280D02*
X132708093Y-108578946D01*
X132708093Y-108578946D02*
X132008093Y-108578946D01*
X132641426Y-109545613D02*
X132674760Y-109512280D01*
X132674760Y-109512280D02*
X132708093Y-109412280D01*
X132708093Y-109412280D02*
X132708093Y-109345613D01*
X132708093Y-109345613D02*
X132674760Y-109245613D01*
X132674760Y-109245613D02*
X132608093Y-109178947D01*
X132608093Y-109178947D02*
X132541426Y-109145613D01*
X132541426Y-109145613D02*
X132408093Y-109112280D01*
X132408093Y-109112280D02*
X132308093Y-109112280D01*
X132308093Y-109112280D02*
X132174760Y-109145613D01*
X132174760Y-109145613D02*
X132108093Y-109178947D01*
X132108093Y-109178947D02*
X132041426Y-109245613D01*
X132041426Y-109245613D02*
X132008093Y-109345613D01*
X132008093Y-109345613D02*
X132008093Y-109412280D01*
X132008093Y-109412280D02*
X132041426Y-109512280D01*
X132041426Y-109512280D02*
X132074760Y-109545613D01*
X132008093Y-110045613D02*
X132508093Y-110045613D01*
X132508093Y-110045613D02*
X132608093Y-110012280D01*
X132608093Y-110012280D02*
X132674760Y-109945613D01*
X132674760Y-109945613D02*
X132708093Y-109845613D01*
X132708093Y-109845613D02*
X132708093Y-109778947D01*
X132708093Y-110712280D02*
X132708093Y-110378946D01*
X132708093Y-110378946D02*
X132008093Y-110378946D01*
X132641426Y-111345613D02*
X132674760Y-111312280D01*
X132674760Y-111312280D02*
X132708093Y-111212280D01*
X132708093Y-111212280D02*
X132708093Y-111145613D01*
X132708093Y-111145613D02*
X132674760Y-111045613D01*
X132674760Y-111045613D02*
X132608093Y-110978947D01*
X132608093Y-110978947D02*
X132541426Y-110945613D01*
X132541426Y-110945613D02*
X132408093Y-110912280D01*
X132408093Y-110912280D02*
X132308093Y-110912280D01*
X132308093Y-110912280D02*
X132174760Y-110945613D01*
X132174760Y-110945613D02*
X132108093Y-110978947D01*
X132108093Y-110978947D02*
X132041426Y-111045613D01*
X132041426Y-111045613D02*
X132008093Y-111145613D01*
X132008093Y-111145613D02*
X132008093Y-111212280D01*
X132008093Y-111212280D02*
X132041426Y-111312280D01*
X132041426Y-111312280D02*
X132074760Y-111345613D01*
X132008093Y-111845613D02*
X132508093Y-111845613D01*
X132508093Y-111845613D02*
X132608093Y-111812280D01*
X132608093Y-111812280D02*
X132674760Y-111745613D01*
X132674760Y-111745613D02*
X132708093Y-111645613D01*
X132708093Y-111645613D02*
X132708093Y-111578947D01*
X132708093Y-112512280D02*
X132708093Y-112178946D01*
X132708093Y-112178946D02*
X132008093Y-112178946D01*
X132641426Y-113145613D02*
X132674760Y-113112280D01*
X132674760Y-113112280D02*
X132708093Y-113012280D01*
X132708093Y-113012280D02*
X132708093Y-112945613D01*
X132708093Y-112945613D02*
X132674760Y-112845613D01*
X132674760Y-112845613D02*
X132608093Y-112778947D01*
X132608093Y-112778947D02*
X132541426Y-112745613D01*
X132541426Y-112745613D02*
X132408093Y-112712280D01*
X132408093Y-112712280D02*
X132308093Y-112712280D01*
X132308093Y-112712280D02*
X132174760Y-112745613D01*
X132174760Y-112745613D02*
X132108093Y-112778947D01*
X132108093Y-112778947D02*
X132041426Y-112845613D01*
X132041426Y-112845613D02*
X132008093Y-112945613D01*
X132008093Y-112945613D02*
X132008093Y-113012280D01*
X132008093Y-113012280D02*
X132041426Y-113112280D01*
X132041426Y-113112280D02*
X132074760Y-113145613D01*
D10*
X109929018Y-108225046D02*
X109929018Y-108558379D01*
X110114732Y-108135165D02*
X109464732Y-108449748D01*
X109464732Y-108449748D02*
X110114732Y-108601832D01*
X110114732Y-108835165D02*
X109464732Y-108916415D01*
X109464732Y-108916415D02*
X109464732Y-109083082D01*
X109464732Y-109083082D02*
X109495684Y-109179213D01*
X109495684Y-109179213D02*
X109557589Y-109238141D01*
X109557589Y-109238141D02*
X109619494Y-109263737D01*
X109619494Y-109263737D02*
X109743303Y-109281594D01*
X109743303Y-109281594D02*
X109836160Y-109269987D01*
X109836160Y-109269987D02*
X109959970Y-109221177D01*
X109959970Y-109221177D02*
X110021875Y-109180106D01*
X110021875Y-109180106D02*
X110083780Y-109105701D01*
X110083780Y-109105701D02*
X110114732Y-109001832D01*
X110114732Y-109001832D02*
X110114732Y-108835165D01*
X109929018Y-110058379D02*
X109929018Y-110391712D01*
X110114732Y-109968498D02*
X109464732Y-110283081D01*
X109464732Y-110283081D02*
X110114732Y-110435165D01*
X110083780Y-110639034D02*
X110114732Y-110735165D01*
X110114732Y-110735165D02*
X110114732Y-110901831D01*
X110114732Y-110901831D02*
X110083780Y-110972367D01*
X110083780Y-110972367D02*
X110052827Y-111009570D01*
X110052827Y-111009570D02*
X109990922Y-111050641D01*
X109990922Y-111050641D02*
X109929018Y-111058379D01*
X109929018Y-111058379D02*
X109867113Y-111032784D01*
X109867113Y-111032784D02*
X109836160Y-111003320D01*
X109836160Y-111003320D02*
X109805208Y-110940522D01*
X109805208Y-110940522D02*
X109774256Y-110811058D01*
X109774256Y-110811058D02*
X109743303Y-110748260D01*
X109743303Y-110748260D02*
X109712351Y-110718796D01*
X109712351Y-110718796D02*
X109650446Y-110693201D01*
X109650446Y-110693201D02*
X109588541Y-110700939D01*
X109588541Y-110700939D02*
X109526637Y-110742010D01*
X109526637Y-110742010D02*
X109495684Y-110779212D01*
X109495684Y-110779212D02*
X109464732Y-110849748D01*
X109464732Y-110849748D02*
X109464732Y-111016415D01*
X109464732Y-111016415D02*
X109495684Y-111112546D01*
X109464732Y-111316415D02*
X109464732Y-111716415D01*
X110114732Y-111435165D02*
X109464732Y-111516415D01*
X110114732Y-112268498D02*
X109805208Y-112073855D01*
X110114732Y-111868498D02*
X109464732Y-111949748D01*
X109464732Y-111949748D02*
X109464732Y-112216415D01*
X109464732Y-112216415D02*
X109495684Y-112279212D01*
X109495684Y-112279212D02*
X109526637Y-112308677D01*
X109526637Y-112308677D02*
X109588541Y-112334272D01*
X109588541Y-112334272D02*
X109681399Y-112322665D01*
X109681399Y-112322665D02*
X109743303Y-112281593D01*
X109743303Y-112281593D02*
X109774256Y-112244391D01*
X109774256Y-112244391D02*
X109805208Y-112173855D01*
X109805208Y-112173855D02*
X109805208Y-111907189D01*
X109929018Y-112558379D02*
X109929018Y-112891712D01*
X110114732Y-112468498D02*
X109464732Y-112783081D01*
X109464732Y-112783081D02*
X110114732Y-112935165D01*
D14*
X121850000Y-105748326D02*
X121883333Y-105781660D01*
X121883333Y-105781660D02*
X121983333Y-105814993D01*
X121983333Y-105814993D02*
X122050000Y-105814993D01*
X122050000Y-105814993D02*
X122150000Y-105781660D01*
X122150000Y-105781660D02*
X122216667Y-105714993D01*
X122216667Y-105714993D02*
X122250000Y-105648326D01*
X122250000Y-105648326D02*
X122283333Y-105514993D01*
X122283333Y-105514993D02*
X122283333Y-105414993D01*
X122283333Y-105414993D02*
X122250000Y-105281660D01*
X122250000Y-105281660D02*
X122216667Y-105214993D01*
X122216667Y-105214993D02*
X122150000Y-105148326D01*
X122150000Y-105148326D02*
X122050000Y-105114993D01*
X122050000Y-105114993D02*
X121983333Y-105114993D01*
X121983333Y-105114993D02*
X121883333Y-105148326D01*
X121883333Y-105148326D02*
X121850000Y-105181660D01*
X121183333Y-105814993D02*
X121583333Y-105814993D01*
X121383333Y-105814993D02*
X121383333Y-105114993D01*
X121383333Y-105114993D02*
X121450000Y-105214993D01*
X121450000Y-105214993D02*
X121516667Y-105281660D01*
X121516667Y-105281660D02*
X121583333Y-105314993D01*
X120916666Y-105181660D02*
X120883333Y-105148326D01*
X120883333Y-105148326D02*
X120816666Y-105114993D01*
X120816666Y-105114993D02*
X120650000Y-105114993D01*
X120650000Y-105114993D02*
X120583333Y-105148326D01*
X120583333Y-105148326D02*
X120550000Y-105181660D01*
X120550000Y-105181660D02*
X120516666Y-105248326D01*
X120516666Y-105248326D02*
X120516666Y-105314993D01*
X120516666Y-105314993D02*
X120550000Y-105414993D01*
X120550000Y-105414993D02*
X120950000Y-105814993D01*
X120950000Y-105814993D02*
X120516666Y-105814993D01*
X107914993Y-109466666D02*
X108481660Y-109466666D01*
X108481660Y-109466666D02*
X108548326Y-109500000D01*
X108548326Y-109500000D02*
X108581660Y-109533333D01*
X108581660Y-109533333D02*
X108614993Y-109600000D01*
X108614993Y-109600000D02*
X108614993Y-109733333D01*
X108614993Y-109733333D02*
X108581660Y-109800000D01*
X108581660Y-109800000D02*
X108548326Y-109833333D01*
X108548326Y-109833333D02*
X108481660Y-109866666D01*
X108481660Y-109866666D02*
X107914993Y-109866666D01*
X107914993Y-110499999D02*
X107914993Y-110366666D01*
X107914993Y-110366666D02*
X107948326Y-110299999D01*
X107948326Y-110299999D02*
X107981660Y-110266666D01*
X107981660Y-110266666D02*
X108081660Y-110199999D01*
X108081660Y-110199999D02*
X108214993Y-110166666D01*
X108214993Y-110166666D02*
X108481660Y-110166666D01*
X108481660Y-110166666D02*
X108548326Y-110199999D01*
X108548326Y-110199999D02*
X108581660Y-110233333D01*
X108581660Y-110233333D02*
X108614993Y-110299999D01*
X108614993Y-110299999D02*
X108614993Y-110433333D01*
X108614993Y-110433333D02*
X108581660Y-110499999D01*
X108581660Y-110499999D02*
X108548326Y-110533333D01*
X108548326Y-110533333D02*
X108481660Y-110566666D01*
X108481660Y-110566666D02*
X108314993Y-110566666D01*
X108314993Y-110566666D02*
X108248326Y-110533333D01*
X108248326Y-110533333D02*
X108214993Y-110499999D01*
X108214993Y-110499999D02*
X108181660Y-110433333D01*
X108181660Y-110433333D02*
X108181660Y-110299999D01*
X108181660Y-110299999D02*
X108214993Y-110233333D01*
X108214993Y-110233333D02*
X108248326Y-110199999D01*
X108248326Y-110199999D02*
X108314993Y-110166666D01*
X134578326Y-101949999D02*
X134611660Y-101916666D01*
X134611660Y-101916666D02*
X134644993Y-101816666D01*
X134644993Y-101816666D02*
X134644993Y-101749999D01*
X134644993Y-101749999D02*
X134611660Y-101649999D01*
X134611660Y-101649999D02*
X134544993Y-101583333D01*
X134544993Y-101583333D02*
X134478326Y-101549999D01*
X134478326Y-101549999D02*
X134344993Y-101516666D01*
X134344993Y-101516666D02*
X134244993Y-101516666D01*
X134244993Y-101516666D02*
X134111660Y-101549999D01*
X134111660Y-101549999D02*
X134044993Y-101583333D01*
X134044993Y-101583333D02*
X133978326Y-101649999D01*
X133978326Y-101649999D02*
X133944993Y-101749999D01*
X133944993Y-101749999D02*
X133944993Y-101816666D01*
X133944993Y-101816666D02*
X133978326Y-101916666D01*
X133978326Y-101916666D02*
X134011660Y-101949999D01*
X134644993Y-102616666D02*
X134644993Y-102216666D01*
X134644993Y-102416666D02*
X133944993Y-102416666D01*
X133944993Y-102416666D02*
X134044993Y-102349999D01*
X134044993Y-102349999D02*
X134111660Y-102283333D01*
X134111660Y-102283333D02*
X134144993Y-102216666D01*
X133944993Y-103250000D02*
X133944993Y-102916666D01*
X133944993Y-102916666D02*
X134278326Y-102883333D01*
X134278326Y-102883333D02*
X134244993Y-102916666D01*
X134244993Y-102916666D02*
X134211660Y-102983333D01*
X134211660Y-102983333D02*
X134211660Y-103150000D01*
X134211660Y-103150000D02*
X134244993Y-103216666D01*
X134244993Y-103216666D02*
X134278326Y-103250000D01*
X134278326Y-103250000D02*
X134344993Y-103283333D01*
X134344993Y-103283333D02*
X134511660Y-103283333D01*
X134511660Y-103283333D02*
X134578326Y-103250000D01*
X134578326Y-103250000D02*
X134611660Y-103216666D01*
X134611660Y-103216666D02*
X134644993Y-103150000D01*
X134644993Y-103150000D02*
X134644993Y-102983333D01*
X134644993Y-102983333D02*
X134611660Y-102916666D01*
X134611660Y-102916666D02*
X134578326Y-102883333D01*
X113914993Y-101766666D02*
X114414993Y-101766666D01*
X114414993Y-101766666D02*
X114514993Y-101733333D01*
X114514993Y-101733333D02*
X114581660Y-101666666D01*
X114581660Y-101666666D02*
X114614993Y-101566666D01*
X114614993Y-101566666D02*
X114614993Y-101500000D01*
X113914993Y-102033333D02*
X113914993Y-102466666D01*
X113914993Y-102466666D02*
X114181660Y-102233333D01*
X114181660Y-102233333D02*
X114181660Y-102333333D01*
X114181660Y-102333333D02*
X114214993Y-102399999D01*
X114214993Y-102399999D02*
X114248326Y-102433333D01*
X114248326Y-102433333D02*
X114314993Y-102466666D01*
X114314993Y-102466666D02*
X114481660Y-102466666D01*
X114481660Y-102466666D02*
X114548326Y-102433333D01*
X114548326Y-102433333D02*
X114581660Y-102399999D01*
X114581660Y-102399999D02*
X114614993Y-102333333D01*
X114614993Y-102333333D02*
X114614993Y-102133333D01*
X114614993Y-102133333D02*
X114581660Y-102066666D01*
X114581660Y-102066666D02*
X114548326Y-102033333D01*
X115548326Y-111949999D02*
X115581660Y-111916666D01*
X115581660Y-111916666D02*
X115614993Y-111816666D01*
X115614993Y-111816666D02*
X115614993Y-111749999D01*
X115614993Y-111749999D02*
X115581660Y-111649999D01*
X115581660Y-111649999D02*
X115514993Y-111583333D01*
X115514993Y-111583333D02*
X115448326Y-111549999D01*
X115448326Y-111549999D02*
X115314993Y-111516666D01*
X115314993Y-111516666D02*
X115214993Y-111516666D01*
X115214993Y-111516666D02*
X115081660Y-111549999D01*
X115081660Y-111549999D02*
X115014993Y-111583333D01*
X115014993Y-111583333D02*
X114948326Y-111649999D01*
X114948326Y-111649999D02*
X114914993Y-111749999D01*
X114914993Y-111749999D02*
X114914993Y-111816666D01*
X114914993Y-111816666D02*
X114948326Y-111916666D01*
X114948326Y-111916666D02*
X114981660Y-111949999D01*
X115614993Y-112616666D02*
X115614993Y-112216666D01*
X115614993Y-112416666D02*
X114914993Y-112416666D01*
X114914993Y-112416666D02*
X115014993Y-112349999D01*
X115014993Y-112349999D02*
X115081660Y-112283333D01*
X115081660Y-112283333D02*
X115114993Y-112216666D01*
X114914993Y-112850000D02*
X114914993Y-113316666D01*
X114914993Y-113316666D02*
X115614993Y-113016666D01*
X131014993Y-108966666D02*
X131581660Y-108966666D01*
X131581660Y-108966666D02*
X131648326Y-109000000D01*
X131648326Y-109000000D02*
X131681660Y-109033333D01*
X131681660Y-109033333D02*
X131714993Y-109100000D01*
X131714993Y-109100000D02*
X131714993Y-109233333D01*
X131714993Y-109233333D02*
X131681660Y-109300000D01*
X131681660Y-109300000D02*
X131648326Y-109333333D01*
X131648326Y-109333333D02*
X131581660Y-109366666D01*
X131581660Y-109366666D02*
X131014993Y-109366666D01*
X131248326Y-109999999D02*
X131714993Y-109999999D01*
X130981660Y-109833333D02*
X131481660Y-109666666D01*
X131481660Y-109666666D02*
X131481660Y-110099999D01*
X121716666Y-109648326D02*
X121749999Y-109681660D01*
X121749999Y-109681660D02*
X121849999Y-109714993D01*
X121849999Y-109714993D02*
X121916666Y-109714993D01*
X121916666Y-109714993D02*
X122016666Y-109681660D01*
X122016666Y-109681660D02*
X122083333Y-109614993D01*
X122083333Y-109614993D02*
X122116666Y-109548326D01*
X122116666Y-109548326D02*
X122149999Y-109414993D01*
X122149999Y-109414993D02*
X122149999Y-109314993D01*
X122149999Y-109314993D02*
X122116666Y-109181660D01*
X122116666Y-109181660D02*
X122083333Y-109114993D01*
X122083333Y-109114993D02*
X122016666Y-109048326D01*
X122016666Y-109048326D02*
X121916666Y-109014993D01*
X121916666Y-109014993D02*
X121849999Y-109014993D01*
X121849999Y-109014993D02*
X121749999Y-109048326D01*
X121749999Y-109048326D02*
X121716666Y-109081660D01*
X121483333Y-109014993D02*
X121049999Y-109014993D01*
X121049999Y-109014993D02*
X121283333Y-109281660D01*
X121283333Y-109281660D02*
X121183333Y-109281660D01*
X121183333Y-109281660D02*
X121116666Y-109314993D01*
X121116666Y-109314993D02*
X121083333Y-109348326D01*
X121083333Y-109348326D02*
X121049999Y-109414993D01*
X121049999Y-109414993D02*
X121049999Y-109581660D01*
X121049999Y-109581660D02*
X121083333Y-109648326D01*
X121083333Y-109648326D02*
X121116666Y-109681660D01*
X121116666Y-109681660D02*
X121183333Y-109714993D01*
X121183333Y-109714993D02*
X121383333Y-109714993D01*
X121383333Y-109714993D02*
X121449999Y-109681660D01*
X121449999Y-109681660D02*
X121483333Y-109648326D01*
X115233333Y-103714993D02*
X115233333Y-104281660D01*
X115233333Y-104281660D02*
X115200000Y-104348326D01*
X115200000Y-104348326D02*
X115166666Y-104381660D01*
X115166666Y-104381660D02*
X115100000Y-104414993D01*
X115100000Y-104414993D02*
X114966666Y-104414993D01*
X114966666Y-104414993D02*
X114900000Y-104381660D01*
X114900000Y-104381660D02*
X114866666Y-104348326D01*
X114866666Y-104348326D02*
X114833333Y-104281660D01*
X114833333Y-104281660D02*
X114833333Y-103714993D01*
X114566667Y-103714993D02*
X114133333Y-103714993D01*
X114133333Y-103714993D02*
X114366667Y-103981660D01*
X114366667Y-103981660D02*
X114266667Y-103981660D01*
X114266667Y-103981660D02*
X114200000Y-104014993D01*
X114200000Y-104014993D02*
X114166667Y-104048326D01*
X114166667Y-104048326D02*
X114133333Y-104114993D01*
X114133333Y-104114993D02*
X114133333Y-104281660D01*
X114133333Y-104281660D02*
X114166667Y-104348326D01*
X114166667Y-104348326D02*
X114200000Y-104381660D01*
X114200000Y-104381660D02*
X114266667Y-104414993D01*
X114266667Y-104414993D02*
X114466667Y-104414993D01*
X114466667Y-104414993D02*
X114533333Y-104381660D01*
X114533333Y-104381660D02*
X114566667Y-104348326D01*
X128314993Y-114783333D02*
X127981660Y-114550000D01*
X128314993Y-114383333D02*
X127614993Y-114383333D01*
X127614993Y-114383333D02*
X127614993Y-114650000D01*
X127614993Y-114650000D02*
X127648326Y-114716667D01*
X127648326Y-114716667D02*
X127681660Y-114750000D01*
X127681660Y-114750000D02*
X127748326Y-114783333D01*
X127748326Y-114783333D02*
X127848326Y-114783333D01*
X127848326Y-114783333D02*
X127914993Y-114750000D01*
X127914993Y-114750000D02*
X127948326Y-114716667D01*
X127948326Y-114716667D02*
X127981660Y-114650000D01*
X127981660Y-114650000D02*
X127981660Y-114383333D01*
X128314993Y-115450000D02*
X128314993Y-115050000D01*
X128314993Y-115250000D02*
X127614993Y-115250000D01*
X127614993Y-115250000D02*
X127714993Y-115183333D01*
X127714993Y-115183333D02*
X127781660Y-115116667D01*
X127781660Y-115116667D02*
X127814993Y-115050000D01*
X110416666Y-103248326D02*
X110449999Y-103281660D01*
X110449999Y-103281660D02*
X110549999Y-103314993D01*
X110549999Y-103314993D02*
X110616666Y-103314993D01*
X110616666Y-103314993D02*
X110716666Y-103281660D01*
X110716666Y-103281660D02*
X110783333Y-103214993D01*
X110783333Y-103214993D02*
X110816666Y-103148326D01*
X110816666Y-103148326D02*
X110849999Y-103014993D01*
X110849999Y-103014993D02*
X110849999Y-102914993D01*
X110849999Y-102914993D02*
X110816666Y-102781660D01*
X110816666Y-102781660D02*
X110783333Y-102714993D01*
X110783333Y-102714993D02*
X110716666Y-102648326D01*
X110716666Y-102648326D02*
X110616666Y-102614993D01*
X110616666Y-102614993D02*
X110549999Y-102614993D01*
X110549999Y-102614993D02*
X110449999Y-102648326D01*
X110449999Y-102648326D02*
X110416666Y-102681660D01*
X110083333Y-103314993D02*
X109949999Y-103314993D01*
X109949999Y-103314993D02*
X109883333Y-103281660D01*
X109883333Y-103281660D02*
X109849999Y-103248326D01*
X109849999Y-103248326D02*
X109783333Y-103148326D01*
X109783333Y-103148326D02*
X109749999Y-103014993D01*
X109749999Y-103014993D02*
X109749999Y-102748326D01*
X109749999Y-102748326D02*
X109783333Y-102681660D01*
X109783333Y-102681660D02*
X109816666Y-102648326D01*
X109816666Y-102648326D02*
X109883333Y-102614993D01*
X109883333Y-102614993D02*
X110016666Y-102614993D01*
X110016666Y-102614993D02*
X110083333Y-102648326D01*
X110083333Y-102648326D02*
X110116666Y-102681660D01*
X110116666Y-102681660D02*
X110149999Y-102748326D01*
X110149999Y-102748326D02*
X110149999Y-102914993D01*
X110149999Y-102914993D02*
X110116666Y-102981660D01*
X110116666Y-102981660D02*
X110083333Y-103014993D01*
X110083333Y-103014993D02*
X110016666Y-103048326D01*
X110016666Y-103048326D02*
X109883333Y-103048326D01*
X109883333Y-103048326D02*
X109816666Y-103014993D01*
X109816666Y-103014993D02*
X109783333Y-102981660D01*
X109783333Y-102981660D02*
X109749999Y-102914993D01*
X124414993Y-114683333D02*
X124081660Y-114450000D01*
X124414993Y-114283333D02*
X123714993Y-114283333D01*
X123714993Y-114283333D02*
X123714993Y-114550000D01*
X123714993Y-114550000D02*
X123748326Y-114616667D01*
X123748326Y-114616667D02*
X123781660Y-114650000D01*
X123781660Y-114650000D02*
X123848326Y-114683333D01*
X123848326Y-114683333D02*
X123948326Y-114683333D01*
X123948326Y-114683333D02*
X124014993Y-114650000D01*
X124014993Y-114650000D02*
X124048326Y-114616667D01*
X124048326Y-114616667D02*
X124081660Y-114550000D01*
X124081660Y-114550000D02*
X124081660Y-114283333D01*
X123781660Y-114950000D02*
X123748326Y-114983333D01*
X123748326Y-114983333D02*
X123714993Y-115050000D01*
X123714993Y-115050000D02*
X123714993Y-115216667D01*
X123714993Y-115216667D02*
X123748326Y-115283333D01*
X123748326Y-115283333D02*
X123781660Y-115316667D01*
X123781660Y-115316667D02*
X123848326Y-115350000D01*
X123848326Y-115350000D02*
X123914993Y-115350000D01*
X123914993Y-115350000D02*
X124014993Y-115316667D01*
X124014993Y-115316667D02*
X124414993Y-114916667D01*
X124414993Y-114916667D02*
X124414993Y-115350000D01*
X124350000Y-107548326D02*
X124383333Y-107581660D01*
X124383333Y-107581660D02*
X124483333Y-107614993D01*
X124483333Y-107614993D02*
X124550000Y-107614993D01*
X124550000Y-107614993D02*
X124650000Y-107581660D01*
X124650000Y-107581660D02*
X124716667Y-107514993D01*
X124716667Y-107514993D02*
X124750000Y-107448326D01*
X124750000Y-107448326D02*
X124783333Y-107314993D01*
X124783333Y-107314993D02*
X124783333Y-107214993D01*
X124783333Y-107214993D02*
X124750000Y-107081660D01*
X124750000Y-107081660D02*
X124716667Y-107014993D01*
X124716667Y-107014993D02*
X124650000Y-106948326D01*
X124650000Y-106948326D02*
X124550000Y-106914993D01*
X124550000Y-106914993D02*
X124483333Y-106914993D01*
X124483333Y-106914993D02*
X124383333Y-106948326D01*
X124383333Y-106948326D02*
X124350000Y-106981660D01*
X123683333Y-107614993D02*
X124083333Y-107614993D01*
X123883333Y-107614993D02*
X123883333Y-106914993D01*
X123883333Y-106914993D02*
X123950000Y-107014993D01*
X123950000Y-107014993D02*
X124016667Y-107081660D01*
X124016667Y-107081660D02*
X124083333Y-107114993D01*
X123350000Y-107614993D02*
X123216666Y-107614993D01*
X123216666Y-107614993D02*
X123150000Y-107581660D01*
X123150000Y-107581660D02*
X123116666Y-107548326D01*
X123116666Y-107548326D02*
X123050000Y-107448326D01*
X123050000Y-107448326D02*
X123016666Y-107314993D01*
X123016666Y-107314993D02*
X123016666Y-107048326D01*
X123016666Y-107048326D02*
X123050000Y-106981660D01*
X123050000Y-106981660D02*
X123083333Y-106948326D01*
X123083333Y-106948326D02*
X123150000Y-106914993D01*
X123150000Y-106914993D02*
X123283333Y-106914993D01*
X123283333Y-106914993D02*
X123350000Y-106948326D01*
X123350000Y-106948326D02*
X123383333Y-106981660D01*
X123383333Y-106981660D02*
X123416666Y-107048326D01*
X123416666Y-107048326D02*
X123416666Y-107214993D01*
X123416666Y-107214993D02*
X123383333Y-107281660D01*
X123383333Y-107281660D02*
X123350000Y-107314993D01*
X123350000Y-107314993D02*
X123283333Y-107348326D01*
X123283333Y-107348326D02*
X123150000Y-107348326D01*
X123150000Y-107348326D02*
X123083333Y-107314993D01*
X123083333Y-107314993D02*
X123050000Y-107281660D01*
X123050000Y-107281660D02*
X123016666Y-107214993D01*
X115933333Y-117114993D02*
X115933333Y-117681660D01*
X115933333Y-117681660D02*
X115900000Y-117748326D01*
X115900000Y-117748326D02*
X115866666Y-117781660D01*
X115866666Y-117781660D02*
X115800000Y-117814993D01*
X115800000Y-117814993D02*
X115666666Y-117814993D01*
X115666666Y-117814993D02*
X115600000Y-117781660D01*
X115600000Y-117781660D02*
X115566666Y-117748326D01*
X115566666Y-117748326D02*
X115533333Y-117681660D01*
X115533333Y-117681660D02*
X115533333Y-117114993D01*
X114866667Y-117114993D02*
X115200000Y-117114993D01*
X115200000Y-117114993D02*
X115233333Y-117448326D01*
X115233333Y-117448326D02*
X115200000Y-117414993D01*
X115200000Y-117414993D02*
X115133333Y-117381660D01*
X115133333Y-117381660D02*
X114966667Y-117381660D01*
X114966667Y-117381660D02*
X114900000Y-117414993D01*
X114900000Y-117414993D02*
X114866667Y-117448326D01*
X114866667Y-117448326D02*
X114833333Y-117514993D01*
X114833333Y-117514993D02*
X114833333Y-117681660D01*
X114833333Y-117681660D02*
X114866667Y-117748326D01*
X114866667Y-117748326D02*
X114900000Y-117781660D01*
X114900000Y-117781660D02*
X114966667Y-117814993D01*
X114966667Y-117814993D02*
X115133333Y-117814993D01*
X115133333Y-117814993D02*
X115200000Y-117781660D01*
X115200000Y-117781660D02*
X115233333Y-117748326D01*
X119148326Y-116183333D02*
X119181660Y-116150000D01*
X119181660Y-116150000D02*
X119214993Y-116050000D01*
X119214993Y-116050000D02*
X119214993Y-115983333D01*
X119214993Y-115983333D02*
X119181660Y-115883333D01*
X119181660Y-115883333D02*
X119114993Y-115816667D01*
X119114993Y-115816667D02*
X119048326Y-115783333D01*
X119048326Y-115783333D02*
X118914993Y-115750000D01*
X118914993Y-115750000D02*
X118814993Y-115750000D01*
X118814993Y-115750000D02*
X118681660Y-115783333D01*
X118681660Y-115783333D02*
X118614993Y-115816667D01*
X118614993Y-115816667D02*
X118548326Y-115883333D01*
X118548326Y-115883333D02*
X118514993Y-115983333D01*
X118514993Y-115983333D02*
X118514993Y-116050000D01*
X118514993Y-116050000D02*
X118548326Y-116150000D01*
X118548326Y-116150000D02*
X118581660Y-116183333D01*
X118514993Y-116416667D02*
X118514993Y-116883333D01*
X118514993Y-116883333D02*
X119214993Y-116583333D01*
X103514993Y-102916667D02*
X103514993Y-102583333D01*
X103514993Y-102583333D02*
X102814993Y-102583333D01*
X103148326Y-103150000D02*
X103148326Y-103383334D01*
X103514993Y-103483334D02*
X103514993Y-103150000D01*
X103514993Y-103150000D02*
X102814993Y-103150000D01*
X102814993Y-103150000D02*
X102814993Y-103483334D01*
X103514993Y-103783333D02*
X102814993Y-103783333D01*
X102814993Y-103783333D02*
X102814993Y-103950000D01*
X102814993Y-103950000D02*
X102848326Y-104050000D01*
X102848326Y-104050000D02*
X102914993Y-104116667D01*
X102914993Y-104116667D02*
X102981660Y-104150000D01*
X102981660Y-104150000D02*
X103114993Y-104183333D01*
X103114993Y-104183333D02*
X103214993Y-104183333D01*
X103214993Y-104183333D02*
X103348326Y-104150000D01*
X103348326Y-104150000D02*
X103414993Y-104116667D01*
X103414993Y-104116667D02*
X103481660Y-104050000D01*
X103481660Y-104050000D02*
X103514993Y-103950000D01*
X103514993Y-103950000D02*
X103514993Y-103783333D01*
X103514993Y-104850000D02*
X103514993Y-104450000D01*
X103514993Y-104650000D02*
X102814993Y-104650000D01*
X102814993Y-104650000D02*
X102914993Y-104583333D01*
X102914993Y-104583333D02*
X102981660Y-104516667D01*
X102981660Y-104516667D02*
X103014993Y-104450000D01*
X119250000Y-112548326D02*
X119283333Y-112581660D01*
X119283333Y-112581660D02*
X119383333Y-112614993D01*
X119383333Y-112614993D02*
X119450000Y-112614993D01*
X119450000Y-112614993D02*
X119550000Y-112581660D01*
X119550000Y-112581660D02*
X119616667Y-112514993D01*
X119616667Y-112514993D02*
X119650000Y-112448326D01*
X119650000Y-112448326D02*
X119683333Y-112314993D01*
X119683333Y-112314993D02*
X119683333Y-112214993D01*
X119683333Y-112214993D02*
X119650000Y-112081660D01*
X119650000Y-112081660D02*
X119616667Y-112014993D01*
X119616667Y-112014993D02*
X119550000Y-111948326D01*
X119550000Y-111948326D02*
X119450000Y-111914993D01*
X119450000Y-111914993D02*
X119383333Y-111914993D01*
X119383333Y-111914993D02*
X119283333Y-111948326D01*
X119283333Y-111948326D02*
X119250000Y-111981660D01*
X118583333Y-112614993D02*
X118983333Y-112614993D01*
X118783333Y-112614993D02*
X118783333Y-111914993D01*
X118783333Y-111914993D02*
X118850000Y-112014993D01*
X118850000Y-112014993D02*
X118916667Y-112081660D01*
X118916667Y-112081660D02*
X118983333Y-112114993D01*
X118183333Y-112214993D02*
X118250000Y-112181660D01*
X118250000Y-112181660D02*
X118283333Y-112148326D01*
X118283333Y-112148326D02*
X118316666Y-112081660D01*
X118316666Y-112081660D02*
X118316666Y-112048326D01*
X118316666Y-112048326D02*
X118283333Y-111981660D01*
X118283333Y-111981660D02*
X118250000Y-111948326D01*
X118250000Y-111948326D02*
X118183333Y-111914993D01*
X118183333Y-111914993D02*
X118050000Y-111914993D01*
X118050000Y-111914993D02*
X117983333Y-111948326D01*
X117983333Y-111948326D02*
X117950000Y-111981660D01*
X117950000Y-111981660D02*
X117916666Y-112048326D01*
X117916666Y-112048326D02*
X117916666Y-112081660D01*
X117916666Y-112081660D02*
X117950000Y-112148326D01*
X117950000Y-112148326D02*
X117983333Y-112181660D01*
X117983333Y-112181660D02*
X118050000Y-112214993D01*
X118050000Y-112214993D02*
X118183333Y-112214993D01*
X118183333Y-112214993D02*
X118250000Y-112248326D01*
X118250000Y-112248326D02*
X118283333Y-112281660D01*
X118283333Y-112281660D02*
X118316666Y-112348326D01*
X118316666Y-112348326D02*
X118316666Y-112481660D01*
X118316666Y-112481660D02*
X118283333Y-112548326D01*
X118283333Y-112548326D02*
X118250000Y-112581660D01*
X118250000Y-112581660D02*
X118183333Y-112614993D01*
X118183333Y-112614993D02*
X118050000Y-112614993D01*
X118050000Y-112614993D02*
X117983333Y-112581660D01*
X117983333Y-112581660D02*
X117950000Y-112548326D01*
X117950000Y-112548326D02*
X117916666Y-112481660D01*
X117916666Y-112481660D02*
X117916666Y-112348326D01*
X117916666Y-112348326D02*
X117950000Y-112281660D01*
X117950000Y-112281660D02*
X117983333Y-112248326D01*
X117983333Y-112248326D02*
X118050000Y-112214993D01*
X118048326Y-116183333D02*
X118081660Y-116150000D01*
X118081660Y-116150000D02*
X118114993Y-116050000D01*
X118114993Y-116050000D02*
X118114993Y-115983333D01*
X118114993Y-115983333D02*
X118081660Y-115883333D01*
X118081660Y-115883333D02*
X118014993Y-115816667D01*
X118014993Y-115816667D02*
X117948326Y-115783333D01*
X117948326Y-115783333D02*
X117814993Y-115750000D01*
X117814993Y-115750000D02*
X117714993Y-115750000D01*
X117714993Y-115750000D02*
X117581660Y-115783333D01*
X117581660Y-115783333D02*
X117514993Y-115816667D01*
X117514993Y-115816667D02*
X117448326Y-115883333D01*
X117448326Y-115883333D02*
X117414993Y-115983333D01*
X117414993Y-115983333D02*
X117414993Y-116050000D01*
X117414993Y-116050000D02*
X117448326Y-116150000D01*
X117448326Y-116150000D02*
X117481660Y-116183333D01*
X117648326Y-116783333D02*
X118114993Y-116783333D01*
X117381660Y-116616667D02*
X117881660Y-116450000D01*
X117881660Y-116450000D02*
X117881660Y-116883333D01*
X117950000Y-109548326D02*
X117983333Y-109581660D01*
X117983333Y-109581660D02*
X118083333Y-109614993D01*
X118083333Y-109614993D02*
X118150000Y-109614993D01*
X118150000Y-109614993D02*
X118250000Y-109581660D01*
X118250000Y-109581660D02*
X118316667Y-109514993D01*
X118316667Y-109514993D02*
X118350000Y-109448326D01*
X118350000Y-109448326D02*
X118383333Y-109314993D01*
X118383333Y-109314993D02*
X118383333Y-109214993D01*
X118383333Y-109214993D02*
X118350000Y-109081660D01*
X118350000Y-109081660D02*
X118316667Y-109014993D01*
X118316667Y-109014993D02*
X118250000Y-108948326D01*
X118250000Y-108948326D02*
X118150000Y-108914993D01*
X118150000Y-108914993D02*
X118083333Y-108914993D01*
X118083333Y-108914993D02*
X117983333Y-108948326D01*
X117983333Y-108948326D02*
X117950000Y-108981660D01*
X117283333Y-109614993D02*
X117683333Y-109614993D01*
X117483333Y-109614993D02*
X117483333Y-108914993D01*
X117483333Y-108914993D02*
X117550000Y-109014993D01*
X117550000Y-109014993D02*
X117616667Y-109081660D01*
X117616667Y-109081660D02*
X117683333Y-109114993D01*
X116850000Y-108914993D02*
X116783333Y-108914993D01*
X116783333Y-108914993D02*
X116716666Y-108948326D01*
X116716666Y-108948326D02*
X116683333Y-108981660D01*
X116683333Y-108981660D02*
X116650000Y-109048326D01*
X116650000Y-109048326D02*
X116616666Y-109181660D01*
X116616666Y-109181660D02*
X116616666Y-109348326D01*
X116616666Y-109348326D02*
X116650000Y-109481660D01*
X116650000Y-109481660D02*
X116683333Y-109548326D01*
X116683333Y-109548326D02*
X116716666Y-109581660D01*
X116716666Y-109581660D02*
X116783333Y-109614993D01*
X116783333Y-109614993D02*
X116850000Y-109614993D01*
X116850000Y-109614993D02*
X116916666Y-109581660D01*
X116916666Y-109581660D02*
X116950000Y-109548326D01*
X116950000Y-109548326D02*
X116983333Y-109481660D01*
X116983333Y-109481660D02*
X117016666Y-109348326D01*
X117016666Y-109348326D02*
X117016666Y-109181660D01*
X117016666Y-109181660D02*
X116983333Y-109048326D01*
X116983333Y-109048326D02*
X116950000Y-108981660D01*
X116950000Y-108981660D02*
X116916666Y-108948326D01*
X116916666Y-108948326D02*
X116850000Y-108914993D01*
X121716666Y-112048326D02*
X121749999Y-112081660D01*
X121749999Y-112081660D02*
X121849999Y-112114993D01*
X121849999Y-112114993D02*
X121916666Y-112114993D01*
X121916666Y-112114993D02*
X122016666Y-112081660D01*
X122016666Y-112081660D02*
X122083333Y-112014993D01*
X122083333Y-112014993D02*
X122116666Y-111948326D01*
X122116666Y-111948326D02*
X122149999Y-111814993D01*
X122149999Y-111814993D02*
X122149999Y-111714993D01*
X122149999Y-111714993D02*
X122116666Y-111581660D01*
X122116666Y-111581660D02*
X122083333Y-111514993D01*
X122083333Y-111514993D02*
X122016666Y-111448326D01*
X122016666Y-111448326D02*
X121916666Y-111414993D01*
X121916666Y-111414993D02*
X121849999Y-111414993D01*
X121849999Y-111414993D02*
X121749999Y-111448326D01*
X121749999Y-111448326D02*
X121716666Y-111481660D01*
X121116666Y-111414993D02*
X121249999Y-111414993D01*
X121249999Y-111414993D02*
X121316666Y-111448326D01*
X121316666Y-111448326D02*
X121349999Y-111481660D01*
X121349999Y-111481660D02*
X121416666Y-111581660D01*
X121416666Y-111581660D02*
X121449999Y-111714993D01*
X121449999Y-111714993D02*
X121449999Y-111981660D01*
X121449999Y-111981660D02*
X121416666Y-112048326D01*
X121416666Y-112048326D02*
X121383333Y-112081660D01*
X121383333Y-112081660D02*
X121316666Y-112114993D01*
X121316666Y-112114993D02*
X121183333Y-112114993D01*
X121183333Y-112114993D02*
X121116666Y-112081660D01*
X121116666Y-112081660D02*
X121083333Y-112048326D01*
X121083333Y-112048326D02*
X121049999Y-111981660D01*
X121049999Y-111981660D02*
X121049999Y-111814993D01*
X121049999Y-111814993D02*
X121083333Y-111748326D01*
X121083333Y-111748326D02*
X121116666Y-111714993D01*
X121116666Y-111714993D02*
X121183333Y-111681660D01*
X121183333Y-111681660D02*
X121316666Y-111681660D01*
X121316666Y-111681660D02*
X121383333Y-111714993D01*
X121383333Y-111714993D02*
X121416666Y-111748326D01*
X121416666Y-111748326D02*
X121449999Y-111814993D01*
X124350000Y-106348326D02*
X124383333Y-106381660D01*
X124383333Y-106381660D02*
X124483333Y-106414993D01*
X124483333Y-106414993D02*
X124550000Y-106414993D01*
X124550000Y-106414993D02*
X124650000Y-106381660D01*
X124650000Y-106381660D02*
X124716667Y-106314993D01*
X124716667Y-106314993D02*
X124750000Y-106248326D01*
X124750000Y-106248326D02*
X124783333Y-106114993D01*
X124783333Y-106114993D02*
X124783333Y-106014993D01*
X124783333Y-106014993D02*
X124750000Y-105881660D01*
X124750000Y-105881660D02*
X124716667Y-105814993D01*
X124716667Y-105814993D02*
X124650000Y-105748326D01*
X124650000Y-105748326D02*
X124550000Y-105714993D01*
X124550000Y-105714993D02*
X124483333Y-105714993D01*
X124483333Y-105714993D02*
X124383333Y-105748326D01*
X124383333Y-105748326D02*
X124350000Y-105781660D01*
X123683333Y-106414993D02*
X124083333Y-106414993D01*
X123883333Y-106414993D02*
X123883333Y-105714993D01*
X123883333Y-105714993D02*
X123950000Y-105814993D01*
X123950000Y-105814993D02*
X124016667Y-105881660D01*
X124016667Y-105881660D02*
X124083333Y-105914993D01*
X123016666Y-106414993D02*
X123416666Y-106414993D01*
X123216666Y-106414993D02*
X123216666Y-105714993D01*
X123216666Y-105714993D02*
X123283333Y-105814993D01*
X123283333Y-105814993D02*
X123350000Y-105881660D01*
X123350000Y-105881660D02*
X123416666Y-105914993D01*
X122616667Y-104114993D02*
X122950000Y-104114993D01*
X122950000Y-104114993D02*
X122950000Y-103414993D01*
X122016666Y-104114993D02*
X122416666Y-104114993D01*
X122216666Y-104114993D02*
X122216666Y-103414993D01*
X122216666Y-103414993D02*
X122283333Y-103514993D01*
X122283333Y-103514993D02*
X122350000Y-103581660D01*
X122350000Y-103581660D02*
X122416666Y-103614993D01*
X125316666Y-109248326D02*
X125349999Y-109281660D01*
X125349999Y-109281660D02*
X125449999Y-109314993D01*
X125449999Y-109314993D02*
X125516666Y-109314993D01*
X125516666Y-109314993D02*
X125616666Y-109281660D01*
X125616666Y-109281660D02*
X125683333Y-109214993D01*
X125683333Y-109214993D02*
X125716666Y-109148326D01*
X125716666Y-109148326D02*
X125749999Y-109014993D01*
X125749999Y-109014993D02*
X125749999Y-108914993D01*
X125749999Y-108914993D02*
X125716666Y-108781660D01*
X125716666Y-108781660D02*
X125683333Y-108714993D01*
X125683333Y-108714993D02*
X125616666Y-108648326D01*
X125616666Y-108648326D02*
X125516666Y-108614993D01*
X125516666Y-108614993D02*
X125449999Y-108614993D01*
X125449999Y-108614993D02*
X125349999Y-108648326D01*
X125349999Y-108648326D02*
X125316666Y-108681660D01*
X124916666Y-108914993D02*
X124983333Y-108881660D01*
X124983333Y-108881660D02*
X125016666Y-108848326D01*
X125016666Y-108848326D02*
X125049999Y-108781660D01*
X125049999Y-108781660D02*
X125049999Y-108748326D01*
X125049999Y-108748326D02*
X125016666Y-108681660D01*
X125016666Y-108681660D02*
X124983333Y-108648326D01*
X124983333Y-108648326D02*
X124916666Y-108614993D01*
X124916666Y-108614993D02*
X124783333Y-108614993D01*
X124783333Y-108614993D02*
X124716666Y-108648326D01*
X124716666Y-108648326D02*
X124683333Y-108681660D01*
X124683333Y-108681660D02*
X124649999Y-108748326D01*
X124649999Y-108748326D02*
X124649999Y-108781660D01*
X124649999Y-108781660D02*
X124683333Y-108848326D01*
X124683333Y-108848326D02*
X124716666Y-108881660D01*
X124716666Y-108881660D02*
X124783333Y-108914993D01*
X124783333Y-108914993D02*
X124916666Y-108914993D01*
X124916666Y-108914993D02*
X124983333Y-108948326D01*
X124983333Y-108948326D02*
X125016666Y-108981660D01*
X125016666Y-108981660D02*
X125049999Y-109048326D01*
X125049999Y-109048326D02*
X125049999Y-109181660D01*
X125049999Y-109181660D02*
X125016666Y-109248326D01*
X125016666Y-109248326D02*
X124983333Y-109281660D01*
X124983333Y-109281660D02*
X124916666Y-109314993D01*
X124916666Y-109314993D02*
X124783333Y-109314993D01*
X124783333Y-109314993D02*
X124716666Y-109281660D01*
X124716666Y-109281660D02*
X124683333Y-109248326D01*
X124683333Y-109248326D02*
X124649999Y-109181660D01*
X124649999Y-109181660D02*
X124649999Y-109048326D01*
X124649999Y-109048326D02*
X124683333Y-108981660D01*
X124683333Y-108981660D02*
X124716666Y-108948326D01*
X124716666Y-108948326D02*
X124783333Y-108914993D01*
X128733333Y-103114993D02*
X128733333Y-103681660D01*
X128733333Y-103681660D02*
X128700000Y-103748326D01*
X128700000Y-103748326D02*
X128666666Y-103781660D01*
X128666666Y-103781660D02*
X128600000Y-103814993D01*
X128600000Y-103814993D02*
X128466666Y-103814993D01*
X128466666Y-103814993D02*
X128400000Y-103781660D01*
X128400000Y-103781660D02*
X128366666Y-103748326D01*
X128366666Y-103748326D02*
X128333333Y-103681660D01*
X128333333Y-103681660D02*
X128333333Y-103114993D01*
X128033333Y-103181660D02*
X128000000Y-103148326D01*
X128000000Y-103148326D02*
X127933333Y-103114993D01*
X127933333Y-103114993D02*
X127766667Y-103114993D01*
X127766667Y-103114993D02*
X127700000Y-103148326D01*
X127700000Y-103148326D02*
X127666667Y-103181660D01*
X127666667Y-103181660D02*
X127633333Y-103248326D01*
X127633333Y-103248326D02*
X127633333Y-103314993D01*
X127633333Y-103314993D02*
X127666667Y-103414993D01*
X127666667Y-103414993D02*
X128066667Y-103814993D01*
X128066667Y-103814993D02*
X127633333Y-103814993D01*
X128248326Y-100849999D02*
X128281660Y-100816666D01*
X128281660Y-100816666D02*
X128314993Y-100716666D01*
X128314993Y-100716666D02*
X128314993Y-100649999D01*
X128314993Y-100649999D02*
X128281660Y-100549999D01*
X128281660Y-100549999D02*
X128214993Y-100483333D01*
X128214993Y-100483333D02*
X128148326Y-100449999D01*
X128148326Y-100449999D02*
X128014993Y-100416666D01*
X128014993Y-100416666D02*
X127914993Y-100416666D01*
X127914993Y-100416666D02*
X127781660Y-100449999D01*
X127781660Y-100449999D02*
X127714993Y-100483333D01*
X127714993Y-100483333D02*
X127648326Y-100549999D01*
X127648326Y-100549999D02*
X127614993Y-100649999D01*
X127614993Y-100649999D02*
X127614993Y-100716666D01*
X127614993Y-100716666D02*
X127648326Y-100816666D01*
X127648326Y-100816666D02*
X127681660Y-100849999D01*
X128314993Y-101516666D02*
X128314993Y-101116666D01*
X128314993Y-101316666D02*
X127614993Y-101316666D01*
X127614993Y-101316666D02*
X127714993Y-101249999D01*
X127714993Y-101249999D02*
X127781660Y-101183333D01*
X127781660Y-101183333D02*
X127814993Y-101116666D01*
X127848326Y-102116666D02*
X128314993Y-102116666D01*
X127581660Y-101950000D02*
X128081660Y-101783333D01*
X128081660Y-101783333D02*
X128081660Y-102216666D01*
X123550000Y-105048326D02*
X123583333Y-105081660D01*
X123583333Y-105081660D02*
X123683333Y-105114993D01*
X123683333Y-105114993D02*
X123750000Y-105114993D01*
X123750000Y-105114993D02*
X123850000Y-105081660D01*
X123850000Y-105081660D02*
X123916667Y-105014993D01*
X123916667Y-105014993D02*
X123950000Y-104948326D01*
X123950000Y-104948326D02*
X123983333Y-104814993D01*
X123983333Y-104814993D02*
X123983333Y-104714993D01*
X123983333Y-104714993D02*
X123950000Y-104581660D01*
X123950000Y-104581660D02*
X123916667Y-104514993D01*
X123916667Y-104514993D02*
X123850000Y-104448326D01*
X123850000Y-104448326D02*
X123750000Y-104414993D01*
X123750000Y-104414993D02*
X123683333Y-104414993D01*
X123683333Y-104414993D02*
X123583333Y-104448326D01*
X123583333Y-104448326D02*
X123550000Y-104481660D01*
X122883333Y-105114993D02*
X123283333Y-105114993D01*
X123083333Y-105114993D02*
X123083333Y-104414993D01*
X123083333Y-104414993D02*
X123150000Y-104514993D01*
X123150000Y-104514993D02*
X123216667Y-104581660D01*
X123216667Y-104581660D02*
X123283333Y-104614993D01*
X122283333Y-104414993D02*
X122416666Y-104414993D01*
X122416666Y-104414993D02*
X122483333Y-104448326D01*
X122483333Y-104448326D02*
X122516666Y-104481660D01*
X122516666Y-104481660D02*
X122583333Y-104581660D01*
X122583333Y-104581660D02*
X122616666Y-104714993D01*
X122616666Y-104714993D02*
X122616666Y-104981660D01*
X122616666Y-104981660D02*
X122583333Y-105048326D01*
X122583333Y-105048326D02*
X122550000Y-105081660D01*
X122550000Y-105081660D02*
X122483333Y-105114993D01*
X122483333Y-105114993D02*
X122350000Y-105114993D01*
X122350000Y-105114993D02*
X122283333Y-105081660D01*
X122283333Y-105081660D02*
X122250000Y-105048326D01*
X122250000Y-105048326D02*
X122216666Y-104981660D01*
X122216666Y-104981660D02*
X122216666Y-104814993D01*
X122216666Y-104814993D02*
X122250000Y-104748326D01*
X122250000Y-104748326D02*
X122283333Y-104714993D01*
X122283333Y-104714993D02*
X122350000Y-104681660D01*
X122350000Y-104681660D02*
X122483333Y-104681660D01*
X122483333Y-104681660D02*
X122550000Y-104714993D01*
X122550000Y-104714993D02*
X122583333Y-104748326D01*
X122583333Y-104748326D02*
X122616666Y-104814993D01*
X116784993Y-110383333D02*
X116451660Y-110150000D01*
X116784993Y-109983333D02*
X116084993Y-109983333D01*
X116084993Y-109983333D02*
X116084993Y-110250000D01*
X116084993Y-110250000D02*
X116118326Y-110316667D01*
X116118326Y-110316667D02*
X116151660Y-110350000D01*
X116151660Y-110350000D02*
X116218326Y-110383333D01*
X116218326Y-110383333D02*
X116318326Y-110383333D01*
X116318326Y-110383333D02*
X116384993Y-110350000D01*
X116384993Y-110350000D02*
X116418326Y-110316667D01*
X116418326Y-110316667D02*
X116451660Y-110250000D01*
X116451660Y-110250000D02*
X116451660Y-109983333D01*
X116084993Y-110616667D02*
X116084993Y-111050000D01*
X116084993Y-111050000D02*
X116351660Y-110816667D01*
X116351660Y-110816667D02*
X116351660Y-110916667D01*
X116351660Y-110916667D02*
X116384993Y-110983333D01*
X116384993Y-110983333D02*
X116418326Y-111016667D01*
X116418326Y-111016667D02*
X116484993Y-111050000D01*
X116484993Y-111050000D02*
X116651660Y-111050000D01*
X116651660Y-111050000D02*
X116718326Y-111016667D01*
X116718326Y-111016667D02*
X116751660Y-110983333D01*
X116751660Y-110983333D02*
X116784993Y-110916667D01*
X116784993Y-110916667D02*
X116784993Y-110716667D01*
X116784993Y-110716667D02*
X116751660Y-110650000D01*
X116751660Y-110650000D02*
X116718326Y-110616667D01*
X109414993Y-102916667D02*
X109414993Y-102583333D01*
X109414993Y-102583333D02*
X108714993Y-102583333D01*
X109048326Y-103150000D02*
X109048326Y-103383334D01*
X109414993Y-103483334D02*
X109414993Y-103150000D01*
X109414993Y-103150000D02*
X108714993Y-103150000D01*
X108714993Y-103150000D02*
X108714993Y-103483334D01*
X109414993Y-103783333D02*
X108714993Y-103783333D01*
X108714993Y-103783333D02*
X108714993Y-103950000D01*
X108714993Y-103950000D02*
X108748326Y-104050000D01*
X108748326Y-104050000D02*
X108814993Y-104116667D01*
X108814993Y-104116667D02*
X108881660Y-104150000D01*
X108881660Y-104150000D02*
X109014993Y-104183333D01*
X109014993Y-104183333D02*
X109114993Y-104183333D01*
X109114993Y-104183333D02*
X109248326Y-104150000D01*
X109248326Y-104150000D02*
X109314993Y-104116667D01*
X109314993Y-104116667D02*
X109381660Y-104050000D01*
X109381660Y-104050000D02*
X109414993Y-103950000D01*
X109414993Y-103950000D02*
X109414993Y-103783333D01*
X108781660Y-104450000D02*
X108748326Y-104483333D01*
X108748326Y-104483333D02*
X108714993Y-104550000D01*
X108714993Y-104550000D02*
X108714993Y-104716667D01*
X108714993Y-104716667D02*
X108748326Y-104783333D01*
X108748326Y-104783333D02*
X108781660Y-104816667D01*
X108781660Y-104816667D02*
X108848326Y-104850000D01*
X108848326Y-104850000D02*
X108914993Y-104850000D01*
X108914993Y-104850000D02*
X109014993Y-104816667D01*
X109014993Y-104816667D02*
X109414993Y-104416667D01*
X109414993Y-104416667D02*
X109414993Y-104850000D01*
X113567354Y-114047920D02*
X113234021Y-113814587D01*
X113567354Y-113647920D02*
X112867354Y-113647920D01*
X112867354Y-113647920D02*
X112867354Y-113914587D01*
X112867354Y-113914587D02*
X112900687Y-113981254D01*
X112900687Y-113981254D02*
X112934021Y-114014587D01*
X112934021Y-114014587D02*
X113000687Y-114047920D01*
X113000687Y-114047920D02*
X113100687Y-114047920D01*
X113100687Y-114047920D02*
X113167354Y-114014587D01*
X113167354Y-114014587D02*
X113200687Y-113981254D01*
X113200687Y-113981254D02*
X113234021Y-113914587D01*
X113234021Y-113914587D02*
X113234021Y-113647920D01*
X113100687Y-114647920D02*
X113567354Y-114647920D01*
X112834021Y-114481254D02*
X113334021Y-114314587D01*
X113334021Y-114314587D02*
X113334021Y-114747920D01*
X126516666Y-112548326D02*
X126549999Y-112581660D01*
X126549999Y-112581660D02*
X126649999Y-112614993D01*
X126649999Y-112614993D02*
X126716666Y-112614993D01*
X126716666Y-112614993D02*
X126816666Y-112581660D01*
X126816666Y-112581660D02*
X126883333Y-112514993D01*
X126883333Y-112514993D02*
X126916666Y-112448326D01*
X126916666Y-112448326D02*
X126949999Y-112314993D01*
X126949999Y-112314993D02*
X126949999Y-112214993D01*
X126949999Y-112214993D02*
X126916666Y-112081660D01*
X126916666Y-112081660D02*
X126883333Y-112014993D01*
X126883333Y-112014993D02*
X126816666Y-111948326D01*
X126816666Y-111948326D02*
X126716666Y-111914993D01*
X126716666Y-111914993D02*
X126649999Y-111914993D01*
X126649999Y-111914993D02*
X126549999Y-111948326D01*
X126549999Y-111948326D02*
X126516666Y-111981660D01*
X125849999Y-112614993D02*
X126249999Y-112614993D01*
X126049999Y-112614993D02*
X126049999Y-111914993D01*
X126049999Y-111914993D02*
X126116666Y-112014993D01*
X126116666Y-112014993D02*
X126183333Y-112081660D01*
X126183333Y-112081660D02*
X126249999Y-112114993D01*
X121716666Y-110848326D02*
X121749999Y-110881660D01*
X121749999Y-110881660D02*
X121849999Y-110914993D01*
X121849999Y-110914993D02*
X121916666Y-110914993D01*
X121916666Y-110914993D02*
X122016666Y-110881660D01*
X122016666Y-110881660D02*
X122083333Y-110814993D01*
X122083333Y-110814993D02*
X122116666Y-110748326D01*
X122116666Y-110748326D02*
X122149999Y-110614993D01*
X122149999Y-110614993D02*
X122149999Y-110514993D01*
X122149999Y-110514993D02*
X122116666Y-110381660D01*
X122116666Y-110381660D02*
X122083333Y-110314993D01*
X122083333Y-110314993D02*
X122016666Y-110248326D01*
X122016666Y-110248326D02*
X121916666Y-110214993D01*
X121916666Y-110214993D02*
X121849999Y-110214993D01*
X121849999Y-110214993D02*
X121749999Y-110248326D01*
X121749999Y-110248326D02*
X121716666Y-110281660D01*
X121083333Y-110214993D02*
X121416666Y-110214993D01*
X121416666Y-110214993D02*
X121449999Y-110548326D01*
X121449999Y-110548326D02*
X121416666Y-110514993D01*
X121416666Y-110514993D02*
X121349999Y-110481660D01*
X121349999Y-110481660D02*
X121183333Y-110481660D01*
X121183333Y-110481660D02*
X121116666Y-110514993D01*
X121116666Y-110514993D02*
X121083333Y-110548326D01*
X121083333Y-110548326D02*
X121049999Y-110614993D01*
X121049999Y-110614993D02*
X121049999Y-110781660D01*
X121049999Y-110781660D02*
X121083333Y-110848326D01*
X121083333Y-110848326D02*
X121116666Y-110881660D01*
X121116666Y-110881660D02*
X121183333Y-110914993D01*
X121183333Y-110914993D02*
X121349999Y-110914993D01*
X121349999Y-110914993D02*
X121416666Y-110881660D01*
X121416666Y-110881660D02*
X121449999Y-110848326D01*
X111614993Y-105283333D02*
X111281660Y-105050000D01*
X111614993Y-104883333D02*
X110914993Y-104883333D01*
X110914993Y-104883333D02*
X110914993Y-105150000D01*
X110914993Y-105150000D02*
X110948326Y-105216667D01*
X110948326Y-105216667D02*
X110981660Y-105250000D01*
X110981660Y-105250000D02*
X111048326Y-105283333D01*
X111048326Y-105283333D02*
X111148326Y-105283333D01*
X111148326Y-105283333D02*
X111214993Y-105250000D01*
X111214993Y-105250000D02*
X111248326Y-105216667D01*
X111248326Y-105216667D02*
X111281660Y-105150000D01*
X111281660Y-105150000D02*
X111281660Y-104883333D01*
X110914993Y-105916667D02*
X110914993Y-105583333D01*
X110914993Y-105583333D02*
X111248326Y-105550000D01*
X111248326Y-105550000D02*
X111214993Y-105583333D01*
X111214993Y-105583333D02*
X111181660Y-105650000D01*
X111181660Y-105650000D02*
X111181660Y-105816667D01*
X111181660Y-105816667D02*
X111214993Y-105883333D01*
X111214993Y-105883333D02*
X111248326Y-105916667D01*
X111248326Y-105916667D02*
X111314993Y-105950000D01*
X111314993Y-105950000D02*
X111481660Y-105950000D01*
X111481660Y-105950000D02*
X111548326Y-105916667D01*
X111548326Y-105916667D02*
X111581660Y-105883333D01*
X111581660Y-105883333D02*
X111614993Y-105816667D01*
X111614993Y-105816667D02*
X111614993Y-105650000D01*
X111614993Y-105650000D02*
X111581660Y-105583333D01*
X111581660Y-105583333D02*
X111548326Y-105550000D01*
X112550000Y-108948326D02*
X112583333Y-108981660D01*
X112583333Y-108981660D02*
X112683333Y-109014993D01*
X112683333Y-109014993D02*
X112750000Y-109014993D01*
X112750000Y-109014993D02*
X112850000Y-108981660D01*
X112850000Y-108981660D02*
X112916667Y-108914993D01*
X112916667Y-108914993D02*
X112950000Y-108848326D01*
X112950000Y-108848326D02*
X112983333Y-108714993D01*
X112983333Y-108714993D02*
X112983333Y-108614993D01*
X112983333Y-108614993D02*
X112950000Y-108481660D01*
X112950000Y-108481660D02*
X112916667Y-108414993D01*
X112916667Y-108414993D02*
X112850000Y-108348326D01*
X112850000Y-108348326D02*
X112750000Y-108314993D01*
X112750000Y-108314993D02*
X112683333Y-108314993D01*
X112683333Y-108314993D02*
X112583333Y-108348326D01*
X112583333Y-108348326D02*
X112550000Y-108381660D01*
X111883333Y-109014993D02*
X112283333Y-109014993D01*
X112083333Y-109014993D02*
X112083333Y-108314993D01*
X112083333Y-108314993D02*
X112150000Y-108414993D01*
X112150000Y-108414993D02*
X112216667Y-108481660D01*
X112216667Y-108481660D02*
X112283333Y-108514993D01*
X111650000Y-108314993D02*
X111216666Y-108314993D01*
X111216666Y-108314993D02*
X111450000Y-108581660D01*
X111450000Y-108581660D02*
X111350000Y-108581660D01*
X111350000Y-108581660D02*
X111283333Y-108614993D01*
X111283333Y-108614993D02*
X111250000Y-108648326D01*
X111250000Y-108648326D02*
X111216666Y-108714993D01*
X111216666Y-108714993D02*
X111216666Y-108881660D01*
X111216666Y-108881660D02*
X111250000Y-108948326D01*
X111250000Y-108948326D02*
X111283333Y-108981660D01*
X111283333Y-108981660D02*
X111350000Y-109014993D01*
X111350000Y-109014993D02*
X111550000Y-109014993D01*
X111550000Y-109014993D02*
X111616666Y-108981660D01*
X111616666Y-108981660D02*
X111650000Y-108948326D01*
X129114993Y-118866666D02*
X129614993Y-118866666D01*
X129614993Y-118866666D02*
X129714993Y-118833333D01*
X129714993Y-118833333D02*
X129781660Y-118766666D01*
X129781660Y-118766666D02*
X129814993Y-118666666D01*
X129814993Y-118666666D02*
X129814993Y-118600000D01*
X129814993Y-119566666D02*
X129814993Y-119166666D01*
X129814993Y-119366666D02*
X129114993Y-119366666D01*
X129114993Y-119366666D02*
X129214993Y-119299999D01*
X129214993Y-119299999D02*
X129281660Y-119233333D01*
X129281660Y-119233333D02*
X129314993Y-119166666D01*
X113216666Y-101114993D02*
X113449999Y-100781660D01*
X113616666Y-101114993D02*
X113616666Y-100414993D01*
X113616666Y-100414993D02*
X113349999Y-100414993D01*
X113349999Y-100414993D02*
X113283333Y-100448326D01*
X113283333Y-100448326D02*
X113249999Y-100481660D01*
X113249999Y-100481660D02*
X113216666Y-100548326D01*
X113216666Y-100548326D02*
X113216666Y-100648326D01*
X113216666Y-100648326D02*
X113249999Y-100714993D01*
X113249999Y-100714993D02*
X113283333Y-100748326D01*
X113283333Y-100748326D02*
X113349999Y-100781660D01*
X113349999Y-100781660D02*
X113616666Y-100781660D01*
X112616666Y-100414993D02*
X112749999Y-100414993D01*
X112749999Y-100414993D02*
X112816666Y-100448326D01*
X112816666Y-100448326D02*
X112849999Y-100481660D01*
X112849999Y-100481660D02*
X112916666Y-100581660D01*
X112916666Y-100581660D02*
X112949999Y-100714993D01*
X112949999Y-100714993D02*
X112949999Y-100981660D01*
X112949999Y-100981660D02*
X112916666Y-101048326D01*
X112916666Y-101048326D02*
X112883333Y-101081660D01*
X112883333Y-101081660D02*
X112816666Y-101114993D01*
X112816666Y-101114993D02*
X112683333Y-101114993D01*
X112683333Y-101114993D02*
X112616666Y-101081660D01*
X112616666Y-101081660D02*
X112583333Y-101048326D01*
X112583333Y-101048326D02*
X112549999Y-100981660D01*
X112549999Y-100981660D02*
X112549999Y-100814993D01*
X112549999Y-100814993D02*
X112583333Y-100748326D01*
X112583333Y-100748326D02*
X112616666Y-100714993D01*
X112616666Y-100714993D02*
X112683333Y-100681660D01*
X112683333Y-100681660D02*
X112816666Y-100681660D01*
X112816666Y-100681660D02*
X112883333Y-100714993D01*
X112883333Y-100714993D02*
X112916666Y-100748326D01*
X112916666Y-100748326D02*
X112949999Y-100814993D01*
X120148326Y-116183333D02*
X120181660Y-116150000D01*
X120181660Y-116150000D02*
X120214993Y-116050000D01*
X120214993Y-116050000D02*
X120214993Y-115983333D01*
X120214993Y-115983333D02*
X120181660Y-115883333D01*
X120181660Y-115883333D02*
X120114993Y-115816667D01*
X120114993Y-115816667D02*
X120048326Y-115783333D01*
X120048326Y-115783333D02*
X119914993Y-115750000D01*
X119914993Y-115750000D02*
X119814993Y-115750000D01*
X119814993Y-115750000D02*
X119681660Y-115783333D01*
X119681660Y-115783333D02*
X119614993Y-115816667D01*
X119614993Y-115816667D02*
X119548326Y-115883333D01*
X119548326Y-115883333D02*
X119514993Y-115983333D01*
X119514993Y-115983333D02*
X119514993Y-116050000D01*
X119514993Y-116050000D02*
X119548326Y-116150000D01*
X119548326Y-116150000D02*
X119581660Y-116183333D01*
X119581660Y-116450000D02*
X119548326Y-116483333D01*
X119548326Y-116483333D02*
X119514993Y-116550000D01*
X119514993Y-116550000D02*
X119514993Y-116716667D01*
X119514993Y-116716667D02*
X119548326Y-116783333D01*
X119548326Y-116783333D02*
X119581660Y-116816667D01*
X119581660Y-116816667D02*
X119648326Y-116850000D01*
X119648326Y-116850000D02*
X119714993Y-116850000D01*
X119714993Y-116850000D02*
X119814993Y-116816667D01*
X119814993Y-116816667D02*
X120214993Y-116416667D01*
X120214993Y-116416667D02*
X120214993Y-116850000D01*
D13*
%TO.C,C12*%
X121292164Y-104040000D02*
X121507836Y-104040000D01*
X121292164Y-104760000D02*
X121507836Y-104760000D01*
%TO.C,U6*%
X92859970Y-107009982D02*
X92870003Y-112820015D01*
X92859995Y-106840005D02*
X93059970Y-106840005D01*
X92859995Y-107009982D02*
X92859995Y-106840005D01*
X92870003Y-112840005D02*
X93198527Y-112840005D01*
X93891974Y-106840005D02*
X93891974Y-112840005D01*
X94733401Y-106840005D02*
X94733401Y-112840005D01*
X94986970Y-112840005D02*
X94593701Y-112840005D01*
X95470003Y-106840005D02*
X95470003Y-112840005D01*
X96105004Y-106840005D02*
X96105004Y-112840005D01*
X96383973Y-112840005D02*
X95965278Y-112840005D01*
X100612218Y-106840005D02*
X93059970Y-106840005D01*
X100612218Y-112840005D02*
X93059970Y-112840005D01*
X101559995Y-110972238D02*
X101559995Y-108707772D01*
X103427762Y-106840005D02*
X105692228Y-106840005D01*
X105692228Y-112840005D02*
X103427762Y-112840005D01*
X107559995Y-108707772D02*
X107559995Y-110972238D01*
X92889942Y-106659919D02*
G75*
G02*
X92829998Y-106659919I-29972J0D01*
G01*
X92829998Y-106659919D02*
G75*
G02*
X92889942Y-106659919I29972J0D01*
G01*
%TO.C,C15*%
X132390000Y-102259420D02*
X132390000Y-102540580D01*
X133410000Y-102259420D02*
X133410000Y-102540580D01*
%TO.C,J3*%
X115045000Y-103155000D02*
X115045000Y-101825000D01*
X116375000Y-103155000D02*
X115045000Y-103155000D01*
X117645000Y-103155000D02*
X117645000Y-100495000D01*
X122785000Y-100495000D02*
X117645000Y-100495000D01*
X122785000Y-103155000D02*
X117645000Y-103155000D01*
X122785000Y-103155000D02*
X122785000Y-100495000D01*
%TO.C,C17*%
X116007836Y-113440000D02*
X115792164Y-113440000D01*
X116007836Y-114160000D02*
X115792164Y-114160000D01*
%TO.C,U4*%
X130507925Y-114281940D02*
X132501880Y-114281940D01*
X130511024Y-105209931D02*
X132498756Y-105209931D01*
X134457938Y-114281940D02*
X135930912Y-114281940D01*
X134461062Y-105209931D02*
X136079909Y-105209931D01*
X136079909Y-105209931D02*
X136079909Y-114209931D01*
X128485802Y-105259893D02*
G75*
G02*
X128425858Y-105259893I-29972J0D01*
G01*
X128425858Y-105259893D02*
G75*
G02*
X128485802Y-105259893I29972J0D01*
G01*
%TO.C,C3*%
X123627836Y-109040000D02*
X123412164Y-109040000D01*
X123627836Y-109760000D02*
X123412164Y-109760000D01*
%TO.C,U3*%
X113728600Y-104723800D02*
X115871400Y-104723800D01*
X113728600Y-107876200D02*
X113728600Y-104723800D01*
X115871400Y-104723800D02*
X115871400Y-107876200D01*
X115871400Y-107876200D02*
X113728600Y-107876200D01*
X112379883Y-107799873D02*
G75*
G02*
X112319939Y-107799873I-29972J0D01*
G01*
X112319939Y-107799873D02*
G75*
G02*
X112379883Y-107799873I29972J0D01*
G01*
X112840132Y-107892329D02*
G75*
G02*
X112539904Y-107892329I-150114J0D01*
G01*
X112539904Y-107892329D02*
G75*
G02*
X112840132Y-107892329I150114J0D01*
G01*
X114631089Y-107300000D02*
G75*
G02*
X114330861Y-107300000I-150114J0D01*
G01*
X114330861Y-107300000D02*
G75*
G02*
X114631089Y-107300000I150114J0D01*
G01*
%TO.C,R1*%
X126610000Y-114656359D02*
X126610000Y-114963641D01*
X127370000Y-114656359D02*
X127370000Y-114963641D01*
%TO.C,C9*%
X112159420Y-102490000D02*
X112440580Y-102490000D01*
X112159420Y-103510000D02*
X112440580Y-103510000D01*
%TO.C,R2*%
X124620000Y-114656359D02*
X124620000Y-114963641D01*
X125380000Y-114656359D02*
X125380000Y-114963641D01*
%TO.C,C19*%
X126207836Y-106940000D02*
X125992164Y-106940000D01*
X126207836Y-107660000D02*
X125992164Y-107660000D01*
D15*
%TO.C,G\u002A\u002A\u002A*%
G36*
X106795278Y-114860624D02*
G01*
X106784570Y-114871333D01*
X106773862Y-114860624D01*
X106784570Y-114849916D01*
X106795278Y-114860624D01*
G37*
G36*
X106838111Y-111069899D02*
G01*
X106827403Y-111080608D01*
X106816695Y-111069899D01*
X106827403Y-111059191D01*
X106838111Y-111069899D01*
G37*
G36*
X107009443Y-112975970D02*
G01*
X106998735Y-112986678D01*
X106988027Y-112975970D01*
X106998735Y-112965262D01*
X107009443Y-112975970D01*
G37*
G36*
X107052276Y-110470237D02*
G01*
X107041568Y-110480945D01*
X107030860Y-110470237D01*
X107041568Y-110459528D01*
X107052276Y-110470237D01*
G37*
G36*
X107095110Y-120578837D02*
G01*
X107084401Y-120589545D01*
X107073693Y-120578837D01*
X107084401Y-120568129D01*
X107095110Y-120578837D01*
G37*
G36*
X107202192Y-116381198D02*
G01*
X107191484Y-116391906D01*
X107180776Y-116381198D01*
X107191484Y-116370490D01*
X107202192Y-116381198D01*
G37*
G36*
X107609106Y-108671248D02*
G01*
X107598398Y-108681957D01*
X107587690Y-108671248D01*
X107598398Y-108660540D01*
X107609106Y-108671248D01*
G37*
G36*
X107694772Y-110277488D02*
G01*
X107684064Y-110288196D01*
X107673356Y-110277488D01*
X107684064Y-110266780D01*
X107694772Y-110277488D01*
G37*
G36*
X107866104Y-113639882D02*
G01*
X107855396Y-113650591D01*
X107844688Y-113639882D01*
X107855396Y-113629174D01*
X107866104Y-113639882D01*
G37*
G36*
X107866104Y-117751855D02*
G01*
X107855396Y-117762564D01*
X107844688Y-117751855D01*
X107855396Y-117741147D01*
X107866104Y-117751855D01*
G37*
G36*
X107951771Y-118094520D02*
G01*
X107941062Y-118105228D01*
X107930354Y-118094520D01*
X107941062Y-118083812D01*
X107951771Y-118094520D01*
G37*
G36*
X108058853Y-119572260D02*
G01*
X108048145Y-119582968D01*
X108037437Y-119572260D01*
X108048145Y-119561552D01*
X108058853Y-119572260D01*
G37*
G36*
X108123103Y-114325211D02*
G01*
X108112395Y-114335920D01*
X108101686Y-114325211D01*
X108112395Y-114314503D01*
X108123103Y-114325211D01*
G37*
G36*
X108144519Y-117216442D02*
G01*
X108133811Y-117227151D01*
X108123103Y-117216442D01*
X108133811Y-117205734D01*
X108144519Y-117216442D01*
G37*
G36*
X108358685Y-116509697D02*
G01*
X108347976Y-116520405D01*
X108337268Y-116509697D01*
X108347976Y-116498989D01*
X108358685Y-116509697D01*
G37*
G36*
X108358685Y-119165346D02*
G01*
X108347976Y-119176054D01*
X108337268Y-119165346D01*
X108347976Y-119154638D01*
X108358685Y-119165346D01*
G37*
G36*
X108380101Y-110341737D02*
G01*
X108369393Y-110352446D01*
X108358685Y-110341737D01*
X108369393Y-110331029D01*
X108380101Y-110341737D01*
G37*
G36*
X108380101Y-118501434D02*
G01*
X108369393Y-118512142D01*
X108358685Y-118501434D01*
X108369393Y-118490726D01*
X108380101Y-118501434D01*
G37*
G36*
X108401518Y-110855734D02*
G01*
X108390809Y-110866442D01*
X108380101Y-110855734D01*
X108390809Y-110845026D01*
X108401518Y-110855734D01*
G37*
G36*
X108401518Y-117066527D02*
G01*
X108390809Y-117077235D01*
X108380101Y-117066527D01*
X108390809Y-117055818D01*
X108401518Y-117066527D01*
G37*
G36*
X108444351Y-113575633D02*
G01*
X108433642Y-113586341D01*
X108422934Y-113575633D01*
X108433642Y-113564925D01*
X108444351Y-113575633D01*
G37*
G36*
X108444351Y-117687606D02*
G01*
X108433642Y-117698314D01*
X108422934Y-117687606D01*
X108433642Y-117676898D01*
X108444351Y-117687606D01*
G37*
G36*
X108551433Y-118608517D02*
G01*
X108540725Y-118619225D01*
X108530017Y-118608517D01*
X108540725Y-118597808D01*
X108551433Y-118608517D01*
G37*
G36*
X108679932Y-118480017D02*
G01*
X108669224Y-118490726D01*
X108658516Y-118480017D01*
X108669224Y-118469309D01*
X108679932Y-118480017D01*
G37*
G36*
X108701349Y-110491653D02*
G01*
X108690641Y-110502361D01*
X108679932Y-110491653D01*
X108690641Y-110480945D01*
X108701349Y-110491653D01*
G37*
G36*
X108722766Y-117430608D02*
G01*
X108712057Y-117441316D01*
X108701349Y-117430608D01*
X108712057Y-117419899D01*
X108722766Y-117430608D01*
G37*
G36*
X108765599Y-118886931D02*
G01*
X108754890Y-118897640D01*
X108744182Y-118886931D01*
X108754890Y-118876223D01*
X108765599Y-118886931D01*
G37*
G36*
X108829848Y-116895194D02*
G01*
X108819140Y-116905903D01*
X108808432Y-116895194D01*
X108819140Y-116884486D01*
X108829848Y-116895194D01*
G37*
G36*
X108915514Y-110513070D02*
G01*
X108904806Y-110523778D01*
X108894098Y-110513070D01*
X108904806Y-110502361D01*
X108915514Y-110513070D01*
G37*
G36*
X108915514Y-110770068D02*
G01*
X108904806Y-110780776D01*
X108894098Y-110770068D01*
X108904806Y-110759360D01*
X108915514Y-110770068D01*
G37*
G36*
X108979764Y-110598736D02*
G01*
X108969056Y-110609444D01*
X108958347Y-110598736D01*
X108969056Y-110588027D01*
X108979764Y-110598736D01*
G37*
G36*
X109001180Y-118522850D02*
G01*
X108990472Y-118533559D01*
X108979764Y-118522850D01*
X108990472Y-118512142D01*
X109001180Y-118522850D01*
G37*
G36*
X109022597Y-118801265D02*
G01*
X109011889Y-118811974D01*
X109001180Y-118801265D01*
X109011889Y-118790557D01*
X109022597Y-118801265D01*
G37*
G36*
X109129680Y-117430608D02*
G01*
X109118971Y-117441316D01*
X109108263Y-117430608D01*
X109118971Y-117419899D01*
X109129680Y-117430608D01*
G37*
G36*
X109193929Y-120086257D02*
G01*
X109183221Y-120096965D01*
X109172513Y-120086257D01*
X109183221Y-120075549D01*
X109193929Y-120086257D01*
G37*
G36*
X109236762Y-117237859D02*
G01*
X109226054Y-117248567D01*
X109215346Y-117237859D01*
X109226054Y-117227151D01*
X109236762Y-117237859D01*
G37*
G36*
X109279595Y-115203289D02*
G01*
X109268887Y-115213997D01*
X109258179Y-115203289D01*
X109268887Y-115192581D01*
X109279595Y-115203289D01*
G37*
G36*
X109301012Y-113575633D02*
G01*
X109290303Y-113586341D01*
X109279595Y-113575633D01*
X109290303Y-113564925D01*
X109301012Y-113575633D01*
G37*
G36*
X109322428Y-111798061D02*
G01*
X109311720Y-111808769D01*
X109301012Y-111798061D01*
X109311720Y-111787353D01*
X109322428Y-111798061D01*
G37*
G36*
X109450927Y-118994014D02*
G01*
X109440219Y-119004722D01*
X109429511Y-118994014D01*
X109440219Y-118983306D01*
X109450927Y-118994014D01*
G37*
G36*
X109472344Y-110684402D02*
G01*
X109461636Y-110695110D01*
X109450927Y-110684402D01*
X109461636Y-110673694D01*
X109472344Y-110684402D01*
G37*
G36*
X109472344Y-116102783D02*
G01*
X109461636Y-116113491D01*
X109450927Y-116102783D01*
X109461636Y-116092075D01*
X109472344Y-116102783D01*
G37*
G36*
X109472344Y-116145616D02*
G01*
X109461636Y-116156324D01*
X109450927Y-116145616D01*
X109461636Y-116134908D01*
X109472344Y-116145616D01*
G37*
G36*
X109472344Y-117066527D02*
G01*
X109461636Y-117077235D01*
X109450927Y-117066527D01*
X109461636Y-117055818D01*
X109472344Y-117066527D01*
G37*
G36*
X109472344Y-119336678D02*
G01*
X109461636Y-119347387D01*
X109450927Y-119336678D01*
X109461636Y-119325970D01*
X109472344Y-119336678D01*
G37*
G36*
X109558010Y-117537690D02*
G01*
X109547302Y-117548398D01*
X109536594Y-117537690D01*
X109547302Y-117526982D01*
X109558010Y-117537690D01*
G37*
G36*
X109600843Y-114882041D02*
G01*
X109590135Y-114892749D01*
X109579427Y-114882041D01*
X109590135Y-114871333D01*
X109600843Y-114882041D01*
G37*
G36*
X109600843Y-115438871D02*
G01*
X109590135Y-115449579D01*
X109579427Y-115438871D01*
X109590135Y-115428162D01*
X109600843Y-115438871D01*
G37*
G36*
X109836425Y-110234655D02*
G01*
X109825717Y-110245363D01*
X109815008Y-110234655D01*
X109825717Y-110223947D01*
X109836425Y-110234655D01*
G37*
G36*
X109857841Y-112312058D02*
G01*
X109847133Y-112322766D01*
X109836425Y-112312058D01*
X109847133Y-112301350D01*
X109857841Y-112312058D01*
G37*
G36*
X110050590Y-108992496D02*
G01*
X110039882Y-109003205D01*
X110029174Y-108992496D01*
X110039882Y-108981788D01*
X110050590Y-108992496D01*
G37*
G36*
X110072007Y-115246122D02*
G01*
X110061298Y-115256830D01*
X110050590Y-115246122D01*
X110061298Y-115235414D01*
X110072007Y-115246122D01*
G37*
G36*
X110093423Y-112483390D02*
G01*
X110082715Y-112494098D01*
X110072007Y-112483390D01*
X110082715Y-112472682D01*
X110093423Y-112483390D01*
G37*
G36*
X110179089Y-115738702D02*
G01*
X110168381Y-115749410D01*
X110157673Y-115738702D01*
X110168381Y-115727994D01*
X110179089Y-115738702D01*
G37*
G36*
X110264755Y-115524537D02*
G01*
X110254047Y-115535245D01*
X110243339Y-115524537D01*
X110254047Y-115513828D01*
X110264755Y-115524537D01*
G37*
G36*
X110286172Y-116124199D02*
G01*
X110275464Y-116134908D01*
X110264755Y-116124199D01*
X110275464Y-116113491D01*
X110286172Y-116124199D01*
G37*
G36*
X110286172Y-119615093D02*
G01*
X110275464Y-119625802D01*
X110264755Y-119615093D01*
X110275464Y-119604385D01*
X110286172Y-119615093D01*
G37*
G36*
X110371838Y-111905144D02*
G01*
X110361130Y-111915852D01*
X110350421Y-111905144D01*
X110361130Y-111894436D01*
X110371838Y-111905144D01*
G37*
G36*
X110371838Y-112697555D02*
G01*
X110361130Y-112708264D01*
X110350421Y-112697555D01*
X110361130Y-112686847D01*
X110371838Y-112697555D01*
G37*
G36*
X110393255Y-112461974D02*
G01*
X110382546Y-112472682D01*
X110371838Y-112461974D01*
X110382546Y-112451265D01*
X110393255Y-112461974D01*
G37*
G36*
X110478921Y-116209866D02*
G01*
X110468212Y-116220574D01*
X110457504Y-116209866D01*
X110468212Y-116199157D01*
X110478921Y-116209866D01*
G37*
G36*
X110478921Y-116488280D02*
G01*
X110468212Y-116498989D01*
X110457504Y-116488280D01*
X110468212Y-116477572D01*
X110478921Y-116488280D01*
G37*
G36*
X110521754Y-110727235D02*
G01*
X110511045Y-110737943D01*
X110500337Y-110727235D01*
X110511045Y-110716527D01*
X110521754Y-110727235D01*
G37*
G36*
X110521754Y-119465178D02*
G01*
X110511045Y-119475886D01*
X110500337Y-119465178D01*
X110511045Y-119454469D01*
X110521754Y-119465178D01*
G37*
G36*
X110543170Y-120407505D02*
G01*
X110532462Y-120418213D01*
X110521754Y-120407505D01*
X110532462Y-120396796D01*
X110543170Y-120407505D01*
G37*
G36*
X110564587Y-110491653D02*
G01*
X110553878Y-110502361D01*
X110543170Y-110491653D01*
X110553878Y-110480945D01*
X110564587Y-110491653D01*
G37*
G36*
X110650253Y-111348314D02*
G01*
X110639545Y-111359022D01*
X110628836Y-111348314D01*
X110639545Y-111337606D01*
X110650253Y-111348314D01*
G37*
G36*
X110671669Y-115931451D02*
G01*
X110660961Y-115942159D01*
X110650253Y-115931451D01*
X110660961Y-115920742D01*
X110671669Y-115931451D01*
G37*
G36*
X110693086Y-113104469D02*
G01*
X110682378Y-113115178D01*
X110671669Y-113104469D01*
X110682378Y-113093761D01*
X110693086Y-113104469D01*
G37*
G36*
X110693086Y-118480017D02*
G01*
X110682378Y-118490726D01*
X110671669Y-118480017D01*
X110682378Y-118469309D01*
X110693086Y-118480017D01*
G37*
G36*
X110735919Y-118758432D02*
G01*
X110725211Y-118769140D01*
X110714502Y-118758432D01*
X110725211Y-118747724D01*
X110735919Y-118758432D01*
G37*
G36*
X110864418Y-109013913D02*
G01*
X110853710Y-109024621D01*
X110843002Y-109013913D01*
X110853710Y-109003205D01*
X110864418Y-109013913D01*
G37*
G36*
X110864418Y-110812901D02*
G01*
X110853710Y-110823609D01*
X110843002Y-110812901D01*
X110853710Y-110802193D01*
X110864418Y-110812901D01*
G37*
G36*
X110907251Y-111241232D02*
G01*
X110896543Y-111251940D01*
X110885835Y-111241232D01*
X110896543Y-111230523D01*
X110907251Y-111241232D01*
G37*
G36*
X110907251Y-112590473D02*
G01*
X110896543Y-112601181D01*
X110885835Y-112590473D01*
X110896543Y-112579764D01*
X110907251Y-112590473D01*
G37*
G36*
X110907251Y-117559107D02*
G01*
X110896543Y-117569815D01*
X110885835Y-117559107D01*
X110896543Y-117548398D01*
X110907251Y-117559107D01*
G37*
G36*
X110928668Y-116038533D02*
G01*
X110917959Y-116049242D01*
X110907251Y-116038533D01*
X110917959Y-116027825D01*
X110928668Y-116038533D01*
G37*
G36*
X111014334Y-111348314D02*
G01*
X111003626Y-111359022D01*
X110992917Y-111348314D01*
X111003626Y-111337606D01*
X111014334Y-111348314D01*
G37*
G36*
X111035750Y-108928247D02*
G01*
X111025042Y-108938955D01*
X111014334Y-108928247D01*
X111025042Y-108917538D01*
X111035750Y-108928247D01*
G37*
G36*
X111121416Y-110555903D02*
G01*
X111110708Y-110566611D01*
X111100000Y-110555903D01*
X111110708Y-110545194D01*
X111121416Y-110555903D01*
G37*
G36*
X111142833Y-110748651D02*
G01*
X111132125Y-110759360D01*
X111121416Y-110748651D01*
X111132125Y-110737943D01*
X111142833Y-110748651D01*
G37*
G36*
X111185666Y-111733812D02*
G01*
X111174958Y-111744520D01*
X111164249Y-111733812D01*
X111174958Y-111723103D01*
X111185666Y-111733812D01*
G37*
G36*
X111271332Y-113639882D02*
G01*
X111260624Y-113650591D01*
X111249916Y-113639882D01*
X111260624Y-113629174D01*
X111271332Y-113639882D01*
G37*
G36*
X111271332Y-118480017D02*
G01*
X111260624Y-118490726D01*
X111249916Y-118480017D01*
X111260624Y-118469309D01*
X111271332Y-118480017D01*
G37*
G36*
X111314165Y-111412564D02*
G01*
X111303457Y-111423272D01*
X111292749Y-111412564D01*
X111303457Y-111401855D01*
X111314165Y-111412564D01*
G37*
G36*
X111378415Y-108778331D02*
G01*
X111367706Y-108789039D01*
X111356998Y-108778331D01*
X111367706Y-108767623D01*
X111378415Y-108778331D01*
G37*
G36*
X111421248Y-120321839D02*
G01*
X111410540Y-120332547D01*
X111399831Y-120321839D01*
X111410540Y-120311130D01*
X111421248Y-120321839D01*
G37*
G36*
X111442664Y-111712395D02*
G01*
X111431956Y-111723103D01*
X111421248Y-111712395D01*
X111431956Y-111701687D01*
X111442664Y-111712395D01*
G37*
G36*
X111485497Y-111562479D02*
G01*
X111474789Y-111573188D01*
X111464081Y-111562479D01*
X111474789Y-111551771D01*
X111485497Y-111562479D01*
G37*
G36*
X111506914Y-118758432D02*
G01*
X111496206Y-118769140D01*
X111485497Y-118758432D01*
X111496206Y-118747724D01*
X111506914Y-118758432D01*
G37*
G36*
X111528330Y-109078162D02*
G01*
X111517622Y-109088871D01*
X111506914Y-109078162D01*
X111517622Y-109067454D01*
X111528330Y-109078162D01*
G37*
G36*
X111528330Y-110298904D02*
G01*
X111517622Y-110309613D01*
X111506914Y-110298904D01*
X111517622Y-110288196D01*
X111528330Y-110298904D01*
G37*
G36*
X111528330Y-111219815D02*
G01*
X111517622Y-111230523D01*
X111506914Y-111219815D01*
X111517622Y-111209107D01*
X111528330Y-111219815D01*
G37*
G36*
X111549747Y-112761805D02*
G01*
X111539039Y-112772513D01*
X111528330Y-112761805D01*
X111539039Y-112751097D01*
X111549747Y-112761805D01*
G37*
G36*
X111592580Y-117473441D02*
G01*
X111581872Y-117484149D01*
X111571163Y-117473441D01*
X111581872Y-117462732D01*
X111592580Y-117473441D01*
G37*
G36*
X111699663Y-112247808D02*
G01*
X111688954Y-112258517D01*
X111678246Y-112247808D01*
X111688954Y-112237100D01*
X111699663Y-112247808D01*
G37*
G36*
X111763912Y-111005650D02*
G01*
X111753204Y-111016358D01*
X111742496Y-111005650D01*
X111753204Y-110994941D01*
X111763912Y-111005650D01*
G37*
G36*
X111785329Y-115331788D02*
G01*
X111774620Y-115342496D01*
X111763912Y-115331788D01*
X111774620Y-115321080D01*
X111785329Y-115331788D01*
G37*
G36*
X111828162Y-111926560D02*
G01*
X111817454Y-111937269D01*
X111806745Y-111926560D01*
X111817454Y-111915852D01*
X111828162Y-111926560D01*
G37*
G36*
X111849578Y-112461974D02*
G01*
X111838870Y-112472682D01*
X111828162Y-112461974D01*
X111838870Y-112451265D01*
X111849578Y-112461974D01*
G37*
G36*
X111892411Y-109335161D02*
G01*
X111881703Y-109345869D01*
X111870995Y-109335161D01*
X111881703Y-109324452D01*
X111892411Y-109335161D01*
G37*
G36*
X111892411Y-110041906D02*
G01*
X111881703Y-110052614D01*
X111870995Y-110041906D01*
X111881703Y-110031198D01*
X111892411Y-110041906D01*
G37*
G36*
X111892411Y-113511383D02*
G01*
X111881703Y-113522092D01*
X111870995Y-113511383D01*
X111881703Y-113500675D01*
X111892411Y-113511383D01*
G37*
G36*
X111913828Y-111583896D02*
G01*
X111903120Y-111594604D01*
X111892411Y-111583896D01*
X111903120Y-111573188D01*
X111913828Y-111583896D01*
G37*
G36*
X111935244Y-108842581D02*
G01*
X111924536Y-108853289D01*
X111913828Y-108842581D01*
X111924536Y-108831872D01*
X111935244Y-108842581D01*
G37*
G36*
X111935244Y-113040220D02*
G01*
X111924536Y-113050928D01*
X111913828Y-113040220D01*
X111924536Y-113029511D01*
X111935244Y-113040220D01*
G37*
G36*
X112020911Y-112162142D02*
G01*
X112010202Y-112172850D01*
X111999494Y-112162142D01*
X112010202Y-112151434D01*
X112020911Y-112162142D01*
G37*
G36*
X112085160Y-114239545D02*
G01*
X112074452Y-114250253D01*
X112063744Y-114239545D01*
X112074452Y-114228837D01*
X112085160Y-114239545D01*
G37*
G36*
X112127993Y-111262648D02*
G01*
X112117285Y-111273356D01*
X112106577Y-111262648D01*
X112117285Y-111251940D01*
X112127993Y-111262648D01*
G37*
G36*
X112149410Y-116552530D02*
G01*
X112138701Y-116563238D01*
X112127993Y-116552530D01*
X112138701Y-116541822D01*
X112149410Y-116552530D01*
G37*
G36*
X112192243Y-113382884D02*
G01*
X112181534Y-113393592D01*
X112170826Y-113382884D01*
X112181534Y-113372176D01*
X112192243Y-113382884D01*
G37*
G36*
X112299325Y-112033643D02*
G01*
X112288617Y-112044351D01*
X112277909Y-112033643D01*
X112288617Y-112022935D01*
X112299325Y-112033643D01*
G37*
G36*
X112299325Y-117366358D02*
G01*
X112288617Y-117377066D01*
X112277909Y-117366358D01*
X112288617Y-117355650D01*
X112299325Y-117366358D01*
G37*
G36*
X112342158Y-112654722D02*
G01*
X112331450Y-112665431D01*
X112320742Y-112654722D01*
X112331450Y-112644014D01*
X112342158Y-112654722D01*
G37*
G36*
X112406408Y-116059950D02*
G01*
X112395700Y-116070658D01*
X112384991Y-116059950D01*
X112395700Y-116049242D01*
X112406408Y-116059950D01*
G37*
G36*
X112449241Y-116852361D02*
G01*
X112438533Y-116863070D01*
X112427825Y-116852361D01*
X112438533Y-116841653D01*
X112449241Y-116852361D01*
G37*
G36*
X112470658Y-115695869D02*
G01*
X112459949Y-115706577D01*
X112449241Y-115695869D01*
X112459949Y-115685161D01*
X112470658Y-115695869D01*
G37*
G36*
X112470658Y-115802952D02*
G01*
X112459949Y-115813660D01*
X112449241Y-115802952D01*
X112459949Y-115792243D01*
X112470658Y-115802952D01*
G37*
G36*
X112513491Y-108649832D02*
G01*
X112502782Y-108660540D01*
X112492074Y-108649832D01*
X112502782Y-108639124D01*
X112513491Y-108649832D01*
G37*
G36*
X112513491Y-109399410D02*
G01*
X112502782Y-109410119D01*
X112492074Y-109399410D01*
X112502782Y-109388702D01*
X112513491Y-109399410D01*
G37*
G36*
X112513491Y-115181872D02*
G01*
X112502782Y-115192581D01*
X112492074Y-115181872D01*
X112502782Y-115171164D01*
X112513491Y-115181872D01*
G37*
G36*
X112577740Y-115952867D02*
G01*
X112567032Y-115963576D01*
X112556324Y-115952867D01*
X112567032Y-115942159D01*
X112577740Y-115952867D01*
G37*
G36*
X112620573Y-117323525D02*
G01*
X112609865Y-117334233D01*
X112599157Y-117323525D01*
X112609865Y-117312817D01*
X112620573Y-117323525D01*
G37*
G36*
X112641990Y-111433980D02*
G01*
X112631282Y-111444689D01*
X112620573Y-111433980D01*
X112631282Y-111423272D01*
X112641990Y-111433980D01*
G37*
G36*
X112641990Y-116188449D02*
G01*
X112631282Y-116199157D01*
X112620573Y-116188449D01*
X112631282Y-116177741D01*
X112641990Y-116188449D01*
G37*
G36*
X112727656Y-111005650D02*
G01*
X112716948Y-111016358D01*
X112706239Y-111005650D01*
X112716948Y-110994941D01*
X112727656Y-111005650D01*
G37*
G36*
X112749072Y-112997387D02*
G01*
X112738364Y-113008095D01*
X112727656Y-112997387D01*
X112738364Y-112986678D01*
X112749072Y-112997387D01*
G37*
G36*
X112770489Y-117216442D02*
G01*
X112759781Y-117227151D01*
X112749072Y-117216442D01*
X112759781Y-117205734D01*
X112770489Y-117216442D01*
G37*
G36*
X112791905Y-112997387D02*
G01*
X112781197Y-113008095D01*
X112770489Y-112997387D01*
X112781197Y-112986678D01*
X112791905Y-112997387D01*
G37*
G36*
X112856155Y-110791484D02*
G01*
X112845447Y-110802193D01*
X112834739Y-110791484D01*
X112845447Y-110780776D01*
X112856155Y-110791484D01*
G37*
G36*
X112856155Y-116381198D02*
G01*
X112845447Y-116391906D01*
X112834739Y-116381198D01*
X112845447Y-116370490D01*
X112856155Y-116381198D01*
G37*
G36*
X112877572Y-112419140D02*
G01*
X112866863Y-112429849D01*
X112856155Y-112419140D01*
X112866863Y-112408432D01*
X112877572Y-112419140D01*
G37*
G36*
X112920405Y-110041906D02*
G01*
X112909696Y-110052614D01*
X112898988Y-110041906D01*
X112909696Y-110031198D01*
X112920405Y-110041906D01*
G37*
G36*
X112920405Y-117109360D02*
G01*
X112909696Y-117120068D01*
X112898988Y-117109360D01*
X112909696Y-117098651D01*
X112920405Y-117109360D01*
G37*
G36*
X112941821Y-113447134D02*
G01*
X112931113Y-113457842D01*
X112920405Y-113447134D01*
X112931113Y-113436425D01*
X112941821Y-113447134D01*
G37*
G36*
X113006071Y-117216442D02*
G01*
X112995362Y-117227151D01*
X112984654Y-117216442D01*
X112995362Y-117205734D01*
X113006071Y-117216442D01*
G37*
G36*
X113177403Y-116017117D02*
G01*
X113166695Y-116027825D01*
X113155986Y-116017117D01*
X113166695Y-116006409D01*
X113177403Y-116017117D01*
G37*
G36*
X113177403Y-120985751D02*
G01*
X113166695Y-120996459D01*
X113155986Y-120985751D01*
X113166695Y-120975043D01*
X113177403Y-120985751D01*
G37*
G36*
X113220236Y-116959444D02*
G01*
X113209528Y-116970152D01*
X113198819Y-116959444D01*
X113209528Y-116948736D01*
X113220236Y-116959444D01*
G37*
G36*
X113241653Y-116274115D02*
G01*
X113230944Y-116284823D01*
X113220236Y-116274115D01*
X113230944Y-116263407D01*
X113241653Y-116274115D01*
G37*
G36*
X113263069Y-114153879D02*
G01*
X113252361Y-114164587D01*
X113241653Y-114153879D01*
X113252361Y-114143171D01*
X113263069Y-114153879D01*
G37*
G36*
X113327319Y-110298904D02*
G01*
X113316610Y-110309613D01*
X113305902Y-110298904D01*
X113316610Y-110288196D01*
X113327319Y-110298904D01*
G37*
G36*
X113391568Y-113854048D02*
G01*
X113380860Y-113864756D01*
X113370152Y-113854048D01*
X113380860Y-113843339D01*
X113391568Y-113854048D01*
G37*
G36*
X113412985Y-118265852D02*
G01*
X113402276Y-118276560D01*
X113391568Y-118265852D01*
X113402276Y-118255144D01*
X113412985Y-118265852D01*
G37*
G36*
X113477234Y-111798061D02*
G01*
X113466526Y-111808769D01*
X113455818Y-111798061D01*
X113466526Y-111787353D01*
X113477234Y-111798061D01*
G37*
G36*
X113627150Y-111241232D02*
G01*
X113616442Y-111251940D01*
X113605733Y-111241232D01*
X113616442Y-111230523D01*
X113627150Y-111241232D01*
G37*
G36*
X113691400Y-113061636D02*
G01*
X113680691Y-113072345D01*
X113669983Y-113061636D01*
X113680691Y-113050928D01*
X113691400Y-113061636D01*
G37*
G36*
X113712816Y-118951181D02*
G01*
X113702108Y-118961889D01*
X113691400Y-118951181D01*
X113702108Y-118940473D01*
X113712816Y-118951181D01*
G37*
G36*
X113734233Y-117751855D02*
G01*
X113723524Y-117762564D01*
X113712816Y-117751855D01*
X113723524Y-117741147D01*
X113734233Y-117751855D01*
G37*
G36*
X113755649Y-118094520D02*
G01*
X113744941Y-118105228D01*
X113734233Y-118094520D01*
X113744941Y-118083812D01*
X113755649Y-118094520D01*
G37*
G36*
X113819899Y-113982547D02*
G01*
X113809190Y-113993255D01*
X113798482Y-113982547D01*
X113809190Y-113971839D01*
X113819899Y-113982547D01*
G37*
G36*
X113819899Y-117109360D02*
G01*
X113809190Y-117120068D01*
X113798482Y-117109360D01*
X113809190Y-117098651D01*
X113819899Y-117109360D01*
G37*
G36*
X113841315Y-109977656D02*
G01*
X113830607Y-109988365D01*
X113819899Y-109977656D01*
X113830607Y-109966948D01*
X113841315Y-109977656D01*
G37*
G36*
X113969814Y-118415768D02*
G01*
X113959106Y-118426476D01*
X113948398Y-118415768D01*
X113959106Y-118405060D01*
X113969814Y-118415768D01*
G37*
G36*
X114055481Y-110577319D02*
G01*
X114044772Y-110588027D01*
X114034064Y-110577319D01*
X114044772Y-110566611D01*
X114055481Y-110577319D01*
G37*
G36*
X114141147Y-114282378D02*
G01*
X114130438Y-114293087D01*
X114119730Y-114282378D01*
X114130438Y-114271670D01*
X114141147Y-114282378D01*
G37*
G36*
X114141147Y-117066527D02*
G01*
X114130438Y-117077235D01*
X114119730Y-117066527D01*
X114130438Y-117055818D01*
X114141147Y-117066527D01*
G37*
G36*
X114141147Y-117173609D02*
G01*
X114130438Y-117184318D01*
X114119730Y-117173609D01*
X114130438Y-117162901D01*
X114141147Y-117173609D01*
G37*
G36*
X114141147Y-117344941D02*
G01*
X114130438Y-117355650D01*
X114119730Y-117344941D01*
X114130438Y-117334233D01*
X114141147Y-117344941D01*
G37*
G36*
X114269646Y-116873778D02*
G01*
X114258938Y-116884486D01*
X114248229Y-116873778D01*
X114258938Y-116863070D01*
X114269646Y-116873778D01*
G37*
G36*
X114333895Y-116359781D02*
G01*
X114323187Y-116370490D01*
X114312479Y-116359781D01*
X114323187Y-116349073D01*
X114333895Y-116359781D01*
G37*
G36*
X114398145Y-111455397D02*
G01*
X114387437Y-111466105D01*
X114376728Y-111455397D01*
X114387437Y-111444689D01*
X114398145Y-111455397D01*
G37*
G36*
X114398145Y-115117623D02*
G01*
X114387437Y-115128331D01*
X114376728Y-115117623D01*
X114387437Y-115106914D01*
X114398145Y-115117623D01*
G37*
G36*
X114419561Y-114260962D02*
G01*
X114408853Y-114271670D01*
X114398145Y-114260962D01*
X114408853Y-114250253D01*
X114419561Y-114260962D01*
G37*
G36*
X114440978Y-113297218D02*
G01*
X114430270Y-113307926D01*
X114419561Y-113297218D01*
X114430270Y-113286510D01*
X114440978Y-113297218D01*
G37*
G36*
X114483811Y-117087943D02*
G01*
X114473103Y-117098651D01*
X114462395Y-117087943D01*
X114473103Y-117077235D01*
X114483811Y-117087943D01*
G37*
G36*
X114548061Y-111262648D02*
G01*
X114537352Y-111273356D01*
X114526644Y-111262648D01*
X114537352Y-111251940D01*
X114548061Y-111262648D01*
G37*
G36*
X114676560Y-110620152D02*
G01*
X114665852Y-110630861D01*
X114655143Y-110620152D01*
X114665852Y-110609444D01*
X114676560Y-110620152D01*
G37*
G36*
X114762226Y-110812901D02*
G01*
X114751518Y-110823609D01*
X114740809Y-110812901D01*
X114751518Y-110802193D01*
X114762226Y-110812901D01*
G37*
G36*
X114783642Y-111541063D02*
G01*
X114772934Y-111551771D01*
X114762226Y-111541063D01*
X114772934Y-111530355D01*
X114783642Y-111541063D01*
G37*
G36*
X114869309Y-109185245D02*
G01*
X114858600Y-109195953D01*
X114847892Y-109185245D01*
X114858600Y-109174537D01*
X114869309Y-109185245D01*
G37*
G36*
X114976391Y-113061636D02*
G01*
X114965683Y-113072345D01*
X114954975Y-113061636D01*
X114965683Y-113050928D01*
X114976391Y-113061636D01*
G37*
G36*
X115169140Y-115588786D02*
G01*
X115158432Y-115599495D01*
X115147723Y-115588786D01*
X115158432Y-115578078D01*
X115169140Y-115588786D01*
G37*
G36*
X115533221Y-114989124D02*
G01*
X115522513Y-114999832D01*
X115511804Y-114989124D01*
X115522513Y-114978415D01*
X115533221Y-114989124D01*
G37*
G36*
X115554637Y-116959444D02*
G01*
X115543929Y-116970152D01*
X115533221Y-116959444D01*
X115543929Y-116948736D01*
X115554637Y-116959444D01*
G37*
G36*
X115725970Y-109934823D02*
G01*
X115715261Y-109945532D01*
X115704553Y-109934823D01*
X115715261Y-109924115D01*
X115725970Y-109934823D01*
G37*
G36*
X106581113Y-119861383D02*
G01*
X106579567Y-119872721D01*
X106566835Y-119875661D01*
X106564272Y-119872522D01*
X106566835Y-119847106D01*
X106573277Y-119843755D01*
X106581113Y-119861383D01*
G37*
G36*
X106766723Y-120468185D02*
G01*
X106770073Y-120474627D01*
X106752445Y-120482463D01*
X106741107Y-120480917D01*
X106738167Y-120468185D01*
X106741306Y-120465622D01*
X106766723Y-120468185D01*
G37*
G36*
X106795278Y-116606071D02*
G01*
X106793733Y-116617409D01*
X106781000Y-116620349D01*
X106778437Y-116617210D01*
X106781000Y-116591794D01*
X106787442Y-116588443D01*
X106795278Y-116606071D01*
G37*
G36*
X106795278Y-119475886D02*
G01*
X106793733Y-119487224D01*
X106781000Y-119490164D01*
X106778437Y-119487025D01*
X106781000Y-119461608D01*
X106787442Y-119458258D01*
X106795278Y-119475886D01*
G37*
G36*
X106859528Y-111530355D02*
G01*
X106857982Y-111541692D01*
X106845250Y-111544632D01*
X106842687Y-111541493D01*
X106845250Y-111516077D01*
X106851692Y-111512726D01*
X106859528Y-111530355D01*
G37*
G36*
X106902361Y-114164587D02*
G01*
X106900815Y-114175925D01*
X106888083Y-114178865D01*
X106885520Y-114175726D01*
X106888083Y-114150310D01*
X106894525Y-114146959D01*
X106902361Y-114164587D01*
G37*
G36*
X106916638Y-115692300D02*
G01*
X106919989Y-115698741D01*
X106902361Y-115706577D01*
X106891023Y-115705032D01*
X106888083Y-115692300D01*
X106891222Y-115689736D01*
X106916638Y-115692300D01*
G37*
G36*
X106988027Y-114550085D02*
G01*
X106986481Y-114561423D01*
X106973749Y-114564362D01*
X106971186Y-114561224D01*
X106973749Y-114535807D01*
X106980191Y-114532457D01*
X106988027Y-114550085D01*
G37*
G36*
X107030860Y-109731366D02*
G01*
X107029314Y-109742704D01*
X107016582Y-109745644D01*
X107014019Y-109742505D01*
X107016582Y-109717089D01*
X107023024Y-109713738D01*
X107030860Y-109731366D01*
G37*
G36*
X107280719Y-118969028D02*
G01*
X107284070Y-118975470D01*
X107266442Y-118983306D01*
X107255104Y-118981760D01*
X107252164Y-118969028D01*
X107255303Y-118966465D01*
X107280719Y-118969028D01*
G37*
G36*
X107494885Y-119911355D02*
G01*
X107498235Y-119917797D01*
X107480607Y-119925633D01*
X107469269Y-119924087D01*
X107466329Y-119911355D01*
X107469468Y-119908792D01*
X107494885Y-119911355D01*
G37*
G36*
X107523440Y-114036088D02*
G01*
X107521894Y-114047426D01*
X107509162Y-114050366D01*
X107506599Y-114047227D01*
X107509162Y-114021811D01*
X107515604Y-114018460D01*
X107523440Y-114036088D01*
G37*
G36*
X107794716Y-112265655D02*
G01*
X107798067Y-112272097D01*
X107780438Y-112279933D01*
X107769101Y-112278387D01*
X107766161Y-112265655D01*
X107769300Y-112263092D01*
X107794716Y-112265655D01*
G37*
G36*
X107823271Y-118683474D02*
G01*
X107821726Y-118694812D01*
X107808994Y-118697752D01*
X107806431Y-118694613D01*
X107808994Y-118669197D01*
X107815435Y-118665846D01*
X107823271Y-118683474D01*
G37*
G36*
X107944632Y-108753345D02*
G01*
X107947982Y-108759787D01*
X107930354Y-108767623D01*
X107919016Y-108766077D01*
X107916076Y-108753345D01*
X107919215Y-108750782D01*
X107944632Y-108753345D01*
G37*
G36*
X108030298Y-118797696D02*
G01*
X108033648Y-118804138D01*
X108016020Y-118811974D01*
X108004682Y-118810428D01*
X108001742Y-118797696D01*
X108004881Y-118795133D01*
X108030298Y-118797696D01*
G37*
G36*
X108123103Y-109945532D02*
G01*
X108121557Y-109956870D01*
X108108825Y-109959809D01*
X108106262Y-109956670D01*
X108108825Y-109931254D01*
X108115267Y-109927903D01*
X108123103Y-109945532D01*
G37*
G36*
X108201630Y-108860428D02*
G01*
X108204981Y-108866869D01*
X108187352Y-108874705D01*
X108176015Y-108873160D01*
X108173075Y-108860428D01*
X108176214Y-108857865D01*
X108201630Y-108860428D01*
G37*
G36*
X108223047Y-110852165D02*
G01*
X108226397Y-110858606D01*
X108208769Y-110866442D01*
X108197431Y-110864897D01*
X108194491Y-110852165D01*
X108197630Y-110849601D01*
X108223047Y-110852165D01*
G37*
G36*
X108801293Y-118604947D02*
G01*
X108804643Y-118611389D01*
X108787015Y-118619225D01*
X108775677Y-118617679D01*
X108772737Y-118604947D01*
X108775876Y-118602384D01*
X108801293Y-118604947D01*
G37*
G36*
X108801293Y-118776279D02*
G01*
X108804643Y-118782721D01*
X108787015Y-118790557D01*
X108775677Y-118789011D01*
X108772737Y-118776279D01*
X108775876Y-118773716D01*
X108801293Y-118776279D01*
G37*
G36*
X109058291Y-108924677D02*
G01*
X109061642Y-108931119D01*
X109044013Y-108938955D01*
X109032676Y-108937409D01*
X109029736Y-108924677D01*
X109032875Y-108922114D01*
X109058291Y-108924677D01*
G37*
G36*
X109044013Y-119989882D02*
G01*
X109042468Y-120001220D01*
X109029736Y-120004160D01*
X109027173Y-120001021D01*
X109029736Y-119975605D01*
X109036177Y-119972254D01*
X109044013Y-119989882D01*
G37*
G36*
X109272456Y-119076111D02*
G01*
X109275807Y-119082552D01*
X109258179Y-119090388D01*
X109246841Y-119088843D01*
X109243901Y-119076111D01*
X109247040Y-119073548D01*
X109272456Y-119076111D01*
G37*
G36*
X109336706Y-115371052D02*
G01*
X109340056Y-115377493D01*
X109322428Y-115385329D01*
X109311090Y-115383784D01*
X109308151Y-115371052D01*
X109311290Y-115368489D01*
X109336706Y-115371052D01*
G37*
G36*
X109358122Y-120596684D02*
G01*
X109361473Y-120603126D01*
X109343845Y-120610962D01*
X109332507Y-120609416D01*
X109329567Y-120596684D01*
X109332706Y-120594121D01*
X109358122Y-120596684D01*
G37*
G36*
X109429511Y-109731366D02*
G01*
X109427965Y-109742704D01*
X109415233Y-109745644D01*
X109412670Y-109742505D01*
X109415233Y-109717089D01*
X109421675Y-109713738D01*
X109429511Y-109731366D01*
G37*
G36*
X109943507Y-113415009D02*
G01*
X109941962Y-113426347D01*
X109929230Y-113429287D01*
X109926667Y-113426148D01*
X109929230Y-113400731D01*
X109935672Y-113397381D01*
X109943507Y-113415009D01*
G37*
G36*
X110243339Y-118897640D02*
G01*
X110241793Y-118908977D01*
X110229061Y-118911917D01*
X110226498Y-118908778D01*
X110229061Y-118883362D01*
X110235503Y-118880011D01*
X110243339Y-118897640D01*
G37*
G36*
X110264755Y-112515515D02*
G01*
X110263210Y-112526853D01*
X110250478Y-112529793D01*
X110247915Y-112526654D01*
X110250478Y-112501237D01*
X110256919Y-112497887D01*
X110264755Y-112515515D01*
G37*
G36*
X110321866Y-112865318D02*
G01*
X110325217Y-112871760D01*
X110307588Y-112879596D01*
X110296251Y-112878050D01*
X110293311Y-112865318D01*
X110296450Y-112862755D01*
X110321866Y-112865318D01*
G37*
G36*
X110371838Y-116456156D02*
G01*
X110370292Y-116467493D01*
X110357560Y-116470433D01*
X110354997Y-116467294D01*
X110357560Y-116441878D01*
X110364002Y-116438527D01*
X110371838Y-116456156D01*
G37*
G36*
X110407532Y-115178303D02*
G01*
X110410883Y-115184745D01*
X110393255Y-115192581D01*
X110381917Y-115191035D01*
X110378977Y-115178303D01*
X110382116Y-115175740D01*
X110407532Y-115178303D01*
G37*
G36*
X110436088Y-113008095D02*
G01*
X110434542Y-113019433D01*
X110421810Y-113022373D01*
X110419247Y-113019234D01*
X110421810Y-112993817D01*
X110428252Y-112990467D01*
X110436088Y-113008095D01*
G37*
G36*
X110471782Y-119932772D02*
G01*
X110475132Y-119939213D01*
X110457504Y-119947049D01*
X110446166Y-119945504D01*
X110443226Y-119932772D01*
X110446365Y-119930209D01*
X110471782Y-119932772D01*
G37*
G36*
X110478921Y-117891063D02*
G01*
X110477375Y-117902401D01*
X110464643Y-117905341D01*
X110462080Y-117902202D01*
X110464643Y-117876785D01*
X110471085Y-117873435D01*
X110478921Y-117891063D01*
G37*
G36*
X110514615Y-112822485D02*
G01*
X110517965Y-112828927D01*
X110500337Y-112836763D01*
X110488999Y-112835217D01*
X110486059Y-112822485D01*
X110489198Y-112819922D01*
X110514615Y-112822485D01*
G37*
G36*
X110586003Y-116049242D02*
G01*
X110584458Y-116060579D01*
X110571726Y-116063519D01*
X110569162Y-116060380D01*
X110571726Y-116034964D01*
X110578167Y-116031613D01*
X110586003Y-116049242D01*
G37*
G36*
X110671669Y-117591232D02*
G01*
X110670124Y-117602569D01*
X110657392Y-117605509D01*
X110654829Y-117602370D01*
X110657392Y-117576954D01*
X110663833Y-117573603D01*
X110671669Y-117591232D01*
G37*
G36*
X110707364Y-112950984D02*
G01*
X110710714Y-112957426D01*
X110693086Y-112965262D01*
X110681748Y-112963716D01*
X110678808Y-112950984D01*
X110681947Y-112948421D01*
X110707364Y-112950984D01*
G37*
G36*
X110821585Y-116970152D02*
G01*
X110820039Y-116981490D01*
X110807307Y-116984430D01*
X110804744Y-116981291D01*
X110807307Y-116955875D01*
X110813749Y-116952524D01*
X110821585Y-116970152D01*
G37*
G36*
X110928668Y-119454469D02*
G01*
X110927122Y-119465807D01*
X110914390Y-119468747D01*
X110911827Y-119465608D01*
X110914390Y-119440192D01*
X110920832Y-119436841D01*
X110928668Y-119454469D01*
G37*
G36*
X111035750Y-116884486D02*
G01*
X111034205Y-116895824D01*
X111021473Y-116898764D01*
X111018910Y-116895625D01*
X111021473Y-116870208D01*
X111027914Y-116866858D01*
X111035750Y-116884486D01*
G37*
G36*
X111057167Y-115128331D02*
G01*
X111055621Y-115139669D01*
X111042889Y-115142609D01*
X111040326Y-115139470D01*
X111042889Y-115114053D01*
X111049331Y-115110703D01*
X111057167Y-115128331D01*
G37*
G36*
X111142833Y-114785667D02*
G01*
X111141287Y-114797004D01*
X111128555Y-114799944D01*
X111125992Y-114796805D01*
X111128555Y-114771389D01*
X111134997Y-114768038D01*
X111142833Y-114785667D01*
G37*
G36*
X111178527Y-111237662D02*
G01*
X111181878Y-111244104D01*
X111164249Y-111251940D01*
X111152912Y-111250394D01*
X111149972Y-111237662D01*
X111153111Y-111235099D01*
X111178527Y-111237662D01*
G37*
G36*
X111207083Y-113457842D02*
G01*
X111205537Y-113469180D01*
X111192805Y-113472120D01*
X111190242Y-113468981D01*
X111192805Y-113443564D01*
X111199247Y-113440214D01*
X111207083Y-113457842D01*
G37*
G36*
X111242777Y-110980664D02*
G01*
X111246127Y-110987106D01*
X111228499Y-110994941D01*
X111217161Y-110993396D01*
X111214221Y-110980664D01*
X111217360Y-110978101D01*
X111242777Y-110980664D01*
G37*
G36*
X111264193Y-120146937D02*
G01*
X111267544Y-120153379D01*
X111249916Y-120161215D01*
X111238578Y-120159669D01*
X111235638Y-120146937D01*
X111238777Y-120144374D01*
X111264193Y-120146937D01*
G37*
G36*
X111328443Y-111558910D02*
G01*
X111331793Y-111565352D01*
X111314165Y-111573188D01*
X111302827Y-111571642D01*
X111299887Y-111558910D01*
X111303026Y-111556347D01*
X111328443Y-111558910D01*
G37*
G36*
X111464081Y-109452952D02*
G01*
X111462535Y-109464289D01*
X111449803Y-109467229D01*
X111447240Y-109464090D01*
X111449803Y-109438674D01*
X111456245Y-109435323D01*
X111464081Y-109452952D01*
G37*
G36*
X111549747Y-112215683D02*
G01*
X111548201Y-112227021D01*
X111535469Y-112229961D01*
X111532906Y-112226822D01*
X111535469Y-112201406D01*
X111541911Y-112198055D01*
X111549747Y-112215683D01*
G37*
G36*
X111549747Y-117719731D02*
G01*
X111548201Y-117731069D01*
X111535469Y-117734008D01*
X111532906Y-117730869D01*
X111535469Y-117705453D01*
X111541911Y-117702102D01*
X111549747Y-117719731D01*
G37*
G36*
X111606858Y-117812536D02*
G01*
X111610208Y-117818977D01*
X111592580Y-117826813D01*
X111581242Y-117825268D01*
X111578302Y-117812536D01*
X111581441Y-117809972D01*
X111606858Y-117812536D01*
G37*
G36*
X111613997Y-111380439D02*
G01*
X111612451Y-111391777D01*
X111599719Y-111394717D01*
X111597156Y-111391578D01*
X111599719Y-111366161D01*
X111606161Y-111362811D01*
X111613997Y-111380439D01*
G37*
G36*
X111635413Y-111616021D02*
G01*
X111633867Y-111627359D01*
X111621135Y-111630298D01*
X111618572Y-111627159D01*
X111621135Y-111601743D01*
X111627577Y-111598393D01*
X111635413Y-111616021D01*
G37*
G36*
X111635413Y-113779090D02*
G01*
X111633867Y-113790428D01*
X111621135Y-113793368D01*
X111618572Y-113790229D01*
X111621135Y-113764812D01*
X111627577Y-113761462D01*
X111635413Y-113779090D01*
G37*
G36*
X111671107Y-111794492D02*
G01*
X111674458Y-111800933D01*
X111656830Y-111808769D01*
X111645492Y-111807224D01*
X111642552Y-111794492D01*
X111645691Y-111791929D01*
X111671107Y-111794492D01*
G37*
G36*
X111763912Y-115085498D02*
G01*
X111762367Y-115096836D01*
X111749635Y-115099776D01*
X111747071Y-115096637D01*
X111749635Y-115071220D01*
X111756076Y-115067870D01*
X111763912Y-115085498D01*
G37*
G36*
X111978077Y-111765936D02*
G01*
X111976532Y-111777274D01*
X111963800Y-111780214D01*
X111961237Y-111777075D01*
X111963800Y-111751659D01*
X111970242Y-111748308D01*
X111978077Y-111765936D01*
G37*
G36*
X112056605Y-119418775D02*
G01*
X112059955Y-119425217D01*
X112042327Y-119433053D01*
X112030989Y-119431507D01*
X112028049Y-119418775D01*
X112031188Y-119416212D01*
X112056605Y-119418775D01*
G37*
G36*
X112078021Y-112651153D02*
G01*
X112081372Y-112657595D01*
X112063744Y-112665431D01*
X112052406Y-112663885D01*
X112049466Y-112651153D01*
X112052605Y-112648590D01*
X112078021Y-112651153D01*
G37*
G36*
X112099438Y-115456718D02*
G01*
X112102788Y-115463159D01*
X112085160Y-115470995D01*
X112073822Y-115469450D01*
X112070882Y-115456718D01*
X112074021Y-115454155D01*
X112099438Y-115456718D01*
G37*
G36*
X112106577Y-115663744D02*
G01*
X112105031Y-115675082D01*
X112092299Y-115678022D01*
X112089736Y-115674883D01*
X112092299Y-115649466D01*
X112098741Y-115646116D01*
X112106577Y-115663744D01*
G37*
G36*
X112170826Y-109817033D02*
G01*
X112169281Y-109828370D01*
X112156549Y-109831310D01*
X112153985Y-109828171D01*
X112156549Y-109802755D01*
X112162990Y-109799404D01*
X112170826Y-109817033D01*
G37*
G36*
X112185104Y-112501237D02*
G01*
X112188454Y-112507679D01*
X112170826Y-112515515D01*
X112159488Y-112513969D01*
X112156549Y-112501237D01*
X112159687Y-112498674D01*
X112185104Y-112501237D01*
G37*
G36*
X112185104Y-112758235D02*
G01*
X112188454Y-112764677D01*
X112170826Y-112772513D01*
X112159488Y-112770968D01*
X112156549Y-112758235D01*
X112159687Y-112755672D01*
X112185104Y-112758235D01*
G37*
G36*
X112192243Y-112922429D02*
G01*
X112190697Y-112933767D01*
X112177965Y-112936707D01*
X112175402Y-112933568D01*
X112177965Y-112908151D01*
X112184407Y-112904801D01*
X112192243Y-112922429D01*
G37*
G36*
X112384991Y-112387016D02*
G01*
X112383446Y-112398354D01*
X112370714Y-112401293D01*
X112368151Y-112398154D01*
X112370714Y-112372738D01*
X112377156Y-112369387D01*
X112384991Y-112387016D01*
G37*
G36*
X112399269Y-112865318D02*
G01*
X112402620Y-112871760D01*
X112384991Y-112879596D01*
X112373654Y-112878050D01*
X112370714Y-112865318D01*
X112373853Y-112862755D01*
X112399269Y-112865318D01*
G37*
G36*
X112534907Y-116691737D02*
G01*
X112533362Y-116703075D01*
X112520629Y-116706015D01*
X112518066Y-116702876D01*
X112520629Y-116677460D01*
X112527071Y-116674109D01*
X112534907Y-116691737D01*
G37*
G36*
X112699101Y-115927881D02*
G01*
X112702451Y-115934323D01*
X112684823Y-115942159D01*
X112673485Y-115940613D01*
X112670545Y-115927881D01*
X112673684Y-115925318D01*
X112699101Y-115927881D01*
G37*
G36*
X112699101Y-116120630D02*
G01*
X112702451Y-116127072D01*
X112684823Y-116134908D01*
X112673485Y-116133362D01*
X112670545Y-116120630D01*
X112673684Y-116118067D01*
X112699101Y-116120630D01*
G37*
G36*
X112706239Y-115706577D02*
G01*
X112704694Y-115717915D01*
X112691962Y-115720855D01*
X112689399Y-115717716D01*
X112691962Y-115692300D01*
X112698403Y-115688949D01*
X112706239Y-115706577D01*
G37*
G36*
X112727656Y-109303036D02*
G01*
X112726110Y-109314374D01*
X112713378Y-109317314D01*
X112710815Y-109314175D01*
X112713378Y-109288758D01*
X112719820Y-109285408D01*
X112727656Y-109303036D01*
G37*
G36*
X112749072Y-114186004D02*
G01*
X112747527Y-114197342D01*
X112734795Y-114200282D01*
X112732232Y-114197143D01*
X112734795Y-114171726D01*
X112741236Y-114168376D01*
X112749072Y-114186004D01*
G37*
G36*
X112749072Y-117762564D02*
G01*
X112747527Y-117773902D01*
X112734795Y-117776841D01*
X112732232Y-117773702D01*
X112734795Y-117748286D01*
X112741236Y-117744936D01*
X112749072Y-117762564D01*
G37*
G36*
X112791905Y-115984992D02*
G01*
X112790360Y-115996330D01*
X112777628Y-115999270D01*
X112775065Y-115996131D01*
X112777628Y-115970714D01*
X112784070Y-115967364D01*
X112791905Y-115984992D01*
G37*
G36*
X112813322Y-120610962D02*
G01*
X112811776Y-120622300D01*
X112799044Y-120625239D01*
X112796481Y-120622100D01*
X112799044Y-120596684D01*
X112805486Y-120593333D01*
X112813322Y-120610962D01*
G37*
G36*
X112834739Y-112708264D02*
G01*
X112833193Y-112719601D01*
X112820461Y-112722541D01*
X112817898Y-112719402D01*
X112820461Y-112693986D01*
X112826903Y-112690635D01*
X112834739Y-112708264D01*
G37*
G36*
X112877572Y-116177741D02*
G01*
X112876026Y-116189079D01*
X112863294Y-116192018D01*
X112860731Y-116188880D01*
X112863294Y-116163463D01*
X112869736Y-116160113D01*
X112877572Y-116177741D01*
G37*
G36*
X112920405Y-119068972D02*
G01*
X112918859Y-119080310D01*
X112906127Y-119083250D01*
X112903564Y-119080111D01*
X112906127Y-119054694D01*
X112912569Y-119051344D01*
X112920405Y-119068972D01*
G37*
G36*
X113134570Y-113543508D02*
G01*
X113133024Y-113554846D01*
X113120292Y-113557786D01*
X113117729Y-113554647D01*
X113120292Y-113529230D01*
X113126734Y-113525880D01*
X113134570Y-113543508D01*
G37*
G36*
X113213097Y-109631423D02*
G01*
X113216448Y-109637864D01*
X113198819Y-109645700D01*
X113187482Y-109644155D01*
X113184542Y-109631423D01*
X113187681Y-109628860D01*
X113213097Y-109631423D01*
G37*
G36*
X113241653Y-113886173D02*
G01*
X113240107Y-113897510D01*
X113227375Y-113900450D01*
X113224812Y-113897311D01*
X113227375Y-113871895D01*
X113233817Y-113868544D01*
X113241653Y-113886173D01*
G37*
G36*
X113277347Y-113679146D02*
G01*
X113280697Y-113685588D01*
X113263069Y-113693424D01*
X113251731Y-113691878D01*
X113248791Y-113679146D01*
X113251930Y-113676583D01*
X113277347Y-113679146D01*
G37*
G36*
X113405846Y-108753345D02*
G01*
X113409196Y-108759787D01*
X113391568Y-108767623D01*
X113380230Y-108766077D01*
X113377291Y-108753345D01*
X113380429Y-108750782D01*
X113405846Y-108753345D01*
G37*
G36*
X113455818Y-111658854D02*
G01*
X113454272Y-111670192D01*
X113441540Y-111673131D01*
X113438977Y-111669993D01*
X113441540Y-111644576D01*
X113447982Y-111641226D01*
X113455818Y-111658854D01*
G37*
G36*
X113627150Y-118747724D02*
G01*
X113625604Y-118759062D01*
X113612872Y-118762002D01*
X113610309Y-118758863D01*
X113612872Y-118733446D01*
X113619314Y-118730096D01*
X113627150Y-118747724D01*
G37*
G36*
X113627150Y-119711468D02*
G01*
X113625604Y-119722805D01*
X113612872Y-119725745D01*
X113610309Y-119722606D01*
X113612872Y-119697190D01*
X113619314Y-119693839D01*
X113627150Y-119711468D01*
G37*
G36*
X113648567Y-119197471D02*
G01*
X113647021Y-119208809D01*
X113634289Y-119211749D01*
X113631726Y-119208610D01*
X113634289Y-119183193D01*
X113640731Y-119179843D01*
X113648567Y-119197471D01*
G37*
G36*
X113834176Y-114964138D02*
G01*
X113837527Y-114970579D01*
X113819899Y-114978415D01*
X113808561Y-114976870D01*
X113805621Y-114964138D01*
X113808760Y-114961575D01*
X113834176Y-114964138D01*
G37*
G36*
X113941259Y-114814222D02*
G01*
X113944610Y-114820664D01*
X113926981Y-114828500D01*
X113915644Y-114826954D01*
X113912704Y-114814222D01*
X113915843Y-114811659D01*
X113941259Y-114814222D01*
G37*
G36*
X114291062Y-108874705D02*
G01*
X114289517Y-108886043D01*
X114276785Y-108888983D01*
X114274221Y-108885844D01*
X114276785Y-108860428D01*
X114283226Y-108857077D01*
X114291062Y-108874705D01*
G37*
G36*
X114755087Y-116570377D02*
G01*
X114758438Y-116576819D01*
X114740809Y-116584655D01*
X114729472Y-116583109D01*
X114726532Y-116570377D01*
X114729671Y-116567814D01*
X114755087Y-116570377D01*
G37*
G36*
X114797920Y-115392468D02*
G01*
X114801271Y-115398910D01*
X114783642Y-115406746D01*
X114772305Y-115405200D01*
X114769365Y-115392468D01*
X114772504Y-115389905D01*
X114797920Y-115392468D01*
G37*
G36*
X115169140Y-110288196D02*
G01*
X115167594Y-110299534D01*
X115154862Y-110302474D01*
X115152299Y-110299335D01*
X115154862Y-110273918D01*
X115161304Y-110270568D01*
X115169140Y-110288196D01*
G37*
G36*
X115190556Y-116220574D02*
G01*
X115189011Y-116231912D01*
X115176279Y-116234852D01*
X115173716Y-116231713D01*
X115176279Y-116206296D01*
X115182720Y-116202946D01*
X115190556Y-116220574D01*
G37*
G36*
X115383305Y-111209107D02*
G01*
X115381760Y-111220445D01*
X115369027Y-111223384D01*
X115366464Y-111220245D01*
X115369027Y-111194829D01*
X115375469Y-111191479D01*
X115383305Y-111209107D01*
G37*
G36*
X115526082Y-111494660D02*
G01*
X115529433Y-111501102D01*
X115511804Y-111508938D01*
X115500466Y-111507393D01*
X115497527Y-111494660D01*
X115500666Y-111492097D01*
X115526082Y-111494660D01*
G37*
G36*
X115533221Y-120782294D02*
G01*
X115531675Y-120793632D01*
X115518943Y-120796572D01*
X115516380Y-120793433D01*
X115518943Y-120768016D01*
X115525385Y-120764666D01*
X115533221Y-120782294D01*
G37*
G36*
X115554637Y-115470995D02*
G01*
X115553092Y-115482333D01*
X115540360Y-115485273D01*
X115537797Y-115482134D01*
X115540360Y-115456718D01*
X115546801Y-115453367D01*
X115554637Y-115470995D01*
G37*
G36*
X115697414Y-113443564D02*
G01*
X115700765Y-113450006D01*
X115683137Y-113457842D01*
X115671799Y-113456296D01*
X115668859Y-113443564D01*
X115671998Y-113441001D01*
X115697414Y-113443564D01*
G37*
G36*
X106858452Y-112782557D02*
G01*
X106866275Y-112789683D01*
X106868168Y-112818692D01*
X106858605Y-112828111D01*
X106831768Y-112817569D01*
X106819859Y-112798279D01*
X106828048Y-112777562D01*
X106858452Y-112782557D01*
G37*
G36*
X106875896Y-108971725D02*
G01*
X106870901Y-109002129D01*
X106863775Y-109009951D01*
X106834765Y-109011845D01*
X106825346Y-109002282D01*
X106835888Y-108975444D01*
X106855179Y-108963536D01*
X106875896Y-108971725D01*
G37*
G36*
X106988212Y-117397990D02*
G01*
X107006231Y-117420970D01*
X107007368Y-117431367D01*
X106989098Y-117438103D01*
X106977534Y-117432269D01*
X106965464Y-117410848D01*
X106982137Y-117396877D01*
X106988212Y-117397990D01*
G37*
G36*
X107674569Y-109327739D02*
G01*
X107691463Y-109357912D01*
X107691375Y-109377830D01*
X107670047Y-109384030D01*
X107647363Y-109365721D01*
X107642745Y-109338234D01*
X107662647Y-109323321D01*
X107674569Y-109327739D01*
G37*
G36*
X108543079Y-120229758D02*
G01*
X108536573Y-120254602D01*
X108508649Y-120267681D01*
X108477862Y-120249125D01*
X108476116Y-120238111D01*
X108497329Y-120217935D01*
X108521259Y-120215113D01*
X108543079Y-120229758D01*
G37*
G36*
X109232903Y-112981573D02*
G01*
X109227998Y-113021461D01*
X109212757Y-113044468D01*
X109188944Y-113033093D01*
X109175154Y-113012181D01*
X109189289Y-112982752D01*
X109215156Y-112967776D01*
X109232903Y-112981573D01*
G37*
G36*
X109687722Y-119693338D02*
G01*
X109704617Y-119723511D01*
X109704528Y-119743428D01*
X109683200Y-119749628D01*
X109660517Y-119731320D01*
X109655898Y-119703833D01*
X109675801Y-119688920D01*
X109687722Y-119693338D01*
G37*
G36*
X111034675Y-109976992D02*
G01*
X111042497Y-109984118D01*
X111044391Y-110013127D01*
X111034828Y-110022546D01*
X111007990Y-110012004D01*
X110996082Y-109992714D01*
X111004271Y-109971997D01*
X111034675Y-109976992D01*
G37*
G36*
X111924320Y-112108251D02*
G01*
X111926442Y-112119480D01*
X111904384Y-112130017D01*
X111893571Y-112129598D01*
X111871941Y-112119482D01*
X111890932Y-112098807D01*
X111898654Y-112095897D01*
X111924320Y-112108251D01*
G37*
G36*
X112135792Y-110949728D02*
G01*
X112135265Y-110985466D01*
X112120111Y-111005509D01*
X112092354Y-110992024D01*
X112073744Y-110969566D01*
X112088478Y-110950058D01*
X112108929Y-110941308D01*
X112135792Y-110949728D01*
G37*
G36*
X112182767Y-119939778D02*
G01*
X112202810Y-119954931D01*
X112189326Y-119982689D01*
X112166867Y-120001298D01*
X112147359Y-119986565D01*
X112138610Y-119966114D01*
X112147030Y-119939250D01*
X112182767Y-119939778D01*
G37*
G36*
X112219490Y-113863132D02*
G01*
X112220931Y-113898113D01*
X112205853Y-113918120D01*
X112178126Y-113904760D01*
X112163491Y-113887654D01*
X112168052Y-113858963D01*
X112195027Y-113847501D01*
X112219490Y-113863132D01*
G37*
G36*
X112625408Y-111890703D02*
G01*
X112632815Y-111901801D01*
X112631022Y-111937689D01*
X112617296Y-111951534D01*
X112597893Y-111935224D01*
X112588780Y-111901326D01*
X112600823Y-111881733D01*
X112625408Y-111890703D01*
G37*
G36*
X114360146Y-115660012D02*
G01*
X114367553Y-115671109D01*
X114365760Y-115706998D01*
X114352035Y-115720843D01*
X114332631Y-115704532D01*
X114323519Y-115670635D01*
X114335562Y-115651042D01*
X114360146Y-115660012D01*
G37*
G36*
X114671511Y-117859583D02*
G01*
X114666516Y-117889987D01*
X114659390Y-117897810D01*
X114630381Y-117899703D01*
X114620962Y-117890140D01*
X114631504Y-117863303D01*
X114650794Y-117851394D01*
X114671511Y-117859583D01*
G37*
G36*
X115547467Y-117943239D02*
G01*
X115544440Y-117975903D01*
X115528914Y-117988834D01*
X115498176Y-117974305D01*
X115478758Y-117950654D01*
X115494549Y-117931324D01*
X115523438Y-117925231D01*
X115547467Y-117943239D01*
G37*
G36*
X106695869Y-115355004D02*
G01*
X106719166Y-115371214D01*
X106707317Y-115398803D01*
X106684162Y-115416700D01*
X106652322Y-115403634D01*
X106647692Y-115399431D01*
X106636221Y-115370412D01*
X106655724Y-115351757D01*
X106695869Y-115355004D01*
G37*
G36*
X106701075Y-118384628D02*
G01*
X106720320Y-118405060D01*
X106723667Y-118413355D01*
X106710876Y-118426476D01*
X106704660Y-118425653D01*
X106688196Y-118405060D01*
X106688441Y-118400213D01*
X106697640Y-118383643D01*
X106701075Y-118384628D01*
G37*
G36*
X106998262Y-113547594D02*
G01*
X107009443Y-113576897D01*
X107006362Y-113592194D01*
X106988027Y-113597049D01*
X106982178Y-113592666D01*
X106966610Y-113563661D01*
X106967223Y-113558879D01*
X106988027Y-113543508D01*
X106998262Y-113547594D01*
G37*
G36*
X107424760Y-113476767D02*
G01*
X107426151Y-113502155D01*
X107422867Y-113506672D01*
X107394941Y-113522092D01*
X107377892Y-113517408D01*
X107361778Y-113493430D01*
X107373175Y-113468766D01*
X107399013Y-113463203D01*
X107424760Y-113476767D01*
G37*
G36*
X107592524Y-110070299D02*
G01*
X107599954Y-110081359D01*
X107598398Y-110116864D01*
X107587692Y-110128282D01*
X107561439Y-110120596D01*
X107554008Y-110109536D01*
X107555565Y-110074031D01*
X107566270Y-110062613D01*
X107592524Y-110070299D01*
G37*
G36*
X107635642Y-116649527D02*
G01*
X107651939Y-116670321D01*
X107651317Y-116675440D01*
X107630523Y-116691737D01*
X107625404Y-116691115D01*
X107609106Y-116670321D01*
X107609728Y-116665202D01*
X107630523Y-116648904D01*
X107635642Y-116649527D01*
G37*
G36*
X107635475Y-111616844D02*
G01*
X107651939Y-111637437D01*
X107651694Y-111642284D01*
X107642495Y-111658854D01*
X107639059Y-111657868D01*
X107619814Y-111637437D01*
X107616468Y-111629141D01*
X107629259Y-111616021D01*
X107635475Y-111616844D01*
G37*
G36*
X107828390Y-112666053D02*
G01*
X107844688Y-112686847D01*
X107844066Y-112691966D01*
X107823271Y-112708264D01*
X107818152Y-112707641D01*
X107801855Y-112686847D01*
X107802477Y-112681728D01*
X107823271Y-112665431D01*
X107828390Y-112666053D01*
G37*
G36*
X107935307Y-114593741D02*
G01*
X107951771Y-114614334D01*
X107951525Y-114619181D01*
X107942326Y-114635751D01*
X107938891Y-114634765D01*
X107919646Y-114614334D01*
X107916299Y-114606038D01*
X107929090Y-114592918D01*
X107935307Y-114593741D01*
G37*
G36*
X108058853Y-115533981D02*
G01*
X108058030Y-115540198D01*
X108037437Y-115556662D01*
X108032590Y-115556416D01*
X108016020Y-115547217D01*
X108017006Y-115543782D01*
X108037437Y-115524537D01*
X108045733Y-115521190D01*
X108058853Y-115533981D01*
G37*
G36*
X108178816Y-117849215D02*
G01*
X108198061Y-117869646D01*
X108201407Y-117877942D01*
X108188616Y-117891063D01*
X108182400Y-117890240D01*
X108165936Y-117869646D01*
X108166181Y-117864800D01*
X108175380Y-117848230D01*
X108178816Y-117849215D01*
G37*
G36*
X108342387Y-112323388D02*
G01*
X108358685Y-112344183D01*
X108358062Y-112349302D01*
X108337268Y-112365599D01*
X108332149Y-112364977D01*
X108315852Y-112344183D01*
X108316474Y-112339064D01*
X108337268Y-112322766D01*
X108342387Y-112323388D01*
G37*
G36*
X108401518Y-118725043D02*
G01*
X108400695Y-118731260D01*
X108380101Y-118747724D01*
X108375254Y-118747478D01*
X108358685Y-118738280D01*
X108359670Y-118734844D01*
X108380101Y-118715599D01*
X108388397Y-118712253D01*
X108401518Y-118725043D01*
G37*
G36*
X108414690Y-115911282D02*
G01*
X108422934Y-115940895D01*
X108418750Y-115967001D01*
X108401518Y-115984992D01*
X108392075Y-115981811D01*
X108380101Y-115954131D01*
X108381812Y-115941021D01*
X108401518Y-115910034D01*
X108414690Y-115911282D01*
G37*
G36*
X108564313Y-117228136D02*
G01*
X108583558Y-117248567D01*
X108586904Y-117256863D01*
X108574114Y-117269984D01*
X108567897Y-117269161D01*
X108551433Y-117248567D01*
X108551679Y-117243720D01*
X108560878Y-117227151D01*
X108564313Y-117228136D01*
G37*
G36*
X108599219Y-111616844D02*
G01*
X108615683Y-111637437D01*
X108615437Y-111642284D01*
X108606239Y-111658854D01*
X108602803Y-111657868D01*
X108583558Y-111637437D01*
X108580212Y-111629141D01*
X108593002Y-111616021D01*
X108599219Y-111616844D01*
G37*
G36*
X108624693Y-116607753D02*
G01*
X108626391Y-116627488D01*
X108621995Y-116633897D01*
X108603711Y-116648904D01*
X108601573Y-116648348D01*
X108594266Y-116627488D01*
X108595138Y-116621618D01*
X108616947Y-116606071D01*
X108624693Y-116607753D01*
G37*
G36*
X108736579Y-118150639D02*
G01*
X108753370Y-118171717D01*
X108742574Y-118203540D01*
X108720501Y-118220448D01*
X108690917Y-118206052D01*
X108678387Y-118189085D01*
X108678871Y-118157494D01*
X108702231Y-118139869D01*
X108736579Y-118150639D01*
G37*
G36*
X108778478Y-112088170D02*
G01*
X108797723Y-112108601D01*
X108801070Y-112116897D01*
X108788279Y-112130017D01*
X108782063Y-112129194D01*
X108765599Y-112108601D01*
X108765844Y-112103754D01*
X108775043Y-112087184D01*
X108778478Y-112088170D01*
G37*
G36*
X108813551Y-109367908D02*
G01*
X108829848Y-109388702D01*
X108829226Y-109393821D01*
X108808432Y-109410119D01*
X108803313Y-109409496D01*
X108787015Y-109388702D01*
X108787637Y-109383583D01*
X108808432Y-109367285D01*
X108813551Y-109367908D01*
G37*
G36*
X108899217Y-114379375D02*
G01*
X108915514Y-114400169D01*
X108914892Y-114405288D01*
X108894098Y-114421586D01*
X108888979Y-114420963D01*
X108872681Y-114400169D01*
X108873304Y-114395050D01*
X108894098Y-114378753D01*
X108899217Y-114379375D01*
G37*
G36*
X109048966Y-117956135D02*
G01*
X109065430Y-117976729D01*
X109065184Y-117981576D01*
X109055986Y-117998146D01*
X109052550Y-117997160D01*
X109033305Y-117976729D01*
X109029959Y-117968433D01*
X109042749Y-117955312D01*
X109048966Y-117956135D01*
G37*
G36*
X109172513Y-116240726D02*
G01*
X109171690Y-116246943D01*
X109151096Y-116263407D01*
X109146249Y-116263161D01*
X109129680Y-116253963D01*
X109130665Y-116250527D01*
X109151096Y-116231282D01*
X109159392Y-116227936D01*
X109172513Y-116240726D01*
G37*
G36*
X109199048Y-112409055D02*
G01*
X109215346Y-112429849D01*
X109214723Y-112434968D01*
X109193929Y-112451265D01*
X109188810Y-112450643D01*
X109172513Y-112429849D01*
X109173135Y-112424730D01*
X109193929Y-112408432D01*
X109199048Y-112409055D01*
G37*
G36*
X109241715Y-109518024D02*
G01*
X109258179Y-109538618D01*
X109257933Y-109543464D01*
X109248734Y-109560034D01*
X109245299Y-109559049D01*
X109226054Y-109538618D01*
X109222707Y-109530322D01*
X109235498Y-109517201D01*
X109241715Y-109518024D01*
G37*
G36*
X109284548Y-113415832D02*
G01*
X109301012Y-113436425D01*
X109300766Y-113441272D01*
X109291567Y-113457842D01*
X109288132Y-113456856D01*
X109268887Y-113436425D01*
X109265541Y-113428129D01*
X109278331Y-113415009D01*
X109284548Y-113415832D01*
G37*
G36*
X109292475Y-111188676D02*
G01*
X109311720Y-111209107D01*
X109315066Y-111217403D01*
X109302276Y-111230523D01*
X109296059Y-111229700D01*
X109279595Y-111209107D01*
X109279841Y-111204260D01*
X109289040Y-111187690D01*
X109292475Y-111188676D01*
G37*
G36*
X109441495Y-111379377D02*
G01*
X109459120Y-111402738D01*
X109448350Y-111437086D01*
X109427272Y-111453876D01*
X109395449Y-111443081D01*
X109378541Y-111421008D01*
X109392936Y-111391423D01*
X109409903Y-111378894D01*
X109441495Y-111379377D01*
G37*
G36*
X109455880Y-118705714D02*
G01*
X109472344Y-118726307D01*
X109472098Y-118731154D01*
X109462900Y-118747724D01*
X109459464Y-118746738D01*
X109440219Y-118726307D01*
X109436873Y-118718011D01*
X109449663Y-118704891D01*
X109455880Y-118705714D01*
G37*
G36*
X109499552Y-114697733D02*
G01*
X109501242Y-114732811D01*
X109493681Y-114747269D01*
X109471317Y-114764250D01*
X109452599Y-114757918D01*
X109436320Y-114728429D01*
X109446644Y-114695717D01*
X109474069Y-114683257D01*
X109499552Y-114697733D01*
G37*
G36*
X109541546Y-117313640D02*
G01*
X109558010Y-117334233D01*
X109557764Y-117339080D01*
X109548566Y-117355650D01*
X109545130Y-117354664D01*
X109525885Y-117334233D01*
X109522539Y-117325937D01*
X109535330Y-117312817D01*
X109541546Y-117313640D01*
G37*
G36*
X109592306Y-108490193D02*
G01*
X109611551Y-108510624D01*
X109614898Y-108518920D01*
X109602107Y-108532041D01*
X109595891Y-108531218D01*
X109579427Y-108510624D01*
X109579672Y-108505778D01*
X109588871Y-108489208D01*
X109592306Y-108490193D01*
G37*
G36*
X109592306Y-116350059D02*
G01*
X109611551Y-116370490D01*
X109614898Y-116378785D01*
X109602107Y-116391906D01*
X109595891Y-116391083D01*
X109579427Y-116370490D01*
X109579672Y-116365643D01*
X109588871Y-116349073D01*
X109592306Y-116350059D01*
G37*
G36*
X109755878Y-117441938D02*
G01*
X109772175Y-117462732D01*
X109771553Y-117467851D01*
X109750759Y-117484149D01*
X109745640Y-117483527D01*
X109729342Y-117462732D01*
X109729965Y-117457613D01*
X109750759Y-117441316D01*
X109755878Y-117441938D01*
G37*
G36*
X109755711Y-112195090D02*
G01*
X109772175Y-112215683D01*
X109771930Y-112220530D01*
X109762731Y-112237100D01*
X109759296Y-112236114D01*
X109740050Y-112215683D01*
X109736704Y-112207388D01*
X109749495Y-112194267D01*
X109755711Y-112195090D01*
G37*
G36*
X109867507Y-115746925D02*
G01*
X109867635Y-115772307D01*
X109866100Y-115774690D01*
X109839554Y-115790913D01*
X109797150Y-115773479D01*
X109781484Y-115756529D01*
X109804437Y-115741613D01*
X109839062Y-115735646D01*
X109867507Y-115746925D01*
G37*
G36*
X109867288Y-110966318D02*
G01*
X109864664Y-111008054D01*
X109848491Y-111024718D01*
X109814696Y-111011193D01*
X109799635Y-111001331D01*
X109787275Y-110982994D01*
X109811111Y-110960485D01*
X109843722Y-110948805D01*
X109867288Y-110966318D01*
G37*
G36*
X110101426Y-110150914D02*
G01*
X110122077Y-110165660D01*
X110108532Y-110191499D01*
X110091806Y-110205438D01*
X110062597Y-110205714D01*
X110050590Y-110169141D01*
X110051582Y-110151103D01*
X110063891Y-110139641D01*
X110101426Y-110150914D01*
G37*
G36*
X110166683Y-114316185D02*
G01*
X110168381Y-114335920D01*
X110163985Y-114342329D01*
X110145701Y-114357336D01*
X110143563Y-114356779D01*
X110136256Y-114335920D01*
X110137128Y-114330050D01*
X110158937Y-114314503D01*
X110166683Y-114316185D01*
G37*
G36*
X110313634Y-108960984D02*
G01*
X110329005Y-108981788D01*
X110324919Y-108992023D01*
X110295616Y-109003205D01*
X110280319Y-109000123D01*
X110275464Y-108981788D01*
X110279847Y-108975939D01*
X110308852Y-108960371D01*
X110313634Y-108960984D01*
G37*
G36*
X110350421Y-116669057D02*
G01*
X110349598Y-116675273D01*
X110329005Y-116691737D01*
X110324158Y-116691492D01*
X110307588Y-116682293D01*
X110308574Y-116678858D01*
X110329005Y-116659613D01*
X110337301Y-116656266D01*
X110350421Y-116669057D01*
G37*
G36*
X110393255Y-111721839D02*
G01*
X110392432Y-111728056D01*
X110371838Y-111744520D01*
X110366991Y-111744274D01*
X110350421Y-111735076D01*
X110351407Y-111731640D01*
X110371838Y-111712395D01*
X110380134Y-111709049D01*
X110393255Y-111721839D01*
G37*
G36*
X110478921Y-110372598D02*
G01*
X110478098Y-110378815D01*
X110457504Y-110395279D01*
X110452657Y-110395033D01*
X110436088Y-110385834D01*
X110437073Y-110382399D01*
X110457504Y-110363154D01*
X110465800Y-110359808D01*
X110478921Y-110372598D01*
G37*
G36*
X110484040Y-113351382D02*
G01*
X110500337Y-113372176D01*
X110499715Y-113377295D01*
X110478921Y-113393592D01*
X110473802Y-113392970D01*
X110457504Y-113372176D01*
X110458126Y-113367057D01*
X110478921Y-113350759D01*
X110484040Y-113351382D01*
G37*
G36*
X110509347Y-112667112D02*
G01*
X110511045Y-112686847D01*
X110506650Y-112693256D01*
X110488365Y-112708264D01*
X110486228Y-112707707D01*
X110478921Y-112686847D01*
X110479792Y-112680977D01*
X110501601Y-112665431D01*
X110509347Y-112667112D01*
G37*
G36*
X110762170Y-112019203D02*
G01*
X110769600Y-112030263D01*
X110768044Y-112065768D01*
X110757338Y-112077186D01*
X110731084Y-112069500D01*
X110723654Y-112058440D01*
X110725211Y-112022935D01*
X110735916Y-112011517D01*
X110762170Y-112019203D01*
G37*
G36*
X110810046Y-112254471D02*
G01*
X110806394Y-112294600D01*
X110792812Y-112312126D01*
X110765279Y-112299055D01*
X110747335Y-112275778D01*
X110760535Y-112243953D01*
X110766842Y-112237482D01*
X110793408Y-112231618D01*
X110810046Y-112254471D01*
G37*
G36*
X110855881Y-110503347D02*
G01*
X110875126Y-110523778D01*
X110878473Y-110532074D01*
X110865682Y-110545194D01*
X110859466Y-110544371D01*
X110843002Y-110523778D01*
X110843247Y-110518931D01*
X110852446Y-110502361D01*
X110855881Y-110503347D01*
G37*
G36*
X110915654Y-111078116D02*
G01*
X110917045Y-111103504D01*
X110913761Y-111108021D01*
X110885835Y-111123441D01*
X110868786Y-111118757D01*
X110852671Y-111094779D01*
X110864069Y-111070115D01*
X110889907Y-111064552D01*
X110915654Y-111078116D01*
G37*
G36*
X110894845Y-115194262D02*
G01*
X110896543Y-115213997D01*
X110892147Y-115220406D01*
X110873862Y-115235414D01*
X110871725Y-115234857D01*
X110864418Y-115213997D01*
X110865290Y-115208127D01*
X110887099Y-115192581D01*
X110894845Y-115194262D01*
G37*
G36*
X110976453Y-117484972D02*
G01*
X110992917Y-117505565D01*
X110992672Y-117510412D01*
X110983473Y-117526982D01*
X110980038Y-117525996D01*
X110960792Y-117505565D01*
X110957446Y-117497269D01*
X110970237Y-117484149D01*
X110976453Y-117484972D01*
G37*
G36*
X111126536Y-112537554D02*
G01*
X111142833Y-112558348D01*
X111142211Y-112563467D01*
X111121416Y-112579764D01*
X111116297Y-112579142D01*
X111100000Y-112558348D01*
X111100622Y-112553229D01*
X111121416Y-112536931D01*
X111126536Y-112537554D01*
G37*
G36*
X111212035Y-114593741D02*
G01*
X111228499Y-114614334D01*
X111228254Y-114619181D01*
X111219055Y-114635751D01*
X111215619Y-114634765D01*
X111196374Y-114614334D01*
X111193028Y-114606038D01*
X111205819Y-114592918D01*
X111212035Y-114593741D01*
G37*
G36*
X111327045Y-110867428D02*
G01*
X111346290Y-110887859D01*
X111349636Y-110896155D01*
X111336846Y-110909275D01*
X111330629Y-110908452D01*
X111314165Y-110887859D01*
X111314411Y-110883012D01*
X111323609Y-110866442D01*
X111327045Y-110867428D01*
G37*
G36*
X111453097Y-117190576D02*
G01*
X111467696Y-117210132D01*
X111459092Y-117243477D01*
X111438992Y-117258844D01*
X111407434Y-117245990D01*
X111390643Y-117224912D01*
X111401439Y-117193089D01*
X111423512Y-117176181D01*
X111453097Y-117190576D01*
G37*
G36*
X111434128Y-115921728D02*
G01*
X111453373Y-115942159D01*
X111456719Y-115950455D01*
X111443928Y-115963576D01*
X111437712Y-115962753D01*
X111421248Y-115942159D01*
X111421493Y-115937312D01*
X111430692Y-115920742D01*
X111434128Y-115921728D01*
G37*
G36*
X111447783Y-111830808D02*
G01*
X111464081Y-111851603D01*
X111463459Y-111856722D01*
X111442664Y-111873019D01*
X111437545Y-111872397D01*
X111421248Y-111851603D01*
X111421870Y-111846483D01*
X111442664Y-111830186D01*
X111447783Y-111830808D01*
G37*
G36*
X111683365Y-112002141D02*
G01*
X111699663Y-112022935D01*
X111699040Y-112028054D01*
X111678246Y-112044351D01*
X111673127Y-112043729D01*
X111656830Y-112022935D01*
X111657452Y-112017816D01*
X111678246Y-112001518D01*
X111683365Y-112002141D01*
G37*
G36*
X111730089Y-108769304D02*
G01*
X111731787Y-108789039D01*
X111727392Y-108795448D01*
X111709107Y-108810456D01*
X111706970Y-108809899D01*
X111699663Y-108789039D01*
X111700534Y-108783169D01*
X111722343Y-108767623D01*
X111730089Y-108769304D01*
G37*
G36*
X111730089Y-111510620D02*
G01*
X111731787Y-111530355D01*
X111727392Y-111536764D01*
X111709107Y-111551771D01*
X111706970Y-111551214D01*
X111699663Y-111530355D01*
X111700534Y-111524485D01*
X111722343Y-111508938D01*
X111730089Y-111510620D01*
G37*
G36*
X111870995Y-111379175D02*
G01*
X111870172Y-111385391D01*
X111849578Y-111401855D01*
X111844732Y-111401610D01*
X111828162Y-111392411D01*
X111829147Y-111388976D01*
X111849578Y-111369731D01*
X111857874Y-111366384D01*
X111870995Y-111379175D01*
G37*
G36*
X111883875Y-116221559D02*
G01*
X111903120Y-116241990D01*
X111906466Y-116250286D01*
X111893675Y-116263407D01*
X111887459Y-116262584D01*
X111870995Y-116241990D01*
X111871240Y-116237144D01*
X111880439Y-116220574D01*
X111883875Y-116221559D01*
G37*
G36*
X111965064Y-110392787D02*
G01*
X111966455Y-110418175D01*
X111963170Y-110422693D01*
X111935244Y-110438112D01*
X111918196Y-110433428D01*
X111902081Y-110409450D01*
X111913479Y-110384786D01*
X111939317Y-110379223D01*
X111965064Y-110392787D01*
G37*
G36*
X112026030Y-112730302D02*
G01*
X112042327Y-112751097D01*
X112041705Y-112756216D01*
X112020911Y-112772513D01*
X112015791Y-112771891D01*
X111999494Y-112751097D01*
X112000116Y-112745978D01*
X112020911Y-112729680D01*
X112026030Y-112730302D01*
G37*
G36*
X112114805Y-111894069D02*
G01*
X112113506Y-111928686D01*
X112103045Y-111945355D01*
X112079899Y-111940574D01*
X112078567Y-111939166D01*
X112069953Y-111910019D01*
X112082551Y-111885258D01*
X112107121Y-111884064D01*
X112114805Y-111894069D01*
G37*
G36*
X112125820Y-117056440D02*
G01*
X112148742Y-117074119D01*
X112135714Y-117105208D01*
X112126798Y-117110634D01*
X112099331Y-117103937D01*
X112085160Y-117075971D01*
X112088775Y-117066712D01*
X112117285Y-117055818D01*
X112125820Y-117056440D01*
G37*
G36*
X112320742Y-119624538D02*
G01*
X112319919Y-119630754D01*
X112299325Y-119647218D01*
X112294479Y-119646972D01*
X112277909Y-119637774D01*
X112278894Y-119634338D01*
X112299325Y-119615093D01*
X112307621Y-119611747D01*
X112320742Y-119624538D01*
G37*
G36*
X112496909Y-111783621D02*
G01*
X112504339Y-111794681D01*
X112502782Y-111830186D01*
X112492077Y-111841604D01*
X112465823Y-111833918D01*
X112458393Y-111822858D01*
X112459949Y-111787353D01*
X112470655Y-111775935D01*
X112496909Y-111783621D01*
G37*
G36*
X112492074Y-116241990D02*
G01*
X112491918Y-116252298D01*
X112485554Y-116278232D01*
X112466374Y-116267690D01*
X112451702Y-116245434D01*
X112466374Y-116216291D01*
X112471606Y-116211371D01*
X112487755Y-116207950D01*
X112492074Y-116241990D01*
G37*
G36*
X112547787Y-118149047D02*
G01*
X112567032Y-118169478D01*
X112570378Y-118177774D01*
X112557588Y-118190894D01*
X112551371Y-118190071D01*
X112534907Y-118169478D01*
X112535153Y-118164631D01*
X112544351Y-118148061D01*
X112547787Y-118149047D01*
G37*
G36*
X112582859Y-108811078D02*
G01*
X112599157Y-108831872D01*
X112598534Y-108836991D01*
X112577740Y-108853289D01*
X112572621Y-108852667D01*
X112556324Y-108831872D01*
X112556946Y-108826753D01*
X112577740Y-108810456D01*
X112582859Y-108811078D01*
G37*
G36*
X112711358Y-112280555D02*
G01*
X112727656Y-112301350D01*
X112727034Y-112306469D01*
X112706239Y-112322766D01*
X112701120Y-112322144D01*
X112684823Y-112301350D01*
X112685445Y-112296230D01*
X112706239Y-112279933D01*
X112711358Y-112280555D01*
G37*
G36*
X112865165Y-117314498D02*
G01*
X112866863Y-117334233D01*
X112862468Y-117340642D01*
X112844183Y-117355650D01*
X112842046Y-117355093D01*
X112834739Y-117334233D01*
X112835610Y-117328363D01*
X112857419Y-117312817D01*
X112865165Y-117314498D01*
G37*
G36*
X112963238Y-111143593D02*
G01*
X112962415Y-111149810D01*
X112941821Y-111166274D01*
X112936974Y-111166028D01*
X112920405Y-111156829D01*
X112921390Y-111153394D01*
X112941821Y-111134149D01*
X112950117Y-111130803D01*
X112963238Y-111143593D01*
G37*
G36*
X113048904Y-115319816D02*
G01*
X113048081Y-115326032D01*
X113027487Y-115342496D01*
X113022641Y-115342251D01*
X113006071Y-115333052D01*
X113007056Y-115329617D01*
X113027487Y-115310371D01*
X113035783Y-115307025D01*
X113048904Y-115319816D01*
G37*
G36*
X113075273Y-114272493D02*
G01*
X113091737Y-114293087D01*
X113091491Y-114297933D01*
X113082293Y-114314503D01*
X113078857Y-114313518D01*
X113059612Y-114293087D01*
X113056266Y-114284791D01*
X113069056Y-114271670D01*
X113075273Y-114272493D01*
G37*
G36*
X113144805Y-117638151D02*
G01*
X113155986Y-117667453D01*
X113152905Y-117682751D01*
X113134570Y-117687606D01*
X113128721Y-117683222D01*
X113113153Y-117654217D01*
X113113766Y-117649436D01*
X113134570Y-117634065D01*
X113144805Y-117638151D01*
G37*
G36*
X113549886Y-114676092D02*
G01*
X113551278Y-114701480D01*
X113547993Y-114705998D01*
X113520067Y-114721417D01*
X113503019Y-114716733D01*
X113486904Y-114692755D01*
X113498301Y-114668092D01*
X113524140Y-114662529D01*
X113549886Y-114676092D01*
G37*
G36*
X113552034Y-114105808D02*
G01*
X113562900Y-114132463D01*
X113559406Y-114150144D01*
X113539878Y-114160483D01*
X113533528Y-114157574D01*
X113516855Y-114132463D01*
X113517751Y-114126553D01*
X113539878Y-114104443D01*
X113552034Y-114105808D01*
G37*
G36*
X113637700Y-115219468D02*
G01*
X113648567Y-115246122D01*
X113645072Y-115263804D01*
X113625544Y-115274142D01*
X113619194Y-115271234D01*
X113602521Y-115246122D01*
X113603417Y-115240212D01*
X113625544Y-115218102D01*
X113637700Y-115219468D01*
G37*
G36*
X113653519Y-110824432D02*
G01*
X113669983Y-110845026D01*
X113669738Y-110849873D01*
X113660539Y-110866442D01*
X113657103Y-110865457D01*
X113637858Y-110845026D01*
X113634512Y-110836730D01*
X113647303Y-110823609D01*
X113653519Y-110824432D01*
G37*
G36*
X113760484Y-116131176D02*
G01*
X113767914Y-116142236D01*
X113766357Y-116177741D01*
X113755652Y-116189159D01*
X113729398Y-116181473D01*
X113721968Y-116170413D01*
X113723524Y-116134908D01*
X113734230Y-116123490D01*
X113760484Y-116131176D01*
G37*
G36*
X113785468Y-117524490D02*
G01*
X113786859Y-117549878D01*
X113783575Y-117554396D01*
X113755649Y-117569815D01*
X113738601Y-117565131D01*
X113722486Y-117541153D01*
X113733883Y-117516490D01*
X113759721Y-117510927D01*
X113785468Y-117524490D01*
G37*
G36*
X113764659Y-118213992D02*
G01*
X113766357Y-118233727D01*
X113761962Y-118240137D01*
X113743677Y-118255144D01*
X113741540Y-118254587D01*
X113734233Y-118233727D01*
X113735104Y-118227857D01*
X113756913Y-118212311D01*
X113764659Y-118213992D01*
G37*
G36*
X113785294Y-116648538D02*
G01*
X113783995Y-116683155D01*
X113773534Y-116699824D01*
X113750388Y-116695043D01*
X113749056Y-116693635D01*
X113740442Y-116664488D01*
X113753040Y-116639727D01*
X113777610Y-116638533D01*
X113785294Y-116648538D01*
G37*
G36*
X113977255Y-111975347D02*
G01*
X113979392Y-112003347D01*
X113974569Y-112008959D01*
X113946569Y-112011096D01*
X113940957Y-112006273D01*
X113938820Y-111978272D01*
X113943643Y-111972661D01*
X113971644Y-111970524D01*
X113977255Y-111975347D01*
G37*
G36*
X113982694Y-117335219D02*
G01*
X114001939Y-117355650D01*
X114005286Y-117363946D01*
X113992495Y-117377066D01*
X113986278Y-117376243D01*
X113969814Y-117355650D01*
X113970060Y-117350803D01*
X113979259Y-117334233D01*
X113982694Y-117335219D01*
G37*
G36*
X114054654Y-109270401D02*
G01*
X114067603Y-109285888D01*
X114053145Y-109316559D01*
X114033409Y-109333235D01*
X114004989Y-109325360D01*
X113999942Y-109318985D01*
X113999177Y-109289178D01*
X114022182Y-109267708D01*
X114054654Y-109270401D01*
G37*
G36*
X114034064Y-112492834D02*
G01*
X114033241Y-112499051D01*
X114012647Y-112515515D01*
X114007801Y-112515269D01*
X113991231Y-112506071D01*
X113992216Y-112502635D01*
X114012647Y-112483390D01*
X114020943Y-112480044D01*
X114034064Y-112492834D01*
G37*
G36*
X114034064Y-120331283D02*
G01*
X114033241Y-120337499D01*
X114012647Y-120353963D01*
X114007801Y-120353718D01*
X113991231Y-120344519D01*
X113992216Y-120341084D01*
X114012647Y-120321839D01*
X114020943Y-120318492D01*
X114034064Y-120331283D01*
G37*
G36*
X114301548Y-117212042D02*
G01*
X114316515Y-117232326D01*
X114306955Y-117265537D01*
X114303523Y-117269385D01*
X114275923Y-117279574D01*
X114257544Y-117259700D01*
X114260161Y-117220978D01*
X114275595Y-117198838D01*
X114301548Y-117212042D01*
G37*
G36*
X114483811Y-119346123D02*
G01*
X114482988Y-119352339D01*
X114462395Y-119368803D01*
X114457548Y-119368558D01*
X114440978Y-119359359D01*
X114441963Y-119355923D01*
X114462395Y-119336678D01*
X114470690Y-119333332D01*
X114483811Y-119346123D01*
G37*
G36*
X114548061Y-114099074D02*
G01*
X114547238Y-114105290D01*
X114526644Y-114121754D01*
X114521797Y-114121509D01*
X114505228Y-114112310D01*
X114506213Y-114108875D01*
X114526644Y-114089630D01*
X114534940Y-114086283D01*
X114548061Y-114099074D01*
G37*
G36*
X114707642Y-115061596D02*
G01*
X114707770Y-115086978D01*
X114706235Y-115089361D01*
X114679689Y-115105584D01*
X114637285Y-115088150D01*
X114621618Y-115071200D01*
X114644572Y-115056284D01*
X114679197Y-115050317D01*
X114707642Y-115061596D01*
G37*
G36*
X114767178Y-118555798D02*
G01*
X114783642Y-118576392D01*
X114783397Y-118581238D01*
X114774198Y-118597808D01*
X114770763Y-118596823D01*
X114751518Y-118576392D01*
X114748171Y-118568096D01*
X114760962Y-118554975D01*
X114767178Y-118555798D01*
G37*
G36*
X114917094Y-111852426D02*
G01*
X114933558Y-111873019D01*
X114933313Y-111877866D01*
X114924114Y-111894436D01*
X114920678Y-111893450D01*
X114901433Y-111873019D01*
X114898087Y-111864723D01*
X114910878Y-111851603D01*
X114917094Y-111852426D01*
G37*
G36*
X115110009Y-112858802D02*
G01*
X115126307Y-112879596D01*
X115125684Y-112884715D01*
X115104890Y-112901012D01*
X115099771Y-112900390D01*
X115083474Y-112879596D01*
X115084096Y-112874477D01*
X115104890Y-112858179D01*
X115110009Y-112858802D01*
G37*
G36*
X115259759Y-113480082D02*
G01*
X115276223Y-113500675D01*
X115275977Y-113505522D01*
X115266778Y-113522092D01*
X115263343Y-113521106D01*
X115244098Y-113500675D01*
X115240751Y-113492379D01*
X115253542Y-113479259D01*
X115259759Y-113480082D01*
G37*
G36*
X115284451Y-114571135D02*
G01*
X115283152Y-114605752D01*
X115272691Y-114622421D01*
X115249545Y-114617640D01*
X115248213Y-114616231D01*
X115239599Y-114587085D01*
X115252197Y-114562324D01*
X115276767Y-114561130D01*
X115284451Y-114571135D01*
G37*
G36*
X115412162Y-117522227D02*
G01*
X115414299Y-117550228D01*
X115409476Y-117555839D01*
X115381476Y-117557976D01*
X115375864Y-117553153D01*
X115373727Y-117525153D01*
X115378550Y-117519541D01*
X115406551Y-117517404D01*
X115412162Y-117522227D01*
G37*
G36*
X115516923Y-111959307D02*
G01*
X115533221Y-111980102D01*
X115532598Y-111985221D01*
X115511804Y-112001518D01*
X115506685Y-112000896D01*
X115490388Y-111980102D01*
X115491010Y-111974983D01*
X115511804Y-111958685D01*
X115516923Y-111959307D01*
G37*
G36*
X115540661Y-108848534D02*
G01*
X115542799Y-108876535D01*
X115537976Y-108882146D01*
X115509975Y-108884283D01*
X115504364Y-108879460D01*
X115502227Y-108851460D01*
X115507049Y-108845848D01*
X115535050Y-108843711D01*
X115540661Y-108848534D01*
G37*
G36*
X115563648Y-119113486D02*
G01*
X115565346Y-119133221D01*
X115560950Y-119139631D01*
X115542665Y-119154638D01*
X115540528Y-119154081D01*
X115533221Y-119133221D01*
X115534092Y-119127351D01*
X115555901Y-119111805D01*
X115563648Y-119113486D01*
G37*
G36*
X115618887Y-120052868D02*
G01*
X115618064Y-120059085D01*
X115597470Y-120075549D01*
X115592624Y-120075303D01*
X115576054Y-120066104D01*
X115577039Y-120062669D01*
X115597470Y-120043424D01*
X115605766Y-120040077D01*
X115618887Y-120052868D01*
G37*
G36*
X107484957Y-118070929D02*
G01*
X107492951Y-118092386D01*
X107490057Y-118128680D01*
X107481485Y-118138339D01*
X107460915Y-118136881D01*
X107447657Y-118111257D01*
X107450971Y-118074340D01*
X107454757Y-118064801D01*
X107467801Y-118048112D01*
X107484957Y-118070929D01*
G37*
G36*
X110482329Y-115649426D02*
G01*
X110492890Y-115656257D01*
X110507206Y-115674827D01*
X110484142Y-115697233D01*
X110458210Y-115710448D01*
X110424899Y-115699225D01*
X110413242Y-115683070D01*
X110416714Y-115655014D01*
X110443912Y-115640185D01*
X110482329Y-115649426D01*
G37*
G36*
X111582810Y-114056783D02*
G01*
X111601805Y-114079275D01*
X111591018Y-114112928D01*
X111565804Y-114129963D01*
X111528096Y-114116638D01*
X111512883Y-114106673D01*
X111500609Y-114088354D01*
X111524508Y-114065826D01*
X111547040Y-114054665D01*
X111582810Y-114056783D01*
G37*
G36*
X111989758Y-118841508D02*
G01*
X111991062Y-118842014D01*
X112013635Y-118859178D01*
X111999065Y-118887449D01*
X111973628Y-118907293D01*
X111942204Y-118894528D01*
X111934753Y-118887209D01*
X111927327Y-118857900D01*
X111949217Y-118838702D01*
X111989758Y-118841508D01*
G37*
G36*
X113476713Y-113735413D02*
G01*
X113484708Y-113752752D01*
X113485266Y-113783421D01*
X113482971Y-113786764D01*
X113452923Y-113799450D01*
X113422540Y-113777224D01*
X113418685Y-113762888D01*
X113432876Y-113729216D01*
X113453599Y-113716437D01*
X113476713Y-113735413D01*
G37*
G36*
X114259455Y-116606501D02*
G01*
X114279299Y-116631937D01*
X114266534Y-116663362D01*
X114259216Y-116670812D01*
X114229906Y-116678238D01*
X114210708Y-116656348D01*
X114213514Y-116615807D01*
X114214020Y-116614503D01*
X114231184Y-116591930D01*
X114259455Y-116606501D01*
G37*
G36*
X114390225Y-109829701D02*
G01*
X114384315Y-109870985D01*
X114379451Y-109883165D01*
X114367458Y-109896141D01*
X114349902Y-109870854D01*
X114341523Y-109849826D01*
X114350675Y-109813102D01*
X114353420Y-109810545D01*
X114377564Y-109805489D01*
X114390225Y-109829701D01*
G37*
G36*
X112603668Y-113845078D02*
G01*
X112674115Y-113857526D01*
X112604154Y-113889340D01*
X112592888Y-113894751D01*
X112556175Y-113918630D01*
X112548828Y-113935788D01*
X112551255Y-113943575D01*
X112528739Y-113950422D01*
X112523120Y-113954132D01*
X112499236Y-113969902D01*
X112478453Y-114030734D01*
X112478241Y-114031825D01*
X112467564Y-114078966D01*
X112459529Y-114087596D01*
X112450697Y-114061530D01*
X112450632Y-114061281D01*
X112442167Y-114064888D01*
X112423254Y-114101135D01*
X112393455Y-114171166D01*
X112352334Y-114276123D01*
X112299453Y-114417153D01*
X112234375Y-114595397D01*
X112156663Y-114812000D01*
X112065878Y-115068107D01*
X112044034Y-115129992D01*
X111971598Y-115334857D01*
X111902577Y-115529545D01*
X111838513Y-115709739D01*
X111780948Y-115871119D01*
X111731425Y-116009368D01*
X111691487Y-116120165D01*
X111662676Y-116199194D01*
X111646534Y-116242134D01*
X111621905Y-116310711D01*
X111610013Y-116371011D01*
X111620978Y-116403568D01*
X111655045Y-116413323D01*
X111677549Y-116418286D01*
X111691679Y-116442474D01*
X111678802Y-116474606D01*
X111641114Y-116500892D01*
X111607433Y-116521595D01*
X111600767Y-116557901D01*
X111600895Y-116558352D01*
X111607737Y-116589163D01*
X111621677Y-116656885D01*
X111641739Y-116756601D01*
X111666945Y-116883394D01*
X111696317Y-117032347D01*
X111728877Y-117198544D01*
X111763649Y-117377066D01*
X111765048Y-117384274D01*
X111809575Y-117613319D01*
X111846976Y-117804073D01*
X111878294Y-117960180D01*
X111904572Y-118085285D01*
X111926853Y-118183031D01*
X111946180Y-118257065D01*
X111963596Y-118311029D01*
X111980144Y-118348570D01*
X111996867Y-118373330D01*
X112014808Y-118388956D01*
X112035010Y-118399090D01*
X112058517Y-118407378D01*
X112138701Y-118434351D01*
X112059192Y-118465139D01*
X112040661Y-118472901D01*
X111985936Y-118511552D01*
X111953526Y-118573638D01*
X111927369Y-118651350D01*
X111897077Y-118573143D01*
X111883713Y-118543345D01*
X111844049Y-118495319D01*
X111777870Y-118461311D01*
X111768670Y-118458436D01*
X111715018Y-118446614D01*
X111625685Y-118430407D01*
X111505751Y-118410610D01*
X111360294Y-118388021D01*
X111194395Y-118363434D01*
X111013132Y-118337646D01*
X110821585Y-118311452D01*
X110681493Y-118292774D01*
X110481799Y-118266642D01*
X110318620Y-118246099D01*
X110188300Y-118230782D01*
X110087182Y-118220326D01*
X110011608Y-118214366D01*
X109957922Y-118212540D01*
X109922467Y-118214481D01*
X109901584Y-118219827D01*
X109880938Y-118233081D01*
X109852754Y-118268363D01*
X109824570Y-118329151D01*
X109791973Y-118423649D01*
X109779288Y-118462290D01*
X109754394Y-118530576D01*
X109734943Y-118573923D01*
X109724327Y-118584273D01*
X109723669Y-118583029D01*
X109711163Y-118551126D01*
X109690367Y-118491427D01*
X109665419Y-118415768D01*
X109663272Y-118409146D01*
X109636312Y-118333046D01*
X109611139Y-118273044D01*
X109592948Y-118241623D01*
X109591737Y-118240510D01*
X109557480Y-118221544D01*
X109495674Y-118196027D01*
X109418803Y-118169152D01*
X109410589Y-118166502D01*
X109335991Y-118141770D01*
X109278548Y-118121596D01*
X109250111Y-118110128D01*
X109249445Y-118107402D01*
X109272520Y-118093215D01*
X109325459Y-118071856D01*
X109400026Y-118046806D01*
X109423078Y-118039467D01*
X109501603Y-118011995D01*
X109562078Y-117987106D01*
X109592948Y-117969435D01*
X109594034Y-117968229D01*
X109609225Y-117940532D01*
X109851413Y-117940532D01*
X109861600Y-117966201D01*
X109896278Y-117989418D01*
X109960995Y-118014983D01*
X110061298Y-118047696D01*
X110115094Y-118064926D01*
X110174813Y-118085964D01*
X110201866Y-118100378D01*
X110201532Y-118111532D01*
X110179089Y-118122793D01*
X110169495Y-118126703D01*
X110144074Y-118142936D01*
X110157673Y-118155114D01*
X110160118Y-118155773D01*
X110196151Y-118162086D01*
X110268855Y-118173109D01*
X110373427Y-118188170D01*
X110505064Y-118206595D01*
X110658963Y-118227708D01*
X110830321Y-118250837D01*
X111014334Y-118275307D01*
X111056902Y-118280924D01*
X111237343Y-118304671D01*
X111403301Y-118326412D01*
X111550113Y-118345544D01*
X111673117Y-118361463D01*
X111767648Y-118373565D01*
X111829044Y-118381246D01*
X111852641Y-118383901D01*
X111861718Y-118380341D01*
X111868156Y-118366209D01*
X111870085Y-118338002D01*
X111866983Y-118292234D01*
X111858331Y-118225424D01*
X111843607Y-118134086D01*
X111822290Y-118014737D01*
X111793860Y-117863895D01*
X111757795Y-117678074D01*
X111713574Y-117453792D01*
X111674300Y-117257516D01*
X111633464Y-117058673D01*
X111598737Y-116895858D01*
X111570396Y-116770299D01*
X111548722Y-116683224D01*
X111533992Y-116635863D01*
X111526485Y-116629444D01*
X111512924Y-116681029D01*
X111488503Y-116620740D01*
X111471489Y-116573528D01*
X111464081Y-116542129D01*
X111464072Y-116541818D01*
X111444921Y-116524880D01*
X111400077Y-116509751D01*
X111360873Y-116497946D01*
X111328181Y-116479141D01*
X111323661Y-116463005D01*
X111353112Y-116456156D01*
X111377991Y-116451925D01*
X111418990Y-116426751D01*
X111425203Y-116415095D01*
X111417604Y-116393146D01*
X111382545Y-116363504D01*
X111314530Y-116320583D01*
X111258579Y-116288232D01*
X111213144Y-116266363D01*
X111190642Y-116264475D01*
X111183975Y-116280384D01*
X111180156Y-116303316D01*
X111169825Y-116285206D01*
X111142049Y-116239677D01*
X111078201Y-116193582D01*
X111060882Y-116184575D01*
X111074759Y-116179432D01*
X111091262Y-116175688D01*
X111136257Y-116143629D01*
X111169825Y-116091692D01*
X111180136Y-116073394D01*
X111183975Y-116096214D01*
X111196857Y-116128270D01*
X111233264Y-116165818D01*
X111260847Y-116189118D01*
X111261027Y-116199157D01*
X111266870Y-116209100D01*
X111301661Y-116235558D01*
X111357905Y-116272747D01*
X111388192Y-116291474D01*
X111442961Y-116321092D01*
X111474691Y-116328556D01*
X111491332Y-116316469D01*
X111502579Y-116303356D01*
X111534251Y-116296409D01*
X111536279Y-116295388D01*
X111551768Y-116267422D01*
X111578824Y-116205189D01*
X111615688Y-116113590D01*
X111660600Y-115997525D01*
X111711799Y-115861894D01*
X111767527Y-115711597D01*
X111826022Y-115551535D01*
X111885526Y-115386606D01*
X111944277Y-115221712D01*
X112000516Y-115061752D01*
X112052483Y-114911627D01*
X112098418Y-114776237D01*
X112136562Y-114660481D01*
X112165153Y-114569260D01*
X112182433Y-114507474D01*
X112186641Y-114480023D01*
X112185610Y-114465356D01*
X112204607Y-114432294D01*
X112214579Y-114418021D01*
X112236402Y-114372620D01*
X112264282Y-114305680D01*
X112295057Y-114225951D01*
X112325569Y-114142182D01*
X112352657Y-114063123D01*
X112373161Y-113997523D01*
X112383923Y-113954132D01*
X112381781Y-113941698D01*
X112376430Y-113944152D01*
X112363575Y-113933707D01*
X112348703Y-113913780D01*
X112308826Y-113889519D01*
X112273939Y-113867058D01*
X112265276Y-113846454D01*
X112264749Y-113844597D01*
X112248158Y-113832631D01*
X112320742Y-113832631D01*
X112331450Y-113843339D01*
X112342158Y-113832631D01*
X112331450Y-113821923D01*
X112320742Y-113832631D01*
X112248158Y-113832631D01*
X112239857Y-113826644D01*
X112182199Y-113793399D01*
X112096462Y-113747339D01*
X111987335Y-113690941D01*
X111859505Y-113626683D01*
X111717659Y-113557043D01*
X111694504Y-113545806D01*
X111528593Y-113465800D01*
X111396645Y-113403692D01*
X111294803Y-113358339D01*
X111219210Y-113328600D01*
X111166010Y-113313331D01*
X111131346Y-113311392D01*
X111111360Y-113321639D01*
X111102197Y-113342931D01*
X111100000Y-113374126D01*
X111094665Y-113397728D01*
X111067875Y-113401337D01*
X111051329Y-113398397D01*
X111035750Y-113412718D01*
X111036815Y-113419873D01*
X111058489Y-113436425D01*
X111062200Y-113438331D01*
X111052386Y-113459082D01*
X111018853Y-113495321D01*
X111007373Y-113507013D01*
X110963949Y-113556796D01*
X110904115Y-113630068D01*
X110834217Y-113718962D01*
X110760597Y-113815610D01*
X110564715Y-114077004D01*
X110639845Y-114091099D01*
X110700905Y-114107604D01*
X110724383Y-114124585D01*
X110708953Y-114137830D01*
X110653522Y-114143171D01*
X110649651Y-114143176D01*
X110597666Y-114146166D01*
X110577809Y-114158753D01*
X110580036Y-114186916D01*
X110582447Y-114215918D01*
X110561969Y-114224395D01*
X110547987Y-114225386D01*
X110539325Y-114249425D01*
X110584420Y-114456122D01*
X110630021Y-114667163D01*
X110674285Y-114873928D01*
X110716348Y-115072241D01*
X110755342Y-115257928D01*
X110790400Y-115426814D01*
X110820657Y-115574726D01*
X110845245Y-115697488D01*
X110863299Y-115790925D01*
X110873951Y-115850864D01*
X110876336Y-115873130D01*
X110873765Y-115877905D01*
X110886084Y-115902116D01*
X110922580Y-115930402D01*
X110971416Y-115952840D01*
X110985183Y-115957298D01*
X111006304Y-115967947D01*
X110995387Y-115980883D01*
X110949000Y-116003925D01*
X110937046Y-116009817D01*
X110887230Y-116047911D01*
X110868187Y-116099184D01*
X110856988Y-116139591D01*
X110833570Y-116149069D01*
X110821616Y-116156700D01*
X110789458Y-116200606D01*
X110739026Y-116283188D01*
X110670312Y-116404458D01*
X110583310Y-116564428D01*
X110478010Y-116763111D01*
X110438891Y-116837587D01*
X110355745Y-116995542D01*
X110276191Y-117146245D01*
X110203482Y-117283558D01*
X110140873Y-117401340D01*
X110091617Y-117493451D01*
X110058968Y-117553753D01*
X110039563Y-117589646D01*
X110005421Y-117656343D01*
X109984524Y-117702491D01*
X109980807Y-117719731D01*
X109981373Y-117719784D01*
X109976549Y-117734649D01*
X109949746Y-117767918D01*
X109909216Y-117820884D01*
X109871619Y-117883555D01*
X109860172Y-117907610D01*
X109851413Y-117940532D01*
X109609225Y-117940532D01*
X109612964Y-117933714D01*
X109638417Y-117871684D01*
X109665202Y-117794689D01*
X109667900Y-117786310D01*
X109693105Y-117712174D01*
X109714569Y-117655695D01*
X109727896Y-117628524D01*
X109735847Y-117630775D01*
X109752254Y-117662601D01*
X109770058Y-117719544D01*
X109789034Y-117785218D01*
X109807165Y-117819321D01*
X109826966Y-117817758D01*
X109852871Y-117783980D01*
X109866407Y-117755307D01*
X109856829Y-117741147D01*
X109854151Y-117740665D01*
X109858149Y-117724637D01*
X109887917Y-117692960D01*
X109887967Y-117692914D01*
X109905951Y-117667085D01*
X109941205Y-117608244D01*
X109991094Y-117521265D01*
X110052982Y-117411025D01*
X110124233Y-117282399D01*
X110202212Y-117140264D01*
X110284284Y-116989494D01*
X110367812Y-116834966D01*
X110450161Y-116681555D01*
X110528696Y-116534138D01*
X110600781Y-116397589D01*
X110663781Y-116276785D01*
X110715059Y-116176601D01*
X110751980Y-116101914D01*
X110771910Y-116057599D01*
X110762990Y-116028913D01*
X110711780Y-116002250D01*
X110640011Y-115977232D01*
X110710221Y-115948583D01*
X110715086Y-115946509D01*
X110766605Y-115913593D01*
X110796903Y-115875406D01*
X110797034Y-115852889D01*
X110789420Y-115792302D01*
X110774459Y-115700839D01*
X110753393Y-115584455D01*
X110727465Y-115449103D01*
X110697919Y-115300738D01*
X110665998Y-115145313D01*
X110632944Y-114988782D01*
X110600001Y-114837100D01*
X110568412Y-114696219D01*
X110539420Y-114572095D01*
X110514269Y-114470680D01*
X110494201Y-114397930D01*
X110480459Y-114359797D01*
X110474694Y-114349532D01*
X110453039Y-114325028D01*
X110435257Y-114337263D01*
X110432328Y-114341580D01*
X110417131Y-114344777D01*
X110403113Y-114308032D01*
X110388623Y-114268471D01*
X110371896Y-114250253D01*
X110363677Y-114244989D01*
X110358155Y-114214028D01*
X110356700Y-114201723D01*
X110329565Y-114175085D01*
X110264755Y-114151361D01*
X110240045Y-114146899D01*
X110174001Y-114138336D01*
X110074730Y-114127148D01*
X109947602Y-114113825D01*
X109797987Y-114098859D01*
X109631254Y-114082740D01*
X109452773Y-114065960D01*
X109267912Y-114049009D01*
X109082042Y-114032378D01*
X108900532Y-114016559D01*
X108728751Y-114002041D01*
X108572070Y-113989317D01*
X108435857Y-113978877D01*
X108325481Y-113971212D01*
X108246313Y-113966812D01*
X108209054Y-113966363D01*
X108139903Y-113977730D01*
X108097240Y-114011818D01*
X108075703Y-114074904D01*
X108069929Y-114173265D01*
X108075992Y-114270507D01*
X108096419Y-114334421D01*
X108134950Y-114369148D01*
X108195329Y-114380887D01*
X108238883Y-114383120D01*
X108242573Y-114388273D01*
X108208769Y-114400169D01*
X108180451Y-114413362D01*
X108187352Y-114421198D01*
X108192548Y-114422741D01*
X108185800Y-114435746D01*
X108147913Y-114456319D01*
X108136736Y-114461574D01*
X108096968Y-114489012D01*
X108085670Y-114513467D01*
X108087375Y-114518904D01*
X108098571Y-114560048D01*
X108117151Y-114631770D01*
X108140985Y-114725775D01*
X108167943Y-114833770D01*
X108180838Y-114885046D01*
X108211202Y-114997268D01*
X108235763Y-115072671D01*
X108255907Y-115115144D01*
X108273018Y-115128575D01*
X108291385Y-115131673D01*
X108278892Y-115145664D01*
X108277527Y-115146696D01*
X108281923Y-115169094D01*
X108323172Y-115211351D01*
X108401627Y-115273836D01*
X108430457Y-115295255D01*
X108494129Y-115341348D01*
X108540722Y-115373347D01*
X108561732Y-115385329D01*
X108568175Y-115377350D01*
X108572850Y-115342496D01*
X108573511Y-115327462D01*
X108584457Y-115301962D01*
X108605825Y-115314576D01*
X108633666Y-115363913D01*
X108663203Y-115408494D01*
X108703144Y-115428162D01*
X108707475Y-115428241D01*
X108739890Y-115439245D01*
X108736962Y-115461012D01*
X108699456Y-115482305D01*
X108697435Y-115483004D01*
X108658397Y-115513390D01*
X108626161Y-115564060D01*
X108597592Y-115631619D01*
X108575865Y-115574885D01*
X108558634Y-115541969D01*
X108518017Y-115495432D01*
X108472678Y-115465599D01*
X108435506Y-115462768D01*
X108429241Y-115462870D01*
X108448817Y-115444101D01*
X108456462Y-115437308D01*
X108465630Y-115420060D01*
X108454723Y-115398561D01*
X108418696Y-115366099D01*
X108352503Y-115315961D01*
X108336922Y-115304661D01*
X108275121Y-115263977D01*
X108228907Y-115240058D01*
X108207313Y-115237770D01*
X108207233Y-115237896D01*
X108190068Y-115235888D01*
X108166155Y-115203697D01*
X108137462Y-115166675D01*
X108103421Y-115148390D01*
X108090794Y-115142522D01*
X108117749Y-115127664D01*
X108148565Y-115111842D01*
X108165936Y-115093533D01*
X108165144Y-115088432D01*
X108156249Y-115049675D01*
X108139035Y-114980311D01*
X108115459Y-114888133D01*
X108087477Y-114780936D01*
X108081083Y-114756698D01*
X108051320Y-114646280D01*
X108028364Y-114569156D01*
X108009131Y-114518349D01*
X107990535Y-114486886D01*
X107969491Y-114467791D01*
X107942915Y-114454090D01*
X107932557Y-114449312D01*
X107904009Y-114430930D01*
X107908938Y-114421827D01*
X107923369Y-114415166D01*
X107898229Y-114400169D01*
X107877543Y-114390454D01*
X107876197Y-114382861D01*
X107914292Y-114380258D01*
X107954122Y-114372615D01*
X107973187Y-114346628D01*
X107975806Y-114331822D01*
X107996305Y-114314503D01*
X108009524Y-114299708D01*
X108008391Y-114255608D01*
X108005200Y-114237604D01*
X107994569Y-114170215D01*
X107983960Y-114094980D01*
X107973704Y-114039144D01*
X107951794Y-113992339D01*
X107912979Y-113961984D01*
X107908880Y-113959721D01*
X107877767Y-113938215D01*
X107876813Y-113927728D01*
X107876611Y-113920833D01*
X107844688Y-113907589D01*
X107810506Y-113895750D01*
X107812818Y-113890533D01*
X107855599Y-113888307D01*
X107902767Y-113878373D01*
X107945556Y-113845332D01*
X107946039Y-113844544D01*
X107962390Y-113801635D01*
X107978015Y-113734397D01*
X107991559Y-113653869D01*
X108001666Y-113571091D01*
X108006982Y-113497102D01*
X108006150Y-113442942D01*
X107997816Y-113419649D01*
X107996267Y-113418983D01*
X107995932Y-113399321D01*
X108023127Y-113365239D01*
X108032186Y-113355721D01*
X108067081Y-113311230D01*
X108107907Y-113251947D01*
X108146802Y-113190170D01*
X108175904Y-113138199D01*
X108187352Y-113108332D01*
X108170836Y-113097038D01*
X108128457Y-113082653D01*
X108069561Y-113066902D01*
X108140489Y-113036897D01*
X108190598Y-113005964D01*
X108235389Y-112938123D01*
X108259362Y-112869354D01*
X108288208Y-112940048D01*
X108319026Y-112990948D01*
X108385823Y-113034715D01*
X108454592Y-113058688D01*
X108385265Y-113086977D01*
X108336397Y-113117071D01*
X108285517Y-113184825D01*
X108279788Y-113197381D01*
X108261567Y-113228523D01*
X108253349Y-113227614D01*
X108249645Y-113209497D01*
X108231076Y-113202992D01*
X108199943Y-113232581D01*
X108159170Y-113296137D01*
X108145041Y-113322592D01*
X108123588Y-113377567D01*
X108130569Y-113401529D01*
X108138254Y-113407492D01*
X108119758Y-113413318D01*
X108104749Y-113418023D01*
X108084741Y-113449559D01*
X108071458Y-113516737D01*
X108064271Y-113578830D01*
X108056884Y-113686662D01*
X108060714Y-113765718D01*
X108075885Y-113824617D01*
X108080881Y-113836026D01*
X108103448Y-113865781D01*
X108143049Y-113882957D01*
X108212581Y-113894112D01*
X108253980Y-113898700D01*
X108354667Y-113908844D01*
X108480858Y-113920643D01*
X108626871Y-113933644D01*
X108787025Y-113947397D01*
X108955641Y-113961449D01*
X109127036Y-113975349D01*
X109295530Y-113988645D01*
X109455443Y-114000886D01*
X109601092Y-114011620D01*
X109726798Y-114020395D01*
X109826880Y-114026759D01*
X109895656Y-114030262D01*
X109927445Y-114030450D01*
X109968136Y-114028914D01*
X109986341Y-114037302D01*
X109987905Y-114040145D01*
X110016826Y-114049703D01*
X110072800Y-114057448D01*
X110143447Y-114062676D01*
X110216390Y-114064684D01*
X110279249Y-114062769D01*
X110319646Y-114056229D01*
X110322292Y-114055174D01*
X110360520Y-114018361D01*
X110391164Y-113948954D01*
X110405402Y-113906751D01*
X110422247Y-113879602D01*
X110437674Y-113888006D01*
X110452155Y-113905722D01*
X110457176Y-113890263D01*
X110459540Y-113879245D01*
X110478921Y-113875464D01*
X110481156Y-113877255D01*
X110494774Y-113910042D01*
X110500337Y-113963924D01*
X110501689Y-114002983D01*
X110509660Y-114022668D01*
X110528146Y-114010847D01*
X110555853Y-113978728D01*
X110601623Y-113920621D01*
X110658993Y-113844998D01*
X110722600Y-113759228D01*
X110787077Y-113670683D01*
X110847062Y-113586734D01*
X110897190Y-113514749D01*
X110932097Y-113462101D01*
X110946417Y-113436160D01*
X110955214Y-113413280D01*
X110983896Y-113370490D01*
X111007782Y-113336680D01*
X111007259Y-113300711D01*
X110966147Y-113276393D01*
X110917959Y-113261280D01*
X110971501Y-113243905D01*
X111003958Y-113231354D01*
X111009121Y-113224395D01*
X111007701Y-113223875D01*
X111012587Y-113205269D01*
X111039464Y-113169053D01*
X111043657Y-113164236D01*
X111074399Y-113132580D01*
X111093469Y-113131302D01*
X111115494Y-113158345D01*
X111140459Y-113184849D01*
X111174387Y-113200844D01*
X111186074Y-113202390D01*
X111210652Y-113221059D01*
X111212802Y-113223723D01*
X111242976Y-113243612D01*
X111303891Y-113277486D01*
X111389805Y-113322566D01*
X111494972Y-113376068D01*
X111613648Y-113435211D01*
X111740089Y-113497214D01*
X111868550Y-113559295D01*
X111993286Y-113618672D01*
X112108554Y-113672564D01*
X112208609Y-113718188D01*
X112287706Y-113752764D01*
X112340101Y-113773509D01*
X112360050Y-113777642D01*
X112363389Y-113771837D01*
X112387219Y-113769759D01*
X112390881Y-113770821D01*
X112413212Y-113754205D01*
X112438093Y-113710997D01*
X112456209Y-113672308D01*
X112466710Y-113662742D01*
X112469819Y-113688070D01*
X112474593Y-113718069D01*
X112490082Y-113736257D01*
X112497933Y-113730715D01*
X112528295Y-113696764D01*
X112575785Y-113637068D01*
X112635714Y-113557607D01*
X112703391Y-113464359D01*
X112774339Y-113363279D01*
X112829717Y-113279655D01*
X112863179Y-113221505D01*
X112877160Y-113184554D01*
X112874093Y-113164528D01*
X112863564Y-113143452D01*
X112887663Y-113136594D01*
X112910953Y-113128716D01*
X112935553Y-113094002D01*
X112945559Y-113070447D01*
X112963072Y-113061534D01*
X112967701Y-113057938D01*
X112990834Y-113025646D01*
X113029779Y-112964817D01*
X113081139Y-112881281D01*
X113141516Y-112780865D01*
X113207513Y-112669398D01*
X113275734Y-112552707D01*
X113342780Y-112436622D01*
X113405254Y-112326970D01*
X113459758Y-112229580D01*
X113502897Y-112150279D01*
X113531271Y-112094896D01*
X113541484Y-112069259D01*
X113532471Y-112055074D01*
X113495307Y-112031007D01*
X113444322Y-112009820D01*
X113395915Y-111999383D01*
X113395280Y-111999344D01*
X113384527Y-111993616D01*
X113412985Y-111982351D01*
X113435875Y-111975463D01*
X113448829Y-111965244D01*
X113431733Y-111948962D01*
X113380860Y-111919302D01*
X113355870Y-111905623D01*
X113304172Y-111879787D01*
X113273777Y-111868166D01*
X113244202Y-111852455D01*
X113211944Y-111814375D01*
X113191650Y-111770842D01*
X113193613Y-111738505D01*
X113194601Y-111736685D01*
X113195000Y-111700293D01*
X113183775Y-111623072D01*
X113160990Y-111505352D01*
X113126707Y-111347463D01*
X113080991Y-111149737D01*
X113080020Y-111145629D01*
X113044683Y-110997187D01*
X113012308Y-110863126D01*
X112984252Y-110748911D01*
X112961871Y-110660009D01*
X112946522Y-110601884D01*
X112939562Y-110580003D01*
X112925441Y-110570678D01*
X112888280Y-110549004D01*
X112888001Y-110548848D01*
X112863065Y-110530441D01*
X112877572Y-110524101D01*
X112882871Y-110523904D01*
X112898894Y-110519196D01*
X112877572Y-110502361D01*
X112873351Y-110499602D01*
X112857869Y-110484768D01*
X112882172Y-110481273D01*
X112916188Y-110466234D01*
X112949134Y-110425486D01*
X112963238Y-110376918D01*
X112961056Y-110369339D01*
X112937812Y-110334810D01*
X112897341Y-110289844D01*
X112876296Y-110267774D01*
X112853388Y-110234651D01*
X112864462Y-110223947D01*
X112891447Y-110212942D01*
X112922845Y-110176553D01*
X112948210Y-110129159D01*
X112965742Y-110176553D01*
X112983893Y-110206117D01*
X113016089Y-110223947D01*
X113038047Y-110226548D01*
X113045706Y-110243978D01*
X113016779Y-110280547D01*
X113015229Y-110282183D01*
X112993583Y-110326713D01*
X112984654Y-110386790D01*
X112985158Y-110405687D01*
X112997747Y-110454220D01*
X113032841Y-110480277D01*
X113059623Y-110493727D01*
X113059612Y-110501332D01*
X113052763Y-110505248D01*
X113067796Y-110521765D01*
X113072313Y-110524775D01*
X113081026Y-110540770D01*
X113050839Y-110555289D01*
X113022489Y-110570911D01*
X113015458Y-110605817D01*
X113017370Y-110612702D01*
X113028208Y-110655681D01*
X113046384Y-110729989D01*
X113070318Y-110828991D01*
X113098433Y-110946054D01*
X113129151Y-111074544D01*
X113160893Y-111207828D01*
X113192082Y-111339270D01*
X113221139Y-111462238D01*
X113246486Y-111570098D01*
X113266545Y-111656215D01*
X113279737Y-111713956D01*
X113284486Y-111736687D01*
X113290110Y-111740851D01*
X113321964Y-111744848D01*
X113325088Y-111744887D01*
X113346712Y-111749120D01*
X113327939Y-111765100D01*
X113318202Y-111771228D01*
X113306140Y-111782373D01*
X113312248Y-111795868D01*
X113342257Y-111818988D01*
X113401894Y-111859009D01*
X113479224Y-111902973D01*
X113535748Y-111914677D01*
X113575030Y-111892403D01*
X113602292Y-111835540D01*
X113603775Y-111830277D01*
X113613933Y-111779007D01*
X113626824Y-111695248D01*
X113641701Y-111585815D01*
X113657814Y-111457523D01*
X113674414Y-111317188D01*
X113690752Y-111171625D01*
X113706080Y-111027648D01*
X113719649Y-110892073D01*
X113730709Y-110771716D01*
X113738512Y-110673391D01*
X113742309Y-110603914D01*
X113741350Y-110570100D01*
X113725899Y-110542418D01*
X113684065Y-110513608D01*
X113678238Y-110511773D01*
X113654332Y-110499268D01*
X113669983Y-110487632D01*
X113695365Y-110472837D01*
X113734233Y-110436281D01*
X113734430Y-110436038D01*
X113758471Y-110411459D01*
X113779323Y-110414905D01*
X113812270Y-110448834D01*
X113832727Y-110473778D01*
X113844527Y-110502856D01*
X113828568Y-110525470D01*
X113814422Y-110541162D01*
X113809410Y-110566967D01*
X113810129Y-110574163D01*
X113808135Y-110617919D01*
X113801933Y-110696374D01*
X113792016Y-110804272D01*
X113778879Y-110936360D01*
X113763017Y-111087381D01*
X113744925Y-111252083D01*
X113735929Y-111332506D01*
X113718191Y-111492427D01*
X113702380Y-111636748D01*
X113689074Y-111760077D01*
X113678854Y-111857022D01*
X113672297Y-111922191D01*
X113669983Y-111950191D01*
X113689965Y-111973060D01*
X113750295Y-111981942D01*
X113756635Y-111982094D01*
X113801050Y-111984372D01*
X113806468Y-111989607D01*
X113776390Y-112000256D01*
X113701641Y-112030906D01*
X113647116Y-112071402D01*
X113627150Y-112113753D01*
X113623031Y-112133845D01*
X113600379Y-112151902D01*
X113583825Y-112165082D01*
X113550248Y-112209195D01*
X113506350Y-112276958D01*
X113457378Y-112360713D01*
X113449756Y-112374350D01*
X113391441Y-112477622D01*
X113320907Y-112601183D01*
X113246365Y-112730702D01*
X113176024Y-112851845D01*
X113144290Y-112907067D01*
X113094398Y-112998161D01*
X113057132Y-113072002D01*
X113035674Y-113122127D01*
X113033205Y-113142069D01*
X113032123Y-113157751D01*
X113006411Y-113195094D01*
X112961186Y-113245337D01*
X112949711Y-113257448D01*
X112902814Y-113311784D01*
X112843391Y-113385431D01*
X112777064Y-113470859D01*
X112709456Y-113560540D01*
X112646188Y-113646945D01*
X112592882Y-113722545D01*
X112555159Y-113779811D01*
X112538642Y-113811215D01*
X112538453Y-113813428D01*
X112557745Y-113831124D01*
X112562705Y-113832631D01*
X112603668Y-113845078D01*
G37*
D13*
%TO.C,U5*%
X114500000Y-115709855D02*
X114500000Y-115690145D01*
X115155144Y-114900000D02*
X115844856Y-114900000D01*
X115844856Y-116500000D02*
X115155144Y-116500000D01*
X116500000Y-115690145D02*
X116500000Y-115709855D01*
X116380113Y-116900025D02*
G75*
G02*
X116239903Y-116900025I-70105J0D01*
G01*
X116239903Y-116900025D02*
G75*
G02*
X116380113Y-116900025I70105J0D01*
G01*
X116529692Y-116500254D02*
G75*
G02*
X116469698Y-116500254I-29997J0D01*
G01*
X116469698Y-116500254D02*
G75*
G02*
X116529692Y-116500254I29997J0D01*
G01*
%TO.C,C7*%
X118440000Y-114607836D02*
X118440000Y-114392164D01*
X119160000Y-114607836D02*
X119160000Y-114392164D01*
%TO.C,LED1*%
X103785268Y-101757226D02*
X104166269Y-101376226D01*
X103785268Y-103281229D02*
X103785268Y-101757226D01*
X103785268Y-104043231D02*
X103785268Y-105592634D01*
X103785268Y-105592634D02*
X105817272Y-105592634D01*
X104166269Y-101376226D02*
X105436271Y-101376226D01*
X104700000Y-103400000D02*
X104300000Y-103800000D01*
X104800000Y-103300000D02*
X104700000Y-103400000D01*
X104900254Y-103400000D02*
X104800000Y-103300000D01*
X105300254Y-103800000D02*
X104300000Y-103800000D01*
X105300254Y-103800000D02*
X104900254Y-103400000D01*
X105436271Y-101376226D02*
X105842672Y-101782626D01*
X105817272Y-105592634D02*
X105817272Y-104043231D01*
X105842672Y-101782626D02*
X105842672Y-103255829D01*
X104204877Y-104600000D02*
G75*
G02*
X104144933Y-104600000I-29972J0D01*
G01*
X104144933Y-104600000D02*
G75*
G02*
X104204877Y-104600000I29972J0D01*
G01*
%TO.C,C18*%
X116907836Y-112140000D02*
X116692164Y-112140000D01*
X116907836Y-112860000D02*
X116692164Y-112860000D01*
%TO.C,C4*%
X117340000Y-114607836D02*
X117340000Y-114392164D01*
X118060000Y-114607836D02*
X118060000Y-114392164D01*
%TO.C,C10*%
X117292164Y-107940000D02*
X117507836Y-107940000D01*
X117292164Y-108660000D02*
X117507836Y-108660000D01*
%TO.C,C6*%
X123392164Y-111440000D02*
X123607836Y-111440000D01*
X123392164Y-112160000D02*
X123607836Y-112160000D01*
%TO.C,C11*%
X126207836Y-105740000D02*
X125992164Y-105740000D01*
X126207836Y-106460000D02*
X125992164Y-106460000D01*
%TO.C,L1*%
X123284049Y-100408738D02*
X123284049Y-100535738D01*
X123284049Y-100535738D02*
X123284049Y-101678740D01*
X123284049Y-102440742D02*
X123284049Y-103710744D01*
X123284049Y-103710744D02*
X123538049Y-103964745D01*
X123538049Y-100154737D02*
X123284049Y-100408738D01*
X123538049Y-103964745D02*
X123665050Y-103964745D01*
X123665050Y-103964745D02*
X125062052Y-103964745D01*
X124935052Y-100154737D02*
X123538049Y-100154737D01*
X125062052Y-100154737D02*
X124935052Y-100154737D01*
X125062052Y-103964745D02*
X125316053Y-103710744D01*
X125316053Y-100408738D02*
X125062052Y-100154737D01*
X125316053Y-101678740D02*
X125316053Y-100408738D01*
X125316053Y-103583744D02*
X125316053Y-102440742D01*
X125316053Y-103710744D02*
X125316053Y-103583744D01*
X124967437Y-101100000D02*
G75*
G02*
X124907443Y-101100000I-29997J0D01*
G01*
X124907443Y-101100000D02*
G75*
G02*
X124967437Y-101100000I29997J0D01*
G01*
%TO.C,C8*%
X126907836Y-108840000D02*
X126692164Y-108840000D01*
X126907836Y-109560000D02*
X126692164Y-109560000D01*
%TO.C,U2*%
X129023673Y-100763805D02*
X130776073Y-100763805D01*
X129023673Y-101805410D02*
X129023673Y-100763805D01*
X129023673Y-102794590D02*
X129023673Y-103836195D01*
X129023673Y-103836195D02*
X130776073Y-103836195D01*
X130776073Y-101844602D02*
X130776073Y-102755398D01*
X131329870Y-100840005D02*
G75*
G02*
X131269876Y-100840005I-29997J0D01*
G01*
X131269876Y-100840005D02*
G75*
G02*
X131329870Y-100840005I29997J0D01*
G01*
%TO.C,C14*%
X126190000Y-101484420D02*
X126190000Y-101765580D01*
X127210000Y-101484420D02*
X127210000Y-101765580D01*
%TO.C,C16*%
X125559420Y-104190000D02*
X125840580Y-104190000D01*
X125559420Y-105210000D02*
X125840580Y-105210000D01*
%TO.C,R3*%
X114920000Y-110346359D02*
X114920000Y-110653641D01*
X115680000Y-110346359D02*
X115680000Y-110653641D01*
%TO.C,LED2*%
X106385268Y-101757226D02*
X106766269Y-101376226D01*
X106385268Y-103281229D02*
X106385268Y-101757226D01*
X106385268Y-104043231D02*
X106385268Y-105592634D01*
X106385268Y-105592634D02*
X108417272Y-105592634D01*
X106766269Y-101376226D02*
X108036271Y-101376226D01*
X107300000Y-103400000D02*
X106900000Y-103800000D01*
X107400000Y-103300000D02*
X107300000Y-103400000D01*
X107500254Y-103400000D02*
X107400000Y-103300000D01*
X107900254Y-103800000D02*
X106900000Y-103800000D01*
X107900254Y-103800000D02*
X107500254Y-103400000D01*
X108036271Y-101376226D02*
X108442672Y-101782626D01*
X108417272Y-105592634D02*
X108417272Y-104043231D01*
X108442672Y-101782626D02*
X108442672Y-103255829D01*
X106804877Y-104600000D02*
G75*
G02*
X106744933Y-104600000I-29972J0D01*
G01*
X106744933Y-104600000D02*
G75*
G02*
X106804877Y-104600000I29972J0D01*
G01*
%TO.C,R4*%
X113820000Y-112846359D02*
X113820000Y-113153641D01*
X114580000Y-112846359D02*
X114580000Y-113153641D01*
%TO.C,C1*%
X126159420Y-110390000D02*
X126440580Y-110390000D01*
X126159420Y-111410000D02*
X126440580Y-111410000D01*
%TO.C,C5*%
X123392164Y-110240000D02*
X123607836Y-110240000D01*
X123392164Y-110960000D02*
X123607836Y-110960000D01*
%TO.C,R5*%
X109477500Y-105162742D02*
X109477500Y-105637258D01*
X110522500Y-105162742D02*
X110522500Y-105637258D01*
%TO.C,C13*%
X114092164Y-108240000D02*
X114307836Y-108240000D01*
X114092164Y-108960000D02*
X114307836Y-108960000D01*
%TO.C,J1*%
X120870000Y-116970000D02*
X120870000Y-119630000D01*
X120870000Y-116970000D02*
X126010000Y-116970000D01*
X120870000Y-119630000D02*
X126010000Y-119630000D01*
X126010000Y-116970000D02*
X126010000Y-119630000D01*
X127280000Y-116970000D02*
X128610000Y-116970000D01*
X128610000Y-116970000D02*
X128610000Y-118300000D01*
%TO.C,R6*%
X110662742Y-100577500D02*
X111137258Y-100577500D01*
X110662742Y-101622500D02*
X111137258Y-101622500D01*
%TO.C,C2*%
X119540000Y-114587836D02*
X119540000Y-114372164D01*
X120260000Y-114587836D02*
X120260000Y-114372164D01*
%TD*%
%LPC*%
D16*
%TO.C,H2*%
X102500000Y-117500000D03*
%TD*%
%TO.C,H1*%
X132400000Y-117500000D03*
%TD*%
D17*
%TO.C,C12*%
X121880000Y-104400000D03*
X120920000Y-104400000D03*
%TD*%
D18*
%TO.C,U6*%
X102019990Y-107300000D03*
X102019990Y-112380010D03*
X107100000Y-112380010D03*
X107100000Y-107300000D03*
X104559995Y-109840005D03*
%TD*%
D19*
%TO.C,C15*%
X132900000Y-103175000D03*
X132900000Y-101625000D03*
%TD*%
D20*
%TO.C,J3*%
X116375000Y-101825000D03*
D21*
X118915000Y-101825000D03*
X121455000Y-101825000D03*
%TD*%
D22*
%TO.C,C17*%
X115420000Y-113800000D03*
X116380000Y-113800000D03*
%TD*%
D23*
%TO.C,U4*%
X129800000Y-106819964D03*
X129800000Y-112600000D03*
D24*
X128729896Y-106509830D03*
X128729896Y-107309931D03*
D25*
X128729896Y-107959919D03*
X128729896Y-108460046D03*
X128729896Y-108959919D03*
X128729896Y-109459791D03*
X128729896Y-109959919D03*
X128729896Y-110459791D03*
X128729896Y-110959919D03*
X128729896Y-111460046D03*
D24*
X128729896Y-112110033D03*
X128729896Y-112909880D03*
D26*
X133479960Y-105384861D03*
D27*
X129279807Y-105384861D03*
D26*
X133479960Y-114034849D03*
D27*
X129279807Y-114034849D03*
%TD*%
D22*
%TO.C,C3*%
X123040000Y-109400000D03*
X124000000Y-109400000D03*
%TD*%
D28*
%TO.C,U3*%
X112690018Y-107300000D03*
X112690018Y-106799873D03*
X112690018Y-106300000D03*
X112690018Y-105799873D03*
X112690018Y-105300000D03*
X116909982Y-105300000D03*
X116909982Y-105799873D03*
X116909982Y-106300000D03*
X116909982Y-106799873D03*
X116909982Y-107300000D03*
%TD*%
D29*
%TO.C,R1*%
X126990000Y-115320000D03*
X126990000Y-114300000D03*
%TD*%
D30*
%TO.C,C9*%
X113075000Y-103000000D03*
X111525000Y-103000000D03*
%TD*%
D29*
%TO.C,R2*%
X125000000Y-115320000D03*
X125000000Y-114300000D03*
%TD*%
D22*
%TO.C,C19*%
X125620000Y-107300000D03*
X126580000Y-107300000D03*
%TD*%
D31*
%TO.C,U5*%
X116324994Y-116265024D03*
X114675006Y-116265024D03*
X114675006Y-115134976D03*
X116324994Y-115134976D03*
%TD*%
D32*
%TO.C,C7*%
X118800000Y-114020000D03*
X118800000Y-114980000D03*
%TD*%
D33*
%TO.C,LED1*%
X104800000Y-104650292D03*
X104800000Y-102549708D03*
%TD*%
D22*
%TO.C,C18*%
X116320000Y-112500000D03*
X117280000Y-112500000D03*
%TD*%
D32*
%TO.C,C4*%
X117700000Y-114020000D03*
X117700000Y-114980000D03*
%TD*%
D17*
%TO.C,C10*%
X117880000Y-108300000D03*
X116920000Y-108300000D03*
%TD*%
%TO.C,C6*%
X123980000Y-111800000D03*
X123020000Y-111800000D03*
%TD*%
D22*
%TO.C,C11*%
X125620000Y-106100000D03*
X126580000Y-106100000D03*
%TD*%
D34*
%TO.C,L1*%
X124300000Y-101133782D03*
X124300000Y-103066218D03*
%TD*%
D22*
%TO.C,C8*%
X126320000Y-109200000D03*
X127280000Y-109200000D03*
%TD*%
D35*
%TO.C,U2*%
X131135077Y-101350038D03*
X131135077Y-103249962D03*
X128664923Y-102300000D03*
%TD*%
D19*
%TO.C,C14*%
X126700000Y-102400000D03*
X126700000Y-100850000D03*
%TD*%
D30*
%TO.C,C16*%
X126475000Y-104700000D03*
X124925000Y-104700000D03*
%TD*%
D29*
%TO.C,R3*%
X115300000Y-111010000D03*
X115300000Y-109990000D03*
%TD*%
D33*
%TO.C,LED2*%
X107400000Y-104650292D03*
X107400000Y-102549708D03*
%TD*%
D29*
%TO.C,R4*%
X114200000Y-113510000D03*
X114200000Y-112490000D03*
%TD*%
D30*
%TO.C,C1*%
X127075000Y-110900000D03*
X125525000Y-110900000D03*
%TD*%
D17*
%TO.C,C5*%
X123980000Y-110600000D03*
X123020000Y-110600000D03*
%TD*%
D36*
%TO.C,R5*%
X110000000Y-106225000D03*
X110000000Y-104575000D03*
%TD*%
D17*
%TO.C,C13*%
X114680000Y-108600000D03*
X113720000Y-108600000D03*
%TD*%
D20*
%TO.C,J1*%
X127280000Y-118300000D03*
D21*
X124740000Y-118300000D03*
X122200000Y-118300000D03*
%TD*%
D37*
%TO.C,R6*%
X111725000Y-101100000D03*
X110075000Y-101100000D03*
%TD*%
D32*
%TO.C,C2*%
X119900000Y-114000000D03*
X119900000Y-114960000D03*
%TD*%
%LPD*%
M02*
