%TF.GenerationSoftware,KiCad,Pcbnew,8.0.0*%
%TF.CreationDate,2024-03-05T20:17:21-06:00*%
%TF.ProjectId,rigel-a-hw,72696765-6c2d-4612-9d68-772e6b696361,rev?*%
%TF.SameCoordinates,Original*%
%TF.FileFunction,Copper,L4,Bot*%
%TF.FilePolarity,Positive*%
%FSLAX46Y46*%
G04 Gerber Fmt 4.6, Leading zero omitted, Abs format (unit mm)*
G04 Created by KiCad (PCBNEW 8.0.0) date 2024-03-05 20:17:21*
%MOMM*%
%LPD*%
G01*
G04 APERTURE LIST*
G04 Aperture macros list*
%AMRoundRect*
0 Rectangle with rounded corners*
0 $1 Rounding radius*
0 $2 $3 $4 $5 $6 $7 $8 $9 X,Y pos of 4 corners*
0 Add a 4 corners polygon primitive as box body*
4,1,4,$2,$3,$4,$5,$6,$7,$8,$9,$2,$3,0*
0 Add four circle primitives for the rounded corners*
1,1,$1+$1,$2,$3*
1,1,$1+$1,$4,$5*
1,1,$1+$1,$6,$7*
1,1,$1+$1,$8,$9*
0 Add four rect primitives between the rounded corners*
20,1,$1+$1,$2,$3,$4,$5,0*
20,1,$1+$1,$4,$5,$6,$7,0*
20,1,$1+$1,$6,$7,$8,$9,0*
20,1,$1+$1,$8,$9,$2,$3,0*%
G04 Aperture macros list end*
%TA.AperFunction,SMDPad,CuDef*%
%ADD10RoundRect,0.140000X0.140000X0.170000X-0.140000X0.170000X-0.140000X-0.170000X0.140000X-0.170000X0*%
%TD*%
%TA.AperFunction,ComponentPad*%
%ADD11C,2.300000*%
%TD*%
%TA.AperFunction,SMDPad,CuDef*%
%ADD12RoundRect,0.225000X0.250000X-0.225000X0.250000X0.225000X-0.250000X0.225000X-0.250000X-0.225000X0*%
%TD*%
%TA.AperFunction,ComponentPad*%
%ADD13R,1.700000X1.700000*%
%TD*%
%TA.AperFunction,ComponentPad*%
%ADD14O,1.700000X1.700000*%
%TD*%
%TA.AperFunction,SMDPad,CuDef*%
%ADD15RoundRect,0.140000X-0.140000X-0.170000X0.140000X-0.170000X0.140000X0.170000X-0.140000X0.170000X0*%
%TD*%
%TA.AperFunction,SMDPad,CuDef*%
%ADD16R,1.100000X0.550013*%
%TD*%
%TA.AperFunction,SMDPad,CuDef*%
%ADD17R,1.100000X0.300000*%
%TD*%
%TA.AperFunction,ComponentPad*%
%ADD18O,1.800000X1.200000*%
%TD*%
%TA.AperFunction,ComponentPad*%
%ADD19O,2.000000X1.100000*%
%TD*%
%TA.AperFunction,SMDPad,CuDef*%
%ADD20O,1.620015X0.280010*%
%TD*%
%TA.AperFunction,SMDPad,CuDef*%
%ADD21RoundRect,0.135000X0.185000X-0.135000X0.185000X0.135000X-0.185000X0.135000X-0.185000X-0.135000X0*%
%TD*%
%TA.AperFunction,SMDPad,CuDef*%
%ADD22RoundRect,0.225000X0.225000X0.250000X-0.225000X0.250000X-0.225000X-0.250000X0.225000X-0.250000X0*%
%TD*%
%TA.AperFunction,SMDPad,CuDef*%
%ADD23R,0.600000X0.750013*%
%TD*%
%TA.AperFunction,SMDPad,CuDef*%
%ADD24RoundRect,0.140000X-0.170000X0.140000X-0.170000X-0.140000X0.170000X-0.140000X0.170000X0.140000X0*%
%TD*%
%TA.AperFunction,SMDPad,CuDef*%
%ADD25R,1.399543X1.000000*%
%TD*%
%TA.AperFunction,SMDPad,CuDef*%
%ADD26R,1.377013X1.132537*%
%TD*%
%TA.AperFunction,SMDPad,CuDef*%
%ADD27R,1.070003X0.600000*%
%TD*%
%TA.AperFunction,SMDPad,CuDef*%
%ADD28RoundRect,0.200000X0.275000X-0.200000X0.275000X0.200000X-0.275000X0.200000X-0.275000X-0.200000X0*%
%TD*%
%TA.AperFunction,SMDPad,CuDef*%
%ADD29RoundRect,0.200000X0.200000X0.275000X-0.200000X0.275000X-0.200000X-0.275000X0.200000X-0.275000X0*%
%TD*%
%TA.AperFunction,ViaPad*%
%ADD30C,0.450000*%
%TD*%
%TA.AperFunction,Conductor*%
%ADD31C,0.200000*%
%TD*%
%TA.AperFunction,Conductor*%
%ADD32C,0.500000*%
%TD*%
%TA.AperFunction,Conductor*%
%ADD33C,0.300000*%
%TD*%
%TA.AperFunction,Conductor*%
%ADD34C,0.250000*%
%TD*%
%TA.AperFunction,Conductor*%
%ADD35C,0.800000*%
%TD*%
G04 APERTURE END LIST*
D10*
%TO.P,C12,1*%
%TO.N,GND*%
X121880000Y-104400000D03*
%TO.P,C12,2*%
%TO.N,+3.3V*%
X120920000Y-104400000D03*
%TD*%
D11*
%TO.P,U6,1,GND*%
%TO.N,GND*%
X102019990Y-107300000D03*
%TO.P,U6,2,GND*%
X102019990Y-112380010D03*
%TO.P,U6,3,GND*%
X107100000Y-112380010D03*
%TO.P,U6,4,GND*%
X107100000Y-107300000D03*
%TO.P,U6,5,IN*%
%TO.N,Net-(U6-IN)*%
X104559995Y-109840005D03*
%TD*%
D12*
%TO.P,C15,1*%
%TO.N,+5V*%
X132900000Y-103175000D03*
%TO.P,C15,2*%
%TO.N,GND*%
X132900000Y-101625000D03*
%TD*%
D13*
%TO.P,J3,1,Pin_1*%
%TO.N,GND*%
X116375000Y-101825000D03*
D14*
%TO.P,J3,2,Pin_2*%
%TO.N,/USART1_RX*%
X118915000Y-101825000D03*
%TO.P,J3,3,Pin_3*%
%TO.N,/USART1_TX*%
X121455000Y-101825000D03*
%TD*%
D15*
%TO.P,C17,1*%
%TO.N,GND*%
X115420000Y-113800000D03*
%TO.P,C17,2*%
%TO.N,/PB0-VDD_TCXO*%
X116380000Y-113800000D03*
%TD*%
D16*
%TO.P,U4,1,GND*%
%TO.N,GND*%
X128729896Y-106509830D03*
%TO.P,U4,2,VBUS*%
%TO.N,+5V*%
X128729896Y-107309931D03*
D17*
%TO.P,U4,3,SBU2*%
%TO.N,unconnected-(U4-SBU2-Pad3)*%
X128729896Y-107959919D03*
%TO.P,U4,4,CC1*%
%TO.N,Net-(U4-CC1)*%
X128729896Y-108460046D03*
%TO.P,U4,5,DN2*%
%TO.N,USBD-*%
X128729896Y-108959919D03*
%TO.P,U4,6,DP1*%
%TO.N,USBD+*%
X128729896Y-109459791D03*
%TO.P,U4,7,DN1*%
%TO.N,USBD-*%
X128729896Y-109959919D03*
%TO.P,U4,8,DP2*%
%TO.N,USBD+*%
X128729896Y-110459791D03*
%TO.P,U4,9,SBU1*%
%TO.N,unconnected-(U4-SBU1-Pad9)*%
X128729896Y-110959919D03*
%TO.P,U4,10,CC2*%
%TO.N,Net-(U4-CC2)*%
X128729896Y-111460046D03*
D16*
%TO.P,U4,11,VBUS*%
%TO.N,+5V*%
X128729896Y-112110033D03*
%TO.P,U4,12,GND*%
%TO.N,GND*%
X128729896Y-112909880D03*
D18*
%TO.P,U4,13,SHELL*%
%TO.N,unconnected-(U4-SHELL-Pad13)_0*%
X133479960Y-105384861D03*
D19*
%TO.N,unconnected-(U4-SHELL-Pad13)*%
X129279807Y-105384861D03*
D18*
%TO.P,U4,14,SHELL*%
%TO.N,unconnected-(U4-SHELL-Pad14)_0*%
X133479960Y-114034849D03*
D19*
%TO.N,unconnected-(U4-SHELL-Pad14)*%
X129279807Y-114034849D03*
%TD*%
D15*
%TO.P,C3,1*%
%TO.N,GND*%
X123040000Y-109400000D03*
%TO.P,C3,2*%
%TO.N,Net-(U1-VDDA)*%
X124000000Y-109400000D03*
%TD*%
D20*
%TO.P,U3,1,UD+*%
%TO.N,USBD+*%
X112690018Y-107300000D03*
%TO.P,U3,2,UD-*%
%TO.N,USBD-*%
X112690018Y-106799873D03*
%TO.P,U3,3,GND*%
%TO.N,GND*%
X112690018Y-106300000D03*
%TO.P,U3,4,RTS#*%
%TO.N,/RESET*%
X112690018Y-105799873D03*
%TO.P,U3,5,CTS#*%
%TO.N,unconnected-(U3-CTS#-Pad5)*%
X112690018Y-105300000D03*
%TO.P,U3,6,TNOW/DTR#*%
%TO.N,/BOOT0*%
X116909982Y-105300000D03*
%TO.P,U3,7,VCC*%
%TO.N,+3.3V*%
X116909982Y-105799873D03*
%TO.P,U3,8,TXD*%
%TO.N,/USART2_RX*%
X116909982Y-106300000D03*
%TO.P,U3,9,RXD*%
%TO.N,/USART2_TX*%
X116909982Y-106799873D03*
%TO.P,U3,10,V3*%
%TO.N,+3.3V*%
X116909982Y-107300000D03*
%TD*%
D21*
%TO.P,R1,1*%
%TO.N,GND*%
X126990000Y-115320000D03*
%TO.P,R1,2*%
%TO.N,Net-(U4-CC1)*%
X126990000Y-114300000D03*
%TD*%
D22*
%TO.P,C9,1*%
%TO.N,+3.3V*%
X113075000Y-103000000D03*
%TO.P,C9,2*%
%TO.N,GND*%
X111525000Y-103000000D03*
%TD*%
D21*
%TO.P,R2,1*%
%TO.N,GND*%
X125000000Y-115320000D03*
%TO.P,R2,2*%
%TO.N,Net-(U4-CC2)*%
X125000000Y-114300000D03*
%TD*%
D15*
%TO.P,C19,1*%
%TO.N,+3.3V*%
X125620000Y-107300000D03*
%TO.P,C19,2*%
%TO.N,GND*%
X126580000Y-107300000D03*
%TD*%
D23*
%TO.P,U5,1,NC*%
%TO.N,unconnected-(U5-NC-Pad1)*%
X116324994Y-116265024D03*
%TO.P,U5,2,GND*%
%TO.N,GND*%
X114675006Y-116265024D03*
%TO.P,U5,3,OUT*%
%TO.N,Net-(U5-OUT)*%
X114675006Y-115134976D03*
%TO.P,U5,4,VCC*%
%TO.N,/PB0-VDD_TCXO*%
X116324994Y-115134976D03*
%TD*%
D24*
%TO.P,C7,1*%
%TO.N,+3.3V*%
X118800000Y-114020000D03*
%TO.P,C7,2*%
%TO.N,GND*%
X118800000Y-114980000D03*
%TD*%
D25*
%TO.P,LED1,1,A*%
%TO.N,Net-(LED1-A)*%
X104800000Y-104650292D03*
%TO.P,LED1,2,K*%
%TO.N,GND*%
X104800000Y-102549708D03*
%TD*%
D15*
%TO.P,C18,1*%
%TO.N,Net-(C18-Pad1)*%
X116320000Y-112500000D03*
%TO.P,C18,2*%
%TO.N,/OSC_IN*%
X117280000Y-112500000D03*
%TD*%
D24*
%TO.P,C4,1*%
%TO.N,+3.3V*%
X117700000Y-114020000D03*
%TO.P,C4,2*%
%TO.N,GND*%
X117700000Y-114980000D03*
%TD*%
D10*
%TO.P,C10,1*%
%TO.N,GND*%
X117880000Y-108300000D03*
%TO.P,C10,2*%
%TO.N,+3.3V*%
X116920000Y-108300000D03*
%TD*%
%TO.P,C6,1*%
%TO.N,+3.3V*%
X123980000Y-111800000D03*
%TO.P,C6,2*%
%TO.N,GND*%
X123020000Y-111800000D03*
%TD*%
D15*
%TO.P,C11,1*%
%TO.N,+3.3V*%
X125620000Y-106100000D03*
%TO.P,C11,2*%
%TO.N,GND*%
X126580000Y-106100000D03*
%TD*%
D26*
%TO.P,L1,1,1*%
%TO.N,+3.3V*%
X124300000Y-101133782D03*
%TO.P,L1,2,2*%
%TO.N,Net-(U1-VDDA)*%
X124300000Y-103066218D03*
%TD*%
D15*
%TO.P,C8,1*%
%TO.N,+3.3V*%
X126320000Y-109200000D03*
%TO.P,C8,2*%
%TO.N,GND*%
X127280000Y-109200000D03*
%TD*%
D27*
%TO.P,U2,1,GND*%
%TO.N,GND*%
X131135077Y-101350038D03*
%TO.P,U2,2,Vin*%
%TO.N,+5V*%
X131135077Y-103249962D03*
%TO.P,U2,3,Vout*%
%TO.N,+3.3V*%
X128664923Y-102300000D03*
%TD*%
D12*
%TO.P,C14,1*%
%TO.N,+3.3V*%
X126700000Y-102400000D03*
%TO.P,C14,2*%
%TO.N,GND*%
X126700000Y-100850000D03*
%TD*%
D22*
%TO.P,C16,1*%
%TO.N,GND*%
X126475000Y-104700000D03*
%TO.P,C16,2*%
%TO.N,Net-(U1-VDDA)*%
X124925000Y-104700000D03*
%TD*%
D21*
%TO.P,R3,1*%
%TO.N,GND*%
X115300000Y-111010000D03*
%TO.P,R3,2*%
%TO.N,/BOOT0*%
X115300000Y-109990000D03*
%TD*%
D25*
%TO.P,LED2,1,A*%
%TO.N,Net-(LED2-A)*%
X107400000Y-104650292D03*
%TO.P,LED2,2,K*%
%TO.N,GND*%
X107400000Y-102549708D03*
%TD*%
D21*
%TO.P,R4,1*%
%TO.N,Net-(U5-OUT)*%
X114200000Y-113510000D03*
%TO.P,R4,2*%
%TO.N,Net-(C18-Pad1)*%
X114200000Y-112490000D03*
%TD*%
D22*
%TO.P,C1,1*%
%TO.N,GND*%
X127075000Y-110900000D03*
%TO.P,C1,2*%
%TO.N,+1V5*%
X125525000Y-110900000D03*
%TD*%
D10*
%TO.P,C5,1*%
%TO.N,+3.3V*%
X123980000Y-110600000D03*
%TO.P,C5,2*%
%TO.N,GND*%
X123020000Y-110600000D03*
%TD*%
D28*
%TO.P,R5,1*%
%TO.N,/TIM1_CH2_LED_2*%
X110000000Y-106225000D03*
%TO.P,R5,2*%
%TO.N,Net-(LED2-A)*%
X110000000Y-104575000D03*
%TD*%
D10*
%TO.P,C13,1*%
%TO.N,/RESET*%
X114680000Y-108600000D03*
%TO.P,C13,2*%
%TO.N,GND*%
X113720000Y-108600000D03*
%TD*%
D13*
%TO.P,J1,1,Pin_1*%
%TO.N,GND*%
X127280000Y-118300000D03*
D14*
%TO.P,J1,2,Pin_2*%
%TO.N,/JTCK{slash}SWCLK*%
X124740000Y-118300000D03*
%TO.P,J1,3,Pin_3*%
%TO.N,/JTMS{slash}SWDIO*%
X122200000Y-118300000D03*
%TD*%
D29*
%TO.P,R6,1*%
%TO.N,/TIM1_CH1_LED_1*%
X111725000Y-101100000D03*
%TO.P,R6,2*%
%TO.N,Net-(LED1-A)*%
X110075000Y-101100000D03*
%TD*%
D24*
%TO.P,C2,1*%
%TO.N,+1V5*%
X119900000Y-114000000D03*
%TO.P,C2,2*%
%TO.N,GND*%
X119900000Y-114960000D03*
%TD*%
D30*
%TO.N,+3.3V*%
X119100000Y-113500000D03*
%TO.N,GND*%
X126213102Y-105591148D03*
%TO.N,+3.3V*%
X125800000Y-107600000D03*
X126400000Y-108600000D03*
%TO.N,+1V5*%
X124859082Y-107847105D03*
%TO.N,GND*%
X134000000Y-112600000D03*
X132800000Y-112600000D03*
%TO.N,/RESET*%
X115400000Y-108600000D03*
%TO.N,+3.3V*%
X119800000Y-103800000D03*
%TO.N,+1V5*%
X119900000Y-113400000D03*
%TO.N,GND*%
X104140000Y-115570000D03*
X114300000Y-119380000D03*
X129540000Y-101600000D03*
X107950000Y-114300000D03*
X123000000Y-108000000D03*
X133350000Y-111760000D03*
X131060000Y-106660000D03*
X128500000Y-103500000D03*
X109220000Y-116840000D03*
X132080000Y-115570000D03*
X109800000Y-111000000D03*
X120000000Y-100500000D03*
X115500000Y-114600000D03*
X128500000Y-101000000D03*
X102870000Y-104140000D03*
X118200000Y-110000000D03*
X127000000Y-111000000D03*
X121000000Y-108000000D03*
X101600000Y-119380000D03*
X116000000Y-100500000D03*
X114000000Y-109200000D03*
X113215018Y-108800000D03*
X113800000Y-115600000D03*
X133600000Y-107930000D03*
X129900000Y-117000000D03*
X111500000Y-104000000D03*
X106000000Y-105800000D03*
X118200000Y-109000000D03*
X118110000Y-118110000D03*
X102000000Y-100800000D03*
X105410000Y-116840000D03*
X110500000Y-109200000D03*
X114200000Y-111795000D03*
X104200000Y-100500000D03*
X132080000Y-119380000D03*
X124000000Y-115000000D03*
X132080000Y-104140000D03*
X128200000Y-113200000D03*
X109000000Y-110600000D03*
X119000000Y-107000000D03*
X103700000Y-106200000D03*
X122000000Y-108000000D03*
X121200000Y-115000000D03*
X110100000Y-108400000D03*
X126000000Y-104500000D03*
X113030000Y-119380000D03*
X102870000Y-101600000D03*
X104600000Y-101300000D03*
X105500000Y-100500000D03*
X133600000Y-110470000D03*
X114000000Y-100500000D03*
X107300000Y-109000000D03*
X123000000Y-107000000D03*
X132330000Y-106660000D03*
X105500000Y-102000000D03*
X120000000Y-107000000D03*
X101600000Y-104140000D03*
X123000000Y-110000000D03*
X121000000Y-109000000D03*
X132330000Y-110470000D03*
X133350000Y-101600000D03*
X109000000Y-113200000D03*
X125800000Y-103500000D03*
X104600000Y-105800000D03*
X116840000Y-119380000D03*
X109300000Y-108800000D03*
X133350000Y-115570000D03*
X113405054Y-107863208D03*
X105410000Y-114300000D03*
X116500000Y-103500000D03*
X123000000Y-109000000D03*
X122000000Y-109000000D03*
X122200000Y-115000000D03*
X110490000Y-116840000D03*
X110490000Y-115570000D03*
X119000000Y-111000000D03*
X107300000Y-110400000D03*
X119380000Y-118110000D03*
X115570000Y-119380000D03*
X108200000Y-110600000D03*
X132330000Y-109200000D03*
X113030000Y-118110000D03*
X121000000Y-107000000D03*
X106680000Y-118110000D03*
X110500000Y-107600000D03*
X122000000Y-111000000D03*
X133600000Y-109200000D03*
X109220000Y-118110000D03*
X127500000Y-103500000D03*
X120650000Y-119380000D03*
X121000000Y-111000000D03*
X108700000Y-106000000D03*
X107000000Y-100500000D03*
X112165018Y-108000000D03*
X120000000Y-111000000D03*
X107950000Y-118110000D03*
X110600000Y-110600000D03*
X114300000Y-101600000D03*
X104600000Y-117500000D03*
X125000000Y-115000000D03*
X110490000Y-119380000D03*
X110000000Y-102500000D03*
X109220000Y-115570000D03*
X101600000Y-115570000D03*
X128275000Y-106200000D03*
X110000000Y-103500000D03*
X113500000Y-102000000D03*
X107950000Y-119380000D03*
X101000000Y-110500000D03*
X110400000Y-113200000D03*
X131060000Y-107930000D03*
X104140000Y-119380000D03*
X133350000Y-104140000D03*
X111055010Y-108400000D03*
X101600000Y-105410000D03*
X113400000Y-110830000D03*
X123000000Y-111000000D03*
X104140000Y-114300000D03*
X106680000Y-119380000D03*
X114300000Y-118110000D03*
X108500000Y-100500000D03*
X127000000Y-101000000D03*
X106680000Y-116840000D03*
X102870000Y-114300000D03*
X104000000Y-102000000D03*
X119380000Y-119380000D03*
X119000000Y-110000000D03*
X128000000Y-115000000D03*
X109220000Y-119380000D03*
X120650000Y-118110000D03*
X130810000Y-101600000D03*
X132330000Y-107930000D03*
X116840000Y-118110000D03*
X127000000Y-110000000D03*
X101000000Y-109000000D03*
X101600000Y-114300000D03*
X123500000Y-119400000D03*
X110490000Y-118110000D03*
X107000000Y-102000000D03*
X108400000Y-108800000D03*
X122000000Y-107000000D03*
X116200000Y-110900000D03*
X102800000Y-100400000D03*
X106100000Y-104800000D03*
X131060000Y-109200000D03*
X107950000Y-116840000D03*
X133600000Y-106660000D03*
X107950000Y-115570000D03*
X102870000Y-105410000D03*
X105410000Y-118110000D03*
X117500000Y-100500000D03*
X115570000Y-118110000D03*
X131000000Y-116200000D03*
X127000000Y-104500000D03*
X120000000Y-110000000D03*
X114400000Y-111000000D03*
X111500000Y-102500000D03*
X130810000Y-119380000D03*
X115200000Y-111400000D03*
X118200000Y-111000000D03*
X101600000Y-101600000D03*
X102870000Y-119380000D03*
X109300000Y-107600000D03*
X115000000Y-103500000D03*
X105410000Y-119380000D03*
X111760000Y-119380000D03*
X113488028Y-112821833D03*
X118200000Y-108000000D03*
X120000000Y-108000000D03*
X122000000Y-110000000D03*
X129400000Y-118300000D03*
X105200000Y-106500000D03*
X133350000Y-119380000D03*
X131200000Y-105410000D03*
X121000000Y-110000000D03*
X106100000Y-101300000D03*
X111760000Y-118110000D03*
X110200000Y-112000000D03*
X109000000Y-112000000D03*
X110400000Y-114400000D03*
X132080000Y-101600000D03*
X131400000Y-110200000D03*
X120000000Y-109000000D03*
X106680000Y-115570000D03*
X117770033Y-103206970D03*
X102870000Y-115570000D03*
X111760000Y-116840000D03*
X105410000Y-115570000D03*
X102870000Y-102870000D03*
X107800000Y-101300000D03*
X101600000Y-102870000D03*
X119000000Y-109000000D03*
X109220000Y-114300000D03*
X127000000Y-115000000D03*
X106680000Y-114300000D03*
X119000000Y-108000000D03*
X118110000Y-119380000D03*
X115400000Y-113100000D03*
%TO.N,+3.3V*%
X126700000Y-103400000D03*
X118000000Y-104500000D03*
X117391971Y-114291386D03*
X123200000Y-101100000D03*
X119100000Y-113500000D03*
X125000000Y-106500000D03*
X124755131Y-111770495D03*
%TO.N,+5V*%
X128000000Y-107300000D03*
X130000000Y-111600000D03*
%TO.N,/PB0-VDD_TCXO*%
X116800000Y-115300000D03*
%TO.N,/OSC_IN*%
X118290538Y-113366470D03*
%TO.N,Net-(U4-CC1)*%
X127000000Y-113800000D03*
X129900000Y-108500000D03*
%TO.N,/BOOT0*%
X115800000Y-109370000D03*
%TO.N,/TIM1_CH1_LED_1*%
X112500000Y-101100000D03*
%TO.N,/USART2_RX*%
X118884625Y-104900000D03*
%TO.N,/USART2_TX*%
X119800000Y-104600000D03*
%TO.N,/TIM1_CH2_LED_2*%
X111200000Y-106300000D03*
%TO.N,Net-(U1-VDDA)*%
X124800000Y-109800000D03*
%TD*%
D31*
%TO.N,+3.3V*%
X119100000Y-113720000D02*
X118800000Y-114020000D01*
X119100000Y-113500000D02*
X119100000Y-113720000D01*
D32*
%TO.N,+1V5*%
X119900000Y-114000000D02*
X119900000Y-113400000D01*
D33*
%TO.N,GND*%
X128690120Y-112909880D02*
X128400000Y-113200000D01*
X128400000Y-113200000D02*
X128200000Y-113200000D01*
D31*
%TO.N,Net-(U4-CC1)*%
X129900000Y-108500000D02*
X128769850Y-108500000D01*
D33*
%TO.N,GND*%
X128584830Y-106509830D02*
X128639726Y-106509830D01*
X128275000Y-106200000D02*
X128584830Y-106509830D01*
D31*
X126580000Y-106100000D02*
X126580000Y-105958046D01*
D32*
%TO.N,+5V*%
X127804991Y-107309931D02*
X128729896Y-107309931D01*
X127600000Y-107104940D02*
X127804991Y-107309931D01*
X127600000Y-105200454D02*
X127600000Y-107104940D01*
X129915139Y-104384861D02*
X128415593Y-104384861D01*
X128415593Y-104384861D02*
X127600000Y-105200454D01*
X131050038Y-103249962D02*
X129915139Y-104384861D01*
D33*
%TO.N,+3.3V*%
X125400000Y-106100000D02*
X125620000Y-106100000D01*
X125000000Y-106500000D02*
X125400000Y-106100000D01*
D32*
%TO.N,+1V5*%
X124859082Y-107847105D02*
X125525000Y-108513023D01*
X125525000Y-108513023D02*
X125525000Y-110900000D01*
D31*
%TO.N,+3.3V*%
X125800000Y-107600000D02*
X125800000Y-107480000D01*
X125800000Y-107480000D02*
X125620000Y-107300000D01*
X126320000Y-108680000D02*
X126400000Y-108600000D01*
X126320000Y-109200000D02*
X126320000Y-108680000D01*
D32*
%TO.N,Net-(U1-VDDA)*%
X124800000Y-109800000D02*
X124400000Y-109400000D01*
X124400000Y-109400000D02*
X124000000Y-109400000D01*
D33*
%TO.N,+3.3V*%
X123980000Y-110995364D02*
X123980000Y-110600000D01*
X124755131Y-111770495D02*
X123980000Y-110995364D01*
X124755131Y-111770495D02*
X124725626Y-111800000D01*
X124725626Y-111800000D02*
X123980000Y-111800000D01*
D31*
%TO.N,USBD+*%
X130059791Y-110459791D02*
X128729896Y-110459791D01*
X131300000Y-111700000D02*
X130059791Y-110459791D01*
X131300000Y-114200000D02*
X131300000Y-111700000D01*
X129400000Y-116100000D02*
X131300000Y-114200000D01*
X116924994Y-116940030D02*
X117765024Y-116100000D01*
X114075006Y-116940030D02*
X116924994Y-116940030D01*
X117765024Y-116100000D02*
X129400000Y-116100000D01*
X112690018Y-115555042D02*
X114075006Y-116940030D01*
X112690018Y-107300000D02*
X112690018Y-115555042D01*
%TO.N,USBD-*%
X111680010Y-106799873D02*
X112690018Y-106799873D01*
X111580010Y-106899873D02*
X111680010Y-106799873D01*
X111580010Y-115080010D02*
X111580010Y-106899873D01*
X117090679Y-117340030D02*
X113840030Y-117340030D01*
X113840030Y-117340030D02*
X111580010Y-115080010D01*
X117930710Y-116500000D02*
X117090679Y-117340030D01*
X129600000Y-116500000D02*
X117930710Y-116500000D01*
X131700000Y-111500000D02*
X131700000Y-114400000D01*
X130159919Y-109959919D02*
X131700000Y-111500000D01*
X128729896Y-109959919D02*
X130159919Y-109959919D01*
X131700000Y-114400000D02*
X129600000Y-116500000D01*
D33*
%TO.N,+5V*%
X129810032Y-111600000D02*
X129299999Y-112110033D01*
X130000000Y-111600000D02*
X129810032Y-111600000D01*
X129299999Y-112110033D02*
X128729896Y-112110033D01*
D31*
%TO.N,/BOOT0*%
X115800000Y-109490000D02*
X115300000Y-109990000D01*
X115800000Y-109370000D02*
X115800000Y-109490000D01*
X115925000Y-107890712D02*
X115260000Y-107225712D01*
X115899974Y-105300000D02*
X116909982Y-105300000D01*
X115925000Y-109245000D02*
X115925000Y-107890712D01*
X115800000Y-109370000D02*
X115925000Y-109245000D01*
X115260000Y-105939974D02*
X115899974Y-105300000D01*
X115260000Y-107225712D02*
X115260000Y-105939974D01*
%TO.N,/RESET*%
X114680000Y-108600000D02*
X115400000Y-108600000D01*
X114680000Y-107019847D02*
X114800000Y-106899847D01*
X114680000Y-108600000D02*
X114680000Y-107019847D01*
%TO.N,+3.3V*%
X120320000Y-103800000D02*
X120660000Y-104140000D01*
X119800000Y-103800000D02*
X120320000Y-103800000D01*
X118359625Y-105440375D02*
X118000127Y-105799873D01*
X118359625Y-104640375D02*
X118359625Y-105440375D01*
X119600000Y-104000000D02*
X119000000Y-104000000D01*
X119800000Y-103800000D02*
X119600000Y-104000000D01*
X119000000Y-104000000D02*
X118359625Y-104640375D01*
X118000127Y-105799873D02*
X116909982Y-105799873D01*
X120660000Y-104140000D02*
X120595000Y-104075000D01*
X120920000Y-104400000D02*
X120660000Y-104140000D01*
X115899974Y-107300000D02*
X116909982Y-107300000D01*
X115800000Y-107200026D02*
X115899974Y-107300000D01*
X115800000Y-106000000D02*
X115800000Y-107200026D01*
X116000127Y-105799873D02*
X115800000Y-106000000D01*
X116909982Y-105799873D02*
X116000127Y-105799873D01*
%TO.N,/USART2_RX*%
X118884625Y-105481061D02*
X118884625Y-104900000D01*
X118065686Y-106300000D02*
X118884625Y-105481061D01*
X116909982Y-106300000D02*
X118065686Y-106300000D01*
%TO.N,/USART2_TX*%
X118400127Y-106799873D02*
X116909982Y-106799873D01*
X119800000Y-105400000D02*
X118400127Y-106799873D01*
X119800000Y-104600000D02*
X119800000Y-105400000D01*
D32*
%TO.N,+1V5*%
X125525000Y-110900000D02*
X125525000Y-112029595D01*
X123554595Y-114000000D02*
X119900000Y-114000000D01*
X125525000Y-112029595D02*
X123554595Y-114000000D01*
D34*
%TO.N,+3.3V*%
X117663357Y-114020000D02*
X117391971Y-114291386D01*
D32*
X114575000Y-104500000D02*
X118000000Y-104500000D01*
D34*
X117700000Y-114020000D02*
X117663357Y-114020000D01*
D33*
X123980000Y-110600000D02*
X123980000Y-111800000D01*
X116909982Y-105799873D02*
X116900127Y-105799873D01*
D35*
X126800000Y-102300000D02*
X126700000Y-102400000D01*
D32*
X124300000Y-101133782D02*
X123233782Y-101133782D01*
X126700000Y-102400000D02*
X126700000Y-103400000D01*
X113075000Y-103000000D02*
X114575000Y-104500000D01*
D35*
X128664923Y-102300000D02*
X126800000Y-102300000D01*
D33*
X116920000Y-107310018D02*
X116909982Y-107300000D01*
D35*
X126225000Y-102400000D02*
X124958782Y-101133782D01*
D32*
X123233782Y-101133782D02*
X123200000Y-101100000D01*
D35*
X124958782Y-101133782D02*
X124300000Y-101133782D01*
D33*
X116920000Y-108300000D02*
X116920000Y-107310018D01*
X116900127Y-105799873D02*
X116900000Y-105800000D01*
D35*
X126700000Y-102400000D02*
X126225000Y-102400000D01*
D31*
%TO.N,/RESET*%
X113700026Y-105799873D02*
X112690018Y-105799873D01*
X114800000Y-106899847D02*
X113700026Y-105799873D01*
D32*
%TO.N,+5V*%
X131135077Y-103249962D02*
X132825038Y-103249962D01*
D33*
X128000000Y-107300000D02*
X128719965Y-107300000D01*
%TO.N,/PB0-VDD_TCXO*%
X116324994Y-115134976D02*
X116634976Y-115134976D01*
X116380000Y-113800000D02*
X116380000Y-115079970D01*
X116634976Y-115134976D02*
X116800000Y-115300000D01*
%TO.N,Net-(C18-Pad1)*%
X114200000Y-112490000D02*
X116310000Y-112490000D01*
%TO.N,/OSC_IN*%
X117424068Y-112500000D02*
X117280000Y-112500000D01*
X118290538Y-113366470D02*
X117424068Y-112500000D01*
%TO.N,Net-(LED1-A)*%
X105650000Y-103800292D02*
X104800000Y-104650292D01*
X110075000Y-101100000D02*
X110075000Y-101575000D01*
X107849708Y-103800292D02*
X105650000Y-103800292D01*
X110075000Y-101575000D02*
X107849708Y-103800292D01*
%TO.N,Net-(LED2-A)*%
X110000000Y-104575000D02*
X107475292Y-104575000D01*
D31*
%TO.N,Net-(U4-CC1)*%
X126990000Y-114300000D02*
X126990000Y-113810000D01*
X126990000Y-113810000D02*
X127000000Y-113800000D01*
%TO.N,Net-(U4-CC2)*%
X127939954Y-111460046D02*
X128729896Y-111460046D01*
X125100000Y-114300000D02*
X127939954Y-111460046D01*
D33*
%TO.N,Net-(U5-OUT)*%
X114675006Y-115134976D02*
X114200000Y-114659970D01*
X114200000Y-114659970D02*
X114200000Y-113510000D01*
%TO.N,/TIM1_CH1_LED_1*%
X112500000Y-101100000D02*
X111725000Y-101100000D01*
%TO.N,/TIM1_CH2_LED_2*%
X110000000Y-106225000D02*
X111125000Y-106225000D01*
X111125000Y-106225000D02*
X111200000Y-106300000D01*
D31*
%TO.N,USBD+*%
X127929768Y-110459791D02*
X127879896Y-110409919D01*
X127879896Y-109509919D02*
X127930024Y-109459791D01*
X127879896Y-110409919D02*
X127879896Y-109509919D01*
X127930024Y-109459791D02*
X128729896Y-109459791D01*
X128729896Y-110459791D02*
X127929768Y-110459791D01*
%TO.N,USBD-*%
X129529768Y-109959919D02*
X129579896Y-109909791D01*
X128729896Y-109959919D02*
X129529768Y-109959919D01*
X129559919Y-108959919D02*
X128729896Y-108959919D01*
X129579896Y-108979896D02*
X129559919Y-108959919D01*
X129579896Y-109909791D02*
X129579896Y-108979896D01*
D32*
%TO.N,Net-(U1-VDDA)*%
X124925000Y-103691218D02*
X124300000Y-103066218D01*
X124000000Y-109400000D02*
X124000000Y-105625000D01*
X124925000Y-104700000D02*
X124925000Y-103691218D01*
X124000000Y-105625000D02*
X124925000Y-104700000D01*
%TD*%
%TA.AperFunction,Conductor*%
%TO.N,GND*%
G36*
X123556587Y-100147185D02*
G01*
X123602342Y-100199989D01*
X123612286Y-100269147D01*
X123583261Y-100332703D01*
X123537002Y-100366061D01*
X123529359Y-100369226D01*
X123495093Y-100392121D01*
X123494494Y-100392488D01*
X123490633Y-100395099D01*
X123490086Y-100395466D01*
X123459732Y-100415749D01*
X123459731Y-100415750D01*
X123449307Y-100431349D01*
X123434402Y-100449618D01*
X123424461Y-100459675D01*
X123342561Y-100583794D01*
X123289209Y-100628908D01*
X123239063Y-100639500D01*
X123139374Y-100639500D01*
X123022254Y-100670882D01*
X123022247Y-100670884D01*
X122917252Y-100731503D01*
X122917244Y-100731509D01*
X122831509Y-100817244D01*
X122831503Y-100817252D01*
X122770884Y-100922247D01*
X122770882Y-100922254D01*
X122739500Y-101039374D01*
X122739500Y-101160626D01*
X122770451Y-101276135D01*
X122770882Y-101277745D01*
X122770884Y-101277752D01*
X122831503Y-101382747D01*
X122831507Y-101382752D01*
X122831508Y-101382754D01*
X122865290Y-101416536D01*
X122951028Y-101502274D01*
X123056035Y-101562900D01*
X123063074Y-101566964D01*
X123063037Y-101567028D01*
X123075998Y-101574049D01*
X123421372Y-101810453D01*
X123454432Y-101843885D01*
X123459728Y-101851811D01*
X123459730Y-101851813D01*
X123529358Y-101898337D01*
X123529362Y-101898339D01*
X123566132Y-101905652D01*
X123590760Y-101910551D01*
X124820810Y-101910550D01*
X124887849Y-101930235D01*
X124908486Y-101946864D01*
X124994514Y-102032892D01*
X125039390Y-102077768D01*
X125072874Y-102139091D01*
X125067890Y-102208783D01*
X125026018Y-102264716D01*
X124960554Y-102289133D01*
X124951708Y-102289449D01*
X123590762Y-102289449D01*
X123529358Y-102301662D01*
X123529356Y-102301663D01*
X123459729Y-102348187D01*
X123413206Y-102417814D01*
X123413204Y-102417818D01*
X123400993Y-102479211D01*
X123400993Y-103653217D01*
X123413206Y-103714621D01*
X123413207Y-103714623D01*
X123459731Y-103784250D01*
X123529358Y-103830773D01*
X123529362Y-103830775D01*
X123559987Y-103836866D01*
X123590760Y-103842987D01*
X123847787Y-103842986D01*
X123914826Y-103862670D01*
X123923336Y-103868658D01*
X124233564Y-104107020D01*
X124256052Y-104124298D01*
X124297219Y-104180753D01*
X124301329Y-104250501D01*
X124298925Y-104259398D01*
X124288723Y-104292249D01*
X124283846Y-104316956D01*
X124279236Y-104333891D01*
X124267259Y-104368119D01*
X124267258Y-104368126D01*
X124264500Y-104397539D01*
X124264500Y-104410244D01*
X124246443Y-104474680D01*
X123861997Y-105106772D01*
X123843736Y-105130017D01*
X123717246Y-105256507D01*
X123699806Y-105273948D01*
X123699804Y-105273948D01*
X123699805Y-105273949D01*
X123631507Y-105342247D01*
X123631506Y-105342249D01*
X123570883Y-105447250D01*
X123570882Y-105447253D01*
X123539500Y-105564374D01*
X123539500Y-108769752D01*
X123535086Y-108802542D01*
X123534272Y-108805509D01*
X123505554Y-109207549D01*
X123505745Y-109240727D01*
X123505745Y-109240728D01*
X123506040Y-109244284D01*
X123506041Y-109244296D01*
X123508164Y-109258636D01*
X123509500Y-109276789D01*
X123509500Y-109603260D01*
X123519426Y-109671391D01*
X123570803Y-109776485D01*
X123653514Y-109859196D01*
X123653515Y-109859196D01*
X123653517Y-109859198D01*
X123703658Y-109883710D01*
X123755240Y-109930838D01*
X123773155Y-109998372D01*
X123751714Y-110064871D01*
X123703659Y-110106511D01*
X123633515Y-110140802D01*
X123550803Y-110223514D01*
X123499426Y-110328608D01*
X123489500Y-110396739D01*
X123489500Y-110803260D01*
X123499425Y-110871388D01*
X123501945Y-110879543D01*
X123506311Y-110892054D01*
X123506318Y-110892053D01*
X123506413Y-110892345D01*
X123507983Y-110896844D01*
X123508201Y-110897836D01*
X123508204Y-110897845D01*
X123592932Y-111157991D01*
X123594107Y-111161597D01*
X123596151Y-111231437D01*
X123594107Y-111238399D01*
X123508203Y-111502155D01*
X123508202Y-111502159D01*
X123508073Y-111502754D01*
X123507928Y-111503169D01*
X123507384Y-111505184D01*
X123507242Y-111505145D01*
X123502075Y-111520032D01*
X123499426Y-111528606D01*
X123489500Y-111596739D01*
X123489500Y-112003260D01*
X123499426Y-112071391D01*
X123550803Y-112176485D01*
X123633514Y-112259196D01*
X123633515Y-112259196D01*
X123633517Y-112259198D01*
X123738607Y-112310573D01*
X123765649Y-112314513D01*
X123806739Y-112320500D01*
X123806740Y-112320500D01*
X124153255Y-112320500D01*
X124153260Y-112320500D01*
X124221393Y-112310573D01*
X124280399Y-112281725D01*
X124349271Y-112269965D01*
X124413568Y-112297307D01*
X124452877Y-112355070D01*
X124454717Y-112424916D01*
X124422542Y-112480806D01*
X123400168Y-113503181D01*
X123338845Y-113536666D01*
X123312487Y-113539500D01*
X120530250Y-113539500D01*
X120497456Y-113535085D01*
X120494488Y-113534271D01*
X120478774Y-113533148D01*
X120413309Y-113508734D01*
X120371434Y-113452802D01*
X120367063Y-113436784D01*
X120367006Y-113436800D01*
X120364759Y-113428449D01*
X120360500Y-113396230D01*
X120360500Y-113339376D01*
X120360500Y-113339374D01*
X120329118Y-113222253D01*
X120268492Y-113117246D01*
X120182754Y-113031508D01*
X120094785Y-112980719D01*
X120077749Y-112970883D01*
X120077748Y-112970882D01*
X120077747Y-112970882D01*
X119960626Y-112939500D01*
X119839374Y-112939500D01*
X119722253Y-112970882D01*
X119722250Y-112970883D01*
X119617249Y-113031506D01*
X119617243Y-113031510D01*
X119531506Y-113117247D01*
X119527774Y-113122111D01*
X119471343Y-113163309D01*
X119401597Y-113167459D01*
X119362364Y-113150932D01*
X119309949Y-113117247D01*
X119282773Y-113099782D01*
X119222694Y-113082141D01*
X119162616Y-113064500D01*
X119162615Y-113064500D01*
X119037385Y-113064500D01*
X119037384Y-113064500D01*
X118917227Y-113099782D01*
X118917225Y-113099783D01*
X118826787Y-113157904D01*
X118759748Y-113177588D01*
X118692708Y-113157903D01*
X118666035Y-113134791D01*
X118660671Y-113128601D01*
X118660671Y-113128600D01*
X118578662Y-113033957D01*
X118570806Y-113028908D01*
X118565774Y-113025497D01*
X118558778Y-113020500D01*
X118211727Y-112772606D01*
X118211726Y-112772605D01*
X118211717Y-112772599D01*
X118211497Y-112772466D01*
X118211137Y-112772184D01*
X118207813Y-112769810D01*
X118207917Y-112769664D01*
X118187857Y-112753965D01*
X118045661Y-112611769D01*
X118028465Y-112588471D01*
X118027968Y-112588801D01*
X118024607Y-112583721D01*
X118024603Y-112583716D01*
X117787526Y-112292127D01*
X117763649Y-112237734D01*
X117763416Y-112237807D01*
X117762784Y-112235762D01*
X117761034Y-112231777D01*
X117760573Y-112228607D01*
X117709198Y-112123517D01*
X117709196Y-112123515D01*
X117709196Y-112123514D01*
X117626485Y-112040803D01*
X117615637Y-112035500D01*
X117521393Y-111989427D01*
X117521391Y-111989426D01*
X117453261Y-111979500D01*
X117453260Y-111979500D01*
X117106740Y-111979500D01*
X117106739Y-111979500D01*
X117038608Y-111989426D01*
X116933514Y-112040803D01*
X116887681Y-112086637D01*
X116826358Y-112120122D01*
X116756666Y-112115138D01*
X116712319Y-112086637D01*
X116666485Y-112040803D01*
X116655637Y-112035500D01*
X116561393Y-111989427D01*
X116561391Y-111989426D01*
X116493261Y-111979500D01*
X116493260Y-111979500D01*
X116146740Y-111979500D01*
X116146739Y-111979500D01*
X116078608Y-111989426D01*
X116078607Y-111989426D01*
X116034057Y-112011205D01*
X116021696Y-112016438D01*
X115728851Y-112122135D01*
X115686754Y-112129500D01*
X114857603Y-112129500D01*
X114820829Y-112123922D01*
X114507658Y-112026671D01*
X114507653Y-112026670D01*
X114507656Y-112026670D01*
X114503771Y-112025823D01*
X114477807Y-112017059D01*
X114475806Y-112016126D01*
X114475804Y-112016125D01*
X114475801Y-112016124D01*
X114475796Y-112016123D01*
X114475795Y-112016123D01*
X114425487Y-112009500D01*
X114425486Y-112009500D01*
X113974514Y-112009500D01*
X113974513Y-112009500D01*
X113924200Y-112016123D01*
X113813771Y-112067617D01*
X113727617Y-112153771D01*
X113676123Y-112264200D01*
X113669500Y-112314513D01*
X113669500Y-112665486D01*
X113676123Y-112715799D01*
X113727617Y-112826228D01*
X113813708Y-112912319D01*
X113847193Y-112973642D01*
X113842209Y-113043334D01*
X113813708Y-113087681D01*
X113727617Y-113173771D01*
X113676123Y-113284200D01*
X113669500Y-113334513D01*
X113669500Y-113685486D01*
X113676123Y-113735799D01*
X113676124Y-113735801D01*
X113727617Y-113846228D01*
X113727618Y-113846229D01*
X113733839Y-113855114D01*
X113733107Y-113855626D01*
X113753194Y-113886185D01*
X113830764Y-114081756D01*
X113839500Y-114127473D01*
X113839500Y-114612509D01*
X113839500Y-114707431D01*
X113848022Y-114739236D01*
X113864067Y-114799119D01*
X113872776Y-114814203D01*
X113911528Y-114881322D01*
X113911530Y-114881324D01*
X113968917Y-114938711D01*
X113991920Y-114970491D01*
X114151190Y-115285845D01*
X114164506Y-115341745D01*
X114164506Y-115530713D01*
X114176719Y-115592116D01*
X114176720Y-115592119D01*
X114223244Y-115661746D01*
X114292871Y-115708269D01*
X114292875Y-115708271D01*
X114329645Y-115715584D01*
X114354273Y-115720483D01*
X114995738Y-115720482D01*
X115057139Y-115708270D01*
X115126768Y-115661745D01*
X115147239Y-115631109D01*
X115173292Y-115592117D01*
X115173293Y-115592116D01*
X115185506Y-115530716D01*
X115185505Y-114739237D01*
X115173293Y-114677836D01*
X115173291Y-114677834D01*
X115173291Y-114677832D01*
X115126767Y-114608205D01*
X115057140Y-114561682D01*
X115057136Y-114561680D01*
X114995743Y-114549469D01*
X114995739Y-114549469D01*
X114817178Y-114549469D01*
X114772062Y-114540970D01*
X114639384Y-114489144D01*
X114584101Y-114446417D01*
X114560694Y-114380585D01*
X114560500Y-114373643D01*
X114560500Y-114127473D01*
X114569235Y-114081757D01*
X114646800Y-113886192D01*
X114666892Y-113855626D01*
X114666161Y-113855115D01*
X114672382Y-113846229D01*
X114672382Y-113846228D01*
X114672383Y-113846228D01*
X114723876Y-113735801D01*
X114730500Y-113685486D01*
X114730500Y-113334514D01*
X114723876Y-113284199D01*
X114672383Y-113173772D01*
X114610345Y-113111734D01*
X114576860Y-113050411D01*
X114581844Y-112980719D01*
X114623716Y-112924786D01*
X114661249Y-112905632D01*
X114820826Y-112856077D01*
X114857600Y-112850500D01*
X115680883Y-112850500D01*
X115727943Y-112859777D01*
X115986498Y-112965839D01*
X115993898Y-112969162D01*
X116078604Y-113010572D01*
X116078607Y-113010573D01*
X116146739Y-113020500D01*
X116146740Y-113020500D01*
X116493261Y-113020500D01*
X116515971Y-113017191D01*
X116561393Y-113010573D01*
X116666483Y-112959198D01*
X116687665Y-112938016D01*
X116712319Y-112913363D01*
X116773642Y-112879878D01*
X116843334Y-112884862D01*
X116887681Y-112913363D01*
X116933514Y-112959196D01*
X116933515Y-112959196D01*
X116933517Y-112959198D01*
X117038607Y-113010573D01*
X117072673Y-113015536D01*
X117106739Y-113020500D01*
X117106740Y-113020500D01*
X117167321Y-113020500D01*
X117204233Y-113026121D01*
X117518194Y-113124021D01*
X117568961Y-113154717D01*
X117677978Y-113263734D01*
X117692730Y-113282989D01*
X117693133Y-113282702D01*
X117729365Y-113333427D01*
X117752313Y-113399420D01*
X117735939Y-113467344D01*
X117685442Y-113515633D01*
X117628462Y-113529500D01*
X117496739Y-113529500D01*
X117428608Y-113539426D01*
X117323514Y-113590803D01*
X117240803Y-113673514D01*
X117189426Y-113778608D01*
X117179499Y-113846740D01*
X117179175Y-113851220D01*
X117176998Y-113851062D01*
X117159815Y-113909583D01*
X117122542Y-113946858D01*
X117103847Y-113958872D01*
X117103844Y-113958875D01*
X117088212Y-113976916D01*
X117029434Y-114014690D01*
X116959564Y-114014690D01*
X116900786Y-113976915D01*
X116871762Y-113913359D01*
X116870500Y-113895713D01*
X116870500Y-113596739D01*
X116861398Y-113534271D01*
X116860573Y-113528607D01*
X116809198Y-113423517D01*
X116809196Y-113423515D01*
X116809196Y-113423514D01*
X116726485Y-113340803D01*
X116621391Y-113289426D01*
X116553261Y-113279500D01*
X116553260Y-113279500D01*
X116206740Y-113279500D01*
X116206739Y-113279500D01*
X116138608Y-113289426D01*
X116033514Y-113340803D01*
X115950803Y-113423514D01*
X115899426Y-113528608D01*
X115889500Y-113596739D01*
X115889500Y-114003260D01*
X115899425Y-114071388D01*
X115901945Y-114079543D01*
X115906311Y-114092054D01*
X115906318Y-114092053D01*
X115906413Y-114092345D01*
X115907983Y-114096844D01*
X115908201Y-114097836D01*
X115908204Y-114097845D01*
X115985399Y-114334862D01*
X115992529Y-114356752D01*
X115994573Y-114426592D01*
X115981671Y-114457741D01*
X115921230Y-114561115D01*
X115883079Y-114601627D01*
X115873233Y-114608206D01*
X115873231Y-114608207D01*
X115826706Y-114677837D01*
X115826705Y-114677838D01*
X115814494Y-114739231D01*
X115814494Y-115530714D01*
X115826707Y-115592116D01*
X115826708Y-115592119D01*
X115852761Y-115631109D01*
X115873639Y-115697786D01*
X115855155Y-115765166D01*
X115852762Y-115768890D01*
X115826706Y-115807886D01*
X115826705Y-115807886D01*
X115814494Y-115869279D01*
X115814494Y-115869282D01*
X115814494Y-115869284D01*
X115814494Y-116231523D01*
X115814495Y-116505530D01*
X115794811Y-116572569D01*
X115742007Y-116618324D01*
X115690495Y-116629530D01*
X114254981Y-116629530D01*
X114187942Y-116609845D01*
X114167300Y-116593211D01*
X113036837Y-115462747D01*
X113003352Y-115401424D01*
X113000518Y-115375066D01*
X113000518Y-107774505D01*
X113020203Y-107707466D01*
X113073007Y-107661711D01*
X113124518Y-107650505D01*
X113406163Y-107650505D01*
X113406165Y-107650505D01*
X113495310Y-107626618D01*
X113575235Y-107580473D01*
X113640493Y-107515215D01*
X113686638Y-107435290D01*
X113710525Y-107346145D01*
X113710525Y-107253855D01*
X113686638Y-107164710D01*
X113656168Y-107111936D01*
X113639696Y-107044037D01*
X113656170Y-106987935D01*
X113686635Y-106935168D01*
X113686637Y-106935165D01*
X113686749Y-106934747D01*
X113710525Y-106846018D01*
X113710525Y-106753728D01*
X113686638Y-106664583D01*
X113640493Y-106584658D01*
X113575235Y-106519400D01*
X113495310Y-106473255D01*
X113406165Y-106449368D01*
X113406163Y-106449368D01*
X112023466Y-106449368D01*
X112010041Y-106448639D01*
X111999611Y-106447503D01*
X111999615Y-106447503D01*
X111997621Y-106447457D01*
X111995631Y-106447412D01*
X111995629Y-106447412D01*
X111995627Y-106447412D01*
X111995626Y-106447412D01*
X111958894Y-106449716D01*
X111775733Y-106477054D01*
X111706523Y-106467481D01*
X111653474Y-106422009D01*
X111633431Y-106355076D01*
X111634689Y-106336780D01*
X111639978Y-106300000D01*
X111626945Y-106209352D01*
X111636889Y-106140194D01*
X111682644Y-106087390D01*
X111749683Y-106067706D01*
X111811684Y-106084320D01*
X111884720Y-106126488D01*
X111884723Y-106126490D01*
X111884725Y-106126490D01*
X111884726Y-106126491D01*
X111973871Y-106150378D01*
X113356557Y-106150378D01*
X113370002Y-106151108D01*
X113380373Y-106152240D01*
X113384357Y-106152332D01*
X113421144Y-106150028D01*
X113524600Y-106134586D01*
X113593809Y-106144158D01*
X113630585Y-106169546D01*
X114334463Y-106873424D01*
X114367948Y-106934747D01*
X114369443Y-106970808D01*
X114369500Y-106970808D01*
X114369500Y-106972184D01*
X114369714Y-106977347D01*
X114369500Y-106978966D01*
X114369500Y-107924521D01*
X114358061Y-107976541D01*
X114218798Y-108277876D01*
X114218797Y-108277878D01*
X114212085Y-108299427D01*
X114205100Y-108317001D01*
X114199427Y-108328606D01*
X114199426Y-108328608D01*
X114189500Y-108396739D01*
X114189500Y-108803260D01*
X114199426Y-108871391D01*
X114250803Y-108976485D01*
X114333514Y-109059196D01*
X114333515Y-109059196D01*
X114333517Y-109059198D01*
X114438607Y-109110573D01*
X114461387Y-109113892D01*
X114506739Y-109120500D01*
X114506740Y-109120500D01*
X114853261Y-109120500D01*
X114875971Y-109117191D01*
X114921393Y-109110573D01*
X115026483Y-109059198D01*
X115026485Y-109059195D01*
X115026920Y-109058983D01*
X115039573Y-109051137D01*
X115119530Y-109008490D01*
X115187944Y-108994310D01*
X115212821Y-108998924D01*
X115217226Y-109000217D01*
X115217227Y-109000218D01*
X115245402Y-109008491D01*
X115320537Y-109030553D01*
X115379314Y-109068328D01*
X115408339Y-109131884D01*
X115398395Y-109201042D01*
X115398395Y-109201043D01*
X115387335Y-109225260D01*
X115384829Y-109230427D01*
X115381336Y-109237221D01*
X115379096Y-109242887D01*
X115378822Y-109242778D01*
X115378725Y-109243038D01*
X115377457Y-109247356D01*
X115374547Y-109260967D01*
X115347992Y-109353865D01*
X115310641Y-109412911D01*
X115284379Y-109430613D01*
X115153409Y-109496330D01*
X115097798Y-109509500D01*
X115074513Y-109509500D01*
X115024200Y-109516123D01*
X114913771Y-109567617D01*
X114827617Y-109653771D01*
X114776123Y-109764200D01*
X114769500Y-109814513D01*
X114769500Y-110165486D01*
X114776123Y-110215799D01*
X114806147Y-110280185D01*
X114827617Y-110326228D01*
X114913772Y-110412383D01*
X115024199Y-110463876D01*
X115074513Y-110470500D01*
X115074514Y-110470500D01*
X115525487Y-110470500D01*
X115542257Y-110468292D01*
X115575801Y-110463876D01*
X115686228Y-110412383D01*
X115772383Y-110326228D01*
X115823876Y-110215801D01*
X115830500Y-110165486D01*
X115830500Y-110135098D01*
X115841174Y-110084767D01*
X115954402Y-109829841D01*
X115988506Y-109784784D01*
X116079945Y-109708859D01*
X116085443Y-109704835D01*
X116088119Y-109702515D01*
X116088124Y-109702513D01*
X116088127Y-109702509D01*
X116091404Y-109699670D01*
X116094404Y-109696603D01*
X116094386Y-109696583D01*
X116094781Y-109696218D01*
X116094782Y-109696216D01*
X116094793Y-109696207D01*
X116097669Y-109693551D01*
X116101028Y-109688708D01*
X116109173Y-109678218D01*
X116170133Y-109607870D01*
X116222156Y-109493956D01*
X116239978Y-109370000D01*
X116239977Y-109369993D01*
X116239977Y-109369770D01*
X116240500Y-109359124D01*
X116240500Y-108974814D01*
X116237883Y-108961659D01*
X116235500Y-108937467D01*
X116235500Y-108690234D01*
X116255185Y-108623195D01*
X116307989Y-108577440D01*
X116377147Y-108567496D01*
X116440703Y-108596521D01*
X116470901Y-108635774D01*
X116490803Y-108676485D01*
X116573514Y-108759196D01*
X116573515Y-108759196D01*
X116573517Y-108759198D01*
X116678607Y-108810573D01*
X116712673Y-108815536D01*
X116746739Y-108820500D01*
X116746740Y-108820500D01*
X117093261Y-108820500D01*
X117115971Y-108817191D01*
X117161393Y-108810573D01*
X117266483Y-108759198D01*
X117349198Y-108676483D01*
X117400573Y-108571393D01*
X117410500Y-108503260D01*
X117410500Y-108096740D01*
X117405803Y-108064500D01*
X117400574Y-108028611D01*
X117398050Y-108020446D01*
X117393687Y-108007941D01*
X117393681Y-108007944D01*
X117393578Y-108007628D01*
X117392011Y-108003137D01*
X117391796Y-108002160D01*
X117391795Y-108002152D01*
X117330157Y-107812904D01*
X117328114Y-107743066D01*
X117364152Y-107683208D01*
X117426832Y-107652336D01*
X117448062Y-107650505D01*
X117626127Y-107650505D01*
X117626129Y-107650505D01*
X117715274Y-107626618D01*
X117795199Y-107580473D01*
X117860457Y-107515215D01*
X117906602Y-107435290D01*
X117930489Y-107346145D01*
X117930489Y-107253855D01*
X117930488Y-107253853D01*
X117930055Y-107250561D01*
X117930489Y-107247777D01*
X117930489Y-107245727D01*
X117930809Y-107245727D01*
X117940820Y-107181525D01*
X117987199Y-107129268D01*
X118052994Y-107110373D01*
X118441003Y-107110373D01*
X118441006Y-107110373D01*
X118519976Y-107089213D01*
X118590779Y-107048335D01*
X120048461Y-105590652D01*
X120049169Y-105589427D01*
X120089340Y-105519848D01*
X120097891Y-105487935D01*
X120104827Y-105462048D01*
X120104828Y-105462041D01*
X120104829Y-105462039D01*
X120110500Y-105440879D01*
X120110500Y-105359122D01*
X120110500Y-105116126D01*
X120115614Y-105080884D01*
X120130141Y-105031879D01*
X120211503Y-104757412D01*
X120211503Y-104757405D01*
X120212488Y-104752640D01*
X120221134Y-104726192D01*
X120222156Y-104723956D01*
X120222157Y-104723947D01*
X120223297Y-104720067D01*
X120225490Y-104716653D01*
X120225843Y-104715882D01*
X120225953Y-104715932D01*
X120261070Y-104661289D01*
X120324626Y-104632262D01*
X120393784Y-104642205D01*
X120446589Y-104687959D01*
X120453675Y-104700540D01*
X120490800Y-104776482D01*
X120573514Y-104859196D01*
X120573515Y-104859196D01*
X120573517Y-104859198D01*
X120678607Y-104910573D01*
X120712673Y-104915536D01*
X120746739Y-104920500D01*
X120746740Y-104920500D01*
X121093261Y-104920500D01*
X121115971Y-104917191D01*
X121161393Y-104910573D01*
X121266483Y-104859198D01*
X121349198Y-104776483D01*
X121400573Y-104671393D01*
X121410500Y-104603260D01*
X121410500Y-104196740D01*
X121408130Y-104180477D01*
X121400879Y-104130706D01*
X121400573Y-104128607D01*
X121349198Y-104023517D01*
X121349196Y-104023515D01*
X121349196Y-104023514D01*
X121266485Y-103940803D01*
X121161391Y-103889426D01*
X121093261Y-103879500D01*
X121093260Y-103879500D01*
X121090168Y-103879500D01*
X121039123Y-103868506D01*
X120674008Y-103703583D01*
X120637372Y-103678258D01*
X120510653Y-103551539D01*
X120510648Y-103551535D01*
X120439851Y-103510661D01*
X120439850Y-103510660D01*
X120439849Y-103510660D01*
X120360879Y-103489500D01*
X120360878Y-103489500D01*
X120360877Y-103489500D01*
X120158788Y-103489500D01*
X120091749Y-103469816D01*
X120011181Y-103418039D01*
X119982773Y-103399782D01*
X119922694Y-103382141D01*
X119862616Y-103364500D01*
X119862615Y-103364500D01*
X119737385Y-103364500D01*
X119737384Y-103364500D01*
X119617227Y-103399782D01*
X119617220Y-103399785D01*
X119511880Y-103467483D01*
X119511877Y-103467485D01*
X119429867Y-103562130D01*
X119429866Y-103562131D01*
X119404803Y-103617012D01*
X119359048Y-103669816D01*
X119292009Y-103689500D01*
X119040879Y-103689500D01*
X118959121Y-103689500D01*
X118880151Y-103710660D01*
X118880149Y-103710661D01*
X118880148Y-103710661D01*
X118809351Y-103751535D01*
X118809346Y-103751539D01*
X118442612Y-104118273D01*
X118381289Y-104151758D01*
X118311597Y-104146774D01*
X118290173Y-104134912D01*
X118289793Y-104135572D01*
X118281354Y-104130700D01*
X118177747Y-104070882D01*
X118060626Y-104039500D01*
X118060625Y-104039500D01*
X114817107Y-104039500D01*
X114750068Y-104019815D01*
X114729426Y-104003181D01*
X114156265Y-103430020D01*
X114138003Y-103406775D01*
X114133750Y-103399783D01*
X113924208Y-103055261D01*
X113753556Y-102774680D01*
X113735499Y-102710244D01*
X113735499Y-102697545D01*
X113735498Y-102697538D01*
X113732741Y-102668121D01*
X113689381Y-102544206D01*
X113641416Y-102479216D01*
X113611423Y-102438576D01*
X113539860Y-102385761D01*
X113505794Y-102360619D01*
X113505792Y-102360618D01*
X113381880Y-102317258D01*
X113352461Y-102314500D01*
X112797546Y-102314500D01*
X112768125Y-102317258D01*
X112768115Y-102317260D01*
X112644207Y-102360618D01*
X112538576Y-102438576D01*
X112460618Y-102544207D01*
X112417258Y-102668118D01*
X112417258Y-102668120D01*
X112414500Y-102697538D01*
X112414500Y-103302453D01*
X112417258Y-103331874D01*
X112417260Y-103331884D01*
X112459786Y-103453414D01*
X112460619Y-103455794D01*
X112469249Y-103467487D01*
X112538576Y-103561423D01*
X112591391Y-103600402D01*
X112644206Y-103639381D01*
X112685511Y-103653834D01*
X112768119Y-103682741D01*
X112785789Y-103684397D01*
X112797543Y-103685500D01*
X112811933Y-103685499D01*
X112875275Y-103702895D01*
X113481314Y-104062978D01*
X113505654Y-104081899D01*
X114202167Y-104778412D01*
X114202177Y-104778423D01*
X114206507Y-104782753D01*
X114206508Y-104782754D01*
X114292246Y-104868492D01*
X114397253Y-104929118D01*
X114514374Y-104960500D01*
X114635626Y-104960500D01*
X115500999Y-104960500D01*
X115568038Y-104980185D01*
X115613793Y-105032989D01*
X115623737Y-105102147D01*
X115594712Y-105165703D01*
X115588680Y-105172181D01*
X115011539Y-105749320D01*
X115011535Y-105749325D01*
X114970659Y-105820125D01*
X114950182Y-105896551D01*
X114950179Y-105896561D01*
X114949500Y-105899090D01*
X114949500Y-106310871D01*
X114929815Y-106377910D01*
X114877011Y-106423665D01*
X114807853Y-106433609D01*
X114744297Y-106404584D01*
X114737819Y-106398552D01*
X113890679Y-105551412D01*
X113890674Y-105551408D01*
X113819877Y-105510534D01*
X113819870Y-105510531D01*
X113796526Y-105504276D01*
X113736866Y-105467910D01*
X113706338Y-105405063D01*
X113708846Y-105352407D01*
X113710525Y-105346145D01*
X113710525Y-105253855D01*
X113686638Y-105164710D01*
X113640493Y-105084785D01*
X113575235Y-105019527D01*
X113495310Y-104973382D01*
X113406165Y-104949495D01*
X111973871Y-104949495D01*
X111914441Y-104965419D01*
X111884725Y-104973382D01*
X111804801Y-105019527D01*
X111804798Y-105019529D01*
X111739545Y-105084782D01*
X111739543Y-105084785D01*
X111693398Y-105164709D01*
X111691706Y-105171023D01*
X111669511Y-105253855D01*
X111669511Y-105346145D01*
X111693398Y-105435290D01*
X111722129Y-105485054D01*
X111723793Y-105487935D01*
X111740266Y-105555835D01*
X111723793Y-105611936D01*
X111693399Y-105664579D01*
X111693398Y-105664580D01*
X111669511Y-105753729D01*
X111669511Y-105854146D01*
X111666818Y-105854146D01*
X111658074Y-105910111D01*
X111611680Y-105962353D01*
X111544405Y-105981220D01*
X111478876Y-105961544D01*
X111382773Y-105899782D01*
X111322694Y-105882141D01*
X111262616Y-105864500D01*
X111262615Y-105864500D01*
X111225701Y-105864500D01*
X111201509Y-105862117D01*
X111188352Y-105859500D01*
X110947649Y-105859500D01*
X110896904Y-105848641D01*
X110447434Y-105647051D01*
X110447431Y-105647049D01*
X110431065Y-105641892D01*
X110412049Y-105634114D01*
X110403433Y-105629724D01*
X110403430Y-105629723D01*
X110307307Y-105614500D01*
X109692688Y-105614500D01*
X109692688Y-105614501D01*
X109596571Y-105629723D01*
X109596570Y-105629723D01*
X109480704Y-105688760D01*
X109480700Y-105688763D01*
X109388763Y-105780700D01*
X109388760Y-105780704D01*
X109329723Y-105896571D01*
X109314500Y-105992692D01*
X109314500Y-106457311D01*
X109329723Y-106553428D01*
X109329723Y-106553429D01*
X109329724Y-106553432D01*
X109329725Y-106553433D01*
X109386358Y-106664582D01*
X109388760Y-106669295D01*
X109388763Y-106669299D01*
X109480700Y-106761236D01*
X109480704Y-106761239D01*
X109480706Y-106761241D01*
X109596567Y-106820275D01*
X109596569Y-106820275D01*
X109596571Y-106820276D01*
X109622769Y-106824425D01*
X109692693Y-106835500D01*
X110307306Y-106835499D01*
X110403433Y-106820275D01*
X110415613Y-106814068D01*
X110444215Y-106803684D01*
X110447434Y-106802947D01*
X110784333Y-106651845D01*
X110853554Y-106642372D01*
X110879194Y-106649102D01*
X111026635Y-106705240D01*
X111039399Y-106707506D01*
X111052629Y-106710613D01*
X111137385Y-106735500D01*
X111145510Y-106735500D01*
X111212549Y-106755185D01*
X111258304Y-106807989D01*
X111269510Y-106859500D01*
X111269510Y-115039131D01*
X111269510Y-115120889D01*
X111290670Y-115199859D01*
X111290671Y-115199860D01*
X111290671Y-115199861D01*
X111331545Y-115270658D01*
X111331547Y-115270661D01*
X111331548Y-115270662D01*
X113649379Y-117588492D01*
X113720181Y-117629370D01*
X113799151Y-117650530D01*
X113799152Y-117650530D01*
X113799153Y-117650530D01*
X117131555Y-117650530D01*
X117131557Y-117650530D01*
X117210528Y-117629370D01*
X117281330Y-117588492D01*
X118023004Y-116846819D01*
X118084327Y-116813334D01*
X118110685Y-116810500D01*
X129640876Y-116810500D01*
X129640879Y-116810500D01*
X129719849Y-116789340D01*
X129790652Y-116748462D01*
X131948461Y-114590652D01*
X131948923Y-114589853D01*
X131989340Y-114519848D01*
X132010500Y-114440878D01*
X132010500Y-114114680D01*
X132369460Y-114114680D01*
X132400605Y-114271255D01*
X132400608Y-114271267D01*
X132461702Y-114418763D01*
X132461704Y-114418767D01*
X132550399Y-114551508D01*
X132550405Y-114551516D01*
X132663292Y-114664403D01*
X132663300Y-114664409D01*
X132796041Y-114753104D01*
X132796045Y-114753106D01*
X132907132Y-114799119D01*
X132943546Y-114814202D01*
X133070331Y-114839421D01*
X133100128Y-114845348D01*
X133100132Y-114845349D01*
X133100133Y-114845349D01*
X133859788Y-114845349D01*
X133859789Y-114845348D01*
X134016374Y-114814202D01*
X134163876Y-114753105D01*
X134163878Y-114753104D01*
X134255919Y-114691604D01*
X134296624Y-114664406D01*
X134409517Y-114551513D01*
X134460316Y-114475486D01*
X134498215Y-114418767D01*
X134498217Y-114418763D01*
X134528156Y-114346483D01*
X134559313Y-114271263D01*
X134590460Y-114114676D01*
X134590460Y-113955022D01*
X134559313Y-113798435D01*
X134559005Y-113797692D01*
X134498217Y-113650934D01*
X134498215Y-113650930D01*
X134409520Y-113518189D01*
X134409514Y-113518181D01*
X134296627Y-113405294D01*
X134296619Y-113405288D01*
X134163878Y-113316593D01*
X134163874Y-113316591D01*
X134016378Y-113255497D01*
X134016366Y-113255494D01*
X133859791Y-113224349D01*
X133859787Y-113224349D01*
X133100133Y-113224349D01*
X133100128Y-113224349D01*
X132943553Y-113255494D01*
X132943541Y-113255497D01*
X132796045Y-113316591D01*
X132796041Y-113316593D01*
X132663300Y-113405288D01*
X132663292Y-113405294D01*
X132550405Y-113518181D01*
X132550399Y-113518189D01*
X132461704Y-113650930D01*
X132461702Y-113650934D01*
X132400608Y-113798430D01*
X132400605Y-113798442D01*
X132369460Y-113955017D01*
X132369460Y-114114680D01*
X132010500Y-114114680D01*
X132010500Y-111459122D01*
X131989340Y-111380152D01*
X131948462Y-111309349D01*
X131890651Y-111251538D01*
X130350571Y-109711457D01*
X130350570Y-109711456D01*
X130350567Y-109711454D01*
X130279770Y-109670580D01*
X130279769Y-109670579D01*
X130279768Y-109670579D01*
X130200798Y-109649419D01*
X130200797Y-109649419D01*
X130200796Y-109649419D01*
X130014396Y-109649419D01*
X129947357Y-109629734D01*
X129901602Y-109576930D01*
X129890396Y-109525419D01*
X129890396Y-109049530D01*
X129910081Y-108982491D01*
X129962885Y-108936736D01*
X129979454Y-108930555D01*
X130082773Y-108900218D01*
X130188124Y-108832513D01*
X130270133Y-108737870D01*
X130316759Y-108635774D01*
X130322155Y-108623959D01*
X130322156Y-108623955D01*
X130325600Y-108600000D01*
X130339978Y-108500000D01*
X130322156Y-108376044D01*
X130322155Y-108376040D01*
X130287166Y-108299427D01*
X130270133Y-108262130D01*
X130188124Y-108167487D01*
X130188123Y-108167486D01*
X130188122Y-108167485D01*
X130188119Y-108167483D01*
X130082779Y-108099785D01*
X130082775Y-108099783D01*
X130082773Y-108099782D01*
X129988968Y-108072238D01*
X129962616Y-108064500D01*
X129962615Y-108064500D01*
X129837385Y-108064500D01*
X129773195Y-108083347D01*
X129749638Y-108087846D01*
X129742589Y-108088495D01*
X129649636Y-108116049D01*
X129579766Y-108116229D01*
X129520891Y-108078606D01*
X129491703Y-108015125D01*
X129490395Y-107997170D01*
X129490395Y-107789187D01*
X129478183Y-107727786D01*
X129476956Y-107721616D01*
X129476957Y-107673237D01*
X129490395Y-107605674D01*
X129490396Y-107605671D01*
X129490395Y-107468537D01*
X129510079Y-107401499D01*
X129562883Y-107355744D01*
X129632041Y-107345800D01*
X129646480Y-107348761D01*
X129727524Y-107370477D01*
X129727527Y-107370477D01*
X129872473Y-107370477D01*
X129872476Y-107370477D01*
X130012490Y-107332960D01*
X130012493Y-107332958D01*
X130012496Y-107332957D01*
X130138016Y-107260488D01*
X130138015Y-107260488D01*
X130138023Y-107260484D01*
X130240520Y-107157987D01*
X130275881Y-107096740D01*
X130312993Y-107032460D01*
X130312995Y-107032455D01*
X130312996Y-107032454D01*
X130350513Y-106892440D01*
X130350513Y-106747488D01*
X130312996Y-106607474D01*
X130312995Y-106607472D01*
X130312993Y-106607467D01*
X130240524Y-106481947D01*
X130240518Y-106481939D01*
X130138024Y-106379445D01*
X130138019Y-106379441D01*
X130012373Y-106306900D01*
X129964158Y-106256333D01*
X129950934Y-106187726D01*
X129976902Y-106122862D01*
X130026919Y-106084953D01*
X130090039Y-106058808D01*
X130214598Y-105975580D01*
X130320526Y-105869652D01*
X130403754Y-105745093D01*
X130461082Y-105606691D01*
X130489327Y-105464692D01*
X132369460Y-105464692D01*
X132400605Y-105621267D01*
X132400608Y-105621279D01*
X132461702Y-105768775D01*
X132461704Y-105768779D01*
X132550399Y-105901520D01*
X132550405Y-105901528D01*
X132663292Y-106014415D01*
X132663300Y-106014421D01*
X132796041Y-106103116D01*
X132796045Y-106103118D01*
X132939222Y-106162423D01*
X132943546Y-106164214D01*
X133100128Y-106195360D01*
X133100132Y-106195361D01*
X133100133Y-106195361D01*
X133859788Y-106195361D01*
X133859789Y-106195360D01*
X134016374Y-106164214D01*
X134163876Y-106103117D01*
X134163878Y-106103116D01*
X134295621Y-106015088D01*
X134296624Y-106014418D01*
X134409517Y-105901525D01*
X134476639Y-105801070D01*
X134498215Y-105768779D01*
X134498217Y-105768775D01*
X134541374Y-105664583D01*
X134559313Y-105621275D01*
X134590460Y-105464688D01*
X134590460Y-105305034D01*
X134559313Y-105148447D01*
X134538474Y-105098136D01*
X134498217Y-105000946D01*
X134498215Y-105000942D01*
X134409520Y-104868201D01*
X134409514Y-104868193D01*
X134296627Y-104755306D01*
X134296619Y-104755300D01*
X134163878Y-104666605D01*
X134163874Y-104666603D01*
X134016378Y-104605509D01*
X134016366Y-104605506D01*
X133859791Y-104574361D01*
X133859787Y-104574361D01*
X133100133Y-104574361D01*
X133100128Y-104574361D01*
X132943553Y-104605506D01*
X132943541Y-104605509D01*
X132796045Y-104666603D01*
X132796041Y-104666605D01*
X132663300Y-104755300D01*
X132663292Y-104755306D01*
X132550405Y-104868193D01*
X132550399Y-104868201D01*
X132461704Y-105000942D01*
X132461702Y-105000946D01*
X132400608Y-105148442D01*
X132400605Y-105148454D01*
X132369460Y-105305029D01*
X132369460Y-105464692D01*
X130489327Y-105464692D01*
X130490307Y-105459764D01*
X130490307Y-105309958D01*
X130461082Y-105163031D01*
X130403754Y-105024629D01*
X130403753Y-105024628D01*
X130403750Y-105024622D01*
X130320526Y-104900070D01*
X130320523Y-104900066D01*
X130273532Y-104853075D01*
X130240047Y-104791752D01*
X130245031Y-104722060D01*
X130273529Y-104677716D01*
X130283631Y-104667615D01*
X130283631Y-104667614D01*
X130825143Y-104126100D01*
X130845215Y-104110538D01*
X130845142Y-104110439D01*
X130848758Y-104107791D01*
X130849754Y-104107020D01*
X130850055Y-104106841D01*
X130850060Y-104106839D01*
X131175663Y-103868506D01*
X131290563Y-103784402D01*
X131356286Y-103760689D01*
X131363804Y-103760461D01*
X131619950Y-103760461D01*
X131631881Y-103761492D01*
X131631914Y-103761125D01*
X131637125Y-103761585D01*
X131637131Y-103761586D01*
X131673345Y-103761720D01*
X131709554Y-103761854D01*
X131709556Y-103761854D01*
X131709556Y-103761853D01*
X131709559Y-103761854D01*
X131949183Y-103721916D01*
X131992146Y-103722302D01*
X132536032Y-103823054D01*
X132554388Y-103827935D01*
X132568121Y-103832741D01*
X132597543Y-103835500D01*
X132600238Y-103835499D01*
X132608685Y-103835787D01*
X132651806Y-103838735D01*
X132657132Y-103838486D01*
X132667952Y-103836865D01*
X132686313Y-103835499D01*
X133202454Y-103835499D01*
X133202456Y-103835499D01*
X133231879Y-103832741D01*
X133355794Y-103789381D01*
X133461423Y-103711423D01*
X133539381Y-103605794D01*
X133564508Y-103533986D01*
X133582741Y-103481881D01*
X133582741Y-103481879D01*
X133583872Y-103469816D01*
X133585500Y-103452457D01*
X133585499Y-102897544D01*
X133582741Y-102868121D01*
X133539381Y-102744206D01*
X133493567Y-102682130D01*
X133461423Y-102638576D01*
X133380042Y-102578515D01*
X133355794Y-102560619D01*
X133355792Y-102560618D01*
X133231880Y-102517258D01*
X133202461Y-102514500D01*
X132597546Y-102514500D01*
X132568125Y-102517258D01*
X132568115Y-102517260D01*
X132444206Y-102560618D01*
X132435994Y-102564958D01*
X132435816Y-102564621D01*
X132424789Y-102570958D01*
X131979978Y-102763070D01*
X131910628Y-102771579D01*
X131910427Y-102771546D01*
X131709565Y-102738070D01*
X131709562Y-102738069D01*
X131709558Y-102738069D01*
X131709554Y-102738069D01*
X131637144Y-102738333D01*
X131631933Y-102738794D01*
X131631900Y-102738429D01*
X131619953Y-102739462D01*
X130579344Y-102739462D01*
X130517940Y-102751675D01*
X130517938Y-102751676D01*
X130448311Y-102798200D01*
X130401788Y-102867827D01*
X130401786Y-102867831D01*
X130389575Y-102929224D01*
X130389575Y-103179818D01*
X130369890Y-103246857D01*
X130358704Y-103261690D01*
X130206525Y-103434791D01*
X130206523Y-103434794D01*
X130203179Y-103440362D01*
X130184566Y-103464187D01*
X129760712Y-103888042D01*
X129699389Y-103921527D01*
X129673031Y-103924361D01*
X128483831Y-103924361D01*
X128483815Y-103924360D01*
X128476219Y-103924360D01*
X128354967Y-103924360D01*
X128237847Y-103955742D01*
X128199277Y-103978011D01*
X128132842Y-104016367D01*
X128132836Y-104016371D01*
X128086231Y-104062977D01*
X128047101Y-104102107D01*
X128047099Y-104102109D01*
X127674528Y-104474680D01*
X127299805Y-104849402D01*
X127299804Y-104849402D01*
X127299805Y-104849403D01*
X127231507Y-104917701D01*
X127231506Y-104917703D01*
X127170883Y-105022704D01*
X127170882Y-105022707D01*
X127139500Y-105139828D01*
X127139500Y-107165565D01*
X127170882Y-107282688D01*
X127177015Y-107293310D01*
X127210925Y-107352043D01*
X127210926Y-107352044D01*
X127225216Y-107376797D01*
X127231508Y-107387694D01*
X127436499Y-107592685D01*
X127522237Y-107678423D01*
X127627244Y-107739049D01*
X127744365Y-107770431D01*
X127845396Y-107770431D01*
X127912435Y-107790116D01*
X127958190Y-107842920D01*
X127969396Y-107894430D01*
X127969396Y-108130650D01*
X127969397Y-108130651D01*
X127980364Y-108185794D01*
X127980364Y-108234172D01*
X127969396Y-108289314D01*
X127969396Y-108630777D01*
X127980339Y-108685792D01*
X127980339Y-108734170D01*
X127973322Y-108769451D01*
X127969396Y-108789187D01*
X127969396Y-109032639D01*
X127949711Y-109099678D01*
X127896907Y-109145433D01*
X127877490Y-109152414D01*
X127810173Y-109170451D01*
X127739373Y-109211328D01*
X127631433Y-109319267D01*
X127590557Y-109390067D01*
X127590556Y-109390069D01*
X127590556Y-109390070D01*
X127571486Y-109461242D01*
X127569396Y-109469041D01*
X127569396Y-110369040D01*
X127569396Y-110450798D01*
X127590556Y-110529768D01*
X127590557Y-110529769D01*
X127590557Y-110529770D01*
X127629685Y-110597543D01*
X127631434Y-110600571D01*
X127739117Y-110708253D01*
X127809919Y-110749131D01*
X127877490Y-110767236D01*
X127937149Y-110803599D01*
X127967679Y-110866446D01*
X127969396Y-110887010D01*
X127969396Y-111035555D01*
X127949711Y-111102594D01*
X127896907Y-111148349D01*
X127877494Y-111155328D01*
X127820106Y-111170706D01*
X127820105Y-111170706D01*
X127820103Y-111170707D01*
X127749306Y-111211581D01*
X127749301Y-111211585D01*
X127749302Y-111211585D01*
X125331801Y-113629083D01*
X125287465Y-113657579D01*
X124874440Y-113811677D01*
X124831095Y-113819500D01*
X124774513Y-113819500D01*
X124724199Y-113826123D01*
X124724196Y-113826124D01*
X124716069Y-113829914D01*
X124646991Y-113840402D01*
X124583209Y-113811879D01*
X124544973Y-113753400D01*
X124544422Y-113683533D01*
X124575987Y-113629852D01*
X125797544Y-112408294D01*
X125797549Y-112408291D01*
X125807752Y-112398087D01*
X125807754Y-112398087D01*
X125893492Y-112312349D01*
X125954118Y-112207342D01*
X125985500Y-112090221D01*
X125985500Y-111892601D01*
X125991078Y-111855827D01*
X126032028Y-111723956D01*
X126161277Y-111307741D01*
X126166150Y-111283052D01*
X126170758Y-111266120D01*
X126182741Y-111231879D01*
X126185500Y-111202457D01*
X126185499Y-110597544D01*
X126182741Y-110568121D01*
X126168227Y-110526643D01*
X126161948Y-110498646D01*
X126161277Y-110492258D01*
X125991078Y-109944171D01*
X125985500Y-109907397D01*
X125985500Y-109840383D01*
X126005185Y-109773344D01*
X126057989Y-109727589D01*
X126127145Y-109717645D01*
X126127344Y-109717674D01*
X126127378Y-109717679D01*
X126146739Y-109720500D01*
X126146740Y-109720500D01*
X126493261Y-109720500D01*
X126515971Y-109717191D01*
X126561393Y-109710573D01*
X126666483Y-109659198D01*
X126749198Y-109576483D01*
X126800573Y-109471393D01*
X126810500Y-109403260D01*
X126810500Y-108996740D01*
X126807516Y-108976263D01*
X126800573Y-108928607D01*
X126789153Y-108905247D01*
X126777393Y-108836374D01*
X126787759Y-108799274D01*
X126794268Y-108785023D01*
X126822156Y-108723956D01*
X126839978Y-108600000D01*
X126822156Y-108476044D01*
X126822155Y-108476040D01*
X126776487Y-108376044D01*
X126770133Y-108362130D01*
X126688124Y-108267487D01*
X126688123Y-108267486D01*
X126688122Y-108267485D01*
X126688119Y-108267483D01*
X126582779Y-108199785D01*
X126582775Y-108199783D01*
X126582773Y-108199782D01*
X126522694Y-108182141D01*
X126462616Y-108164500D01*
X126462615Y-108164500D01*
X126337385Y-108164500D01*
X126337384Y-108164500D01*
X126217227Y-108199782D01*
X126217220Y-108199785D01*
X126111880Y-108267483D01*
X126111877Y-108267486D01*
X126107741Y-108272259D01*
X126048961Y-108310030D01*
X125979091Y-108310026D01*
X125920315Y-108272249D01*
X125906645Y-108253051D01*
X125895745Y-108234172D01*
X125893492Y-108230269D01*
X125883701Y-108220478D01*
X125850216Y-108159155D01*
X125855200Y-108089463D01*
X125897072Y-108033530D01*
X125936446Y-108013820D01*
X125982773Y-108000218D01*
X126088124Y-107932513D01*
X126170133Y-107837870D01*
X126222156Y-107723956D01*
X126239978Y-107600000D01*
X126222156Y-107476044D01*
X126222155Y-107476040D01*
X126170133Y-107362131D01*
X126170132Y-107362129D01*
X126161392Y-107352043D01*
X126140786Y-107328262D01*
X126111762Y-107264707D01*
X126110500Y-107247060D01*
X126110500Y-107096739D01*
X126101134Y-107032455D01*
X126100573Y-107028607D01*
X126049198Y-106923517D01*
X126049196Y-106923515D01*
X126049196Y-106923514D01*
X125966485Y-106840803D01*
X125957963Y-106836637D01*
X125906340Y-106811400D01*
X125854759Y-106764273D01*
X125836844Y-106696739D01*
X125858285Y-106630240D01*
X125906339Y-106588599D01*
X125966483Y-106559198D01*
X126049198Y-106476483D01*
X126100573Y-106371393D01*
X126110500Y-106303260D01*
X126110500Y-105896740D01*
X126110475Y-105896571D01*
X126103110Y-105846018D01*
X126100573Y-105828607D01*
X126049198Y-105723517D01*
X126049196Y-105723515D01*
X126049196Y-105723514D01*
X125966485Y-105640803D01*
X125861391Y-105589426D01*
X125793261Y-105579500D01*
X125793260Y-105579500D01*
X125446740Y-105579500D01*
X125389884Y-105587783D01*
X125374216Y-105585561D01*
X125369063Y-105592161D01*
X125351252Y-105602800D01*
X125273514Y-105640803D01*
X125190802Y-105723515D01*
X125145596Y-105815986D01*
X125123981Y-105847051D01*
X125052179Y-105922429D01*
X125034468Y-105937805D01*
X124724801Y-106158999D01*
X124724773Y-106158959D01*
X124719753Y-106162423D01*
X124711881Y-106167482D01*
X124711872Y-106167490D01*
X124710422Y-106169164D01*
X124707017Y-106172617D01*
X124701277Y-106179100D01*
X124696650Y-106185057D01*
X124678214Y-106206334D01*
X124619437Y-106244110D01*
X124549567Y-106244111D01*
X124490788Y-106206337D01*
X124461762Y-106142782D01*
X124460500Y-106125133D01*
X124460500Y-105868109D01*
X124480185Y-105801070D01*
X124521156Y-105761510D01*
X125124723Y-105402896D01*
X125188062Y-105385499D01*
X125202454Y-105385499D01*
X125202456Y-105385499D01*
X125231879Y-105382741D01*
X125255836Y-105374357D01*
X125297461Y-105372232D01*
X125320285Y-105352381D01*
X125331043Y-105348041D01*
X125355794Y-105339381D01*
X125461423Y-105261423D01*
X125539381Y-105155794D01*
X125582353Y-105032989D01*
X125582741Y-105031881D01*
X125582741Y-105031879D01*
X125583421Y-105024629D01*
X125585500Y-105002457D01*
X125585499Y-104397544D01*
X125582741Y-104368121D01*
X125568227Y-104326643D01*
X125561948Y-104298646D01*
X125561277Y-104292258D01*
X125419528Y-103835788D01*
X125391078Y-103744171D01*
X125385500Y-103707397D01*
X125385500Y-103630594D01*
X125385500Y-103630592D01*
X125354118Y-103513471D01*
X125293492Y-103408464D01*
X125276165Y-103391137D01*
X125242680Y-103329814D01*
X125241795Y-103325352D01*
X125215719Y-103179818D01*
X125201492Y-103100411D01*
X125201911Y-103100335D01*
X125199006Y-103076337D01*
X125199006Y-102536746D01*
X125218691Y-102469707D01*
X125271495Y-102423952D01*
X125340653Y-102414008D01*
X125404209Y-102443033D01*
X125410687Y-102449065D01*
X125835823Y-102874202D01*
X125835826Y-102874205D01*
X125918179Y-102929231D01*
X125935820Y-102941018D01*
X126046924Y-102987039D01*
X126048690Y-102987390D01*
X126049528Y-102987828D01*
X126052754Y-102988807D01*
X126052568Y-102989418D01*
X126110601Y-103019772D01*
X126141667Y-103068405D01*
X126232664Y-103330983D01*
X126239500Y-103371586D01*
X126239500Y-103460626D01*
X126270882Y-103577747D01*
X126331508Y-103682754D01*
X126417246Y-103768492D01*
X126522253Y-103829118D01*
X126639374Y-103860500D01*
X126639376Y-103860500D01*
X126760624Y-103860500D01*
X126760626Y-103860500D01*
X126877747Y-103829118D01*
X126982754Y-103768492D01*
X127068492Y-103682754D01*
X127129118Y-103577747D01*
X127160500Y-103460626D01*
X127160500Y-103371586D01*
X127167336Y-103330985D01*
X127203519Y-103226575D01*
X127262888Y-103055258D01*
X127303438Y-102998363D01*
X127355487Y-102974321D01*
X127529325Y-102939191D01*
X127659143Y-102912957D01*
X127683705Y-102910500D01*
X128725053Y-102910500D01*
X128725054Y-102910499D01*
X128842999Y-102887039D01*
X128954103Y-102841018D01*
X128962924Y-102835123D01*
X128968504Y-102831396D01*
X129035182Y-102810519D01*
X129037393Y-102810499D01*
X129220655Y-102810499D01*
X129220657Y-102810499D01*
X129282058Y-102798287D01*
X129351687Y-102751762D01*
X129351745Y-102751676D01*
X129387914Y-102697545D01*
X129398212Y-102682133D01*
X129400999Y-102668125D01*
X129410424Y-102620736D01*
X129410425Y-102620733D01*
X129410424Y-101979268D01*
X129398212Y-101917867D01*
X129398210Y-101917865D01*
X129398210Y-101917863D01*
X129351686Y-101848236D01*
X129282059Y-101801713D01*
X129282055Y-101801711D01*
X129220662Y-101789500D01*
X129220658Y-101789500D01*
X129037391Y-101789500D01*
X128970352Y-101769815D01*
X128968501Y-101768602D01*
X128954105Y-101758983D01*
X128954101Y-101758981D01*
X128842999Y-101712961D01*
X128842991Y-101712959D01*
X128725056Y-101689500D01*
X128725052Y-101689500D01*
X127638288Y-101689500D01*
X127620518Y-101688220D01*
X127601361Y-101685446D01*
X127527566Y-101689329D01*
X127521050Y-101689500D01*
X126739867Y-101689500D01*
X126708694Y-101695700D01*
X126654060Y-101694286D01*
X126323696Y-101610607D01*
X126266462Y-101578084D01*
X125347956Y-100659578D01*
X125347952Y-100659575D01*
X125244757Y-100590622D01*
X125199952Y-100537010D01*
X125192030Y-100511708D01*
X125186794Y-100485380D01*
X125186792Y-100485378D01*
X125186792Y-100485376D01*
X125140268Y-100415749D01*
X125070641Y-100369226D01*
X125062997Y-100366060D01*
X125008594Y-100322218D01*
X124986531Y-100255923D01*
X125003811Y-100188224D01*
X125054950Y-100140615D01*
X125110452Y-100127500D01*
X132970899Y-100127500D01*
X132995933Y-100127500D01*
X133004042Y-100127765D01*
X133025793Y-100129190D01*
X133236316Y-100142988D01*
X133252375Y-100145103D01*
X133476677Y-100189720D01*
X133492322Y-100193912D01*
X133708886Y-100267426D01*
X133723857Y-100273627D01*
X133843652Y-100332703D01*
X133928960Y-100374772D01*
X133943007Y-100382882D01*
X133960908Y-100394843D01*
X134133152Y-100509933D01*
X134146012Y-100519801D01*
X134215454Y-100580700D01*
X134317946Y-100670584D01*
X134329415Y-100682053D01*
X134480195Y-100853983D01*
X134490069Y-100866851D01*
X134617117Y-101056992D01*
X134625227Y-101071039D01*
X134726369Y-101276135D01*
X134732576Y-101291120D01*
X134806084Y-101507666D01*
X134810281Y-101523333D01*
X134827642Y-101610607D01*
X134854894Y-101747612D01*
X134857012Y-101763693D01*
X134859504Y-101801711D01*
X134867927Y-101930235D01*
X134872235Y-101995956D01*
X134872500Y-102004066D01*
X134872500Y-117995933D01*
X134872235Y-118004043D01*
X134857012Y-118236306D01*
X134854894Y-118252387D01*
X134810282Y-118476665D01*
X134806084Y-118492333D01*
X134732576Y-118708879D01*
X134726369Y-118723864D01*
X134625227Y-118928960D01*
X134617117Y-118943007D01*
X134490069Y-119133148D01*
X134480195Y-119146016D01*
X134329415Y-119317946D01*
X134317946Y-119329415D01*
X134146016Y-119480195D01*
X134133148Y-119490069D01*
X133943007Y-119617117D01*
X133928960Y-119625227D01*
X133723864Y-119726369D01*
X133708879Y-119732576D01*
X133492333Y-119806084D01*
X133476665Y-119810282D01*
X133252387Y-119854894D01*
X133236306Y-119857012D01*
X133004043Y-119872235D01*
X132995933Y-119872500D01*
X102004067Y-119872500D01*
X101995957Y-119872235D01*
X101763693Y-119857012D01*
X101747612Y-119854894D01*
X101523334Y-119810282D01*
X101507666Y-119806084D01*
X101291120Y-119732576D01*
X101276135Y-119726369D01*
X101071039Y-119625227D01*
X101056992Y-119617117D01*
X100866851Y-119490069D01*
X100853983Y-119480195D01*
X100682053Y-119329415D01*
X100670584Y-119317946D01*
X100554907Y-119186043D01*
X100519801Y-119146012D01*
X100509930Y-119133148D01*
X100382882Y-118943007D01*
X100374772Y-118928960D01*
X100295631Y-118768477D01*
X100273627Y-118723857D01*
X100267426Y-118708886D01*
X100193912Y-118492322D01*
X100189720Y-118476677D01*
X100145103Y-118252375D01*
X100142988Y-118236316D01*
X100127765Y-118004042D01*
X100127500Y-117995933D01*
X100127500Y-117602351D01*
X101199500Y-117602351D01*
X101231522Y-117804534D01*
X101294781Y-117999223D01*
X101387715Y-118181613D01*
X101508028Y-118347213D01*
X101652786Y-118491971D01*
X101807749Y-118604556D01*
X101818390Y-118612287D01*
X101934607Y-118671503D01*
X102000776Y-118705218D01*
X102000778Y-118705218D01*
X102000781Y-118705220D01*
X102105137Y-118739127D01*
X102195465Y-118768477D01*
X102296557Y-118784488D01*
X102397648Y-118800500D01*
X102397649Y-118800500D01*
X102602351Y-118800500D01*
X102602352Y-118800500D01*
X102804534Y-118768477D01*
X102999219Y-118705220D01*
X103181610Y-118612287D01*
X103325299Y-118507892D01*
X103347213Y-118491971D01*
X103347215Y-118491968D01*
X103347219Y-118491966D01*
X103491966Y-118347219D01*
X103491968Y-118347215D01*
X103491971Y-118347213D01*
X103526273Y-118300000D01*
X121134369Y-118300000D01*
X121154844Y-118507892D01*
X121154845Y-118507894D01*
X121215485Y-118707799D01*
X121215486Y-118707802D01*
X121215487Y-118707803D01*
X121215488Y-118707806D01*
X121313956Y-118892027D01*
X121313960Y-118892034D01*
X121446484Y-119053515D01*
X121607965Y-119186039D01*
X121607972Y-119186043D01*
X121792193Y-119284511D01*
X121792194Y-119284511D01*
X121792201Y-119284515D01*
X121992106Y-119345155D01*
X121992105Y-119345155D01*
X122010745Y-119346990D01*
X122200000Y-119365631D01*
X122407894Y-119345155D01*
X122607799Y-119284515D01*
X122792033Y-119186040D01*
X122953515Y-119053515D01*
X123086040Y-118892033D01*
X123184515Y-118707799D01*
X123245155Y-118507894D01*
X123265631Y-118300000D01*
X123674369Y-118300000D01*
X123694844Y-118507892D01*
X123694845Y-118507894D01*
X123755485Y-118707799D01*
X123755486Y-118707802D01*
X123755487Y-118707803D01*
X123755488Y-118707806D01*
X123853956Y-118892027D01*
X123853960Y-118892034D01*
X123986484Y-119053515D01*
X124147965Y-119186039D01*
X124147972Y-119186043D01*
X124332193Y-119284511D01*
X124332194Y-119284511D01*
X124332201Y-119284515D01*
X124532106Y-119345155D01*
X124532105Y-119345155D01*
X124550745Y-119346990D01*
X124740000Y-119365631D01*
X124947894Y-119345155D01*
X125147799Y-119284515D01*
X125332033Y-119186040D01*
X125493515Y-119053515D01*
X125626040Y-118892033D01*
X125724515Y-118707799D01*
X125785155Y-118507894D01*
X125805631Y-118300000D01*
X125785155Y-118092106D01*
X125724515Y-117892201D01*
X125626040Y-117707967D01*
X125626039Y-117707965D01*
X125539364Y-117602351D01*
X131099500Y-117602351D01*
X131131522Y-117804534D01*
X131194781Y-117999223D01*
X131287715Y-118181613D01*
X131408028Y-118347213D01*
X131552786Y-118491971D01*
X131707749Y-118604556D01*
X131718390Y-118612287D01*
X131834607Y-118671503D01*
X131900776Y-118705218D01*
X131900778Y-118705218D01*
X131900781Y-118705220D01*
X132005137Y-118739127D01*
X132095465Y-118768477D01*
X132196557Y-118784488D01*
X132297648Y-118800500D01*
X132297649Y-118800500D01*
X132502351Y-118800500D01*
X132502352Y-118800500D01*
X132704534Y-118768477D01*
X132899219Y-118705220D01*
X133081610Y-118612287D01*
X133225299Y-118507892D01*
X133247213Y-118491971D01*
X133247215Y-118491968D01*
X133247219Y-118491966D01*
X133391966Y-118347219D01*
X133391968Y-118347215D01*
X133391971Y-118347213D01*
X133460865Y-118252387D01*
X133512287Y-118181610D01*
X133605220Y-117999219D01*
X133668477Y-117804534D01*
X133700500Y-117602352D01*
X133700500Y-117397648D01*
X133687487Y-117315487D01*
X133668477Y-117195465D01*
X133605218Y-117000776D01*
X133526772Y-116846819D01*
X133512287Y-116818390D01*
X133491180Y-116789338D01*
X133391971Y-116652786D01*
X133247213Y-116508028D01*
X133081613Y-116387715D01*
X133081612Y-116387714D01*
X133081610Y-116387713D01*
X133024653Y-116358691D01*
X132899223Y-116294781D01*
X132704534Y-116231522D01*
X132529995Y-116203878D01*
X132502352Y-116199500D01*
X132297648Y-116199500D01*
X132273329Y-116203351D01*
X132095465Y-116231522D01*
X131900776Y-116294781D01*
X131718386Y-116387715D01*
X131552786Y-116508028D01*
X131408028Y-116652786D01*
X131287715Y-116818386D01*
X131194781Y-117000776D01*
X131131522Y-117195465D01*
X131099500Y-117397648D01*
X131099500Y-117602351D01*
X125539364Y-117602351D01*
X125493515Y-117546484D01*
X125332034Y-117413960D01*
X125332027Y-117413956D01*
X125147806Y-117315488D01*
X125147803Y-117315487D01*
X125147802Y-117315486D01*
X125147799Y-117315485D01*
X124947894Y-117254845D01*
X124947892Y-117254844D01*
X124947894Y-117254844D01*
X124740000Y-117234369D01*
X124532107Y-117254844D01*
X124414075Y-117290648D01*
X124332201Y-117315485D01*
X124332198Y-117315486D01*
X124332196Y-117315487D01*
X124332193Y-117315488D01*
X124147972Y-117413956D01*
X124147965Y-117413960D01*
X123986484Y-117546484D01*
X123853960Y-117707965D01*
X123853956Y-117707972D01*
X123755488Y-117892193D01*
X123755487Y-117892196D01*
X123694844Y-118092107D01*
X123674369Y-118300000D01*
X123265631Y-118300000D01*
X123245155Y-118092106D01*
X123184515Y-117892201D01*
X123086040Y-117707967D01*
X123086039Y-117707965D01*
X122953515Y-117546484D01*
X122792034Y-117413960D01*
X122792027Y-117413956D01*
X122607806Y-117315488D01*
X122607803Y-117315487D01*
X122607802Y-117315486D01*
X122607799Y-117315485D01*
X122407894Y-117254845D01*
X122407892Y-117254844D01*
X122407894Y-117254844D01*
X122200000Y-117234369D01*
X121992107Y-117254844D01*
X121874075Y-117290648D01*
X121792201Y-117315485D01*
X121792198Y-117315486D01*
X121792196Y-117315487D01*
X121792193Y-117315488D01*
X121607972Y-117413956D01*
X121607965Y-117413960D01*
X121446484Y-117546484D01*
X121313960Y-117707965D01*
X121313956Y-117707972D01*
X121215488Y-117892193D01*
X121215487Y-117892196D01*
X121154844Y-118092107D01*
X121134369Y-118300000D01*
X103526273Y-118300000D01*
X103560865Y-118252387D01*
X103612287Y-118181610D01*
X103705220Y-117999219D01*
X103768477Y-117804534D01*
X103800500Y-117602352D01*
X103800500Y-117397648D01*
X103787487Y-117315487D01*
X103768477Y-117195465D01*
X103705218Y-117000776D01*
X103626772Y-116846819D01*
X103612287Y-116818390D01*
X103591180Y-116789338D01*
X103491971Y-116652786D01*
X103347213Y-116508028D01*
X103181613Y-116387715D01*
X103181612Y-116387714D01*
X103181610Y-116387713D01*
X103124653Y-116358691D01*
X102999223Y-116294781D01*
X102804534Y-116231522D01*
X102629995Y-116203878D01*
X102602352Y-116199500D01*
X102397648Y-116199500D01*
X102373329Y-116203351D01*
X102195465Y-116231522D01*
X102000776Y-116294781D01*
X101818386Y-116387715D01*
X101652786Y-116508028D01*
X101508028Y-116652786D01*
X101387715Y-116818386D01*
X101294781Y-117000776D01*
X101231522Y-117195465D01*
X101199500Y-117397648D01*
X101199500Y-117602351D01*
X100127500Y-117602351D01*
X100127500Y-109840005D01*
X101648037Y-109840005D01*
X101660075Y-110085047D01*
X101660075Y-110085053D01*
X101660076Y-110085055D01*
X101686100Y-110260500D01*
X101696073Y-110327730D01*
X101746681Y-110529768D01*
X101755686Y-110565715D01*
X101755691Y-110565732D01*
X101838330Y-110796693D01*
X101838338Y-110796713D01*
X101943233Y-111018496D01*
X101943236Y-111018501D01*
X101943237Y-111018503D01*
X102052586Y-111200942D01*
X102069362Y-111228930D01*
X102181514Y-111380150D01*
X102215514Y-111425993D01*
X102272298Y-111488643D01*
X102380270Y-111607771D01*
X102562053Y-111772531D01*
X102759111Y-111918679D01*
X102969545Y-112044808D01*
X103191328Y-112149703D01*
X103191342Y-112149708D01*
X103191347Y-112149710D01*
X103411850Y-112228607D01*
X103422325Y-112232355D01*
X103660311Y-112291968D01*
X103902994Y-112327966D01*
X104148037Y-112340005D01*
X104393079Y-112327966D01*
X104635762Y-112291968D01*
X104873748Y-112232355D01*
X105104745Y-112149703D01*
X105326528Y-112044808D01*
X105536962Y-111918679D01*
X105734020Y-111772531D01*
X105915803Y-111607771D01*
X106080563Y-111425988D01*
X106226711Y-111228930D01*
X106352840Y-111018496D01*
X106457735Y-110796713D01*
X106540387Y-110565716D01*
X106600000Y-110327730D01*
X106635998Y-110085047D01*
X106648037Y-109840005D01*
X106635998Y-109594962D01*
X106600000Y-109352279D01*
X106540387Y-109114293D01*
X106526076Y-109074297D01*
X106457742Y-108883315D01*
X106457740Y-108883310D01*
X106457735Y-108883296D01*
X106352840Y-108661513D01*
X106226711Y-108451079D01*
X106080563Y-108254021D01*
X105915803Y-108072238D01*
X105784046Y-107952819D01*
X105734025Y-107907482D01*
X105716426Y-107894430D01*
X105536962Y-107761330D01*
X105506490Y-107743066D01*
X105326535Y-107635205D01*
X105326533Y-107635204D01*
X105326528Y-107635201D01*
X105104745Y-107530306D01*
X105104725Y-107530298D01*
X104873764Y-107447659D01*
X104873752Y-107447655D01*
X104873748Y-107447654D01*
X104635762Y-107388041D01*
X104635761Y-107388040D01*
X104635758Y-107388040D01*
X104393087Y-107352044D01*
X104393085Y-107352043D01*
X104393079Y-107352043D01*
X104148037Y-107340005D01*
X104148036Y-107340005D01*
X104128203Y-107340979D01*
X103902994Y-107352043D01*
X103902988Y-107352043D01*
X103902985Y-107352044D01*
X103660314Y-107388040D01*
X103422325Y-107447654D01*
X103422308Y-107447659D01*
X103191347Y-107530298D01*
X103191327Y-107530306D01*
X103059438Y-107592685D01*
X102984418Y-107628167D01*
X102969537Y-107635205D01*
X102759113Y-107761328D01*
X102562047Y-107907482D01*
X102380270Y-108072238D01*
X102215514Y-108254015D01*
X102069360Y-108451081D01*
X101943237Y-108661505D01*
X101838338Y-108883295D01*
X101838330Y-108883315D01*
X101755691Y-109114276D01*
X101755686Y-109114293D01*
X101696072Y-109352282D01*
X101660076Y-109594953D01*
X101660075Y-109594962D01*
X101648037Y-109840005D01*
X100127500Y-109840005D01*
X100127500Y-105171022D01*
X103889728Y-105171022D01*
X103901941Y-105232426D01*
X103901942Y-105232428D01*
X103948466Y-105302055D01*
X104018093Y-105348578D01*
X104018097Y-105348580D01*
X104054867Y-105355893D01*
X104079495Y-105360792D01*
X105520504Y-105360791D01*
X105581905Y-105348579D01*
X105651534Y-105302054D01*
X105698059Y-105232425D01*
X105710272Y-105171025D01*
X105710271Y-104718650D01*
X105713143Y-104692119D01*
X105795320Y-104316956D01*
X105808177Y-104258259D01*
X105841750Y-104196985D01*
X105903121Y-104163588D01*
X105929305Y-104160792D01*
X106365728Y-104160792D01*
X106432767Y-104180477D01*
X106478522Y-104233281D01*
X106489728Y-104284792D01*
X106489728Y-105171023D01*
X106501941Y-105232425D01*
X106501942Y-105232428D01*
X106548466Y-105302055D01*
X106618093Y-105348578D01*
X106618097Y-105348580D01*
X106654867Y-105355893D01*
X106679495Y-105360792D01*
X108120504Y-105360791D01*
X108181905Y-105348579D01*
X108251534Y-105302054D01*
X108294052Y-105238421D01*
X108321825Y-105208817D01*
X108645918Y-104960996D01*
X108711129Y-104935913D01*
X108721238Y-104935500D01*
X109041203Y-104935500D01*
X109091947Y-104946358D01*
X109552560Y-105152945D01*
X109552561Y-105152945D01*
X109552565Y-105152947D01*
X109568945Y-105158110D01*
X109587955Y-105165887D01*
X109596567Y-105170275D01*
X109596568Y-105170275D01*
X109596569Y-105170276D01*
X109639638Y-105177096D01*
X109692693Y-105185500D01*
X110307306Y-105185499D01*
X110307311Y-105185499D01*
X110307311Y-105185498D01*
X110355369Y-105177887D01*
X110403428Y-105170276D01*
X110403429Y-105170276D01*
X110403430Y-105170275D01*
X110403433Y-105170275D01*
X110519294Y-105111241D01*
X110611241Y-105019294D01*
X110670275Y-104903433D01*
X110685500Y-104807307D01*
X110685499Y-104342694D01*
X110685499Y-104342688D01*
X110670276Y-104246571D01*
X110670276Y-104246570D01*
X110670275Y-104246568D01*
X110670275Y-104246567D01*
X110611241Y-104130706D01*
X110611239Y-104130704D01*
X110611236Y-104130700D01*
X110519299Y-104038763D01*
X110519295Y-104038760D01*
X110519294Y-104038759D01*
X110403433Y-103979725D01*
X110403431Y-103979724D01*
X110403428Y-103979723D01*
X110307307Y-103964500D01*
X109692688Y-103964500D01*
X109692688Y-103964501D01*
X109596569Y-103979724D01*
X109596565Y-103979725D01*
X109584383Y-103985932D01*
X109555800Y-103996309D01*
X109552567Y-103997050D01*
X109552563Y-103997051D01*
X109091948Y-104203641D01*
X109041203Y-104214500D01*
X108695995Y-104214500D01*
X108636286Y-104199178D01*
X108632294Y-104196985D01*
X108511659Y-104130706D01*
X108345008Y-104039145D01*
X108295731Y-103989611D01*
X108281056Y-103921300D01*
X108305643Y-103855899D01*
X108317029Y-103842793D01*
X110023394Y-102136428D01*
X110046083Y-102118508D01*
X110053062Y-102114214D01*
X110364758Y-101825000D01*
X117849369Y-101825000D01*
X117869844Y-102032892D01*
X117869845Y-102032894D01*
X117930485Y-102232799D01*
X117930486Y-102232802D01*
X117930487Y-102232803D01*
X117930488Y-102232806D01*
X118028956Y-102417027D01*
X118028960Y-102417034D01*
X118161484Y-102578515D01*
X118322965Y-102711039D01*
X118322972Y-102711043D01*
X118507193Y-102809511D01*
X118507194Y-102809511D01*
X118507201Y-102809515D01*
X118707106Y-102870155D01*
X118707105Y-102870155D01*
X118725745Y-102871990D01*
X118915000Y-102890631D01*
X119122894Y-102870155D01*
X119322799Y-102809515D01*
X119507033Y-102711040D01*
X119668515Y-102578515D01*
X119801040Y-102417033D01*
X119899515Y-102232799D01*
X119960155Y-102032894D01*
X119980631Y-101825000D01*
X120389369Y-101825000D01*
X120409844Y-102032892D01*
X120409845Y-102032894D01*
X120470485Y-102232799D01*
X120470486Y-102232802D01*
X120470487Y-102232803D01*
X120470488Y-102232806D01*
X120568956Y-102417027D01*
X120568960Y-102417034D01*
X120701484Y-102578515D01*
X120862965Y-102711039D01*
X120862972Y-102711043D01*
X121047193Y-102809511D01*
X121047194Y-102809511D01*
X121047201Y-102809515D01*
X121247106Y-102870155D01*
X121247105Y-102870155D01*
X121265745Y-102871990D01*
X121455000Y-102890631D01*
X121662894Y-102870155D01*
X121862799Y-102809515D01*
X122047033Y-102711040D01*
X122208515Y-102578515D01*
X122341040Y-102417033D01*
X122439515Y-102232799D01*
X122500155Y-102032894D01*
X122520631Y-101825000D01*
X122500155Y-101617106D01*
X122439515Y-101417201D01*
X122423752Y-101387710D01*
X122341043Y-101232972D01*
X122341039Y-101232965D01*
X122208515Y-101071484D01*
X122047034Y-100938960D01*
X122047027Y-100938956D01*
X121862806Y-100840488D01*
X121862803Y-100840487D01*
X121862802Y-100840486D01*
X121862799Y-100840485D01*
X121662894Y-100779845D01*
X121662892Y-100779844D01*
X121662894Y-100779844D01*
X121455000Y-100759369D01*
X121247107Y-100779844D01*
X121129606Y-100815488D01*
X121047201Y-100840485D01*
X121047198Y-100840486D01*
X121047196Y-100840487D01*
X121047193Y-100840488D01*
X120862972Y-100938956D01*
X120862965Y-100938960D01*
X120701484Y-101071484D01*
X120568960Y-101232965D01*
X120568956Y-101232972D01*
X120470488Y-101417193D01*
X120470487Y-101417196D01*
X120470486Y-101417198D01*
X120470485Y-101417201D01*
X120445648Y-101499075D01*
X120409844Y-101617107D01*
X120389369Y-101825000D01*
X119980631Y-101825000D01*
X119960155Y-101617106D01*
X119899515Y-101417201D01*
X119883752Y-101387710D01*
X119801043Y-101232972D01*
X119801039Y-101232965D01*
X119668515Y-101071484D01*
X119507034Y-100938960D01*
X119507027Y-100938956D01*
X119322806Y-100840488D01*
X119322803Y-100840487D01*
X119322802Y-100840486D01*
X119322799Y-100840485D01*
X119122894Y-100779845D01*
X119122892Y-100779844D01*
X119122894Y-100779844D01*
X118915000Y-100759369D01*
X118707107Y-100779844D01*
X118589606Y-100815488D01*
X118507201Y-100840485D01*
X118507198Y-100840486D01*
X118507196Y-100840487D01*
X118507193Y-100840488D01*
X118322972Y-100938956D01*
X118322965Y-100938960D01*
X118161484Y-101071484D01*
X118028960Y-101232965D01*
X118028956Y-101232972D01*
X117930488Y-101417193D01*
X117930487Y-101417196D01*
X117930486Y-101417198D01*
X117930485Y-101417201D01*
X117905648Y-101499075D01*
X117869844Y-101617107D01*
X117849369Y-101825000D01*
X110364758Y-101825000D01*
X110435813Y-101759070D01*
X110463857Y-101739486D01*
X110519294Y-101711241D01*
X110611241Y-101619294D01*
X110670275Y-101503433D01*
X110670459Y-101502275D01*
X110681507Y-101432516D01*
X110685499Y-101407311D01*
X111114500Y-101407311D01*
X111129723Y-101503428D01*
X111129723Y-101503429D01*
X111129724Y-101503432D01*
X111129725Y-101503433D01*
X111187644Y-101617106D01*
X111188760Y-101619295D01*
X111188763Y-101619299D01*
X111280700Y-101711236D01*
X111280703Y-101711238D01*
X111280706Y-101711241D01*
X111396567Y-101770275D01*
X111396569Y-101770275D01*
X111396571Y-101770276D01*
X111425728Y-101774893D01*
X111492693Y-101785500D01*
X111957306Y-101785499D01*
X111957311Y-101785499D01*
X111957311Y-101785498D01*
X112005369Y-101777887D01*
X112053428Y-101770276D01*
X112053429Y-101770276D01*
X112053430Y-101770275D01*
X112053433Y-101770275D01*
X112169294Y-101711241D01*
X112195498Y-101685035D01*
X112220037Y-101665997D01*
X112407444Y-101555135D01*
X112475164Y-101537945D01*
X112477722Y-101538066D01*
X112480273Y-101538213D01*
X112481711Y-101538297D01*
X112481711Y-101538296D01*
X112481712Y-101538297D01*
X112486249Y-101537477D01*
X112508302Y-101535500D01*
X112562616Y-101535500D01*
X112584843Y-101528972D01*
X112682773Y-101500218D01*
X112788124Y-101432513D01*
X112870133Y-101337870D01*
X112922156Y-101223956D01*
X112939978Y-101100000D01*
X112922156Y-100976044D01*
X112922155Y-100976040D01*
X112870133Y-100862131D01*
X112870133Y-100862130D01*
X112788124Y-100767487D01*
X112788123Y-100767486D01*
X112788122Y-100767485D01*
X112788119Y-100767483D01*
X112682779Y-100699785D01*
X112682775Y-100699783D01*
X112682773Y-100699782D01*
X112584350Y-100670882D01*
X112562616Y-100664500D01*
X112562615Y-100664500D01*
X112474570Y-100664500D01*
X112411435Y-100647224D01*
X112220037Y-100533998D01*
X112195491Y-100514955D01*
X112169299Y-100488763D01*
X112169295Y-100488760D01*
X112169294Y-100488759D01*
X112053433Y-100429725D01*
X112053431Y-100429724D01*
X112053428Y-100429723D01*
X111957307Y-100414500D01*
X111492688Y-100414500D01*
X111492688Y-100414501D01*
X111396571Y-100429723D01*
X111396570Y-100429723D01*
X111280704Y-100488760D01*
X111280700Y-100488763D01*
X111188763Y-100580700D01*
X111188760Y-100580704D01*
X111129723Y-100696571D01*
X111114500Y-100792692D01*
X111114500Y-101407311D01*
X110685499Y-101407311D01*
X110685500Y-101407307D01*
X110685499Y-100792694D01*
X110685499Y-100792692D01*
X110685499Y-100792688D01*
X110670276Y-100696571D01*
X110670276Y-100696570D01*
X110670275Y-100696568D01*
X110670275Y-100696567D01*
X110611241Y-100580706D01*
X110611239Y-100580704D01*
X110611236Y-100580700D01*
X110519299Y-100488763D01*
X110519295Y-100488760D01*
X110519294Y-100488759D01*
X110403433Y-100429725D01*
X110403431Y-100429724D01*
X110403428Y-100429723D01*
X110307307Y-100414500D01*
X109842688Y-100414500D01*
X109842688Y-100414501D01*
X109746571Y-100429723D01*
X109746570Y-100429723D01*
X109630704Y-100488760D01*
X109630700Y-100488763D01*
X109538763Y-100580700D01*
X109538760Y-100580704D01*
X109479723Y-100696571D01*
X109464500Y-100792692D01*
X109464500Y-101349325D01*
X109462776Y-101369931D01*
X109459779Y-101387712D01*
X109466575Y-101618534D01*
X109448872Y-101686124D01*
X109430310Y-101709864D01*
X107736703Y-103403473D01*
X107675380Y-103436958D01*
X107649022Y-103439792D01*
X105602539Y-103439792D01*
X105510850Y-103464359D01*
X105428644Y-103511821D01*
X105422203Y-103516765D01*
X105421650Y-103516045D01*
X105396124Y-103533986D01*
X104559200Y-103927982D01*
X104506385Y-103939792D01*
X104079497Y-103939792D01*
X104018094Y-103952005D01*
X104018091Y-103952006D01*
X103948464Y-103998530D01*
X103901941Y-104068157D01*
X103901939Y-104068161D01*
X103889728Y-104129554D01*
X103889728Y-105171022D01*
X100127500Y-105171022D01*
X100127500Y-102004066D01*
X100127765Y-101995957D01*
X100130982Y-101946869D01*
X100142988Y-101763681D01*
X100145103Y-101747625D01*
X100189721Y-101523318D01*
X100193910Y-101507681D01*
X100267427Y-101291108D01*
X100273624Y-101276147D01*
X100374775Y-101071033D01*
X100382878Y-101056998D01*
X100509938Y-100866839D01*
X100519795Y-100853994D01*
X100670589Y-100682047D01*
X100682047Y-100670589D01*
X100853994Y-100519795D01*
X100866839Y-100509938D01*
X101056998Y-100382878D01*
X101071033Y-100374775D01*
X101276147Y-100273624D01*
X101291108Y-100267427D01*
X101507681Y-100193910D01*
X101523318Y-100189721D01*
X101747625Y-100145103D01*
X101763681Y-100142988D01*
X101975734Y-100129090D01*
X101995958Y-100127765D01*
X102004067Y-100127500D01*
X102029101Y-100127500D01*
X123489548Y-100127500D01*
X123556587Y-100147185D01*
G37*
%TD.AperFunction*%
%TA.AperFunction,Conductor*%
G36*
X127888730Y-112052895D02*
G01*
X127944663Y-112094767D01*
X127969080Y-112160231D01*
X127969396Y-112169076D01*
X127969396Y-112405770D01*
X127981609Y-112467173D01*
X127981610Y-112467176D01*
X128028134Y-112536803D01*
X128097761Y-112583326D01*
X128097765Y-112583328D01*
X128134535Y-112590641D01*
X128159163Y-112595540D01*
X129133723Y-112595539D01*
X129200762Y-112615223D01*
X129246517Y-112668027D01*
X129253498Y-112687445D01*
X129287004Y-112812491D01*
X129287006Y-112812496D01*
X129359475Y-112938016D01*
X129359479Y-112938021D01*
X129359480Y-112938023D01*
X129461977Y-113040520D01*
X129461978Y-113040521D01*
X129461980Y-113040522D01*
X129466206Y-113042962D01*
X129514422Y-113093529D01*
X129527645Y-113162136D01*
X129501677Y-113227001D01*
X129444762Y-113267529D01*
X129404206Y-113274349D01*
X128754899Y-113274349D01*
X128607984Y-113303572D01*
X128607976Y-113303574D01*
X128469577Y-113360900D01*
X128469568Y-113360905D01*
X128345016Y-113444129D01*
X128345012Y-113444132D01*
X128239090Y-113550054D01*
X128239087Y-113550058D01*
X128155863Y-113674610D01*
X128155858Y-113674619D01*
X128098532Y-113813018D01*
X128098530Y-113813026D01*
X128069307Y-113959941D01*
X128069307Y-114109756D01*
X128098530Y-114256671D01*
X128098532Y-114256679D01*
X128155858Y-114395078D01*
X128155863Y-114395087D01*
X128239087Y-114519639D01*
X128239090Y-114519643D01*
X128345012Y-114625565D01*
X128345016Y-114625568D01*
X128469568Y-114708792D01*
X128469574Y-114708795D01*
X128469575Y-114708796D01*
X128607977Y-114766124D01*
X128754899Y-114795348D01*
X128754903Y-114795349D01*
X128754904Y-114795349D01*
X129804711Y-114795349D01*
X129804712Y-114795348D01*
X129951637Y-114766124D01*
X129961448Y-114762059D01*
X130030916Y-114754588D01*
X130093396Y-114785861D01*
X130129051Y-114845948D01*
X130126560Y-114915774D01*
X130096585Y-114964300D01*
X129307705Y-115753181D01*
X129246382Y-115786666D01*
X129220024Y-115789500D01*
X117724146Y-115789500D01*
X117645174Y-115810660D01*
X117574373Y-115851538D01*
X117574370Y-115851540D01*
X117047174Y-116378735D01*
X116985851Y-116412220D01*
X116916159Y-116407236D01*
X116860226Y-116365364D01*
X116835809Y-116299900D01*
X116835493Y-116291054D01*
X116835493Y-115869286D01*
X116835493Y-115869285D01*
X116833969Y-115861622D01*
X116840198Y-115792032D01*
X116883063Y-115736855D01*
X116920648Y-115718459D01*
X116982773Y-115700218D01*
X117088124Y-115632513D01*
X117170133Y-115537870D01*
X117207155Y-115456803D01*
X117222155Y-115423959D01*
X117222156Y-115423955D01*
X117239978Y-115300000D01*
X117222156Y-115176044D01*
X117222155Y-115176040D01*
X117170133Y-115062131D01*
X117170133Y-115062130D01*
X117088124Y-114967487D01*
X117088123Y-114967486D01*
X117088122Y-114967485D01*
X117088119Y-114967483D01*
X116982779Y-114899785D01*
X116982774Y-114899782D01*
X116982773Y-114899782D01*
X116982771Y-114899781D01*
X116982768Y-114899780D01*
X116945618Y-114888871D01*
X116929819Y-114883040D01*
X116915228Y-114876497D01*
X116915848Y-114875112D01*
X116864671Y-114839421D01*
X116838138Y-114775466D01*
X116837812Y-114772528D01*
X116837813Y-114772524D01*
X116836245Y-114758378D01*
X116835493Y-114744733D01*
X116835493Y-114739234D01*
X116833446Y-114728946D01*
X116831816Y-114718403D01*
X116830752Y-114708796D01*
X116828555Y-114688964D01*
X116818796Y-114658147D01*
X116817325Y-114588295D01*
X116853853Y-114528734D01*
X116916783Y-114498376D01*
X116986136Y-114506860D01*
X117030724Y-114539512D01*
X117103844Y-114623896D01*
X117103851Y-114623902D01*
X117209191Y-114691600D01*
X117209193Y-114691600D01*
X117209198Y-114691604D01*
X117300466Y-114718403D01*
X117329355Y-114726886D01*
X117329356Y-114726886D01*
X117454587Y-114726886D01*
X117483476Y-114718403D01*
X117574744Y-114691604D01*
X117680095Y-114623899D01*
X117732610Y-114563292D01*
X117791388Y-114525518D01*
X117796793Y-114524063D01*
X117837555Y-114514068D01*
X117867085Y-114510500D01*
X117903261Y-114510500D01*
X117928243Y-114506860D01*
X117971393Y-114500573D01*
X118076483Y-114449198D01*
X118115996Y-114409685D01*
X118162319Y-114363363D01*
X118223642Y-114329878D01*
X118293334Y-114334862D01*
X118337681Y-114363363D01*
X118423514Y-114449196D01*
X118423515Y-114449196D01*
X118423517Y-114449198D01*
X118528607Y-114500573D01*
X118562673Y-114505536D01*
X118596739Y-114510500D01*
X118596740Y-114510500D01*
X119003261Y-114510500D01*
X119028243Y-114506860D01*
X119071393Y-114500573D01*
X119176483Y-114449198D01*
X119215996Y-114409685D01*
X119266464Y-114359218D01*
X119267720Y-114360474D01*
X119313061Y-114324898D01*
X119382622Y-114318333D01*
X119444690Y-114350416D01*
X119446703Y-114352385D01*
X119523514Y-114429196D01*
X119523515Y-114429196D01*
X119523517Y-114429198D01*
X119628607Y-114480573D01*
X119662673Y-114485536D01*
X119696739Y-114490500D01*
X119696740Y-114490500D01*
X120053308Y-114490500D01*
X120068764Y-114491466D01*
X120092460Y-114494444D01*
X120494488Y-114465728D01*
X120499894Y-114464348D01*
X120530547Y-114460500D01*
X123615219Y-114460500D01*
X123615221Y-114460500D01*
X123732342Y-114429118D01*
X123837349Y-114368492D01*
X123923087Y-114282754D01*
X123923087Y-114282753D01*
X124279849Y-113925990D01*
X124341171Y-113892506D01*
X124410863Y-113897490D01*
X124466796Y-113939362D01*
X124491213Y-114004826D01*
X124479913Y-114066073D01*
X124476123Y-114074200D01*
X124469500Y-114124513D01*
X124469500Y-114475486D01*
X124476123Y-114525799D01*
X124483197Y-114540970D01*
X124527617Y-114636228D01*
X124613772Y-114722383D01*
X124724199Y-114773876D01*
X124774513Y-114780500D01*
X124774514Y-114780500D01*
X125225487Y-114780500D01*
X125242257Y-114778292D01*
X125275801Y-114773876D01*
X125386228Y-114722383D01*
X125472383Y-114636228D01*
X125523876Y-114525801D01*
X125530235Y-114477495D01*
X125530927Y-114475486D01*
X126459500Y-114475486D01*
X126466123Y-114525799D01*
X126473197Y-114540970D01*
X126517617Y-114636228D01*
X126603772Y-114722383D01*
X126714199Y-114773876D01*
X126764513Y-114780500D01*
X126764514Y-114780500D01*
X127215487Y-114780500D01*
X127232257Y-114778292D01*
X127265801Y-114773876D01*
X127376228Y-114722383D01*
X127462383Y-114636228D01*
X127513876Y-114525801D01*
X127520500Y-114475486D01*
X127520500Y-114124514D01*
X127517770Y-114103781D01*
X127516226Y-114092053D01*
X127513876Y-114074199D01*
X127462383Y-113963772D01*
X127462381Y-113963770D01*
X127456161Y-113954886D01*
X127458371Y-113953338D01*
X127432612Y-113906163D01*
X127431040Y-113862161D01*
X127439978Y-113800000D01*
X127422156Y-113676044D01*
X127422155Y-113676040D01*
X127385938Y-113596739D01*
X127370133Y-113562130D01*
X127288124Y-113467487D01*
X127288123Y-113467486D01*
X127288122Y-113467485D01*
X127288119Y-113467483D01*
X127182779Y-113399785D01*
X127182775Y-113399783D01*
X127182773Y-113399782D01*
X127094012Y-113373719D01*
X127062616Y-113364500D01*
X127062615Y-113364500D01*
X126937385Y-113364500D01*
X126937384Y-113364500D01*
X126817227Y-113399782D01*
X126817225Y-113399783D01*
X126729972Y-113455857D01*
X126672359Y-113472772D01*
X126661906Y-113520827D01*
X126646788Y-113542602D01*
X126629867Y-113562130D01*
X126629866Y-113562131D01*
X126577844Y-113676040D01*
X126577843Y-113676044D01*
X126560022Y-113800001D01*
X126566444Y-113844674D01*
X126556499Y-113913833D01*
X126531391Y-113949996D01*
X126517617Y-113963771D01*
X126517615Y-113963773D01*
X126466123Y-114074198D01*
X126466123Y-114074199D01*
X126459500Y-114124513D01*
X126459500Y-114475486D01*
X125530927Y-114475486D01*
X125546326Y-114430756D01*
X125736011Y-114108686D01*
X125755169Y-114083943D01*
X126465394Y-113373718D01*
X126526716Y-113340234D01*
X126541256Y-113341273D01*
X126540195Y-113333893D01*
X126569220Y-113270338D01*
X126575243Y-113263869D01*
X127757717Y-112081394D01*
X127819038Y-112047911D01*
X127888730Y-112052895D01*
G37*
%TD.AperFunction*%
%TA.AperFunction,Conductor*%
G36*
X112322557Y-107670190D02*
G01*
X112368312Y-107722994D01*
X112379518Y-107774505D01*
X112379518Y-115141042D01*
X112359833Y-115208081D01*
X112307029Y-115253836D01*
X112237871Y-115263780D01*
X112174315Y-115234755D01*
X112167837Y-115228723D01*
X111926829Y-114987715D01*
X111893344Y-114926392D01*
X111890510Y-114900034D01*
X111890510Y-107774505D01*
X111910195Y-107707466D01*
X111962999Y-107661711D01*
X112014510Y-107650505D01*
X112255518Y-107650505D01*
X112322557Y-107670190D01*
G37*
%TD.AperFunction*%
%TA.AperFunction,Conductor*%
G36*
X128265703Y-105896714D02*
G01*
X128272181Y-105902746D01*
X128345012Y-105975577D01*
X128345016Y-105975580D01*
X128469568Y-106058804D01*
X128469574Y-106058807D01*
X128469575Y-106058808D01*
X128607977Y-106116136D01*
X128741938Y-106142782D01*
X128754899Y-106145360D01*
X128754903Y-106145361D01*
X129404646Y-106145361D01*
X129471685Y-106165046D01*
X129517440Y-106217850D01*
X129527384Y-106287008D01*
X129498359Y-106350564D01*
X129466646Y-106376748D01*
X129461980Y-106379441D01*
X129461975Y-106379445D01*
X129359481Y-106481939D01*
X129359475Y-106481947D01*
X129287006Y-106607467D01*
X129287005Y-106607471D01*
X129287005Y-106607472D01*
X129287004Y-106607474D01*
X129273777Y-106656839D01*
X129253498Y-106732519D01*
X129217132Y-106792179D01*
X129154285Y-106822707D01*
X129133723Y-106824424D01*
X128184500Y-106824424D01*
X128117461Y-106804739D01*
X128071706Y-106751935D01*
X128060500Y-106700424D01*
X128060500Y-105990427D01*
X128080185Y-105923388D01*
X128132989Y-105877633D01*
X128202147Y-105867689D01*
X128265703Y-105896714D01*
G37*
%TD.AperFunction*%
%TD*%
%TA.AperFunction,Conductor*%
%TO.N,+3.3V*%
G36*
X119194447Y-113512707D02*
G01*
X119197874Y-113520980D01*
X119197713Y-113522915D01*
X119111775Y-114035266D01*
X119107027Y-114042859D01*
X119099301Y-114044994D01*
X118806173Y-114021494D01*
X118798200Y-114017417D01*
X118796938Y-114015616D01*
X118645653Y-113749644D01*
X118644541Y-113740758D01*
X118649506Y-113734012D01*
X118997113Y-113511130D01*
X119003428Y-113509280D01*
X119186174Y-113509280D01*
X119194447Y-113512707D01*
G37*
%TD.AperFunction*%
%TD*%
%TA.AperFunction,Conductor*%
%TO.N,+3.3V*%
G36*
X119104092Y-113502709D02*
G01*
X119104155Y-113502772D01*
X119251522Y-113651454D01*
X119254912Y-113659742D01*
X119252112Y-113667285D01*
X119015661Y-113944347D01*
X119007683Y-113948416D01*
X118999166Y-113945652D01*
X118998488Y-113945025D01*
X118869587Y-113816124D01*
X118866160Y-113807851D01*
X118866164Y-113807578D01*
X118874674Y-113511326D01*
X118878337Y-113503157D01*
X118886330Y-113499964D01*
X119095808Y-113499308D01*
X119104092Y-113502709D01*
G37*
%TD.AperFunction*%
%TD*%
%TA.AperFunction,Conductor*%
%TO.N,+1V5*%
G36*
X120147567Y-113443427D02*
G01*
X120150948Y-113450664D01*
X120179443Y-113771215D01*
X120176762Y-113779759D01*
X120175088Y-113781395D01*
X119907299Y-113995173D01*
X119898696Y-113997656D01*
X119892701Y-113995173D01*
X119624911Y-113781395D01*
X119620583Y-113773555D01*
X119620556Y-113771215D01*
X119649052Y-113450664D01*
X119653198Y-113442727D01*
X119660706Y-113440000D01*
X120139294Y-113440000D01*
X120147567Y-113443427D01*
G37*
%TD.AperFunction*%
%TD*%
%TA.AperFunction,Conductor*%
%TO.N,Net-(U4-CC1)*%
G36*
X129283182Y-108342495D02*
G01*
X129422467Y-108397088D01*
X129428918Y-108403296D01*
X129429896Y-108407980D01*
X129429896Y-108589057D01*
X129426469Y-108597330D01*
X129418978Y-108600731D01*
X129289646Y-108609393D01*
X129288864Y-108609419D01*
X129279156Y-108609419D01*
X129276083Y-108609008D01*
X128775206Y-108472653D01*
X128768123Y-108467174D01*
X128766990Y-108458291D01*
X128772469Y-108451208D01*
X128775810Y-108449927D01*
X129276446Y-108341951D01*
X129283182Y-108342495D01*
G37*
%TD.AperFunction*%
%TD*%
%TA.AperFunction,Conductor*%
%TO.N,Net-(U4-CC1)*%
G36*
X129812741Y-108296044D02*
G01*
X129817951Y-108301805D01*
X129899105Y-108495478D01*
X129899142Y-108504433D01*
X129899105Y-108504522D01*
X129817951Y-108698194D01*
X129811593Y-108704500D01*
X129803835Y-108704890D01*
X129458375Y-108602482D01*
X129451417Y-108596845D01*
X129450000Y-108591264D01*
X129450000Y-108408735D01*
X129453427Y-108400462D01*
X129458373Y-108397517D01*
X129803836Y-108295109D01*
X129812741Y-108296044D01*
G37*
%TD.AperFunction*%
%TD*%
%TA.AperFunction,Conductor*%
%TO.N,+5V*%
G36*
X131135214Y-103252774D02*
G01*
X131138970Y-103257948D01*
X131242967Y-103541694D01*
X131242597Y-103550641D01*
X131238893Y-103555161D01*
X130722775Y-103932946D01*
X130714075Y-103935067D01*
X130707591Y-103931778D01*
X130368888Y-103593075D01*
X130365461Y-103584802D01*
X130368374Y-103577077D01*
X130392212Y-103549962D01*
X130597122Y-103316880D01*
X130604512Y-103312989D01*
X131126593Y-103250357D01*
X131135214Y-103252774D01*
G37*
%TD.AperFunction*%
%TD*%
%TA.AperFunction,Conductor*%
%TO.N,+3.3V*%
G36*
X125348015Y-105937476D02*
G01*
X125615274Y-106096069D01*
X125620640Y-106103238D01*
X125620991Y-106105604D01*
X125634225Y-106399360D01*
X125631174Y-106407779D01*
X125624157Y-106411474D01*
X125253849Y-106463248D01*
X125245181Y-106461000D01*
X125243956Y-106459934D01*
X125044019Y-106259997D01*
X125040592Y-106251724D01*
X125043818Y-106243656D01*
X125333572Y-105939467D01*
X125341760Y-105935841D01*
X125348015Y-105937476D01*
G37*
%TD.AperFunction*%
%TD*%
%TA.AperFunction,Conductor*%
%TO.N,+3.3V*%
G36*
X125219140Y-106082744D02*
G01*
X125417255Y-106280859D01*
X125420682Y-106289132D01*
X125418503Y-106295932D01*
X125167090Y-106647910D01*
X125159492Y-106652651D01*
X125150769Y-106650631D01*
X125149336Y-106649423D01*
X125079353Y-106580058D01*
X124999330Y-106500743D01*
X124999256Y-106500669D01*
X124920983Y-106421698D01*
X124850578Y-106350664D01*
X124847189Y-106342378D01*
X124850653Y-106334120D01*
X124852084Y-106332912D01*
X125204068Y-106081495D01*
X125212790Y-106079476D01*
X125219140Y-106082744D01*
G37*
%TD.AperFunction*%
%TD*%
%TA.AperFunction,Conductor*%
%TO.N,+1V5*%
G36*
X125774655Y-109978427D02*
G01*
X125777556Y-109983230D01*
X125955472Y-110556167D01*
X125954652Y-110565084D01*
X125951487Y-110568868D01*
X125532189Y-110895401D01*
X125523556Y-110897781D01*
X125517811Y-110895401D01*
X125098512Y-110568868D01*
X125094090Y-110561081D01*
X125094527Y-110556167D01*
X125272444Y-109983230D01*
X125278171Y-109976346D01*
X125283618Y-109975000D01*
X125766382Y-109975000D01*
X125774655Y-109978427D01*
G37*
%TD.AperFunction*%
%TD*%
%TA.AperFunction,Conductor*%
%TO.N,+3.3V*%
G36*
X126307133Y-108568652D02*
G01*
X126309436Y-108570441D01*
X126439004Y-108700009D01*
X126441018Y-108702708D01*
X126584769Y-108967983D01*
X126585697Y-108976889D01*
X126581957Y-108982558D01*
X126327119Y-109194206D01*
X126318565Y-109196855D01*
X126311768Y-109193857D01*
X126066117Y-108970259D01*
X126062306Y-108962156D01*
X126063930Y-108955639D01*
X126291103Y-108572741D01*
X126298269Y-108567377D01*
X126307133Y-108568652D01*
G37*
%TD.AperFunction*%
%TD*%
%TA.AperFunction,Conductor*%
%TO.N,Net-(U1-VDDA)*%
G36*
X124272646Y-109174154D02*
G01*
X124673198Y-109329863D01*
X124679668Y-109336055D01*
X124679864Y-109345007D01*
X124677232Y-109349041D01*
X124339303Y-109686970D01*
X124332221Y-109690336D01*
X124148376Y-109709143D01*
X124139797Y-109706576D01*
X124136527Y-109702331D01*
X124002923Y-109407309D01*
X124002632Y-109398359D01*
X124005985Y-109393582D01*
X124260819Y-109176158D01*
X124269335Y-109173397D01*
X124272646Y-109174154D01*
G37*
%TD.AperFunction*%
%TD*%
%TA.AperFunction,Conductor*%
%TO.N,+3.3V*%
G36*
X123988328Y-110604787D02*
G01*
X124253415Y-110765995D01*
X124258703Y-110773222D01*
X124258921Y-110777629D01*
X124224241Y-111023054D01*
X124220929Y-111029690D01*
X124021435Y-111229184D01*
X124013162Y-111232611D01*
X124004889Y-111229184D01*
X124003573Y-111227615D01*
X123768779Y-110891271D01*
X123766854Y-110882526D01*
X123769039Y-110877520D01*
X123850291Y-110770000D01*
X123972916Y-110607730D01*
X123980637Y-110603197D01*
X123988328Y-110604787D01*
G37*
%TD.AperFunction*%
%TD*%
%TA.AperFunction,Conductor*%
%TO.N,+3.3V*%
G36*
X124551063Y-111351991D02*
G01*
X124903041Y-111603404D01*
X124907782Y-111611002D01*
X124905762Y-111619725D01*
X124904551Y-111621161D01*
X124755874Y-111771164D01*
X124755800Y-111771238D01*
X124605797Y-111919915D01*
X124597509Y-111923305D01*
X124589251Y-111919841D01*
X124588040Y-111918405D01*
X124336627Y-111566427D01*
X124334607Y-111557704D01*
X124337873Y-111551356D01*
X124535991Y-111353238D01*
X124544263Y-111349812D01*
X124551063Y-111351991D01*
G37*
%TD.AperFunction*%
%TD*%
%TA.AperFunction,Conductor*%
%TO.N,+3.3V*%
G36*
X124210522Y-111523080D02*
G01*
X124532506Y-111647113D01*
X124538994Y-111653285D01*
X124540000Y-111658031D01*
X124540000Y-111941968D01*
X124536573Y-111950241D01*
X124532506Y-111952886D01*
X124210525Y-112076918D01*
X124201573Y-112076694D01*
X124197176Y-112073300D01*
X123984825Y-111807297D01*
X123982343Y-111798696D01*
X123984825Y-111792703D01*
X124197177Y-111526698D01*
X124205015Y-111522372D01*
X124210522Y-111523080D01*
G37*
%TD.AperFunction*%
%TD*%
%TA.AperFunction,Conductor*%
%TO.N,+3.3V*%
G36*
X124668172Y-111566357D02*
G01*
X124672887Y-111571834D01*
X124755211Y-111768300D01*
X124756120Y-111772874D01*
X124755188Y-111982593D01*
X124751724Y-111990851D01*
X124743436Y-111994241D01*
X124742296Y-111994180D01*
X124321508Y-111951076D01*
X124313627Y-111946824D01*
X124311000Y-111939437D01*
X124311000Y-111659187D01*
X124314427Y-111650914D01*
X124319924Y-111647822D01*
X124659323Y-111564990D01*
X124668172Y-111566357D01*
G37*
%TD.AperFunction*%
%TD*%
%TA.AperFunction,Conductor*%
%TO.N,USBD+*%
G36*
X129279152Y-110314791D02*
G01*
X129279880Y-110314791D01*
X129289600Y-110314007D01*
X129294227Y-110314568D01*
X129421896Y-110357124D01*
X129428661Y-110362992D01*
X129429896Y-110368224D01*
X129429896Y-110551357D01*
X129426469Y-110559630D01*
X129421896Y-110562457D01*
X129283253Y-110608671D01*
X129276480Y-110608860D01*
X128770364Y-110471079D01*
X128763281Y-110465600D01*
X128762148Y-110456717D01*
X128767627Y-110449634D01*
X128770356Y-110448504D01*
X129263103Y-110314362D01*
X129266946Y-110313978D01*
X129279152Y-110314791D01*
G37*
%TD.AperFunction*%
%TD*%
%TA.AperFunction,Conductor*%
%TO.N,USBD+*%
G36*
X112698289Y-107307236D02*
G01*
X112825136Y-107433545D01*
X112828580Y-107441810D01*
X112828131Y-107445044D01*
X112792439Y-107570201D01*
X112786875Y-107577217D01*
X112781188Y-107578692D01*
X112598838Y-107578692D01*
X112590565Y-107575265D01*
X112587590Y-107570212D01*
X112551909Y-107445585D01*
X112552926Y-107436689D01*
X112554885Y-107434091D01*
X112681763Y-107307251D01*
X112690035Y-107303827D01*
X112698289Y-107307236D01*
G37*
%TD.AperFunction*%
%TD*%
%TA.AperFunction,Conductor*%
%TO.N,USBD-*%
G36*
X111994685Y-106662947D02*
G01*
X112505241Y-106763342D01*
X112632636Y-106788393D01*
X112640093Y-106793352D01*
X112641859Y-106802130D01*
X112636900Y-106809587D01*
X112632636Y-106811353D01*
X111994687Y-106936797D01*
X111990703Y-106936889D01*
X111752669Y-106901361D01*
X111744992Y-106896750D01*
X111742696Y-106889789D01*
X111742696Y-106709956D01*
X111746123Y-106701683D01*
X111752667Y-106698384D01*
X111990705Y-106662856D01*
X111994685Y-106662947D01*
G37*
%TD.AperFunction*%
%TD*%
%TA.AperFunction,Conductor*%
%TO.N,USBD-*%
G36*
X129283253Y-109811038D02*
G01*
X129421896Y-109857252D01*
X129428661Y-109863120D01*
X129429896Y-109868352D01*
X129429896Y-110051485D01*
X129426469Y-110059758D01*
X129421896Y-110062585D01*
X129284640Y-110108337D01*
X129280842Y-110108904D01*
X129280843Y-110108928D01*
X129280668Y-110108930D01*
X129280654Y-110108933D01*
X129280605Y-110108931D01*
X129278177Y-110108971D01*
X129274915Y-110108562D01*
X128770364Y-109971207D01*
X128763281Y-109965728D01*
X128762148Y-109956845D01*
X128767627Y-109949762D01*
X128770356Y-109948632D01*
X129276480Y-109810849D01*
X129283253Y-109811038D01*
G37*
%TD.AperFunction*%
%TD*%
%TA.AperFunction,Conductor*%
%TO.N,+5V*%
G36*
X129377545Y-111827093D02*
G01*
X129377685Y-111827231D01*
X129576673Y-112026219D01*
X129580100Y-112034492D01*
X129576673Y-112042765D01*
X129575326Y-112043921D01*
X129284450Y-112257587D01*
X129275754Y-112259723D01*
X129274446Y-112259446D01*
X128736888Y-112112839D01*
X128729808Y-112107356D01*
X128728333Y-112102807D01*
X128700840Y-111847762D01*
X128703361Y-111839170D01*
X128711219Y-111834876D01*
X128712268Y-111834811D01*
X129369216Y-111823806D01*
X129377545Y-111827093D01*
G37*
%TD.AperFunction*%
%TD*%
%TA.AperFunction,Conductor*%
%TO.N,/BOOT0*%
G36*
X115676666Y-109483855D02*
G01*
X115806435Y-109613624D01*
X115809862Y-109621897D01*
X115808855Y-109626646D01*
X115623767Y-110043356D01*
X115617277Y-110049526D01*
X115610883Y-110050100D01*
X115305517Y-109991893D01*
X115298032Y-109986978D01*
X115296888Y-109984848D01*
X115192282Y-109730033D01*
X115192310Y-109721080D01*
X115197857Y-109715135D01*
X115663147Y-109481670D01*
X115672077Y-109481023D01*
X115676666Y-109483855D01*
G37*
%TD.AperFunction*%
%TD*%
%TA.AperFunction,Conductor*%
%TO.N,/BOOT0*%
G36*
X115604217Y-109288846D02*
G01*
X115622809Y-109296458D01*
X115798506Y-109368392D01*
X115802382Y-109370983D01*
X115950104Y-109520024D01*
X115953494Y-109528312D01*
X115950030Y-109536570D01*
X115949268Y-109537261D01*
X115632653Y-109800159D01*
X115624099Y-109802808D01*
X115616906Y-109799431D01*
X115487895Y-109670420D01*
X115484468Y-109662147D01*
X115484918Y-109658935D01*
X115588536Y-109296455D01*
X115594103Y-109289446D01*
X115603000Y-109288425D01*
X115604217Y-109288846D01*
G37*
%TD.AperFunction*%
%TD*%
%TA.AperFunction,Conductor*%
%TO.N,/BOOT0*%
G36*
X116214649Y-105163074D02*
G01*
X116725205Y-105263469D01*
X116852600Y-105288520D01*
X116860057Y-105293479D01*
X116861823Y-105302257D01*
X116856864Y-105309714D01*
X116852600Y-105311480D01*
X116214651Y-105436924D01*
X116210667Y-105437016D01*
X115972633Y-105401488D01*
X115964956Y-105396877D01*
X115962660Y-105389916D01*
X115962660Y-105210083D01*
X115966087Y-105201810D01*
X115972631Y-105198511D01*
X116210669Y-105162983D01*
X116214649Y-105163074D01*
G37*
%TD.AperFunction*%
%TD*%
%TA.AperFunction,Conductor*%
%TO.N,/BOOT0*%
G36*
X116021573Y-108966544D02*
G01*
X116025000Y-108974817D01*
X116025000Y-109358351D01*
X116021573Y-109366624D01*
X116013352Y-109370051D01*
X115804897Y-109370978D01*
X115796609Y-109367588D01*
X115716883Y-109287361D01*
X115647999Y-109218043D01*
X115644598Y-109209759D01*
X115646905Y-109202819D01*
X115821492Y-108967839D01*
X115829177Y-108963242D01*
X115830884Y-108963117D01*
X116013300Y-108963117D01*
X116021573Y-108966544D01*
G37*
%TD.AperFunction*%
%TD*%
%TA.AperFunction,Conductor*%
%TO.N,/RESET*%
G36*
X114911106Y-108324577D02*
G01*
X115233806Y-108496696D01*
X115239493Y-108503613D01*
X115240000Y-108507019D01*
X115240000Y-108692980D01*
X115236573Y-108701253D01*
X115233806Y-108703303D01*
X114911106Y-108875422D01*
X114902194Y-108876292D01*
X114896456Y-108872398D01*
X114761467Y-108703303D01*
X114684825Y-108607297D01*
X114682343Y-108598696D01*
X114684825Y-108592703D01*
X114896457Y-108327599D01*
X114904296Y-108323273D01*
X114911106Y-108324577D01*
G37*
%TD.AperFunction*%
%TD*%
%TA.AperFunction,Conductor*%
%TO.N,/RESET*%
G36*
X114780791Y-108013427D02*
G01*
X114783139Y-108016792D01*
X114945578Y-108368277D01*
X114945938Y-108377224D01*
X114942450Y-108382171D01*
X114687493Y-108594752D01*
X114678944Y-108597418D01*
X114672507Y-108594752D01*
X114560383Y-108501264D01*
X114417548Y-108382170D01*
X114413390Y-108374241D01*
X114414420Y-108368280D01*
X114576861Y-108016791D01*
X114583443Y-108010719D01*
X114587482Y-108010000D01*
X114772518Y-108010000D01*
X114780791Y-108013427D01*
G37*
%TD.AperFunction*%
%TD*%
%TA.AperFunction,Conductor*%
%TO.N,+3.3V*%
G36*
X117847332Y-105698384D02*
G01*
X117855008Y-105702995D01*
X117857304Y-105709956D01*
X117857304Y-105889789D01*
X117853877Y-105898062D01*
X117847331Y-105901361D01*
X117609296Y-105936889D01*
X117605312Y-105936797D01*
X117091473Y-105835757D01*
X116967362Y-105811352D01*
X116959906Y-105806394D01*
X116958140Y-105797616D01*
X116963099Y-105790159D01*
X116967362Y-105788393D01*
X117605315Y-105662947D01*
X117609294Y-105662856D01*
X117847332Y-105698384D01*
G37*
%TD.AperFunction*%
%TD*%
%TA.AperFunction,Conductor*%
%TO.N,+3.3V*%
G36*
X120549079Y-103883618D02*
G01*
X120996865Y-104085883D01*
X121002994Y-104092412D01*
X121003332Y-104099642D01*
X120922228Y-104395163D01*
X120916734Y-104402235D01*
X120915389Y-104402890D01*
X120650172Y-104511801D01*
X120641218Y-104511774D01*
X120635201Y-104506084D01*
X120581406Y-104395163D01*
X120403922Y-104029201D01*
X120403395Y-104020261D01*
X120406174Y-104015824D01*
X120535991Y-103886007D01*
X120544263Y-103882581D01*
X120549079Y-103883618D01*
G37*
%TD.AperFunction*%
%TD*%
%TA.AperFunction,Conductor*%
%TO.N,+3.3V*%
G36*
X116214649Y-107163074D02*
G01*
X116725205Y-107263469D01*
X116852600Y-107288520D01*
X116860057Y-107293479D01*
X116861823Y-107302257D01*
X116856864Y-107309714D01*
X116852600Y-107311480D01*
X116214651Y-107436924D01*
X116210667Y-107437016D01*
X115972633Y-107401488D01*
X115964956Y-107396877D01*
X115962660Y-107389916D01*
X115962660Y-107210083D01*
X115966087Y-107201810D01*
X115972631Y-107198511D01*
X116210669Y-107162983D01*
X116214649Y-107163074D01*
G37*
%TD.AperFunction*%
%TD*%
%TA.AperFunction,Conductor*%
%TO.N,+3.3V*%
G36*
X116846044Y-105788834D02*
G01*
X116853671Y-105793522D01*
X116855749Y-105802233D01*
X116851060Y-105809861D01*
X116846466Y-105811864D01*
X116215166Y-105936693D01*
X116210184Y-105936596D01*
X116047564Y-105897843D01*
X116042003Y-105894735D01*
X115917040Y-105769772D01*
X115913613Y-105761499D01*
X115917040Y-105753226D01*
X115922134Y-105750239D01*
X116166560Y-105681327D01*
X116171577Y-105681036D01*
X116846044Y-105788834D01*
G37*
%TD.AperFunction*%
%TD*%
%TA.AperFunction,Conductor*%
%TO.N,/USART2_RX*%
G36*
X119082819Y-104982048D02*
G01*
X119089125Y-104988406D01*
X119089515Y-104996164D01*
X118987108Y-105341625D01*
X118981471Y-105348583D01*
X118975890Y-105350000D01*
X118793360Y-105350000D01*
X118785087Y-105346573D01*
X118782142Y-105341625D01*
X118679734Y-104996164D01*
X118680669Y-104987258D01*
X118686428Y-104982049D01*
X118880105Y-104900893D01*
X118889056Y-104900857D01*
X119082819Y-104982048D01*
G37*
%TD.AperFunction*%
%TD*%
%TA.AperFunction,Conductor*%
%TO.N,/USART2_RX*%
G36*
X117847332Y-106198511D02*
G01*
X117855008Y-106203122D01*
X117857304Y-106210083D01*
X117857304Y-106389916D01*
X117853877Y-106398189D01*
X117847331Y-106401488D01*
X117609296Y-106437016D01*
X117605312Y-106436924D01*
X117091473Y-106335884D01*
X116967362Y-106311479D01*
X116959906Y-106306521D01*
X116958140Y-106297743D01*
X116963099Y-106290286D01*
X116967362Y-106288520D01*
X117605315Y-106163074D01*
X117609294Y-106162983D01*
X117847332Y-106198511D01*
G37*
%TD.AperFunction*%
%TD*%
%TA.AperFunction,Conductor*%
%TO.N,/USART2_TX*%
G36*
X117847332Y-106698384D02*
G01*
X117855008Y-106702995D01*
X117857304Y-106709956D01*
X117857304Y-106889789D01*
X117853877Y-106898062D01*
X117847331Y-106901361D01*
X117609296Y-106936889D01*
X117605312Y-106936797D01*
X117091473Y-106835757D01*
X116967362Y-106811352D01*
X116959906Y-106806394D01*
X116958140Y-106797616D01*
X116963099Y-106790159D01*
X116967362Y-106788393D01*
X117605315Y-106662947D01*
X117609294Y-106662856D01*
X117847332Y-106698384D01*
G37*
%TD.AperFunction*%
%TD*%
%TA.AperFunction,Conductor*%
%TO.N,/USART2_TX*%
G36*
X119998194Y-104682048D02*
G01*
X120004500Y-104688406D01*
X120004890Y-104696164D01*
X119902483Y-105041625D01*
X119896846Y-105048583D01*
X119891265Y-105050000D01*
X119708735Y-105050000D01*
X119700462Y-105046573D01*
X119697517Y-105041625D01*
X119595109Y-104696164D01*
X119596044Y-104687258D01*
X119601803Y-104682049D01*
X119795480Y-104600893D01*
X119804431Y-104600857D01*
X119998194Y-104682048D01*
G37*
%TD.AperFunction*%
%TD*%
%TA.AperFunction,Conductor*%
%TO.N,+1V5*%
G36*
X125532187Y-110904597D02*
G01*
X125850857Y-111152764D01*
X125951487Y-111231131D01*
X125955909Y-111238918D01*
X125955472Y-111243832D01*
X125777556Y-111816770D01*
X125771829Y-111823654D01*
X125766382Y-111825000D01*
X125283618Y-111825000D01*
X125275345Y-111821573D01*
X125272444Y-111816770D01*
X125094527Y-111243832D01*
X125095347Y-111234915D01*
X125098510Y-111231132D01*
X125517811Y-110904597D01*
X125526444Y-110902218D01*
X125532187Y-110904597D01*
G37*
%TD.AperFunction*%
%TD*%
%TA.AperFunction,Conductor*%
%TO.N,+1V5*%
G36*
X120479135Y-113749223D02*
G01*
X120487142Y-113753230D01*
X120490000Y-113760893D01*
X120490000Y-114239106D01*
X120486573Y-114247379D01*
X120479134Y-114250776D01*
X120077106Y-114279492D01*
X120068609Y-114276664D01*
X120066287Y-114273920D01*
X119902724Y-114006098D01*
X119901336Y-113997251D01*
X119902724Y-113993902D01*
X120049706Y-113753230D01*
X120066287Y-113726078D01*
X120073523Y-113720804D01*
X120077102Y-113720507D01*
X120479135Y-113749223D01*
G37*
%TD.AperFunction*%
%TD*%
%TA.AperFunction,Conductor*%
%TO.N,+3.3V*%
G36*
X117401246Y-113923498D02*
G01*
X117695302Y-114017564D01*
X117702136Y-114023348D01*
X117702695Y-114024609D01*
X117801070Y-114287673D01*
X117800758Y-114296622D01*
X117794209Y-114302730D01*
X117792897Y-114303134D01*
X117486758Y-114378204D01*
X117477907Y-114376846D01*
X117475699Y-114375114D01*
X117308551Y-114207966D01*
X117305124Y-114199693D01*
X117305633Y-114196281D01*
X117386538Y-113931240D01*
X117392231Y-113924329D01*
X117401144Y-113923467D01*
X117401246Y-113923498D01*
G37*
%TD.AperFunction*%
%TD*%
%TA.AperFunction,Conductor*%
%TO.N,+3.3V*%
G36*
X123987491Y-110605246D02*
G01*
X124243257Y-110818501D01*
X124247416Y-110826431D01*
X124246889Y-110831110D01*
X124132631Y-111181923D01*
X124126810Y-111188728D01*
X124121506Y-111190000D01*
X123838494Y-111190000D01*
X123830221Y-111186573D01*
X123827369Y-111181923D01*
X123713110Y-110831108D01*
X123713806Y-110822183D01*
X123716738Y-110818505D01*
X123972508Y-110605246D01*
X123981056Y-110602581D01*
X123987491Y-110605246D01*
G37*
%TD.AperFunction*%
%TD*%
%TA.AperFunction,Conductor*%
%TO.N,+3.3V*%
G36*
X124129779Y-111213427D02*
G01*
X124132631Y-111218077D01*
X124246889Y-111568889D01*
X124246193Y-111577816D01*
X124243257Y-111581498D01*
X123987493Y-111794752D01*
X123978944Y-111797418D01*
X123972507Y-111794752D01*
X123716742Y-111581498D01*
X123712583Y-111573568D01*
X123713109Y-111568894D01*
X123827369Y-111218076D01*
X123833190Y-111211271D01*
X123838494Y-111210000D01*
X124121506Y-111210000D01*
X124129779Y-111213427D01*
G37*
%TD.AperFunction*%
%TD*%
%TA.AperFunction,Conductor*%
%TO.N,+3.3V*%
G36*
X123620543Y-100575041D02*
G01*
X123621526Y-100575766D01*
X124043894Y-100923224D01*
X124289503Y-101125272D01*
X124293715Y-101133175D01*
X124291106Y-101141741D01*
X124289327Y-101143486D01*
X123618250Y-101674096D01*
X123609635Y-101676539D01*
X123604384Y-101674573D01*
X123603687Y-101674096D01*
X123034853Y-101284737D01*
X123029963Y-101277237D01*
X123031808Y-101268474D01*
X123033185Y-101266815D01*
X123376777Y-100923224D01*
X123604334Y-100578362D01*
X123611750Y-100573345D01*
X123620543Y-100575041D01*
G37*
%TD.AperFunction*%
%TD*%
%TA.AperFunction,Conductor*%
%TO.N,+3.3V*%
G36*
X126706833Y-102403918D02*
G01*
X127008984Y-102621390D01*
X127142925Y-102717794D01*
X127147638Y-102725408D01*
X127147145Y-102731121D01*
X126952727Y-103292131D01*
X126946780Y-103298826D01*
X126941672Y-103300000D01*
X126458328Y-103300000D01*
X126450055Y-103296573D01*
X126447273Y-103292131D01*
X126252854Y-102731121D01*
X126253383Y-102722182D01*
X126257072Y-102717795D01*
X126693165Y-102403918D01*
X126701882Y-102401867D01*
X126706833Y-102403918D01*
G37*
%TD.AperFunction*%
%TD*%
%TA.AperFunction,Conductor*%
%TO.N,+3.3V*%
G36*
X113524702Y-102817432D02*
G01*
X113530200Y-102822153D01*
X113959310Y-103527680D01*
X113960682Y-103536529D01*
X113957587Y-103542033D01*
X113616964Y-103882656D01*
X113608691Y-103886083D01*
X113602717Y-103884442D01*
X112921738Y-103479833D01*
X112916378Y-103472664D01*
X112916630Y-103466036D01*
X113072589Y-103004336D01*
X113078483Y-102997596D01*
X113079197Y-102997272D01*
X113515747Y-102817415D01*
X113524702Y-102817432D01*
G37*
%TD.AperFunction*%
%TD*%
%TA.AperFunction,Conductor*%
%TO.N,+3.3V*%
G36*
X127621127Y-101903636D02*
G01*
X127624984Y-101911717D01*
X127625000Y-101912332D01*
X127625000Y-102690428D01*
X127621573Y-102698701D01*
X127615618Y-102701896D01*
X127072440Y-102811666D01*
X127063652Y-102809946D01*
X127061375Y-102807968D01*
X126701716Y-102403057D01*
X126698780Y-102395916D01*
X126675400Y-101961695D01*
X126678377Y-101953252D01*
X126686453Y-101949385D01*
X127612685Y-101900648D01*
X127621127Y-101903636D01*
G37*
%TD.AperFunction*%
%TD*%
%TA.AperFunction,Conductor*%
%TO.N,+3.3V*%
G36*
X126196087Y-101800591D02*
G01*
X126775282Y-101947297D01*
X126782459Y-101952650D01*
X126783904Y-101960813D01*
X126701634Y-102395800D01*
X126696730Y-102403292D01*
X126696521Y-102403431D01*
X126245892Y-102696798D01*
X126237089Y-102698440D01*
X126233907Y-102697265D01*
X125637689Y-102372131D01*
X125632067Y-102365161D01*
X125633019Y-102356257D01*
X125635015Y-102353589D01*
X126184944Y-101803660D01*
X126193216Y-101800234D01*
X126196087Y-101800591D01*
G37*
%TD.AperFunction*%
%TD*%
%TA.AperFunction,Conductor*%
%TO.N,+3.3V*%
G36*
X117069779Y-107713427D02*
G01*
X117072631Y-107718077D01*
X117186889Y-108068889D01*
X117186193Y-108077816D01*
X117183257Y-108081498D01*
X116927493Y-108294752D01*
X116918944Y-108297418D01*
X116912507Y-108294752D01*
X116656742Y-108081498D01*
X116652583Y-108073568D01*
X116653109Y-108068894D01*
X116767369Y-107718076D01*
X116773190Y-107711271D01*
X116778494Y-107710000D01*
X117061506Y-107710000D01*
X117069779Y-107713427D01*
G37*
%TD.AperFunction*%
%TD*%
%TA.AperFunction,Conductor*%
%TO.N,/RESET*%
G36*
X113627368Y-105698384D02*
G01*
X113635044Y-105702995D01*
X113637340Y-105709956D01*
X113637340Y-105889789D01*
X113633913Y-105898062D01*
X113627367Y-105901361D01*
X113389332Y-105936889D01*
X113385348Y-105936797D01*
X112871509Y-105835757D01*
X112747398Y-105811352D01*
X112739942Y-105806394D01*
X112738176Y-105797616D01*
X112743135Y-105790159D01*
X112747398Y-105788393D01*
X113385351Y-105662947D01*
X113389330Y-105662856D01*
X113627368Y-105698384D01*
G37*
%TD.AperFunction*%
%TD*%
%TA.AperFunction,Conductor*%
%TO.N,+5V*%
G36*
X132554694Y-102758742D02*
G01*
X132895865Y-103168828D01*
X132898522Y-103177380D01*
X132897089Y-103182010D01*
X132654091Y-103617665D01*
X132647068Y-103623221D01*
X132641742Y-103623470D01*
X131984569Y-103501734D01*
X131977058Y-103496858D01*
X131975000Y-103490230D01*
X131975000Y-103007653D01*
X131978427Y-102999380D01*
X131982059Y-102996913D01*
X132541062Y-102755483D01*
X132550015Y-102755350D01*
X132554694Y-102758742D01*
G37*
%TD.AperFunction*%
%TD*%
%TA.AperFunction,Conductor*%
%TO.N,+5V*%
G36*
X131960303Y-102998332D02*
G01*
X131967900Y-103003073D01*
X131970079Y-103009873D01*
X131970079Y-103490050D01*
X131966652Y-103498323D01*
X131960302Y-103501591D01*
X131674131Y-103549286D01*
X131666494Y-103547955D01*
X131421102Y-103410610D01*
X131152317Y-103260171D01*
X131146772Y-103253141D01*
X131147822Y-103244248D01*
X131152316Y-103239753D01*
X131666495Y-102951967D01*
X131674130Y-102950637D01*
X131960303Y-102998332D01*
G37*
%TD.AperFunction*%
%TD*%
%TA.AperFunction,Conductor*%
%TO.N,+5V*%
G36*
X128185829Y-107037885D02*
G01*
X128709631Y-107299317D01*
X128715503Y-107306078D01*
X128714875Y-107315011D01*
X128709516Y-107320311D01*
X128186122Y-107574452D01*
X128177183Y-107574983D01*
X128174247Y-107573473D01*
X128004935Y-107453496D01*
X128000167Y-107445917D01*
X128000000Y-107443950D01*
X128000000Y-107156404D01*
X128003427Y-107148131D01*
X128005389Y-107146552D01*
X128174306Y-107038499D01*
X128183120Y-107036929D01*
X128185829Y-107037885D01*
G37*
%TD.AperFunction*%
%TD*%
%TA.AperFunction,Conductor*%
%TO.N,/PB0-VDD_TCXO*%
G36*
X116631969Y-114928110D02*
G01*
X116897536Y-115185661D01*
X116901090Y-115193881D01*
X116897790Y-115202205D01*
X116897664Y-115202333D01*
X116693931Y-115406066D01*
X116633858Y-115496620D01*
X116626428Y-115501620D01*
X116617640Y-115499902D01*
X116614973Y-115497463D01*
X116614298Y-115496620D01*
X116332041Y-115143957D01*
X116329547Y-115135357D01*
X116333865Y-115127511D01*
X116334401Y-115127106D01*
X116617064Y-114926959D01*
X116625795Y-114924976D01*
X116631969Y-114928110D01*
G37*
%TD.AperFunction*%
%TD*%
%TA.AperFunction,Conductor*%
%TO.N,/PB0-VDD_TCXO*%
G36*
X116387491Y-113805246D02*
G01*
X116643257Y-114018501D01*
X116647416Y-114026431D01*
X116646889Y-114031110D01*
X116532631Y-114381923D01*
X116526810Y-114388728D01*
X116521506Y-114390000D01*
X116238494Y-114390000D01*
X116230221Y-114386573D01*
X116227369Y-114381923D01*
X116113110Y-114031108D01*
X116113806Y-114022183D01*
X116116738Y-114018505D01*
X116372508Y-113805246D01*
X116381056Y-113802581D01*
X116387491Y-113805246D01*
G37*
%TD.AperFunction*%
%TD*%
%TA.AperFunction,Conductor*%
%TO.N,/PB0-VDD_TCXO*%
G36*
X116529705Y-114463396D02*
G01*
X116532586Y-114468137D01*
X116623109Y-114754018D01*
X116622340Y-114762940D01*
X116621101Y-114764847D01*
X116334624Y-115123906D01*
X116326785Y-115128236D01*
X116318181Y-115125755D01*
X116315979Y-115123440D01*
X116059036Y-114766141D01*
X116056988Y-114757423D01*
X116058433Y-114753408D01*
X116195312Y-114519297D01*
X116226612Y-114465764D01*
X116233746Y-114460351D01*
X116236712Y-114459969D01*
X116521432Y-114459969D01*
X116529705Y-114463396D01*
G37*
%TD.AperFunction*%
%TD*%
%TA.AperFunction,Conductor*%
%TO.N,/PB0-VDD_TCXO*%
G36*
X116432661Y-114988253D02*
G01*
X116872665Y-115089048D01*
X116879964Y-115094236D01*
X116881457Y-115103066D01*
X116880880Y-115104886D01*
X116801898Y-115297806D01*
X116799317Y-115301672D01*
X116648225Y-115451820D01*
X116639941Y-115455221D01*
X116632768Y-115452736D01*
X116631597Y-115451820D01*
X116422845Y-115288489D01*
X116418441Y-115280692D01*
X116418355Y-115279274D01*
X116418355Y-114999659D01*
X116421782Y-114991386D01*
X116430055Y-114987959D01*
X116432661Y-114988253D01*
G37*
%TD.AperFunction*%
%TD*%
%TA.AperFunction,Conductor*%
%TO.N,Net-(C18-Pad1)*%
G36*
X114443748Y-112232476D02*
G01*
X114781770Y-112337444D01*
X114788654Y-112343171D01*
X114790000Y-112348618D01*
X114790000Y-112631381D01*
X114786573Y-112639654D01*
X114781770Y-112642555D01*
X114443751Y-112747522D01*
X114434834Y-112746702D01*
X114431649Y-112744246D01*
X114328371Y-112631381D01*
X114206226Y-112497897D01*
X114203170Y-112489482D01*
X114206227Y-112482102D01*
X114328372Y-112348618D01*
X114431651Y-112235751D01*
X114439763Y-112231962D01*
X114443748Y-112232476D01*
G37*
%TD.AperFunction*%
%TD*%
%TA.AperFunction,Conductor*%
%TO.N,Net-(C18-Pad1)*%
G36*
X116104242Y-112219395D02*
G01*
X116108555Y-112222867D01*
X116315314Y-112492583D01*
X116317627Y-112501234D01*
X116315022Y-112507184D01*
X116096908Y-112769351D01*
X116088983Y-112773519D01*
X116083474Y-112772693D01*
X115767260Y-112642978D01*
X115760906Y-112636667D01*
X115760000Y-112632153D01*
X115760000Y-112348215D01*
X115763427Y-112339942D01*
X115767725Y-112337211D01*
X116095299Y-112218980D01*
X116104242Y-112219395D01*
G37*
%TD.AperFunction*%
%TD*%
%TA.AperFunction,Conductor*%
%TO.N,/OSC_IN*%
G36*
X117566005Y-112361275D02*
G01*
X117857396Y-112719665D01*
X117859956Y-112728245D01*
X117856591Y-112735318D01*
X117656925Y-112934984D01*
X117648652Y-112938411D01*
X117645169Y-112937881D01*
X117244560Y-112812963D01*
X117237682Y-112807228D01*
X117236460Y-112800144D01*
X117278443Y-112505258D01*
X117283002Y-112497552D01*
X117284638Y-112496524D01*
X117551548Y-112358266D01*
X117560468Y-112357505D01*
X117566005Y-112361275D01*
G37*
%TD.AperFunction*%
%TD*%
%TA.AperFunction,Conductor*%
%TO.N,/OSC_IN*%
G36*
X118086470Y-112947966D02*
G01*
X118438448Y-113199379D01*
X118443189Y-113206977D01*
X118441169Y-113215700D01*
X118439958Y-113217136D01*
X118291281Y-113367139D01*
X118291207Y-113367213D01*
X118141204Y-113515890D01*
X118132916Y-113519280D01*
X118124658Y-113515816D01*
X118123447Y-113514380D01*
X117872034Y-113162402D01*
X117870014Y-113153679D01*
X117873280Y-113147331D01*
X118071398Y-112949213D01*
X118079670Y-112945787D01*
X118086470Y-112947966D01*
G37*
%TD.AperFunction*%
%TD*%
%TA.AperFunction,Conductor*%
%TO.N,Net-(LED1-A)*%
G36*
X105653912Y-103663748D02*
G01*
X105655026Y-103668731D01*
X105655026Y-103949026D01*
X105654755Y-103951529D01*
X105501812Y-104649759D01*
X105496694Y-104657108D01*
X105490236Y-104658955D01*
X104806725Y-104650388D01*
X104798496Y-104646858D01*
X104796055Y-104643147D01*
X104597171Y-104160589D01*
X104597187Y-104151637D01*
X104603003Y-104145548D01*
X105638344Y-103658144D01*
X105647287Y-103657722D01*
X105653912Y-103663748D01*
G37*
%TD.AperFunction*%
%TD*%
%TA.AperFunction,Conductor*%
%TO.N,Net-(LED1-A)*%
G36*
X110081280Y-101109660D02*
G01*
X110081916Y-101110696D01*
X110324577Y-101556285D01*
X110325524Y-101565190D01*
X110322260Y-101570458D01*
X109906485Y-101956242D01*
X109898090Y-101959357D01*
X109890254Y-101955938D01*
X109689377Y-101755061D01*
X109685955Y-101747132D01*
X109680572Y-101564273D01*
X109675187Y-101381368D01*
X109678369Y-101373000D01*
X109680245Y-101371390D01*
X110065010Y-101106652D01*
X110073767Y-101104787D01*
X110081280Y-101109660D01*
G37*
%TD.AperFunction*%
%TD*%
%TA.AperFunction,Conductor*%
%TO.N,Net-(LED1-A)*%
G36*
X110081280Y-101109660D02*
G01*
X110081916Y-101110696D01*
X110324577Y-101556285D01*
X110325524Y-101565190D01*
X110322260Y-101570458D01*
X109906485Y-101956242D01*
X109898090Y-101959357D01*
X109890254Y-101955938D01*
X109689377Y-101755061D01*
X109685955Y-101747132D01*
X109680572Y-101564273D01*
X109675187Y-101381368D01*
X109678369Y-101373000D01*
X109680245Y-101371390D01*
X110065010Y-101106652D01*
X110073767Y-101104787D01*
X110081280Y-101109660D01*
G37*
%TD.AperFunction*%
%TD*%
%TA.AperFunction,Conductor*%
%TO.N,Net-(LED2-A)*%
G36*
X109654169Y-104196452D02*
G01*
X109993758Y-104567096D01*
X109996820Y-104575511D01*
X109993758Y-104582904D01*
X109654169Y-104953547D01*
X109646053Y-104957332D01*
X109640754Y-104956318D01*
X109131912Y-104728100D01*
X109125766Y-104721588D01*
X109125000Y-104717425D01*
X109125000Y-104432574D01*
X109128427Y-104424301D01*
X109131908Y-104421901D01*
X109640755Y-104193680D01*
X109649705Y-104193422D01*
X109654169Y-104196452D01*
G37*
%TD.AperFunction*%
%TD*%
%TA.AperFunction,Conductor*%
%TO.N,Net-(LED2-A)*%
G36*
X108106213Y-104153831D02*
G01*
X108593706Y-104421667D01*
X108599307Y-104428654D01*
X108599772Y-104431921D01*
X108599772Y-104719218D01*
X108596345Y-104727491D01*
X108595179Y-104728512D01*
X108106342Y-105102308D01*
X108097688Y-105104611D01*
X108092844Y-105102814D01*
X107413361Y-104659658D01*
X107408303Y-104652268D01*
X107409952Y-104643467D01*
X107412954Y-104640335D01*
X108093788Y-104154561D01*
X108102511Y-104152546D01*
X108106213Y-104153831D01*
G37*
%TD.AperFunction*%
%TD*%
%TA.AperFunction,Conductor*%
%TO.N,Net-(U4-CC1)*%
G36*
X126937620Y-113738056D02*
G01*
X126939726Y-113739726D01*
X127070733Y-113870733D01*
X127255489Y-114056536D01*
X127258893Y-114064819D01*
X127255443Y-114073082D01*
X127254797Y-114073678D01*
X126997138Y-114293998D01*
X126988623Y-114296770D01*
X126981659Y-114293759D01*
X126731583Y-114066171D01*
X126727771Y-114058068D01*
X126729514Y-114051353D01*
X126921510Y-113741831D01*
X126928784Y-113736608D01*
X126937620Y-113738056D01*
G37*
%TD.AperFunction*%
%TD*%
%TA.AperFunction,Conductor*%
%TO.N,Net-(U4-CC1)*%
G36*
X127197932Y-113881938D02*
G01*
X127204238Y-113888296D01*
X127204535Y-113896352D01*
X127092631Y-114239934D01*
X127086810Y-114246740D01*
X127081506Y-114248011D01*
X126898956Y-114248011D01*
X126890683Y-114244584D01*
X126887662Y-114239365D01*
X126794898Y-113896352D01*
X126794800Y-113895988D01*
X126795948Y-113887110D01*
X126801569Y-113882147D01*
X126995480Y-113800893D01*
X127004431Y-113800857D01*
X127197932Y-113881938D01*
G37*
%TD.AperFunction*%
%TD*%
%TA.AperFunction,Conductor*%
%TO.N,Net-(U4-CC2)*%
G36*
X128600536Y-111424557D02*
G01*
X128689427Y-111448757D01*
X128696510Y-111454237D01*
X128697643Y-111463119D01*
X128692163Y-111470202D01*
X128689427Y-111471335D01*
X128183312Y-111609116D01*
X128176539Y-111608927D01*
X128037896Y-111562712D01*
X128031131Y-111556844D01*
X128029896Y-111551612D01*
X128029896Y-111368479D01*
X128033323Y-111360206D01*
X128037894Y-111357379D01*
X128176542Y-111311163D01*
X128183308Y-111310975D01*
X128600536Y-111424557D01*
G37*
%TD.AperFunction*%
%TD*%
%TA.AperFunction,Conductor*%
%TO.N,Net-(U4-CC2)*%
G36*
X125422598Y-113840831D02*
G01*
X125426012Y-113843201D01*
X125555710Y-113972899D01*
X125559137Y-113981172D01*
X125557518Y-113987110D01*
X125324566Y-114382644D01*
X125317415Y-114388033D01*
X125311334Y-114387974D01*
X125005198Y-114302358D01*
X124998153Y-114296829D01*
X124997292Y-114294916D01*
X124909494Y-114040790D01*
X124910032Y-114031852D01*
X124916461Y-114026009D01*
X125413650Y-113840512D01*
X125422598Y-113840831D01*
G37*
%TD.AperFunction*%
%TD*%
%TA.AperFunction,Conductor*%
%TO.N,Net-(U5-OUT)*%
G36*
X114352053Y-114608267D02*
G01*
X114731516Y-114756489D01*
X114737974Y-114762690D01*
X114738785Y-114769391D01*
X114676144Y-115129432D01*
X114671350Y-115136996D01*
X114668805Y-115138352D01*
X114384873Y-115247195D01*
X114375921Y-115246956D01*
X114370242Y-115241546D01*
X114058572Y-114624439D01*
X114057903Y-114615510D01*
X114063742Y-114608721D01*
X114069017Y-114607465D01*
X114347796Y-114607465D01*
X114352053Y-114608267D01*
G37*
%TD.AperFunction*%
%TD*%
%TA.AperFunction,Conductor*%
%TO.N,Net-(U5-OUT)*%
G36*
X114207743Y-113515838D02*
G01*
X114345206Y-113637237D01*
X114463837Y-113742005D01*
X114467770Y-113750050D01*
X114466968Y-113755089D01*
X114352929Y-114042614D01*
X114346693Y-114049041D01*
X114342053Y-114050000D01*
X114057947Y-114050000D01*
X114049674Y-114046573D01*
X114047071Y-114042614D01*
X113933031Y-113755089D01*
X113933166Y-113746135D01*
X113936162Y-113742005D01*
X114192256Y-113515838D01*
X114200725Y-113512931D01*
X114207743Y-113515838D01*
G37*
%TD.AperFunction*%
%TD*%
%TA.AperFunction,Conductor*%
%TO.N,/TIM1_CH1_LED_1*%
G36*
X112085714Y-100704922D02*
G01*
X112494257Y-100946603D01*
X112499633Y-100953764D01*
X112500000Y-100956672D01*
X112500000Y-101243327D01*
X112496573Y-101251600D01*
X112494257Y-101253397D01*
X112085715Y-101495076D01*
X112076850Y-101496339D01*
X112070990Y-101492753D01*
X111859523Y-101253397D01*
X111730843Y-101107746D01*
X111727934Y-101099278D01*
X111730844Y-101092253D01*
X112070992Y-100707244D01*
X112079036Y-100703315D01*
X112085714Y-100704922D01*
G37*
%TD.AperFunction*%
%TD*%
%TA.AperFunction,Conductor*%
%TO.N,/TIM1_CH1_LED_1*%
G36*
X112495161Y-100879280D02*
G01*
X112499902Y-100886878D01*
X112500061Y-100888749D01*
X112501000Y-101100000D01*
X112501000Y-101100104D01*
X112500061Y-101311250D01*
X112496597Y-101319508D01*
X112488309Y-101322898D01*
X112486438Y-101322739D01*
X112059777Y-101251629D01*
X112052179Y-101246888D01*
X112050000Y-101240088D01*
X112050000Y-100959911D01*
X112053427Y-100951638D01*
X112059775Y-100948370D01*
X112486438Y-100877260D01*
X112495161Y-100879280D01*
G37*
%TD.AperFunction*%
%TD*%
%TA.AperFunction,Conductor*%
%TO.N,/TIM1_CH2_LED_2*%
G36*
X110359244Y-105843680D02*
G01*
X110868089Y-106071900D01*
X110874234Y-106078411D01*
X110875000Y-106082574D01*
X110875000Y-106367425D01*
X110871573Y-106375698D01*
X110868088Y-106378100D01*
X110359245Y-106606318D01*
X110350294Y-106606577D01*
X110345830Y-106603547D01*
X110139272Y-106378100D01*
X110006240Y-106232902D01*
X110003179Y-106224489D01*
X110006240Y-106217097D01*
X110345831Y-105846451D01*
X110353946Y-105842667D01*
X110359244Y-105843680D01*
G37*
%TD.AperFunction*%
%TD*%
%TA.AperFunction,Conductor*%
%TO.N,/TIM1_CH2_LED_2*%
G36*
X111196625Y-106078427D02*
G01*
X111200052Y-106086648D01*
X111200989Y-106297620D01*
X111200080Y-106302194D01*
X111118270Y-106497432D01*
X111111912Y-106503738D01*
X111103316Y-106503844D01*
X110772455Y-106377869D01*
X110765942Y-106371723D01*
X110764918Y-106366935D01*
X110764918Y-106086700D01*
X110768345Y-106078427D01*
X110776618Y-106075000D01*
X111188352Y-106075000D01*
X111196625Y-106078427D01*
G37*
%TD.AperFunction*%
%TD*%
%TA.AperFunction,Conductor*%
%TO.N,USBD+*%
G36*
X128183712Y-109310829D02*
G01*
X128689428Y-109448502D01*
X128696510Y-109453980D01*
X128697643Y-109462863D01*
X128692164Y-109469946D01*
X128689427Y-109471079D01*
X128183311Y-109608860D01*
X128176538Y-109608671D01*
X128037896Y-109562457D01*
X128031131Y-109556589D01*
X128029896Y-109551357D01*
X128029896Y-109368224D01*
X128033323Y-109359951D01*
X128037894Y-109357124D01*
X128176212Y-109311019D01*
X128179912Y-109310419D01*
X128180640Y-109310419D01*
X128183712Y-109310829D01*
G37*
%TD.AperFunction*%
%TD*%
%TA.AperFunction,Conductor*%
%TO.N,USBD+*%
G36*
X128183712Y-110310829D02*
G01*
X128689428Y-110448502D01*
X128696510Y-110453980D01*
X128697643Y-110462863D01*
X128692164Y-110469946D01*
X128689427Y-110471079D01*
X128183311Y-110608860D01*
X128176538Y-110608671D01*
X128037896Y-110562457D01*
X128031131Y-110556589D01*
X128029896Y-110551357D01*
X128029896Y-110368224D01*
X128033323Y-110359951D01*
X128037894Y-110357124D01*
X128176212Y-110311019D01*
X128179912Y-110310419D01*
X128180640Y-110310419D01*
X128183712Y-110310829D01*
G37*
%TD.AperFunction*%
%TD*%
%TA.AperFunction,Conductor*%
%TO.N,USBD-*%
G36*
X129283253Y-109811038D02*
G01*
X129421896Y-109857252D01*
X129428661Y-109863120D01*
X129429896Y-109868352D01*
X129429896Y-110051485D01*
X129426469Y-110059758D01*
X129421896Y-110062585D01*
X129283580Y-110108691D01*
X129279880Y-110109291D01*
X129279152Y-110109291D01*
X129276079Y-110108880D01*
X128770364Y-109971208D01*
X128763281Y-109965729D01*
X128762148Y-109956846D01*
X128767627Y-109949763D01*
X128770364Y-109948630D01*
X129276480Y-109810849D01*
X129283253Y-109811038D01*
G37*
%TD.AperFunction*%
%TD*%
%TA.AperFunction,Conductor*%
%TO.N,USBD-*%
G36*
X129279156Y-108814919D02*
G01*
X129288882Y-108814919D01*
X129289686Y-108814905D01*
X129292612Y-108814856D01*
X129296498Y-108815453D01*
X129421896Y-108857252D01*
X129428661Y-108863120D01*
X129429896Y-108868352D01*
X129429896Y-109051485D01*
X129426469Y-109059758D01*
X129421896Y-109062585D01*
X129283580Y-109108691D01*
X129279880Y-109109291D01*
X129279152Y-109109291D01*
X129276079Y-109108880D01*
X128770364Y-108971207D01*
X128763281Y-108965727D01*
X128762148Y-108956845D01*
X128767628Y-108949762D01*
X128770356Y-108948632D01*
X129263108Y-108814489D01*
X129266943Y-108814105D01*
X129279156Y-108814919D01*
G37*
%TD.AperFunction*%
%TD*%
%TA.AperFunction,Conductor*%
%TO.N,Net-(U1-VDDA)*%
G36*
X124979706Y-103132729D02*
G01*
X124987599Y-103136957D01*
X124990066Y-103142308D01*
X125172534Y-104160665D01*
X125170620Y-104169413D01*
X125163081Y-104174246D01*
X125161017Y-104174429D01*
X124678976Y-104174429D01*
X124671848Y-104172007D01*
X123977823Y-103638758D01*
X123973350Y-103631000D01*
X123974839Y-103623594D01*
X124296216Y-103071714D01*
X124303340Y-103066291D01*
X124307481Y-103065961D01*
X124979706Y-103132729D01*
G37*
%TD.AperFunction*%
%TD*%
%TA.AperFunction,Conductor*%
%TO.N,Net-(U1-VDDA)*%
G36*
X124247379Y-108813427D02*
G01*
X124250776Y-108820866D01*
X124279492Y-109222893D01*
X124276664Y-109231390D01*
X124273920Y-109233712D01*
X124006098Y-109397275D01*
X123997251Y-109398663D01*
X123993902Y-109397275D01*
X123726079Y-109233712D01*
X123720804Y-109226476D01*
X123720507Y-109222897D01*
X123749224Y-108820866D01*
X123753231Y-108812858D01*
X123760894Y-108810000D01*
X124239106Y-108810000D01*
X124247379Y-108813427D01*
G37*
%TD.AperFunction*%
%TD*%
%TA.AperFunction,Conductor*%
%TO.N,Net-(U1-VDDA)*%
G36*
X125174655Y-103778427D02*
G01*
X125177556Y-103783230D01*
X125355472Y-104356167D01*
X125354652Y-104365084D01*
X125351487Y-104368868D01*
X124932189Y-104695401D01*
X124923556Y-104697781D01*
X124917811Y-104695401D01*
X124498512Y-104368868D01*
X124494090Y-104361081D01*
X124494527Y-104356167D01*
X124672444Y-103783230D01*
X124678171Y-103776346D01*
X124683618Y-103775000D01*
X125166382Y-103775000D01*
X125174655Y-103778427D01*
G37*
%TD.AperFunction*%
%TD*%
%TA.AperFunction,Conductor*%
%TO.N,Net-(U1-VDDA)*%
G36*
X124484252Y-104517416D02*
G01*
X124658045Y-104589017D01*
X124920783Y-104697264D01*
X124927127Y-104703584D01*
X124927411Y-104704338D01*
X125083367Y-105166033D01*
X125082768Y-105174967D01*
X125078258Y-105179835D01*
X124397284Y-105584441D01*
X124388421Y-105585721D01*
X124383035Y-105582656D01*
X124042412Y-105242033D01*
X124038985Y-105233760D01*
X124040688Y-105227682D01*
X124469800Y-104522152D01*
X124477026Y-104516866D01*
X124484252Y-104517416D01*
G37*
%TD.AperFunction*%
%TD*%
M02*
