%TF.GenerationSoftware,KiCad,Pcbnew,8.0.0*%
%TF.CreationDate,2024-03-05T20:17:21-06:00*%
%TF.ProjectId,rigel-a-hw,72696765-6c2d-4612-9d68-772e6b696361,rev?*%
%TF.SameCoordinates,Original*%
%TF.FileFunction,Copper,L3,Inr*%
%TF.FilePolarity,Positive*%
%FSLAX46Y46*%
G04 Gerber Fmt 4.6, Leading zero omitted, Abs format (unit mm)*
G04 Created by KiCad (PCBNEW 8.0.0) date 2024-03-05 20:17:21*
%MOMM*%
%LPD*%
G01*
G04 APERTURE LIST*
%TA.AperFunction,ComponentPad*%
%ADD10C,2.300000*%
%TD*%
%TA.AperFunction,ComponentPad*%
%ADD11R,1.700000X1.700000*%
%TD*%
%TA.AperFunction,ComponentPad*%
%ADD12O,1.700000X1.700000*%
%TD*%
%TA.AperFunction,ComponentPad*%
%ADD13O,1.800000X1.200000*%
%TD*%
%TA.AperFunction,ComponentPad*%
%ADD14O,2.000000X1.100000*%
%TD*%
%TA.AperFunction,ViaPad*%
%ADD15C,0.450000*%
%TD*%
G04 APERTURE END LIST*
D10*
%TO.N,GND*%
%TO.C,U6*%
X102019990Y-107300000D03*
X102019990Y-112380010D03*
X107100000Y-112380010D03*
X107100000Y-107300000D03*
%TO.N,Net-(U6-IN)*%
X104559995Y-109840005D03*
%TD*%
D11*
%TO.N,GND*%
%TO.C,J3*%
X116375000Y-101825000D03*
D12*
%TO.N,/USART1_RX*%
X118915000Y-101825000D03*
%TO.N,/USART1_TX*%
X121455000Y-101825000D03*
%TD*%
D13*
%TO.N,unconnected-(U4-SHELL-Pad13)_0*%
%TO.C,U4*%
X133479960Y-105384861D03*
D14*
%TO.N,unconnected-(U4-SHELL-Pad13)*%
X129279807Y-105384861D03*
D13*
%TO.N,unconnected-(U4-SHELL-Pad14)_0*%
X133479960Y-114034849D03*
D14*
%TO.N,unconnected-(U4-SHELL-Pad14)*%
X129279807Y-114034849D03*
%TD*%
D11*
%TO.N,GND*%
%TO.C,J1*%
X127280000Y-118300000D03*
D12*
%TO.N,/JTCK{slash}SWCLK*%
X124740000Y-118300000D03*
%TO.N,/JTMS{slash}SWDIO*%
X122200000Y-118300000D03*
%TD*%
D15*
%TO.N,+3.3V*%
X119100000Y-113500000D03*
%TO.N,GND*%
X126213102Y-105591148D03*
%TO.N,+3.3V*%
X125800000Y-107600000D03*
X126400000Y-108600000D03*
%TO.N,+1V5*%
X124859082Y-107847105D03*
%TO.N,GND*%
X134000000Y-112600000D03*
X132800000Y-112600000D03*
%TO.N,/RESET*%
X115400000Y-108600000D03*
%TO.N,+3.3V*%
X119800000Y-103800000D03*
%TO.N,+1V5*%
X119900000Y-113400000D03*
%TO.N,GND*%
X104140000Y-115570000D03*
X114300000Y-119380000D03*
X129540000Y-101600000D03*
X107950000Y-114300000D03*
X123000000Y-108000000D03*
X133350000Y-111760000D03*
X131060000Y-106660000D03*
X128500000Y-103500000D03*
X109220000Y-116840000D03*
X132080000Y-115570000D03*
X109800000Y-111000000D03*
X120000000Y-100500000D03*
X115500000Y-114600000D03*
X128500000Y-101000000D03*
X102870000Y-104140000D03*
X118200000Y-110000000D03*
X127000000Y-111000000D03*
X121000000Y-108000000D03*
X101600000Y-119380000D03*
X116000000Y-100500000D03*
X114000000Y-109200000D03*
X113215018Y-108800000D03*
X113800000Y-115600000D03*
X133600000Y-107930000D03*
X129900000Y-117000000D03*
X111500000Y-104000000D03*
X106000000Y-105800000D03*
X118200000Y-109000000D03*
X118110000Y-118110000D03*
X102000000Y-100800000D03*
X105410000Y-116840000D03*
X110500000Y-109200000D03*
X114200000Y-111795000D03*
X104200000Y-100500000D03*
X132080000Y-119380000D03*
X124000000Y-115000000D03*
X132080000Y-104140000D03*
X128200000Y-113200000D03*
X109000000Y-110600000D03*
X119000000Y-107000000D03*
X103700000Y-106200000D03*
X122000000Y-108000000D03*
X121200000Y-115000000D03*
X110100000Y-108400000D03*
X126000000Y-104500000D03*
X113030000Y-119380000D03*
X102870000Y-101600000D03*
X104600000Y-101300000D03*
X105500000Y-100500000D03*
X133600000Y-110470000D03*
X114000000Y-100500000D03*
X107300000Y-109000000D03*
X123000000Y-107000000D03*
X132330000Y-106660000D03*
X105500000Y-102000000D03*
X120000000Y-107000000D03*
X101600000Y-104140000D03*
X123000000Y-110000000D03*
X121000000Y-109000000D03*
X132330000Y-110470000D03*
X133350000Y-101600000D03*
X109000000Y-113200000D03*
X125800000Y-103500000D03*
X104600000Y-105800000D03*
X116840000Y-119380000D03*
X109300000Y-108800000D03*
X133350000Y-115570000D03*
X113405054Y-107863208D03*
X105410000Y-114300000D03*
X116500000Y-103500000D03*
X123000000Y-109000000D03*
X122000000Y-109000000D03*
X122200000Y-115000000D03*
X110490000Y-116840000D03*
X110490000Y-115570000D03*
X119000000Y-111000000D03*
X107300000Y-110400000D03*
X119380000Y-118110000D03*
X115570000Y-119380000D03*
X108200000Y-110600000D03*
X132330000Y-109200000D03*
X113030000Y-118110000D03*
X121000000Y-107000000D03*
X106680000Y-118110000D03*
X110500000Y-107600000D03*
X122000000Y-111000000D03*
X133600000Y-109200000D03*
X109220000Y-118110000D03*
X127500000Y-103500000D03*
X120650000Y-119380000D03*
X121000000Y-111000000D03*
X108700000Y-106000000D03*
X107000000Y-100500000D03*
X112165018Y-108000000D03*
X120000000Y-111000000D03*
X107950000Y-118110000D03*
X110600000Y-110600000D03*
X114300000Y-101600000D03*
X104600000Y-117500000D03*
X125000000Y-115000000D03*
X110490000Y-119380000D03*
X110000000Y-102500000D03*
X109220000Y-115570000D03*
X101600000Y-115570000D03*
X128275000Y-106200000D03*
X110000000Y-103500000D03*
X113500000Y-102000000D03*
X107950000Y-119380000D03*
X101000000Y-110500000D03*
X110400000Y-113200000D03*
X131060000Y-107930000D03*
X104140000Y-119380000D03*
X133350000Y-104140000D03*
X111055010Y-108400000D03*
X101600000Y-105410000D03*
X113400000Y-110830000D03*
X123000000Y-111000000D03*
X104140000Y-114300000D03*
X106680000Y-119380000D03*
X114300000Y-118110000D03*
X108500000Y-100500000D03*
X127000000Y-101000000D03*
X106680000Y-116840000D03*
X102870000Y-114300000D03*
X104000000Y-102000000D03*
X119380000Y-119380000D03*
X119000000Y-110000000D03*
X128000000Y-115000000D03*
X109220000Y-119380000D03*
X120650000Y-118110000D03*
X130810000Y-101600000D03*
X132330000Y-107930000D03*
X116840000Y-118110000D03*
X127000000Y-110000000D03*
X101000000Y-109000000D03*
X101600000Y-114300000D03*
X123500000Y-119400000D03*
X110490000Y-118110000D03*
X107000000Y-102000000D03*
X108400000Y-108800000D03*
X122000000Y-107000000D03*
X116200000Y-110900000D03*
X102800000Y-100400000D03*
X106100000Y-104800000D03*
X131060000Y-109200000D03*
X107950000Y-116840000D03*
X133600000Y-106660000D03*
X107950000Y-115570000D03*
X102870000Y-105410000D03*
X105410000Y-118110000D03*
X117500000Y-100500000D03*
X115570000Y-118110000D03*
X131000000Y-116200000D03*
X127000000Y-104500000D03*
X120000000Y-110000000D03*
X114400000Y-111000000D03*
X111500000Y-102500000D03*
X130810000Y-119380000D03*
X115200000Y-111400000D03*
X118200000Y-111000000D03*
X101600000Y-101600000D03*
X102870000Y-119380000D03*
X109300000Y-107600000D03*
X115000000Y-103500000D03*
X105410000Y-119380000D03*
X111760000Y-119380000D03*
X113488028Y-112821833D03*
X118200000Y-108000000D03*
X120000000Y-108000000D03*
X122000000Y-110000000D03*
X129400000Y-118300000D03*
X105200000Y-106500000D03*
X133350000Y-119380000D03*
X131200000Y-105410000D03*
X121000000Y-110000000D03*
X106100000Y-101300000D03*
X111760000Y-118110000D03*
X110200000Y-112000000D03*
X109000000Y-112000000D03*
X110400000Y-114400000D03*
X132080000Y-101600000D03*
X131400000Y-110200000D03*
X120000000Y-109000000D03*
X106680000Y-115570000D03*
X117770033Y-103206970D03*
X102870000Y-115570000D03*
X111760000Y-116840000D03*
X105410000Y-115570000D03*
X102870000Y-102870000D03*
X107800000Y-101300000D03*
X101600000Y-102870000D03*
X119000000Y-109000000D03*
X109220000Y-114300000D03*
X127000000Y-115000000D03*
X106680000Y-114300000D03*
X119000000Y-108000000D03*
X118110000Y-119380000D03*
X115400000Y-113100000D03*
%TO.N,+3.3V*%
X126700000Y-103400000D03*
X118000000Y-104500000D03*
X117391971Y-114291386D03*
X123200000Y-101100000D03*
X119100000Y-113500000D03*
X125000000Y-106500000D03*
X124755131Y-111770495D03*
%TO.N,+5V*%
X128000000Y-107300000D03*
X130000000Y-111600000D03*
%TO.N,/PB0-VDD_TCXO*%
X116800000Y-115300000D03*
%TO.N,/OSC_IN*%
X118290538Y-113366470D03*
%TO.N,Net-(U4-CC1)*%
X127000000Y-113800000D03*
X129900000Y-108500000D03*
%TO.N,/BOOT0*%
X115800000Y-109370000D03*
%TO.N,/TIM1_CH1_LED_1*%
X112500000Y-101100000D03*
%TO.N,/USART2_RX*%
X118884625Y-104900000D03*
%TO.N,/USART2_TX*%
X119800000Y-104600000D03*
%TO.N,/TIM1_CH2_LED_2*%
X111200000Y-106300000D03*
%TO.N,Net-(U1-VDDA)*%
X124800000Y-109800000D03*
%TD*%
%TA.AperFunction,Conductor*%
%TO.N,+3.3V*%
G36*
X112503346Y-100145098D02*
G01*
X112535192Y-100129360D01*
X112556586Y-100127500D01*
X113186948Y-100127500D01*
X113253987Y-100147185D01*
X113299742Y-100199989D01*
X113309686Y-100269147D01*
X113303990Y-100292453D01*
X113288212Y-100337543D01*
X113270895Y-100491248D01*
X113269909Y-100500000D01*
X113271028Y-100509930D01*
X113273900Y-100535423D01*
X113261844Y-100604245D01*
X113214494Y-100655624D01*
X113146883Y-100673247D01*
X113080478Y-100651519D01*
X113062998Y-100636986D01*
X112955204Y-100529192D01*
X112816774Y-100442210D01*
X112662455Y-100388212D01*
X112542703Y-100374720D01*
X112499798Y-100356692D01*
X112478349Y-100370477D01*
X112457297Y-100374720D01*
X112337544Y-100388212D01*
X112183225Y-100442210D01*
X112044795Y-100529192D01*
X111929192Y-100644795D01*
X111842210Y-100783225D01*
X111788212Y-100937544D01*
X111769909Y-101099996D01*
X111769909Y-101100003D01*
X111788212Y-101262455D01*
X111842210Y-101416774D01*
X111899322Y-101507666D01*
X111929192Y-101555204D01*
X112044796Y-101670808D01*
X112183225Y-101757789D01*
X112337539Y-101811786D01*
X112337542Y-101811786D01*
X112337544Y-101811787D01*
X112499996Y-101830091D01*
X112500000Y-101830091D01*
X112500002Y-101830091D01*
X112552564Y-101824168D01*
X112638256Y-101814513D01*
X112707077Y-101826567D01*
X112758456Y-101873916D01*
X112776081Y-101941526D01*
X112775360Y-101951614D01*
X112769909Y-102000001D01*
X112769909Y-102000003D01*
X112788212Y-102162455D01*
X112788213Y-102162460D01*
X112788214Y-102162461D01*
X112788361Y-102162881D01*
X112842210Y-102316774D01*
X112903801Y-102414795D01*
X112929192Y-102455204D01*
X113044796Y-102570808D01*
X113183225Y-102657789D01*
X113337539Y-102711786D01*
X113337542Y-102711786D01*
X113337544Y-102711787D01*
X113499996Y-102730091D01*
X113500000Y-102730091D01*
X113500004Y-102730091D01*
X113662455Y-102711787D01*
X113662456Y-102711786D01*
X113662461Y-102711786D01*
X113816775Y-102657789D01*
X113955204Y-102570808D01*
X114070808Y-102455204D01*
X114117924Y-102380218D01*
X114170258Y-102333927D01*
X114236802Y-102322970D01*
X114281291Y-102327983D01*
X114299999Y-102330091D01*
X114300000Y-102330091D01*
X114300004Y-102330091D01*
X114462455Y-102311787D01*
X114462456Y-102311786D01*
X114462461Y-102311786D01*
X114616775Y-102257789D01*
X114755204Y-102170808D01*
X114812822Y-102113189D01*
X114874141Y-102079707D01*
X114943833Y-102084691D01*
X114999767Y-102126562D01*
X115024184Y-102192026D01*
X115024500Y-102200873D01*
X115024500Y-102656335D01*
X115004815Y-102723374D01*
X114952011Y-102769129D01*
X114914384Y-102779555D01*
X114837544Y-102788212D01*
X114683225Y-102842210D01*
X114544795Y-102929192D01*
X114429192Y-103044795D01*
X114342210Y-103183225D01*
X114288212Y-103337544D01*
X114269909Y-103499996D01*
X114269909Y-103500003D01*
X114288212Y-103662455D01*
X114342210Y-103816774D01*
X114412970Y-103929387D01*
X114429192Y-103955204D01*
X114544796Y-104070808D01*
X114683225Y-104157789D01*
X114837539Y-104211786D01*
X114837542Y-104211786D01*
X114837544Y-104211787D01*
X114999996Y-104230091D01*
X115000000Y-104230091D01*
X115000004Y-104230091D01*
X115162455Y-104211787D01*
X115162456Y-104211786D01*
X115162461Y-104211786D01*
X115316775Y-104157789D01*
X115455204Y-104070808D01*
X115570808Y-103955204D01*
X115645006Y-103837119D01*
X115697341Y-103790828D01*
X115766395Y-103780180D01*
X115830243Y-103808555D01*
X115854994Y-103837119D01*
X115929192Y-103955204D01*
X116044796Y-104070808D01*
X116183225Y-104157789D01*
X116337539Y-104211786D01*
X116337542Y-104211786D01*
X116337544Y-104211787D01*
X116499996Y-104230091D01*
X116500000Y-104230091D01*
X116500004Y-104230091D01*
X116662455Y-104211787D01*
X116662456Y-104211786D01*
X116662461Y-104211786D01*
X116816775Y-104157789D01*
X116955204Y-104070808D01*
X117070808Y-103955204D01*
X117153836Y-103823065D01*
X117206171Y-103776775D01*
X117275225Y-103766127D01*
X117324803Y-103784045D01*
X117376890Y-103816774D01*
X117453258Y-103864759D01*
X117607572Y-103918756D01*
X117607575Y-103918756D01*
X117607577Y-103918757D01*
X117770029Y-103937061D01*
X117770033Y-103937061D01*
X117770037Y-103937061D01*
X117932488Y-103918757D01*
X117932489Y-103918756D01*
X117932494Y-103918756D01*
X118086808Y-103864759D01*
X118225237Y-103777778D01*
X118340841Y-103662174D01*
X118427822Y-103523745D01*
X118481819Y-103369431D01*
X118485413Y-103337539D01*
X118494381Y-103257943D01*
X118521447Y-103193529D01*
X118579042Y-103153974D01*
X118648879Y-103151836D01*
X118649500Y-103152000D01*
X118679592Y-103160063D01*
X118867918Y-103176539D01*
X118914999Y-103180659D01*
X118915000Y-103180659D01*
X118915001Y-103180659D01*
X118954234Y-103177226D01*
X119150408Y-103160063D01*
X119378663Y-103098903D01*
X119592830Y-102999035D01*
X119786401Y-102863495D01*
X119953495Y-102696401D01*
X120083425Y-102510842D01*
X120138002Y-102467217D01*
X120207500Y-102460023D01*
X120269855Y-102491546D01*
X120286575Y-102510842D01*
X120416500Y-102696395D01*
X120416505Y-102696401D01*
X120583599Y-102863495D01*
X120658421Y-102915886D01*
X120777165Y-102999032D01*
X120777167Y-102999033D01*
X120777170Y-102999035D01*
X120991337Y-103098903D01*
X121219592Y-103160063D01*
X121407918Y-103176539D01*
X121454999Y-103180659D01*
X121455000Y-103180659D01*
X121455001Y-103180659D01*
X121494234Y-103177226D01*
X121690408Y-103160063D01*
X121918663Y-103098903D01*
X122132830Y-102999035D01*
X122326401Y-102863495D01*
X122493495Y-102696401D01*
X122629035Y-102502830D01*
X122728903Y-102288663D01*
X122790063Y-102060408D01*
X122810659Y-101825000D01*
X122809741Y-101814513D01*
X122805187Y-101762455D01*
X122790063Y-101589592D01*
X122728903Y-101361337D01*
X122629035Y-101147171D01*
X122628661Y-101146636D01*
X122493494Y-100953597D01*
X122326402Y-100786506D01*
X122326395Y-100786501D01*
X122321716Y-100783225D01*
X122249518Y-100732671D01*
X122132834Y-100650967D01*
X122132830Y-100650965D01*
X122102852Y-100636986D01*
X121918663Y-100551097D01*
X121918659Y-100551096D01*
X121918655Y-100551094D01*
X121690413Y-100489938D01*
X121690403Y-100489936D01*
X121455001Y-100469341D01*
X121454999Y-100469341D01*
X121219596Y-100489936D01*
X121219586Y-100489938D01*
X120991344Y-100551094D01*
X120991337Y-100551096D01*
X120991337Y-100551097D01*
X120951396Y-100569721D01*
X120904916Y-100591396D01*
X120835838Y-100601888D01*
X120772054Y-100573368D01*
X120733815Y-100514892D01*
X120729291Y-100492897D01*
X120711787Y-100337543D01*
X120710093Y-100332703D01*
X120696010Y-100292453D01*
X120692449Y-100222675D01*
X120727178Y-100162048D01*
X120789172Y-100129821D01*
X120813052Y-100127500D01*
X126594522Y-100127500D01*
X126661561Y-100147185D01*
X126707316Y-100199989D01*
X126717260Y-100269147D01*
X126688235Y-100332703D01*
X126660494Y-100356494D01*
X126544795Y-100429192D01*
X126429192Y-100544795D01*
X126342210Y-100683225D01*
X126288212Y-100837544D01*
X126269909Y-100999996D01*
X126269909Y-101000003D01*
X126288212Y-101162455D01*
X126342210Y-101316774D01*
X126401821Y-101411643D01*
X126429192Y-101455204D01*
X126544796Y-101570808D01*
X126683225Y-101657789D01*
X126837539Y-101711786D01*
X126837542Y-101711786D01*
X126837544Y-101711787D01*
X126999996Y-101730091D01*
X127000000Y-101730091D01*
X127000004Y-101730091D01*
X127162455Y-101711787D01*
X127162456Y-101711786D01*
X127162461Y-101711786D01*
X127316775Y-101657789D01*
X127455204Y-101570808D01*
X127570808Y-101455204D01*
X127645006Y-101337119D01*
X127697341Y-101290828D01*
X127766395Y-101280180D01*
X127830243Y-101308555D01*
X127854994Y-101337119D01*
X127929192Y-101455204D01*
X128044796Y-101570808D01*
X128183225Y-101657789D01*
X128337539Y-101711786D01*
X128337542Y-101711786D01*
X128337544Y-101711787D01*
X128499996Y-101730091D01*
X128500000Y-101730091D01*
X128500004Y-101730091D01*
X128662453Y-101711787D01*
X128662453Y-101711786D01*
X128662461Y-101711786D01*
X128677293Y-101706595D01*
X128747067Y-101703031D01*
X128807696Y-101737758D01*
X128835289Y-101782680D01*
X128845474Y-101811786D01*
X128882210Y-101916774D01*
X128948288Y-102021935D01*
X128969192Y-102055204D01*
X129084796Y-102170808D01*
X129223225Y-102257789D01*
X129377539Y-102311786D01*
X129377542Y-102311786D01*
X129377544Y-102311787D01*
X129539996Y-102330091D01*
X129540000Y-102330091D01*
X129540004Y-102330091D01*
X129702455Y-102311787D01*
X129702456Y-102311786D01*
X129702461Y-102311786D01*
X129856775Y-102257789D01*
X129995204Y-102170808D01*
X130087319Y-102078693D01*
X130148642Y-102045208D01*
X130218334Y-102050192D01*
X130262681Y-102078693D01*
X130354796Y-102170808D01*
X130493225Y-102257789D01*
X130647539Y-102311786D01*
X130647542Y-102311786D01*
X130647544Y-102311787D01*
X130809996Y-102330091D01*
X130810000Y-102330091D01*
X130810004Y-102330091D01*
X130972455Y-102311787D01*
X130972456Y-102311786D01*
X130972461Y-102311786D01*
X131126775Y-102257789D01*
X131265204Y-102170808D01*
X131357319Y-102078693D01*
X131418642Y-102045208D01*
X131488334Y-102050192D01*
X131532681Y-102078693D01*
X131624796Y-102170808D01*
X131763225Y-102257789D01*
X131917539Y-102311786D01*
X131917542Y-102311786D01*
X131917544Y-102311787D01*
X132079996Y-102330091D01*
X132080000Y-102330091D01*
X132080004Y-102330091D01*
X132242455Y-102311787D01*
X132242456Y-102311786D01*
X132242461Y-102311786D01*
X132396775Y-102257789D01*
X132535204Y-102170808D01*
X132627319Y-102078693D01*
X132688642Y-102045208D01*
X132758334Y-102050192D01*
X132802681Y-102078693D01*
X132894796Y-102170808D01*
X133033225Y-102257789D01*
X133187539Y-102311786D01*
X133187542Y-102311786D01*
X133187544Y-102311787D01*
X133349996Y-102330091D01*
X133350000Y-102330091D01*
X133350004Y-102330091D01*
X133512455Y-102311787D01*
X133512456Y-102311786D01*
X133512461Y-102311786D01*
X133666775Y-102257789D01*
X133805204Y-102170808D01*
X133920808Y-102055204D01*
X134007789Y-101916775D01*
X134061786Y-101762461D01*
X134062283Y-101758050D01*
X134080091Y-101600003D01*
X134080091Y-101599996D01*
X134061787Y-101437544D01*
X134061786Y-101437542D01*
X134061786Y-101437539D01*
X134007789Y-101283225D01*
X133920808Y-101144796D01*
X133805204Y-101029192D01*
X133758750Y-101000003D01*
X133666774Y-100942210D01*
X133512455Y-100888212D01*
X133350004Y-100869909D01*
X133349996Y-100869909D01*
X133187544Y-100888212D01*
X133033225Y-100942210D01*
X132894795Y-101029192D01*
X132802681Y-101121307D01*
X132741358Y-101154792D01*
X132671666Y-101149808D01*
X132627319Y-101121307D01*
X132535204Y-101029192D01*
X132396774Y-100942210D01*
X132242455Y-100888212D01*
X132080004Y-100869909D01*
X132079996Y-100869909D01*
X131917544Y-100888212D01*
X131763225Y-100942210D01*
X131624795Y-101029192D01*
X131532681Y-101121307D01*
X131471358Y-101154792D01*
X131401666Y-101149808D01*
X131357319Y-101121307D01*
X131265204Y-101029192D01*
X131126774Y-100942210D01*
X130972455Y-100888212D01*
X130810004Y-100869909D01*
X130809996Y-100869909D01*
X130647544Y-100888212D01*
X130493225Y-100942210D01*
X130354795Y-101029192D01*
X130262681Y-101121307D01*
X130201358Y-101154792D01*
X130131666Y-101149808D01*
X130087319Y-101121307D01*
X129995204Y-101029192D01*
X129856774Y-100942210D01*
X129702455Y-100888212D01*
X129540004Y-100869909D01*
X129539996Y-100869909D01*
X129377542Y-100888212D01*
X129362703Y-100893405D01*
X129292924Y-100896965D01*
X129232297Y-100862234D01*
X129204710Y-100817318D01*
X129157789Y-100683225D01*
X129070808Y-100544796D01*
X128955204Y-100429192D01*
X128839505Y-100356493D01*
X128793215Y-100304159D01*
X128782567Y-100235105D01*
X128810942Y-100171257D01*
X128869332Y-100132885D01*
X128905478Y-100127500D01*
X132970899Y-100127500D01*
X132995933Y-100127500D01*
X133004042Y-100127765D01*
X133025793Y-100129190D01*
X133236316Y-100142988D01*
X133252375Y-100145103D01*
X133476677Y-100189720D01*
X133492322Y-100193912D01*
X133708886Y-100267426D01*
X133723857Y-100273627D01*
X133891896Y-100356494D01*
X133928960Y-100374772D01*
X133943008Y-100382882D01*
X134133152Y-100509933D01*
X134146012Y-100519801D01*
X134219406Y-100584166D01*
X134317946Y-100670584D01*
X134329415Y-100682053D01*
X134373806Y-100732671D01*
X134476947Y-100850280D01*
X134480195Y-100853983D01*
X134490068Y-100866849D01*
X134514443Y-100903330D01*
X134617117Y-101056992D01*
X134625227Y-101071039D01*
X134726369Y-101276135D01*
X134732576Y-101291120D01*
X134806084Y-101507666D01*
X134810282Y-101523334D01*
X134854894Y-101747612D01*
X134857012Y-101763693D01*
X134872235Y-101995956D01*
X134872500Y-102004066D01*
X134872500Y-104634698D01*
X134852815Y-104701737D01*
X134800011Y-104747492D01*
X134730853Y-104757436D01*
X134667297Y-104728411D01*
X134648183Y-104707584D01*
X134619378Y-104667939D01*
X134619374Y-104667933D01*
X134496888Y-104545447D01*
X134356748Y-104443629D01*
X134332588Y-104431319D01*
X134202406Y-104364988D01*
X134156184Y-104349969D01*
X134098510Y-104310531D01*
X134071313Y-104246171D01*
X134071285Y-104218155D01*
X134080091Y-104140002D01*
X134080091Y-104139996D01*
X134061787Y-103977544D01*
X134061786Y-103977542D01*
X134061786Y-103977539D01*
X134007789Y-103823225D01*
X133920808Y-103684796D01*
X133805204Y-103569192D01*
X133744992Y-103531358D01*
X133666774Y-103482210D01*
X133512455Y-103428212D01*
X133350004Y-103409909D01*
X133349996Y-103409909D01*
X133187544Y-103428212D01*
X133033225Y-103482210D01*
X132894795Y-103569192D01*
X132802681Y-103661307D01*
X132741358Y-103694792D01*
X132671666Y-103689808D01*
X132627319Y-103661307D01*
X132535204Y-103569192D01*
X132396774Y-103482210D01*
X132242455Y-103428212D01*
X132080004Y-103409909D01*
X132079996Y-103409909D01*
X131917544Y-103428212D01*
X131763225Y-103482210D01*
X131624795Y-103569192D01*
X131509192Y-103684795D01*
X131422210Y-103823225D01*
X131368212Y-103977544D01*
X131349909Y-104139996D01*
X131349909Y-104140003D01*
X131368212Y-104302455D01*
X131368213Y-104302460D01*
X131368214Y-104302461D01*
X131371038Y-104310531D01*
X131422210Y-104456775D01*
X131453035Y-104505832D01*
X131472035Y-104573069D01*
X131451667Y-104639904D01*
X131398399Y-104685118D01*
X131334158Y-104695024D01*
X131200004Y-104679909D01*
X131199996Y-104679909D01*
X131037544Y-104698212D01*
X130883225Y-104752210D01*
X130765068Y-104826454D01*
X130697831Y-104845454D01*
X130630996Y-104825086D01*
X130595993Y-104790350D01*
X130577358Y-104762461D01*
X130545784Y-104715206D01*
X130545782Y-104715203D01*
X130399464Y-104568885D01*
X130305097Y-104505832D01*
X130227405Y-104453920D01*
X130208050Y-104445903D01*
X130036227Y-104374731D01*
X130036219Y-104374729D01*
X129833276Y-104334361D01*
X129833272Y-104334361D01*
X128966176Y-104334361D01*
X128899137Y-104314676D01*
X128853382Y-104261872D01*
X128843438Y-104192714D01*
X128872463Y-104129158D01*
X128900203Y-104105368D01*
X128955202Y-104070809D01*
X128955201Y-104070809D01*
X128955204Y-104070808D01*
X129070808Y-103955204D01*
X129157789Y-103816775D01*
X129211786Y-103662461D01*
X129211787Y-103662455D01*
X129230091Y-103500003D01*
X129230091Y-103499996D01*
X129211787Y-103337544D01*
X129211786Y-103337542D01*
X129211786Y-103337539D01*
X129157789Y-103183225D01*
X129070808Y-103044796D01*
X128955204Y-102929192D01*
X128861001Y-102870000D01*
X128816774Y-102842210D01*
X128662455Y-102788212D01*
X128500004Y-102769909D01*
X128499996Y-102769909D01*
X128337544Y-102788212D01*
X128183225Y-102842210D01*
X128065972Y-102915886D01*
X127998735Y-102934886D01*
X127934028Y-102915886D01*
X127816774Y-102842210D01*
X127662455Y-102788212D01*
X127500004Y-102769909D01*
X127499996Y-102769909D01*
X127337544Y-102788212D01*
X127183225Y-102842210D01*
X127044795Y-102929192D01*
X126929192Y-103044795D01*
X126842210Y-103183225D01*
X126788212Y-103337544D01*
X126773220Y-103470609D01*
X126746154Y-103535023D01*
X126688559Y-103574579D01*
X126618722Y-103576716D01*
X126558815Y-103540758D01*
X126527860Y-103478120D01*
X126526780Y-103470609D01*
X126511787Y-103337544D01*
X126511786Y-103337542D01*
X126511786Y-103337539D01*
X126457789Y-103183225D01*
X126370808Y-103044796D01*
X126255204Y-102929192D01*
X126161001Y-102870000D01*
X126116774Y-102842210D01*
X125962455Y-102788212D01*
X125800004Y-102769909D01*
X125799996Y-102769909D01*
X125637544Y-102788212D01*
X125483225Y-102842210D01*
X125344795Y-102929192D01*
X125229192Y-103044795D01*
X125142210Y-103183225D01*
X125088212Y-103337544D01*
X125069909Y-103499996D01*
X125069909Y-103500003D01*
X125088212Y-103662455D01*
X125142210Y-103816774D01*
X125229192Y-103955204D01*
X125317378Y-104043390D01*
X125350863Y-104104713D01*
X125345879Y-104174405D01*
X125342631Y-104182024D01*
X125288212Y-104337544D01*
X125269909Y-104499996D01*
X125269909Y-104500003D01*
X125288212Y-104662455D01*
X125342210Y-104816774D01*
X125429192Y-104955204D01*
X125544797Y-105070809D01*
X125550246Y-105075155D01*
X125548266Y-105077637D01*
X125585307Y-105119468D01*
X125595992Y-105188516D01*
X125578067Y-105238158D01*
X125555313Y-105274371D01*
X125501314Y-105428692D01*
X125483011Y-105591144D01*
X125483011Y-105591151D01*
X125501314Y-105753603D01*
X125555312Y-105907922D01*
X125609526Y-105994202D01*
X125642294Y-106046352D01*
X125757898Y-106161956D01*
X125896327Y-106248937D01*
X126050641Y-106302934D01*
X126050644Y-106302934D01*
X126050646Y-106302935D01*
X126213098Y-106321239D01*
X126213102Y-106321239D01*
X126213106Y-106321239D01*
X126375557Y-106302935D01*
X126375558Y-106302934D01*
X126375563Y-106302934D01*
X126529877Y-106248937D01*
X126668306Y-106161956D01*
X126783910Y-106046352D01*
X126870891Y-105907923D01*
X126924888Y-105753609D01*
X126925881Y-105744796D01*
X126943193Y-105591151D01*
X126943193Y-105591144D01*
X126924889Y-105428692D01*
X126924888Y-105428690D01*
X126924888Y-105428687D01*
X126912235Y-105392529D01*
X126908673Y-105322753D01*
X126943402Y-105262125D01*
X127005395Y-105229898D01*
X127015381Y-105228357D01*
X127118183Y-105216775D01*
X127162455Y-105211787D01*
X127162456Y-105211786D01*
X127162461Y-105211786D01*
X127316775Y-105157789D01*
X127455204Y-105070808D01*
X127570808Y-104955204D01*
X127657789Y-104816775D01*
X127711786Y-104662461D01*
X127711787Y-104662455D01*
X127730091Y-104500003D01*
X127730091Y-104499996D01*
X127711787Y-104337542D01*
X127708157Y-104327168D01*
X127704595Y-104257389D01*
X127739323Y-104196762D01*
X127784241Y-104169172D01*
X127816775Y-104157789D01*
X127934028Y-104084113D01*
X128001264Y-104065113D01*
X128065971Y-104084113D01*
X128099798Y-104105368D01*
X128183221Y-104157787D01*
X128183225Y-104157789D01*
X128337539Y-104211786D01*
X128337541Y-104211786D01*
X128344111Y-104214085D01*
X128343138Y-104216865D01*
X128392625Y-104244507D01*
X128425520Y-104306149D01*
X128419867Y-104375789D01*
X128377460Y-104431319D01*
X128351562Y-104445903D01*
X128332210Y-104453919D01*
X128160149Y-104568885D01*
X128013831Y-104715203D01*
X127898865Y-104887264D01*
X127819677Y-105078440D01*
X127819675Y-105078448D01*
X127779307Y-105281391D01*
X127779307Y-105488330D01*
X127796464Y-105574585D01*
X127790237Y-105644177D01*
X127762530Y-105686456D01*
X127704192Y-105744794D01*
X127617210Y-105883225D01*
X127563212Y-106037544D01*
X127544909Y-106199996D01*
X127544909Y-106200003D01*
X127563212Y-106362455D01*
X127617211Y-106516776D01*
X127626432Y-106531452D01*
X127645431Y-106598689D01*
X127625062Y-106665524D01*
X127587410Y-106702415D01*
X127544798Y-106729190D01*
X127544795Y-106729192D01*
X127429192Y-106844795D01*
X127342210Y-106983225D01*
X127288212Y-107137544D01*
X127269909Y-107299996D01*
X127269909Y-107300003D01*
X127288212Y-107462455D01*
X127342210Y-107616774D01*
X127387666Y-107689116D01*
X127429192Y-107755204D01*
X127544796Y-107870808D01*
X127683225Y-107957789D01*
X127837539Y-108011786D01*
X127837542Y-108011786D01*
X127837544Y-108011787D01*
X127999996Y-108030091D01*
X128000000Y-108030091D01*
X128000004Y-108030091D01*
X128162455Y-108011787D01*
X128162456Y-108011786D01*
X128162461Y-108011786D01*
X128316775Y-107957789D01*
X128455204Y-107870808D01*
X128570808Y-107755204D01*
X128657789Y-107616775D01*
X128711786Y-107462461D01*
X128712604Y-107455204D01*
X128730091Y-107300003D01*
X128730091Y-107299996D01*
X128711787Y-107137542D01*
X128657789Y-106983225D01*
X128657785Y-106983217D01*
X128648568Y-106968548D01*
X128629568Y-106901311D01*
X128649936Y-106834476D01*
X128687586Y-106797586D01*
X128730204Y-106770808D01*
X128845808Y-106655204D01*
X128932789Y-106516775D01*
X128932789Y-106516772D01*
X128932792Y-106516769D01*
X128935812Y-106510500D01*
X128937356Y-106511243D01*
X128972935Y-106461634D01*
X129037887Y-106435884D01*
X129049260Y-106435361D01*
X129172717Y-106435361D01*
X129239756Y-106455046D01*
X129285511Y-106507850D01*
X129295455Y-106577008D01*
X129287277Y-106606817D01*
X129287005Y-106607471D01*
X129287004Y-106607474D01*
X129249487Y-106747488D01*
X129249487Y-106892440D01*
X129272085Y-106976775D01*
X129287004Y-107032455D01*
X129287006Y-107032460D01*
X129359475Y-107157980D01*
X129359479Y-107157985D01*
X129359480Y-107157987D01*
X129461977Y-107260484D01*
X129461979Y-107260485D01*
X129461983Y-107260488D01*
X129587503Y-107332957D01*
X129587508Y-107332959D01*
X129587510Y-107332960D01*
X129727524Y-107370477D01*
X129727527Y-107370477D01*
X129872473Y-107370477D01*
X129872476Y-107370477D01*
X130012490Y-107332960D01*
X130012493Y-107332958D01*
X130012496Y-107332957D01*
X130138016Y-107260488D01*
X130138015Y-107260488D01*
X130138023Y-107260484D01*
X130240520Y-107157987D01*
X130269577Y-107107657D01*
X130320139Y-107059446D01*
X130388746Y-107046221D01*
X130453612Y-107072188D01*
X130481955Y-107103687D01*
X130489190Y-107115201D01*
X130489192Y-107115204D01*
X130581307Y-107207319D01*
X130614792Y-107268642D01*
X130609808Y-107338334D01*
X130581307Y-107382681D01*
X130489192Y-107474795D01*
X130402209Y-107613227D01*
X130351551Y-107757999D01*
X130310830Y-107814775D01*
X130245877Y-107840522D01*
X130193556Y-107834086D01*
X130062455Y-107788212D01*
X129900004Y-107769909D01*
X129899996Y-107769909D01*
X129737544Y-107788212D01*
X129583225Y-107842210D01*
X129444795Y-107929192D01*
X129329192Y-108044795D01*
X129242210Y-108183225D01*
X129188212Y-108337544D01*
X129169909Y-108499996D01*
X129169909Y-108500003D01*
X129188212Y-108662455D01*
X129242210Y-108816774D01*
X129283964Y-108883225D01*
X129329192Y-108955204D01*
X129444796Y-109070808D01*
X129583225Y-109157789D01*
X129737539Y-109211786D01*
X129737542Y-109211786D01*
X129737544Y-109211787D01*
X129899996Y-109230091D01*
X129900000Y-109230091D01*
X129900004Y-109230091D01*
X130062457Y-109211787D01*
X130062459Y-109211786D01*
X130062461Y-109211786D01*
X130174276Y-109172659D01*
X130244055Y-109169098D01*
X130304682Y-109203826D01*
X130336910Y-109265820D01*
X130338451Y-109275818D01*
X130348212Y-109362455D01*
X130402210Y-109516774D01*
X130489192Y-109655204D01*
X130604798Y-109770810D01*
X130632497Y-109788214D01*
X130665959Y-109809239D01*
X130712251Y-109861573D01*
X130722900Y-109930626D01*
X130717030Y-109955187D01*
X130688212Y-110037544D01*
X130669909Y-110199996D01*
X130669909Y-110200003D01*
X130688212Y-110362455D01*
X130742210Y-110516774D01*
X130783964Y-110583225D01*
X130829192Y-110655204D01*
X130944796Y-110770808D01*
X131083225Y-110857789D01*
X131237539Y-110911786D01*
X131237542Y-110911786D01*
X131237544Y-110911787D01*
X131399996Y-110930091D01*
X131400000Y-110930091D01*
X131400004Y-110930091D01*
X131562455Y-110911787D01*
X131562456Y-110911786D01*
X131562461Y-110911786D01*
X131624862Y-110889950D01*
X131694637Y-110886388D01*
X131754099Y-110920448D01*
X131754268Y-110920280D01*
X131754889Y-110920901D01*
X131755264Y-110921116D01*
X131756390Y-110922402D01*
X131759192Y-110925204D01*
X131874796Y-111040808D01*
X132013225Y-111127789D01*
X132167539Y-111181786D01*
X132167542Y-111181786D01*
X132167544Y-111181787D01*
X132329996Y-111200091D01*
X132330000Y-111200091D01*
X132330004Y-111200091D01*
X132492454Y-111181787D01*
X132492454Y-111181786D01*
X132492461Y-111181786D01*
X132624592Y-111135550D01*
X132694370Y-111131990D01*
X132754998Y-111166719D01*
X132787225Y-111228712D01*
X132780820Y-111298288D01*
X132770540Y-111318565D01*
X132692210Y-111443225D01*
X132638212Y-111597544D01*
X132619909Y-111759996D01*
X132619909Y-111759998D01*
X132623404Y-111791023D01*
X132611347Y-111859845D01*
X132563997Y-111911223D01*
X132541140Y-111921945D01*
X132483222Y-111942212D01*
X132344795Y-112029192D01*
X132229192Y-112144795D01*
X132142210Y-112283225D01*
X132088212Y-112437544D01*
X132069909Y-112599996D01*
X132069909Y-112600003D01*
X132088212Y-112762455D01*
X132142210Y-112916774D01*
X132229192Y-113055204D01*
X132329354Y-113155366D01*
X132362839Y-113216689D01*
X132357855Y-113286381D01*
X132341991Y-113315933D01*
X132340548Y-113317918D01*
X132340546Y-113317921D01*
X132340542Y-113317927D01*
X132238728Y-113458060D01*
X132160088Y-113612401D01*
X132106557Y-113777151D01*
X132094260Y-113854792D01*
X132079460Y-113948238D01*
X132079460Y-114121460D01*
X132106558Y-114292550D01*
X132153668Y-114437539D01*
X132160088Y-114457296D01*
X132238728Y-114611637D01*
X132268151Y-114652134D01*
X132291631Y-114717941D01*
X132275806Y-114785995D01*
X132225700Y-114834690D01*
X132157222Y-114848565D01*
X132153951Y-114848240D01*
X132080005Y-114839909D01*
X132079996Y-114839909D01*
X131917544Y-114858212D01*
X131763225Y-114912210D01*
X131624795Y-114999192D01*
X131509192Y-115114795D01*
X131422210Y-115253225D01*
X131368212Y-115407544D01*
X131366817Y-115413656D01*
X131332700Y-115474630D01*
X131271035Y-115507480D01*
X131204976Y-115503090D01*
X131162456Y-115488212D01*
X131162457Y-115488212D01*
X131000004Y-115469909D01*
X130999996Y-115469909D01*
X130837544Y-115488212D01*
X130683225Y-115542210D01*
X130544795Y-115629192D01*
X130429192Y-115744795D01*
X130342210Y-115883225D01*
X130288212Y-116037544D01*
X130269887Y-116200190D01*
X130242821Y-116264604D01*
X130185226Y-116304159D01*
X130115389Y-116306296D01*
X130105715Y-116303348D01*
X130062459Y-116288213D01*
X130062457Y-116288212D01*
X129900004Y-116269909D01*
X129899996Y-116269909D01*
X129737544Y-116288212D01*
X129583225Y-116342210D01*
X129444795Y-116429192D01*
X129329192Y-116544795D01*
X129242210Y-116683225D01*
X129188212Y-116837544D01*
X129169909Y-116999996D01*
X129169909Y-117000003D01*
X129188212Y-117162455D01*
X129242210Y-117316774D01*
X129298458Y-117406292D01*
X129317458Y-117473529D01*
X129297090Y-117540364D01*
X129243822Y-117585578D01*
X129234424Y-117589303D01*
X129197138Y-117602351D01*
X129083224Y-117642211D01*
X128944797Y-117729191D01*
X128842180Y-117831808D01*
X128780857Y-117865292D01*
X128711165Y-117860308D01*
X128655232Y-117818436D01*
X128630815Y-117752971D01*
X128630499Y-117744126D01*
X128630499Y-117402129D01*
X128630498Y-117402123D01*
X128628110Y-117379909D01*
X128624091Y-117342517D01*
X128622810Y-117339083D01*
X128573797Y-117207671D01*
X128573793Y-117207664D01*
X128487547Y-117092455D01*
X128487544Y-117092452D01*
X128372335Y-117006206D01*
X128372328Y-117006202D01*
X128237482Y-116955908D01*
X128237483Y-116955908D01*
X128177883Y-116949501D01*
X128177881Y-116949500D01*
X128177873Y-116949500D01*
X128177864Y-116949500D01*
X126382129Y-116949500D01*
X126382123Y-116949501D01*
X126322516Y-116955908D01*
X126187671Y-117006202D01*
X126187664Y-117006206D01*
X126072455Y-117092452D01*
X126072452Y-117092455D01*
X125986206Y-117207664D01*
X125986203Y-117207669D01*
X125937189Y-117339083D01*
X125895317Y-117395016D01*
X125829853Y-117419433D01*
X125761580Y-117404581D01*
X125733326Y-117383430D01*
X125611402Y-117261506D01*
X125611395Y-117261501D01*
X125417834Y-117125967D01*
X125417830Y-117125965D01*
X125399820Y-117117567D01*
X125203663Y-117026097D01*
X125203659Y-117026096D01*
X125203655Y-117026094D01*
X124975413Y-116964938D01*
X124975403Y-116964936D01*
X124740001Y-116944341D01*
X124739999Y-116944341D01*
X124504596Y-116964936D01*
X124504586Y-116964938D01*
X124276344Y-117026094D01*
X124276335Y-117026098D01*
X124062171Y-117125964D01*
X124062169Y-117125965D01*
X123868597Y-117261505D01*
X123701505Y-117428597D01*
X123571575Y-117614158D01*
X123516998Y-117657783D01*
X123447500Y-117664977D01*
X123385145Y-117633454D01*
X123368425Y-117614158D01*
X123238494Y-117428597D01*
X123071402Y-117261506D01*
X123071395Y-117261501D01*
X122877834Y-117125967D01*
X122877830Y-117125965D01*
X122859820Y-117117567D01*
X122663663Y-117026097D01*
X122663659Y-117026096D01*
X122663655Y-117026094D01*
X122435413Y-116964938D01*
X122435403Y-116964936D01*
X122200001Y-116944341D01*
X122199999Y-116944341D01*
X121964596Y-116964936D01*
X121964586Y-116964938D01*
X121736344Y-117026094D01*
X121736335Y-117026098D01*
X121522171Y-117125964D01*
X121522169Y-117125965D01*
X121328597Y-117261505D01*
X121161508Y-117428595D01*
X121161500Y-117428604D01*
X121158184Y-117433341D01*
X121103605Y-117476963D01*
X121034106Y-117484152D01*
X120990643Y-117467207D01*
X120966776Y-117452211D01*
X120846620Y-117410167D01*
X120812461Y-117398214D01*
X120812460Y-117398213D01*
X120812455Y-117398212D01*
X120650004Y-117379909D01*
X120649996Y-117379909D01*
X120487544Y-117398212D01*
X120333225Y-117452210D01*
X120194795Y-117539192D01*
X120102681Y-117631307D01*
X120041358Y-117664792D01*
X119971666Y-117659808D01*
X119927319Y-117631307D01*
X119835204Y-117539192D01*
X119696774Y-117452210D01*
X119553649Y-117402129D01*
X119542461Y-117398214D01*
X119542460Y-117398213D01*
X119542455Y-117398212D01*
X119380004Y-117379909D01*
X119379996Y-117379909D01*
X119217544Y-117398212D01*
X119063225Y-117452210D01*
X118924795Y-117539192D01*
X118832681Y-117631307D01*
X118771358Y-117664792D01*
X118701666Y-117659808D01*
X118657319Y-117631307D01*
X118565204Y-117539192D01*
X118426774Y-117452210D01*
X118283649Y-117402129D01*
X118272461Y-117398214D01*
X118272460Y-117398213D01*
X118272455Y-117398212D01*
X118110004Y-117379909D01*
X118109996Y-117379909D01*
X117947544Y-117398212D01*
X117793225Y-117452210D01*
X117654795Y-117539192D01*
X117562681Y-117631307D01*
X117501358Y-117664792D01*
X117431666Y-117659808D01*
X117387319Y-117631307D01*
X117295204Y-117539192D01*
X117156774Y-117452210D01*
X117013649Y-117402129D01*
X117002461Y-117398214D01*
X117002460Y-117398213D01*
X117002455Y-117398212D01*
X116840004Y-117379909D01*
X116839996Y-117379909D01*
X116677544Y-117398212D01*
X116523225Y-117452210D01*
X116384795Y-117539192D01*
X116292681Y-117631307D01*
X116231358Y-117664792D01*
X116161666Y-117659808D01*
X116117319Y-117631307D01*
X116025204Y-117539192D01*
X115886774Y-117452210D01*
X115743649Y-117402129D01*
X115732461Y-117398214D01*
X115732460Y-117398213D01*
X115732455Y-117398212D01*
X115570004Y-117379909D01*
X115569996Y-117379909D01*
X115407544Y-117398212D01*
X115253225Y-117452210D01*
X115114795Y-117539192D01*
X115022681Y-117631307D01*
X114961358Y-117664792D01*
X114891666Y-117659808D01*
X114847319Y-117631307D01*
X114755204Y-117539192D01*
X114616774Y-117452210D01*
X114473649Y-117402129D01*
X114462461Y-117398214D01*
X114462460Y-117398213D01*
X114462455Y-117398212D01*
X114300004Y-117379909D01*
X114299996Y-117379909D01*
X114137544Y-117398212D01*
X113983225Y-117452210D01*
X113844795Y-117539192D01*
X113752681Y-117631307D01*
X113691358Y-117664792D01*
X113621666Y-117659808D01*
X113577319Y-117631307D01*
X113485204Y-117539192D01*
X113346774Y-117452210D01*
X113203649Y-117402129D01*
X113192461Y-117398214D01*
X113192460Y-117398213D01*
X113192455Y-117398212D01*
X113030004Y-117379909D01*
X113029996Y-117379909D01*
X112867544Y-117398212D01*
X112713225Y-117452210D01*
X112574795Y-117539192D01*
X112482681Y-117631307D01*
X112421358Y-117664792D01*
X112351666Y-117659808D01*
X112307319Y-117631307D01*
X112238693Y-117562681D01*
X112205208Y-117501358D01*
X112210192Y-117431666D01*
X112238693Y-117387319D01*
X112283496Y-117342516D01*
X112330808Y-117295204D01*
X112417789Y-117156775D01*
X112471786Y-117002461D01*
X112471787Y-117002455D01*
X112490091Y-116840003D01*
X112490091Y-116839996D01*
X112471787Y-116677544D01*
X112471786Y-116677542D01*
X112471786Y-116677539D01*
X112417789Y-116523225D01*
X112330808Y-116384796D01*
X112215204Y-116269192D01*
X112182009Y-116248334D01*
X112076774Y-116182210D01*
X111922455Y-116128212D01*
X111760004Y-116109909D01*
X111759996Y-116109909D01*
X111597544Y-116128212D01*
X111443225Y-116182210D01*
X111304795Y-116269192D01*
X111212681Y-116361307D01*
X111151358Y-116394792D01*
X111081666Y-116389808D01*
X111037319Y-116361307D01*
X110968693Y-116292681D01*
X110935208Y-116231358D01*
X110940192Y-116161666D01*
X110968693Y-116117319D01*
X110976103Y-116109909D01*
X111060808Y-116025204D01*
X111147789Y-115886775D01*
X111201786Y-115732461D01*
X111202053Y-115730091D01*
X111216711Y-115600003D01*
X113069909Y-115600003D01*
X113088212Y-115762455D01*
X113142210Y-115916774D01*
X113201911Y-116011787D01*
X113229192Y-116055204D01*
X113344796Y-116170808D01*
X113483225Y-116257789D01*
X113637539Y-116311786D01*
X113637542Y-116311786D01*
X113637544Y-116311787D01*
X113799996Y-116330091D01*
X113800000Y-116330091D01*
X113800004Y-116330091D01*
X113962455Y-116311787D01*
X113962456Y-116311786D01*
X113962461Y-116311786D01*
X114116775Y-116257789D01*
X114255204Y-116170808D01*
X114370808Y-116055204D01*
X114457789Y-115916775D01*
X114511786Y-115762461D01*
X114512604Y-115755204D01*
X114530091Y-115600003D01*
X114530091Y-115599996D01*
X114511787Y-115437544D01*
X114511786Y-115437542D01*
X114511786Y-115437539D01*
X114457789Y-115283225D01*
X114370808Y-115144796D01*
X114255204Y-115029192D01*
X114208750Y-115000003D01*
X114116774Y-114942210D01*
X113962455Y-114888212D01*
X113800004Y-114869909D01*
X113799996Y-114869909D01*
X113637544Y-114888212D01*
X113483225Y-114942210D01*
X113344795Y-115029192D01*
X113229192Y-115144795D01*
X113142210Y-115283225D01*
X113088212Y-115437544D01*
X113069909Y-115599996D01*
X113069909Y-115600003D01*
X111216711Y-115600003D01*
X111220091Y-115570003D01*
X111220091Y-115569996D01*
X111201787Y-115407544D01*
X111201786Y-115407542D01*
X111201786Y-115407539D01*
X111147789Y-115253225D01*
X111060808Y-115114796D01*
X110973693Y-115027681D01*
X110940208Y-114966358D01*
X110945192Y-114896666D01*
X110967708Y-114861638D01*
X110966467Y-114860648D01*
X110970807Y-114855205D01*
X110973560Y-114850824D01*
X111057789Y-114716775D01*
X111111786Y-114562461D01*
X111111787Y-114562455D01*
X111130091Y-114400003D01*
X111130091Y-114399996D01*
X111111787Y-114237544D01*
X111111786Y-114237542D01*
X111111786Y-114237539D01*
X111057789Y-114083225D01*
X110970808Y-113944796D01*
X110913693Y-113887681D01*
X110880208Y-113826358D01*
X110885192Y-113756666D01*
X110913693Y-113712319D01*
X110942185Y-113683827D01*
X110970808Y-113655204D01*
X111057789Y-113516775D01*
X111111786Y-113362461D01*
X111112996Y-113351725D01*
X111130091Y-113200003D01*
X111130091Y-113199996D01*
X111111787Y-113037544D01*
X111111786Y-113037542D01*
X111111786Y-113037539D01*
X111057789Y-112883225D01*
X110970808Y-112744796D01*
X110855204Y-112629192D01*
X110855201Y-112629190D01*
X110821311Y-112607895D01*
X110775020Y-112555560D01*
X110764373Y-112486507D01*
X110782291Y-112436929D01*
X110813344Y-112387508D01*
X110857789Y-112316775D01*
X110911786Y-112162461D01*
X110913223Y-112149710D01*
X110930091Y-112000003D01*
X110930091Y-111999996D01*
X110911787Y-111837544D01*
X110911786Y-111837542D01*
X110911786Y-111837539D01*
X110857789Y-111683225D01*
X110770808Y-111544796D01*
X110735577Y-111509565D01*
X110702092Y-111448242D01*
X110707076Y-111378550D01*
X110748948Y-111322617D01*
X110782300Y-111304843D01*
X110916775Y-111257789D01*
X111055204Y-111170808D01*
X111170808Y-111055204D01*
X111257789Y-110916775D01*
X111311786Y-110762461D01*
X111314284Y-110740290D01*
X111330091Y-110600003D01*
X111330091Y-110599996D01*
X111311787Y-110437544D01*
X111311786Y-110437542D01*
X111311786Y-110437539D01*
X111257789Y-110283225D01*
X111170808Y-110144796D01*
X111055204Y-110029192D01*
X111055202Y-110029190D01*
X110966028Y-109973158D01*
X110919738Y-109920823D01*
X110909090Y-109851770D01*
X110937465Y-109787922D01*
X110954698Y-109771210D01*
X110955189Y-109770816D01*
X110955204Y-109770808D01*
X111070808Y-109655204D01*
X111157789Y-109516775D01*
X111211786Y-109362461D01*
X111212934Y-109352279D01*
X111230091Y-109200002D01*
X111230091Y-109195352D01*
X111249776Y-109128313D01*
X111302580Y-109082558D01*
X111313134Y-109078311D01*
X111371785Y-109057789D01*
X111510214Y-108970808D01*
X111625818Y-108855204D01*
X111712799Y-108716775D01*
X111712799Y-108716772D01*
X111714983Y-108713298D01*
X111767318Y-108667007D01*
X111836371Y-108656359D01*
X111860931Y-108662228D01*
X111973799Y-108701723D01*
X112002560Y-108711787D01*
X112165014Y-108730091D01*
X112165018Y-108730091D01*
X112165022Y-108730091D01*
X112327475Y-108711787D01*
X112334261Y-108710238D01*
X112334862Y-108712871D01*
X112392334Y-108709904D01*
X112452982Y-108744597D01*
X112485245Y-108806571D01*
X112486801Y-108816640D01*
X112503230Y-108962455D01*
X112557228Y-109116774D01*
X112628430Y-109230091D01*
X112644210Y-109255204D01*
X112759814Y-109370808D01*
X112898243Y-109457789D01*
X113052557Y-109511786D01*
X113052560Y-109511786D01*
X113052562Y-109511787D01*
X113215014Y-109530091D01*
X113215018Y-109530091D01*
X113264190Y-109524550D01*
X113333010Y-109536604D01*
X113383067Y-109581797D01*
X113429192Y-109655204D01*
X113544796Y-109770808D01*
X113683225Y-109857789D01*
X113837539Y-109911786D01*
X113837542Y-109911786D01*
X113837544Y-109911787D01*
X113999996Y-109930091D01*
X114000000Y-109930091D01*
X114000004Y-109930091D01*
X114162455Y-109911787D01*
X114162456Y-109911786D01*
X114162461Y-109911786D01*
X114316775Y-109857789D01*
X114455204Y-109770808D01*
X114570808Y-109655204D01*
X114657789Y-109516775D01*
X114711786Y-109362461D01*
X114712934Y-109352279D01*
X114725959Y-109236670D01*
X114753025Y-109172256D01*
X114810619Y-109132701D01*
X114880456Y-109130562D01*
X114936860Y-109162872D01*
X114944796Y-109170808D01*
X115016624Y-109215941D01*
X115062915Y-109268276D01*
X115073873Y-109334816D01*
X115069910Y-109369996D01*
X115069909Y-109370003D01*
X115088212Y-109532455D01*
X115142210Y-109686774D01*
X115208119Y-109791666D01*
X115229192Y-109825204D01*
X115344796Y-109940808D01*
X115483225Y-110027789D01*
X115637539Y-110081786D01*
X115637542Y-110081786D01*
X115637544Y-110081787D01*
X115710217Y-110089975D01*
X115774631Y-110117041D01*
X115814186Y-110174635D01*
X115816325Y-110244472D01*
X115780367Y-110304379D01*
X115762309Y-110318187D01*
X115744797Y-110329190D01*
X115629192Y-110444795D01*
X115542212Y-110583222D01*
X115530827Y-110615758D01*
X115490104Y-110672533D01*
X115425151Y-110698279D01*
X115372831Y-110691842D01*
X115362460Y-110688213D01*
X115200004Y-110669909D01*
X115199997Y-110669909D01*
X115136801Y-110677029D01*
X115067979Y-110664974D01*
X115017924Y-110619781D01*
X114970808Y-110544796D01*
X114855204Y-110429192D01*
X114762287Y-110370808D01*
X114716774Y-110342210D01*
X114562455Y-110288212D01*
X114400004Y-110269909D01*
X114399996Y-110269909D01*
X114237544Y-110288212D01*
X114083222Y-110342211D01*
X114077898Y-110345557D01*
X114010659Y-110364552D01*
X113943826Y-110344180D01*
X113924252Y-110328240D01*
X113855204Y-110259192D01*
X113716774Y-110172210D01*
X113562455Y-110118212D01*
X113400004Y-110099909D01*
X113399996Y-110099909D01*
X113237544Y-110118212D01*
X113083225Y-110172210D01*
X112944795Y-110259192D01*
X112829192Y-110374795D01*
X112742210Y-110513225D01*
X112688212Y-110667544D01*
X112669909Y-110829996D01*
X112669909Y-110830003D01*
X112688212Y-110992455D01*
X112742210Y-111146774D01*
X112811966Y-111257789D01*
X112829192Y-111285204D01*
X112944796Y-111400808D01*
X113083225Y-111487789D01*
X113237539Y-111541786D01*
X113237542Y-111541786D01*
X113237544Y-111541787D01*
X113332891Y-111552529D01*
X113371947Y-111556930D01*
X113436361Y-111583996D01*
X113475916Y-111641591D01*
X113481284Y-111694033D01*
X113469909Y-111794995D01*
X113469909Y-111795003D01*
X113488993Y-111964382D01*
X113486502Y-111964662D01*
X113482941Y-112022813D01*
X113441644Y-112079172D01*
X113380206Y-112103890D01*
X113325572Y-112110045D01*
X113171253Y-112164043D01*
X113032823Y-112251025D01*
X112917220Y-112366628D01*
X112830238Y-112505058D01*
X112776240Y-112659377D01*
X112757937Y-112821829D01*
X112757937Y-112821836D01*
X112776240Y-112984288D01*
X112830238Y-113138607D01*
X112881995Y-113220977D01*
X112917220Y-113277037D01*
X113032824Y-113392641D01*
X113171253Y-113479622D01*
X113325567Y-113533619D01*
X113325570Y-113533619D01*
X113325572Y-113533620D01*
X113488024Y-113551924D01*
X113488028Y-113551924D01*
X113488032Y-113551924D01*
X113650483Y-113533620D01*
X113650484Y-113533619D01*
X113650489Y-113533619D01*
X113804803Y-113479622D01*
X113943232Y-113392641D01*
X114058836Y-113277037D01*
X114145817Y-113138608D01*
X114159326Y-113100003D01*
X114669909Y-113100003D01*
X114688212Y-113262455D01*
X114742210Y-113416774D01*
X114815629Y-113533619D01*
X114829192Y-113555204D01*
X114944796Y-113670808D01*
X115081438Y-113756666D01*
X115083227Y-113757790D01*
X115092934Y-113761187D01*
X115149711Y-113801907D01*
X115175460Y-113866859D01*
X115162005Y-113935421D01*
X115117955Y-113983222D01*
X115044798Y-114029190D01*
X115044795Y-114029192D01*
X114929192Y-114144795D01*
X114842210Y-114283225D01*
X114788212Y-114437544D01*
X114769909Y-114599996D01*
X114769909Y-114600003D01*
X114788212Y-114762455D01*
X114842210Y-114916774D01*
X114922767Y-115044978D01*
X114929192Y-115055204D01*
X115044796Y-115170808D01*
X115183225Y-115257789D01*
X115337539Y-115311786D01*
X115337542Y-115311786D01*
X115337544Y-115311787D01*
X115499996Y-115330091D01*
X115500000Y-115330091D01*
X115500004Y-115330091D01*
X115662455Y-115311787D01*
X115662456Y-115311786D01*
X115662461Y-115311786D01*
X115816775Y-115257789D01*
X115881633Y-115217036D01*
X115948870Y-115198035D01*
X116015705Y-115218402D01*
X116060920Y-115271670D01*
X116070826Y-115308145D01*
X116088212Y-115462455D01*
X116142210Y-115616774D01*
X116201911Y-115711787D01*
X116229192Y-115755204D01*
X116344796Y-115870808D01*
X116483225Y-115957789D01*
X116637539Y-116011786D01*
X116637542Y-116011786D01*
X116637544Y-116011787D01*
X116799996Y-116030091D01*
X116800000Y-116030091D01*
X116800004Y-116030091D01*
X116962455Y-116011787D01*
X116962456Y-116011786D01*
X116962461Y-116011786D01*
X117116775Y-115957789D01*
X117255204Y-115870808D01*
X117370808Y-115755204D01*
X117457789Y-115616775D01*
X117511786Y-115462461D01*
X117512604Y-115455204D01*
X117530091Y-115300003D01*
X117530091Y-115299996D01*
X117511787Y-115137544D01*
X117511786Y-115137542D01*
X117511786Y-115137539D01*
X117463660Y-115000003D01*
X120469909Y-115000003D01*
X120488212Y-115162455D01*
X120542210Y-115316774D01*
X120618092Y-115437539D01*
X120629192Y-115455204D01*
X120744796Y-115570808D01*
X120883225Y-115657789D01*
X121037539Y-115711786D01*
X121037542Y-115711786D01*
X121037544Y-115711787D01*
X121199996Y-115730091D01*
X121200000Y-115730091D01*
X121200004Y-115730091D01*
X121362455Y-115711787D01*
X121362456Y-115711786D01*
X121362461Y-115711786D01*
X121516775Y-115657789D01*
X121634028Y-115584113D01*
X121701264Y-115565113D01*
X121765971Y-115584113D01*
X121883225Y-115657789D01*
X122037539Y-115711786D01*
X122037542Y-115711786D01*
X122037544Y-115711787D01*
X122199996Y-115730091D01*
X122200000Y-115730091D01*
X122200004Y-115730091D01*
X122362455Y-115711787D01*
X122362456Y-115711786D01*
X122362461Y-115711786D01*
X122516775Y-115657789D01*
X122655204Y-115570808D01*
X122770808Y-115455204D01*
X122857789Y-115316775D01*
X122911786Y-115162461D01*
X122911787Y-115162455D01*
X122930091Y-115000003D01*
X123269909Y-115000003D01*
X123288212Y-115162455D01*
X123342210Y-115316774D01*
X123418092Y-115437539D01*
X123429192Y-115455204D01*
X123544796Y-115570808D01*
X123683225Y-115657789D01*
X123837539Y-115711786D01*
X123837542Y-115711786D01*
X123837544Y-115711787D01*
X123999996Y-115730091D01*
X124000000Y-115730091D01*
X124000004Y-115730091D01*
X124162455Y-115711787D01*
X124162456Y-115711786D01*
X124162461Y-115711786D01*
X124316775Y-115657789D01*
X124434028Y-115584113D01*
X124501264Y-115565113D01*
X124565971Y-115584113D01*
X124683225Y-115657789D01*
X124837539Y-115711786D01*
X124837542Y-115711786D01*
X124837544Y-115711787D01*
X124999996Y-115730091D01*
X125000000Y-115730091D01*
X125000004Y-115730091D01*
X125162455Y-115711787D01*
X125162456Y-115711786D01*
X125162461Y-115711786D01*
X125316775Y-115657789D01*
X125455204Y-115570808D01*
X125570808Y-115455204D01*
X125657789Y-115316775D01*
X125711786Y-115162461D01*
X125711787Y-115162455D01*
X125730091Y-115000003D01*
X126269909Y-115000003D01*
X126288212Y-115162455D01*
X126342210Y-115316774D01*
X126418092Y-115437539D01*
X126429192Y-115455204D01*
X126544796Y-115570808D01*
X126683225Y-115657789D01*
X126837539Y-115711786D01*
X126837542Y-115711786D01*
X126837544Y-115711787D01*
X126999996Y-115730091D01*
X127000000Y-115730091D01*
X127000004Y-115730091D01*
X127162455Y-115711787D01*
X127162456Y-115711786D01*
X127162461Y-115711786D01*
X127316775Y-115657789D01*
X127434028Y-115584113D01*
X127501264Y-115565113D01*
X127565971Y-115584113D01*
X127683225Y-115657789D01*
X127837539Y-115711786D01*
X127837542Y-115711786D01*
X127837544Y-115711787D01*
X127999996Y-115730091D01*
X128000000Y-115730091D01*
X128000004Y-115730091D01*
X128162455Y-115711787D01*
X128162456Y-115711786D01*
X128162461Y-115711786D01*
X128316775Y-115657789D01*
X128455204Y-115570808D01*
X128570808Y-115455204D01*
X128657789Y-115316775D01*
X128709710Y-115168393D01*
X128750431Y-115111619D01*
X128815383Y-115085871D01*
X128826751Y-115085349D01*
X129833273Y-115085349D01*
X129833274Y-115085348D01*
X130036227Y-115044979D01*
X130227405Y-114965790D01*
X130399462Y-114850826D01*
X130545784Y-114704504D01*
X130660748Y-114532447D01*
X130739937Y-114341269D01*
X130780307Y-114138314D01*
X130780307Y-113931384D01*
X130739937Y-113728429D01*
X130660748Y-113537251D01*
X130545784Y-113365194D01*
X130545782Y-113365191D01*
X130399465Y-113218874D01*
X130399461Y-113218871D01*
X130261456Y-113126659D01*
X130216651Y-113073047D01*
X130207944Y-113003722D01*
X130236099Y-112944871D01*
X130235574Y-112944468D01*
X130237483Y-112941979D01*
X130238098Y-112940695D01*
X130240046Y-112938639D01*
X130240514Y-112938028D01*
X130240520Y-112938023D01*
X130267311Y-112891620D01*
X130312993Y-112812496D01*
X130312995Y-112812491D01*
X130312996Y-112812490D01*
X130350513Y-112672476D01*
X130350513Y-112527524D01*
X130312996Y-112387510D01*
X130312995Y-112387508D01*
X130311210Y-112383199D01*
X130303742Y-112313730D01*
X130335018Y-112251251D01*
X130359797Y-112230756D01*
X130455204Y-112170808D01*
X130570808Y-112055204D01*
X130657789Y-111916775D01*
X130711786Y-111762461D01*
X130711787Y-111762455D01*
X130730091Y-111600003D01*
X130730091Y-111599996D01*
X130711787Y-111437544D01*
X130711786Y-111437542D01*
X130711786Y-111437539D01*
X130657789Y-111283225D01*
X130570808Y-111144796D01*
X130455204Y-111029192D01*
X130408750Y-111000003D01*
X130316774Y-110942210D01*
X130162455Y-110888212D01*
X130000004Y-110869909D01*
X129999996Y-110869909D01*
X129837544Y-110888212D01*
X129683225Y-110942210D01*
X129544795Y-111029192D01*
X129429192Y-111144795D01*
X129342210Y-111283225D01*
X129288212Y-111437544D01*
X129269909Y-111599996D01*
X129269909Y-111600003D01*
X129288212Y-111762455D01*
X129342210Y-111916774D01*
X129372300Y-111964662D01*
X129428697Y-112054417D01*
X129429470Y-112055646D01*
X129448470Y-112122882D01*
X129428103Y-112189718D01*
X129412158Y-112209298D01*
X129359481Y-112261975D01*
X129359475Y-112261983D01*
X129287006Y-112387503D01*
X129287004Y-112387508D01*
X129273597Y-112437544D01*
X129249487Y-112527524D01*
X129249487Y-112672476D01*
X129273597Y-112762455D01*
X129287004Y-112812491D01*
X129287175Y-112812902D01*
X129287215Y-112813275D01*
X129289108Y-112820340D01*
X129288005Y-112820635D01*
X129294640Y-112882372D01*
X129263361Y-112944850D01*
X129203271Y-112980499D01*
X129172611Y-112984349D01*
X128981156Y-112984349D01*
X128914117Y-112964664D01*
X128868362Y-112911860D01*
X128864120Y-112901318D01*
X128857789Y-112883225D01*
X128857787Y-112883222D01*
X128857787Y-112883221D01*
X128802769Y-112795662D01*
X128770808Y-112744796D01*
X128655204Y-112629192D01*
X128608750Y-112600003D01*
X128516774Y-112542210D01*
X128362455Y-112488212D01*
X128200004Y-112469909D01*
X128199996Y-112469909D01*
X128037544Y-112488212D01*
X127883225Y-112542210D01*
X127744795Y-112629192D01*
X127629192Y-112744795D01*
X127542210Y-112883225D01*
X127488212Y-113037544D01*
X127487770Y-113041473D01*
X127486774Y-113043841D01*
X127486662Y-113044335D01*
X127486575Y-113044315D01*
X127460702Y-113105887D01*
X127403107Y-113145441D01*
X127333270Y-113147578D01*
X127323527Y-113143999D01*
X127323349Y-113144511D01*
X127162455Y-113088212D01*
X127000004Y-113069909D01*
X126999996Y-113069909D01*
X126837544Y-113088212D01*
X126683225Y-113142210D01*
X126544795Y-113229192D01*
X126429192Y-113344795D01*
X126342210Y-113483225D01*
X126288212Y-113637544D01*
X126269909Y-113799996D01*
X126269909Y-113800003D01*
X126288212Y-113962455D01*
X126342210Y-114116774D01*
X126429192Y-114255204D01*
X126486307Y-114312319D01*
X126519792Y-114373642D01*
X126514808Y-114443334D01*
X126486307Y-114487681D01*
X126429192Y-114544795D01*
X126342210Y-114683225D01*
X126288212Y-114837544D01*
X126269909Y-114999996D01*
X126269909Y-115000003D01*
X125730091Y-115000003D01*
X125730091Y-114999996D01*
X125711787Y-114837544D01*
X125711786Y-114837542D01*
X125711786Y-114837539D01*
X125657789Y-114683225D01*
X125570808Y-114544796D01*
X125455204Y-114429192D01*
X125408750Y-114400003D01*
X125316774Y-114342210D01*
X125182939Y-114295379D01*
X125162461Y-114288214D01*
X125162460Y-114288213D01*
X125162455Y-114288212D01*
X125000004Y-114269909D01*
X124999996Y-114269909D01*
X124837544Y-114288212D01*
X124683225Y-114342210D01*
X124565972Y-114415886D01*
X124498735Y-114434886D01*
X124434028Y-114415886D01*
X124316774Y-114342210D01*
X124182939Y-114295379D01*
X124162461Y-114288214D01*
X124162460Y-114288213D01*
X124162455Y-114288212D01*
X124000004Y-114269909D01*
X123999996Y-114269909D01*
X123837544Y-114288212D01*
X123683225Y-114342210D01*
X123544795Y-114429192D01*
X123429192Y-114544795D01*
X123342210Y-114683225D01*
X123288212Y-114837544D01*
X123269909Y-114999996D01*
X123269909Y-115000003D01*
X122930091Y-115000003D01*
X122930091Y-114999996D01*
X122911787Y-114837544D01*
X122911786Y-114837542D01*
X122911786Y-114837539D01*
X122857789Y-114683225D01*
X122770808Y-114544796D01*
X122655204Y-114429192D01*
X122608750Y-114400003D01*
X122516774Y-114342210D01*
X122382939Y-114295379D01*
X122362461Y-114288214D01*
X122362460Y-114288213D01*
X122362455Y-114288212D01*
X122200004Y-114269909D01*
X122199996Y-114269909D01*
X122037544Y-114288212D01*
X121883225Y-114342210D01*
X121765972Y-114415886D01*
X121698735Y-114434886D01*
X121634028Y-114415886D01*
X121516774Y-114342210D01*
X121382939Y-114295379D01*
X121362461Y-114288214D01*
X121362460Y-114288213D01*
X121362455Y-114288212D01*
X121200004Y-114269909D01*
X121199996Y-114269909D01*
X121037544Y-114288212D01*
X120883225Y-114342210D01*
X120744795Y-114429192D01*
X120629192Y-114544795D01*
X120542210Y-114683225D01*
X120488212Y-114837544D01*
X120469909Y-114999996D01*
X120469909Y-115000003D01*
X117463660Y-115000003D01*
X117457789Y-114983225D01*
X117370808Y-114844796D01*
X117255204Y-114729192D01*
X117215917Y-114704506D01*
X117116774Y-114642210D01*
X116982939Y-114595379D01*
X116962461Y-114588214D01*
X116962460Y-114588213D01*
X116962455Y-114588212D01*
X116800004Y-114569909D01*
X116799996Y-114569909D01*
X116637544Y-114588212D01*
X116483222Y-114642211D01*
X116418364Y-114682964D01*
X116351127Y-114701964D01*
X116284292Y-114681596D01*
X116239079Y-114628327D01*
X116229173Y-114591853D01*
X116211787Y-114437544D01*
X116211786Y-114437542D01*
X116211786Y-114437539D01*
X116157789Y-114283225D01*
X116070808Y-114144796D01*
X115955204Y-114029192D01*
X115947353Y-114024259D01*
X115816773Y-113942209D01*
X115807061Y-113938811D01*
X115750285Y-113898088D01*
X115724539Y-113833135D01*
X115737996Y-113764574D01*
X115782045Y-113716776D01*
X115855204Y-113670808D01*
X115970808Y-113555204D01*
X116057789Y-113416775D01*
X116075390Y-113366473D01*
X117560447Y-113366473D01*
X117578750Y-113528925D01*
X117578751Y-113528930D01*
X117578752Y-113528931D01*
X117580392Y-113533619D01*
X117632748Y-113683244D01*
X117711090Y-113807923D01*
X117719730Y-113821674D01*
X117835334Y-113937278D01*
X117973763Y-114024259D01*
X118128077Y-114078256D01*
X118128080Y-114078256D01*
X118128082Y-114078257D01*
X118290534Y-114096561D01*
X118290538Y-114096561D01*
X118290542Y-114096561D01*
X118452993Y-114078257D01*
X118452994Y-114078256D01*
X118452999Y-114078256D01*
X118607313Y-114024259D01*
X118745742Y-113937278D01*
X118861346Y-113821674D01*
X118948327Y-113683245D01*
X118972361Y-113614559D01*
X119013081Y-113557785D01*
X119078033Y-113532036D01*
X119146595Y-113545491D01*
X119196998Y-113593878D01*
X119206443Y-113614558D01*
X119242211Y-113716775D01*
X119329192Y-113855204D01*
X119444796Y-113970808D01*
X119583225Y-114057789D01*
X119737539Y-114111786D01*
X119737542Y-114111786D01*
X119737544Y-114111787D01*
X119899996Y-114130091D01*
X119900000Y-114130091D01*
X119900004Y-114130091D01*
X120062455Y-114111787D01*
X120062456Y-114111786D01*
X120062461Y-114111786D01*
X120216775Y-114057789D01*
X120355204Y-113970808D01*
X120470808Y-113855204D01*
X120557789Y-113716775D01*
X120611786Y-113562461D01*
X120612604Y-113555204D01*
X120630091Y-113400003D01*
X120630091Y-113399996D01*
X120611787Y-113237544D01*
X120611786Y-113237542D01*
X120611786Y-113237539D01*
X120557789Y-113083225D01*
X120470808Y-112944796D01*
X120355204Y-112829192D01*
X120328623Y-112812490D01*
X120216774Y-112742210D01*
X120062455Y-112688212D01*
X119900004Y-112669909D01*
X119899996Y-112669909D01*
X119737544Y-112688212D01*
X119583225Y-112742210D01*
X119444795Y-112829192D01*
X119329192Y-112944795D01*
X119242209Y-113083227D01*
X119218176Y-113151910D01*
X119177455Y-113208686D01*
X119112502Y-113234433D01*
X119043940Y-113220977D01*
X118993538Y-113172589D01*
X118984094Y-113151912D01*
X118948327Y-113049695D01*
X118861346Y-112911266D01*
X118745742Y-112795662D01*
X118692894Y-112762455D01*
X118607312Y-112708680D01*
X118466396Y-112659372D01*
X118452999Y-112654684D01*
X118452998Y-112654683D01*
X118452993Y-112654682D01*
X118290542Y-112636379D01*
X118290534Y-112636379D01*
X118128082Y-112654682D01*
X117973763Y-112708680D01*
X117835333Y-112795662D01*
X117719730Y-112911265D01*
X117632748Y-113049695D01*
X117578750Y-113204014D01*
X117560447Y-113366466D01*
X117560447Y-113366473D01*
X116075390Y-113366473D01*
X116111786Y-113262461D01*
X116113250Y-113249471D01*
X116130091Y-113100003D01*
X116130091Y-113099996D01*
X116111787Y-112937544D01*
X116111786Y-112937542D01*
X116111786Y-112937539D01*
X116057789Y-112783225D01*
X115970808Y-112644796D01*
X115855204Y-112529192D01*
X115816795Y-112505058D01*
X115716774Y-112442210D01*
X115562455Y-112388212D01*
X115400004Y-112369909D01*
X115399996Y-112369909D01*
X115237544Y-112388212D01*
X115083225Y-112442210D01*
X114944795Y-112529192D01*
X114829192Y-112644795D01*
X114742210Y-112783225D01*
X114688212Y-112937544D01*
X114669909Y-113099996D01*
X114669909Y-113100003D01*
X114159326Y-113100003D01*
X114199814Y-112984294D01*
X114204256Y-112944871D01*
X114218119Y-112821836D01*
X114218119Y-112821829D01*
X114199035Y-112652451D01*
X114201531Y-112652169D01*
X114205073Y-112594055D01*
X114246353Y-112537683D01*
X114307820Y-112512942D01*
X114362461Y-112506786D01*
X114516775Y-112452789D01*
X114655204Y-112365808D01*
X114770808Y-112250204D01*
X114837571Y-112143950D01*
X114889905Y-112097661D01*
X114958958Y-112087013D01*
X114983512Y-112092881D01*
X115037539Y-112111786D01*
X115037543Y-112111786D01*
X115037545Y-112111787D01*
X115037542Y-112111787D01*
X115199996Y-112130091D01*
X115200000Y-112130091D01*
X115200004Y-112130091D01*
X115362455Y-112111787D01*
X115362456Y-112111786D01*
X115362461Y-112111786D01*
X115516775Y-112057789D01*
X115655204Y-111970808D01*
X115770808Y-111855204D01*
X115857789Y-111716775D01*
X115869172Y-111684242D01*
X115909891Y-111627469D01*
X115974843Y-111601720D01*
X116027168Y-111608157D01*
X116037542Y-111611787D01*
X116199996Y-111630091D01*
X116200000Y-111630091D01*
X116200004Y-111630091D01*
X116362455Y-111611787D01*
X116362456Y-111611786D01*
X116362461Y-111611786D01*
X116516775Y-111557789D01*
X116655204Y-111470808D01*
X116770808Y-111355204D01*
X116857789Y-111216775D01*
X116911786Y-111062461D01*
X116912604Y-111055204D01*
X116918824Y-111000003D01*
X117469909Y-111000003D01*
X117488212Y-111162455D01*
X117542210Y-111316774D01*
X117618092Y-111437539D01*
X117629192Y-111455204D01*
X117744796Y-111570808D01*
X117883225Y-111657789D01*
X118037539Y-111711786D01*
X118037542Y-111711786D01*
X118037544Y-111711787D01*
X118199996Y-111730091D01*
X118200000Y-111730091D01*
X118200004Y-111730091D01*
X118362455Y-111711787D01*
X118362456Y-111711786D01*
X118362461Y-111711786D01*
X118516775Y-111657789D01*
X118534027Y-111646948D01*
X118601263Y-111627948D01*
X118665972Y-111646948D01*
X118683225Y-111657789D01*
X118837539Y-111711786D01*
X118837542Y-111711786D01*
X118837544Y-111711787D01*
X118999996Y-111730091D01*
X119000000Y-111730091D01*
X119000004Y-111730091D01*
X119162455Y-111711787D01*
X119162456Y-111711786D01*
X119162461Y-111711786D01*
X119316775Y-111657789D01*
X119434028Y-111584113D01*
X119501264Y-111565113D01*
X119565971Y-111584113D01*
X119683225Y-111657789D01*
X119837539Y-111711786D01*
X119837542Y-111711786D01*
X119837544Y-111711787D01*
X119999996Y-111730091D01*
X120000000Y-111730091D01*
X120000004Y-111730091D01*
X120162455Y-111711787D01*
X120162456Y-111711786D01*
X120162461Y-111711786D01*
X120316775Y-111657789D01*
X120434028Y-111584113D01*
X120501264Y-111565113D01*
X120565971Y-111584113D01*
X120683225Y-111657789D01*
X120837539Y-111711786D01*
X120837542Y-111711786D01*
X120837544Y-111711787D01*
X120999996Y-111730091D01*
X121000000Y-111730091D01*
X121000004Y-111730091D01*
X121162455Y-111711787D01*
X121162456Y-111711786D01*
X121162461Y-111711786D01*
X121316775Y-111657789D01*
X121434028Y-111584113D01*
X121501264Y-111565113D01*
X121565971Y-111584113D01*
X121683225Y-111657789D01*
X121837539Y-111711786D01*
X121837542Y-111711786D01*
X121837544Y-111711787D01*
X121999996Y-111730091D01*
X122000000Y-111730091D01*
X122000004Y-111730091D01*
X122162455Y-111711787D01*
X122162456Y-111711786D01*
X122162461Y-111711786D01*
X122316775Y-111657789D01*
X122434028Y-111584113D01*
X122501264Y-111565113D01*
X122565971Y-111584113D01*
X122683225Y-111657789D01*
X122837539Y-111711786D01*
X122837542Y-111711786D01*
X122837544Y-111711787D01*
X122999996Y-111730091D01*
X123000000Y-111730091D01*
X123000004Y-111730091D01*
X123162455Y-111711787D01*
X123162456Y-111711786D01*
X123162461Y-111711786D01*
X123316775Y-111657789D01*
X123455204Y-111570808D01*
X123570808Y-111455204D01*
X123657789Y-111316775D01*
X123711786Y-111162461D01*
X123712105Y-111159632D01*
X123730091Y-111000003D01*
X126269909Y-111000003D01*
X126288212Y-111162455D01*
X126342210Y-111316774D01*
X126418092Y-111437539D01*
X126429192Y-111455204D01*
X126544796Y-111570808D01*
X126683225Y-111657789D01*
X126837539Y-111711786D01*
X126837542Y-111711786D01*
X126837544Y-111711787D01*
X126999996Y-111730091D01*
X127000000Y-111730091D01*
X127000004Y-111730091D01*
X127162455Y-111711787D01*
X127162456Y-111711786D01*
X127162461Y-111711786D01*
X127316775Y-111657789D01*
X127455204Y-111570808D01*
X127570808Y-111455204D01*
X127657789Y-111316775D01*
X127711786Y-111162461D01*
X127712105Y-111159632D01*
X127730091Y-111000003D01*
X127730091Y-110999996D01*
X127711787Y-110837544D01*
X127711786Y-110837542D01*
X127711786Y-110837539D01*
X127657789Y-110683225D01*
X127584113Y-110565971D01*
X127565113Y-110498736D01*
X127584114Y-110434027D01*
X127584305Y-110433724D01*
X127657789Y-110316775D01*
X127711786Y-110162461D01*
X127713776Y-110144798D01*
X127730091Y-110000003D01*
X127730091Y-109999996D01*
X127711787Y-109837544D01*
X127711786Y-109837542D01*
X127711786Y-109837539D01*
X127657789Y-109683225D01*
X127570808Y-109544796D01*
X127455204Y-109429192D01*
X127417464Y-109405478D01*
X127316774Y-109342210D01*
X127162455Y-109288212D01*
X127000004Y-109269909D01*
X126999996Y-109269909D01*
X126837544Y-109288212D01*
X126683225Y-109342210D01*
X126544795Y-109429192D01*
X126429192Y-109544795D01*
X126342210Y-109683225D01*
X126288212Y-109837544D01*
X126269909Y-109999996D01*
X126269909Y-110000003D01*
X126288212Y-110162455D01*
X126342210Y-110316774D01*
X126415886Y-110434028D01*
X126434886Y-110501265D01*
X126415886Y-110565972D01*
X126342210Y-110683225D01*
X126288212Y-110837544D01*
X126269909Y-110999996D01*
X126269909Y-111000003D01*
X123730091Y-111000003D01*
X123730091Y-110999996D01*
X123711787Y-110837544D01*
X123711786Y-110837542D01*
X123711786Y-110837539D01*
X123657789Y-110683225D01*
X123584113Y-110565971D01*
X123565113Y-110498736D01*
X123584114Y-110434027D01*
X123584305Y-110433724D01*
X123657789Y-110316775D01*
X123711786Y-110162461D01*
X123713776Y-110144798D01*
X123730091Y-110000003D01*
X123730091Y-109999996D01*
X123711787Y-109837544D01*
X123711786Y-109837542D01*
X123711786Y-109837539D01*
X123698652Y-109800003D01*
X124069909Y-109800003D01*
X124088212Y-109962455D01*
X124142210Y-110116774D01*
X124205458Y-110217432D01*
X124229192Y-110255204D01*
X124344796Y-110370808D01*
X124483225Y-110457789D01*
X124637539Y-110511786D01*
X124637542Y-110511786D01*
X124637544Y-110511787D01*
X124799996Y-110530091D01*
X124800000Y-110530091D01*
X124800004Y-110530091D01*
X124962455Y-110511787D01*
X124962456Y-110511786D01*
X124962461Y-110511786D01*
X125116775Y-110457789D01*
X125255204Y-110370808D01*
X125370808Y-110255204D01*
X125457789Y-110116775D01*
X125511786Y-109962461D01*
X125512846Y-109953053D01*
X125530091Y-109800003D01*
X125530091Y-109799996D01*
X125511787Y-109637544D01*
X125511786Y-109637542D01*
X125511786Y-109637539D01*
X125457789Y-109483225D01*
X125370808Y-109344796D01*
X125255204Y-109229192D01*
X125220744Y-109207539D01*
X125116774Y-109142210D01*
X124962455Y-109088212D01*
X124800004Y-109069909D01*
X124799996Y-109069909D01*
X124637544Y-109088212D01*
X124483225Y-109142210D01*
X124344795Y-109229192D01*
X124229192Y-109344795D01*
X124142210Y-109483225D01*
X124088212Y-109637544D01*
X124069909Y-109799996D01*
X124069909Y-109800003D01*
X123698652Y-109800003D01*
X123657789Y-109683225D01*
X123641806Y-109657789D01*
X123587152Y-109570808D01*
X123584113Y-109565971D01*
X123565113Y-109498736D01*
X123584114Y-109434027D01*
X123595425Y-109416027D01*
X123657789Y-109316775D01*
X123711786Y-109162461D01*
X123711787Y-109162455D01*
X123730091Y-109000003D01*
X123730091Y-108999996D01*
X123711787Y-108837544D01*
X123711786Y-108837542D01*
X123711786Y-108837539D01*
X123657789Y-108683225D01*
X123641806Y-108657789D01*
X123627600Y-108635179D01*
X123584113Y-108565971D01*
X123565113Y-108498736D01*
X123584114Y-108434027D01*
X123587154Y-108429190D01*
X123657789Y-108316775D01*
X123711786Y-108162461D01*
X123711787Y-108162455D01*
X123730091Y-108000003D01*
X123730091Y-107999996D01*
X123712865Y-107847108D01*
X124128991Y-107847108D01*
X124147294Y-108009560D01*
X124201292Y-108163879D01*
X124269946Y-108273140D01*
X124288274Y-108302309D01*
X124403878Y-108417913D01*
X124542307Y-108504894D01*
X124696621Y-108558891D01*
X124696624Y-108558891D01*
X124696626Y-108558892D01*
X124859078Y-108577196D01*
X124859082Y-108577196D01*
X124859086Y-108577196D01*
X125021537Y-108558892D01*
X125021538Y-108558891D01*
X125021543Y-108558891D01*
X125175857Y-108504894D01*
X125314286Y-108417913D01*
X125429890Y-108302309D01*
X125516871Y-108163880D01*
X125570868Y-108009566D01*
X125570869Y-108009560D01*
X125589173Y-107847108D01*
X125589173Y-107847101D01*
X125570869Y-107684649D01*
X125570868Y-107684647D01*
X125570868Y-107684644D01*
X125516871Y-107530330D01*
X125429890Y-107391901D01*
X125314286Y-107276297D01*
X125308450Y-107272630D01*
X125175856Y-107189315D01*
X125042021Y-107142484D01*
X125021543Y-107135319D01*
X125021542Y-107135318D01*
X125021537Y-107135317D01*
X124859086Y-107117014D01*
X124859078Y-107117014D01*
X124696626Y-107135317D01*
X124542307Y-107189315D01*
X124403877Y-107276297D01*
X124288274Y-107391900D01*
X124201292Y-107530330D01*
X124147294Y-107684649D01*
X124128991Y-107847101D01*
X124128991Y-107847108D01*
X123712865Y-107847108D01*
X123711787Y-107837544D01*
X123711786Y-107837542D01*
X123711786Y-107837539D01*
X123657789Y-107683225D01*
X123584113Y-107565971D01*
X123565113Y-107498736D01*
X123584114Y-107434027D01*
X123600466Y-107408004D01*
X123657789Y-107316775D01*
X123711786Y-107162461D01*
X123712291Y-107157980D01*
X123730091Y-107000003D01*
X123730091Y-106999996D01*
X123711787Y-106837544D01*
X123711786Y-106837542D01*
X123711786Y-106837539D01*
X123657789Y-106683225D01*
X123570808Y-106544796D01*
X123455204Y-106429192D01*
X123376031Y-106379444D01*
X123316774Y-106342210D01*
X123162455Y-106288212D01*
X123000004Y-106269909D01*
X122999996Y-106269909D01*
X122837544Y-106288212D01*
X122683225Y-106342210D01*
X122565972Y-106415886D01*
X122498735Y-106434886D01*
X122434028Y-106415886D01*
X122316774Y-106342210D01*
X122162455Y-106288212D01*
X122000004Y-106269909D01*
X121999996Y-106269909D01*
X121837544Y-106288212D01*
X121683225Y-106342210D01*
X121565972Y-106415886D01*
X121498735Y-106434886D01*
X121434028Y-106415886D01*
X121316774Y-106342210D01*
X121162455Y-106288212D01*
X121000004Y-106269909D01*
X120999996Y-106269909D01*
X120837544Y-106288212D01*
X120683225Y-106342210D01*
X120565972Y-106415886D01*
X120498735Y-106434886D01*
X120434028Y-106415886D01*
X120316774Y-106342210D01*
X120162455Y-106288212D01*
X120000004Y-106269909D01*
X119999996Y-106269909D01*
X119837544Y-106288212D01*
X119683225Y-106342210D01*
X119565972Y-106415886D01*
X119498735Y-106434886D01*
X119434028Y-106415886D01*
X119316774Y-106342210D01*
X119162455Y-106288212D01*
X119000004Y-106269909D01*
X118999996Y-106269909D01*
X118837544Y-106288212D01*
X118683225Y-106342210D01*
X118544795Y-106429192D01*
X118429192Y-106544795D01*
X118342210Y-106683225D01*
X118288212Y-106837544D01*
X118269909Y-106999996D01*
X118269909Y-107000004D01*
X118285178Y-107135527D01*
X118273123Y-107204349D01*
X118225774Y-107255728D01*
X118175842Y-107272630D01*
X118037544Y-107288212D01*
X117883225Y-107342210D01*
X117744795Y-107429192D01*
X117629192Y-107544795D01*
X117542210Y-107683225D01*
X117488212Y-107837544D01*
X117469909Y-107999996D01*
X117469909Y-108000003D01*
X117488212Y-108162455D01*
X117542210Y-108316774D01*
X117615886Y-108434028D01*
X117634886Y-108501265D01*
X117615886Y-108565972D01*
X117542210Y-108683225D01*
X117488212Y-108837544D01*
X117469909Y-108999996D01*
X117469909Y-109000003D01*
X117488212Y-109162455D01*
X117542210Y-109316774D01*
X117615886Y-109434028D01*
X117634886Y-109501265D01*
X117615886Y-109565972D01*
X117542210Y-109683225D01*
X117488212Y-109837544D01*
X117469909Y-109999996D01*
X117469909Y-110000003D01*
X117488212Y-110162455D01*
X117542210Y-110316774D01*
X117615886Y-110434028D01*
X117634886Y-110501265D01*
X117615886Y-110565972D01*
X117542210Y-110683225D01*
X117488212Y-110837544D01*
X117469909Y-110999996D01*
X117469909Y-111000003D01*
X116918824Y-111000003D01*
X116930091Y-110900003D01*
X116930091Y-110899996D01*
X116911787Y-110737544D01*
X116911786Y-110737542D01*
X116911786Y-110737539D01*
X116857789Y-110583225D01*
X116770808Y-110444796D01*
X116655204Y-110329192D01*
X116620744Y-110307539D01*
X116516774Y-110242210D01*
X116362455Y-110188212D01*
X116289781Y-110180024D01*
X116225367Y-110152957D01*
X116185812Y-110095362D01*
X116183675Y-110025525D01*
X116219633Y-109965619D01*
X116237690Y-109951812D01*
X116255204Y-109940808D01*
X116370808Y-109825204D01*
X116457789Y-109686775D01*
X116511786Y-109532461D01*
X116512053Y-109530091D01*
X116530091Y-109370003D01*
X116530091Y-109369996D01*
X116511787Y-109207544D01*
X116511786Y-109207542D01*
X116511786Y-109207539D01*
X116457789Y-109053225D01*
X116370808Y-108914796D01*
X116255204Y-108799192D01*
X116255202Y-108799190D01*
X116255197Y-108799186D01*
X116183375Y-108754057D01*
X116137084Y-108701723D01*
X116126127Y-108635179D01*
X116126636Y-108630667D01*
X116130091Y-108600000D01*
X116129939Y-108598654D01*
X116111787Y-108437544D01*
X116111786Y-108437542D01*
X116111786Y-108437539D01*
X116057789Y-108283225D01*
X115970808Y-108144796D01*
X115855204Y-108029192D01*
X115808750Y-108000003D01*
X115716774Y-107942210D01*
X115562455Y-107888212D01*
X115400004Y-107869909D01*
X115399996Y-107869909D01*
X115237544Y-107888212D01*
X115083225Y-107942210D01*
X114944795Y-108029192D01*
X114829192Y-108144795D01*
X114742210Y-108283225D01*
X114688212Y-108437544D01*
X114674040Y-108563330D01*
X114646973Y-108627744D01*
X114589379Y-108667299D01*
X114519542Y-108669436D01*
X114463139Y-108637127D01*
X114455204Y-108629192D01*
X114316774Y-108542210D01*
X114162455Y-108488212D01*
X114084663Y-108479447D01*
X114020249Y-108452380D01*
X113980694Y-108394785D01*
X113978557Y-108324948D01*
X113993552Y-108290258D01*
X114062843Y-108179983D01*
X114116840Y-108025669D01*
X114118404Y-108011787D01*
X114135145Y-107863211D01*
X114135145Y-107863204D01*
X114116841Y-107700752D01*
X114116840Y-107700750D01*
X114116840Y-107700747D01*
X114062843Y-107546433D01*
X113975862Y-107408004D01*
X113860258Y-107292400D01*
X113853593Y-107288212D01*
X113721828Y-107205418D01*
X113567509Y-107151420D01*
X113405058Y-107133117D01*
X113405050Y-107133117D01*
X113242598Y-107151420D01*
X113088279Y-107205418D01*
X112949849Y-107292400D01*
X112834244Y-107408005D01*
X112826208Y-107420796D01*
X112773873Y-107467086D01*
X112704820Y-107477734D01*
X112640972Y-107449359D01*
X112633534Y-107442504D01*
X112620222Y-107429192D01*
X112481792Y-107342210D01*
X112327473Y-107288212D01*
X112165022Y-107269909D01*
X112165014Y-107269909D01*
X112002562Y-107288212D01*
X111848243Y-107342210D01*
X111709813Y-107429192D01*
X111594210Y-107544795D01*
X111594208Y-107544798D01*
X111505043Y-107686701D01*
X111452708Y-107732992D01*
X111383655Y-107743639D01*
X111359097Y-107737770D01*
X111313138Y-107721689D01*
X111256361Y-107680968D01*
X111230613Y-107616016D01*
X111230091Y-107604647D01*
X111230091Y-107599997D01*
X111211787Y-107437544D01*
X111211786Y-107437542D01*
X111211786Y-107437539D01*
X111157789Y-107283225D01*
X111143499Y-107260482D01*
X111117035Y-107218365D01*
X111098035Y-107151128D01*
X111118403Y-107084293D01*
X111171671Y-107039079D01*
X111208144Y-107029173D01*
X111260039Y-107023326D01*
X111362455Y-107011787D01*
X111362456Y-107011786D01*
X111362461Y-107011786D01*
X111516775Y-106957789D01*
X111655204Y-106870808D01*
X111770808Y-106755204D01*
X111857789Y-106616775D01*
X111911786Y-106462461D01*
X111911787Y-106462455D01*
X111930091Y-106300003D01*
X111930091Y-106299996D01*
X111911787Y-106137544D01*
X111911786Y-106137542D01*
X111911786Y-106137539D01*
X111857789Y-105983225D01*
X111770808Y-105844796D01*
X111655204Y-105729192D01*
X111649212Y-105725427D01*
X111516774Y-105642210D01*
X111362455Y-105588212D01*
X111200004Y-105569909D01*
X111199996Y-105569909D01*
X111037544Y-105588212D01*
X110883225Y-105642210D01*
X110744795Y-105729192D01*
X110629192Y-105844795D01*
X110542210Y-105983225D01*
X110488212Y-106137544D01*
X110469909Y-106299996D01*
X110469909Y-106300003D01*
X110488212Y-106462455D01*
X110488213Y-106462460D01*
X110488214Y-106462461D01*
X110493098Y-106476420D01*
X110542210Y-106616775D01*
X110582964Y-106681634D01*
X110601964Y-106748871D01*
X110581596Y-106815706D01*
X110528328Y-106860920D01*
X110491854Y-106870826D01*
X110337544Y-106888212D01*
X110183225Y-106942210D01*
X110044795Y-107029192D01*
X109987681Y-107086307D01*
X109926358Y-107119792D01*
X109856666Y-107114808D01*
X109812319Y-107086307D01*
X109755204Y-107029192D01*
X109616774Y-106942210D01*
X109474538Y-106892440D01*
X109462461Y-106888214D01*
X109462460Y-106888213D01*
X109462455Y-106888212D01*
X109300004Y-106869909D01*
X109299996Y-106869909D01*
X109137544Y-106888212D01*
X108983225Y-106942210D01*
X108893348Y-106998684D01*
X108826111Y-107017684D01*
X108759276Y-106997316D01*
X108714062Y-106944048D01*
X108706805Y-106922647D01*
X108694374Y-106870867D01*
X108697865Y-106801089D01*
X108738528Y-106744271D01*
X108801065Y-106718704D01*
X108862455Y-106711787D01*
X108862456Y-106711786D01*
X108862461Y-106711786D01*
X109016775Y-106657789D01*
X109155204Y-106570808D01*
X109270808Y-106455204D01*
X109357789Y-106316775D01*
X109411786Y-106162461D01*
X109411843Y-106161955D01*
X109430091Y-106000003D01*
X109430091Y-105999996D01*
X109411787Y-105837544D01*
X109411786Y-105837542D01*
X109411786Y-105837539D01*
X109357789Y-105683225D01*
X109270808Y-105544796D01*
X109155204Y-105429192D01*
X109082179Y-105383307D01*
X109016774Y-105342210D01*
X108862455Y-105288212D01*
X108700004Y-105269909D01*
X108699996Y-105269909D01*
X108537544Y-105288212D01*
X108383225Y-105342210D01*
X108244795Y-105429192D01*
X108129192Y-105544795D01*
X108042209Y-105683227D01*
X108018121Y-105752067D01*
X107977400Y-105808843D01*
X107912447Y-105834590D01*
X107853628Y-105825673D01*
X107611614Y-105725428D01*
X107611611Y-105725427D01*
X107435827Y-105683225D01*
X107358994Y-105664779D01*
X107358992Y-105664778D01*
X107358991Y-105664778D01*
X107100000Y-105644396D01*
X106841013Y-105664778D01*
X106841007Y-105664778D01*
X106841006Y-105664779D01*
X106841003Y-105664779D01*
X106840995Y-105664781D01*
X106839549Y-105665128D01*
X106838984Y-105665099D01*
X106836206Y-105665540D01*
X106836113Y-105664955D01*
X106769767Y-105661627D01*
X106712956Y-105620955D01*
X106693578Y-105585504D01*
X106657788Y-105483221D01*
X106627436Y-105434917D01*
X106608435Y-105367681D01*
X106628802Y-105300846D01*
X106644745Y-105281265D01*
X106670808Y-105255204D01*
X106757789Y-105116775D01*
X106811786Y-104962461D01*
X106817393Y-104912702D01*
X106818824Y-104900003D01*
X118154534Y-104900003D01*
X118172837Y-105062455D01*
X118226835Y-105216774D01*
X118286536Y-105311787D01*
X118313817Y-105355204D01*
X118429421Y-105470808D01*
X118567850Y-105557789D01*
X118722164Y-105611786D01*
X118722167Y-105611786D01*
X118722169Y-105611787D01*
X118884621Y-105630091D01*
X118884625Y-105630091D01*
X118884629Y-105630091D01*
X119047080Y-105611787D01*
X119047081Y-105611786D01*
X119047086Y-105611786D01*
X119201400Y-105557789D01*
X119339829Y-105470808D01*
X119455433Y-105355204D01*
X119458005Y-105351109D01*
X119510335Y-105304816D01*
X119579388Y-105294163D01*
X119603957Y-105300035D01*
X119637542Y-105311787D01*
X119799996Y-105330091D01*
X119800000Y-105330091D01*
X119800004Y-105330091D01*
X119962455Y-105311787D01*
X119962456Y-105311786D01*
X119962461Y-105311786D01*
X120116775Y-105257789D01*
X120255204Y-105170808D01*
X120370808Y-105055204D01*
X120457789Y-104916775D01*
X120511786Y-104762461D01*
X120511787Y-104762455D01*
X120530091Y-104600003D01*
X120530091Y-104599996D01*
X120511787Y-104437544D01*
X120511786Y-104437542D01*
X120511786Y-104437539D01*
X120457789Y-104283225D01*
X120370808Y-104144796D01*
X120255204Y-104029192D01*
X120208750Y-104000003D01*
X120116774Y-103942210D01*
X119962455Y-103888212D01*
X119800004Y-103869909D01*
X119799996Y-103869909D01*
X119637544Y-103888212D01*
X119483225Y-103942210D01*
X119344795Y-104029192D01*
X119229190Y-104144797D01*
X119229188Y-104144800D01*
X119226610Y-104148903D01*
X119174271Y-104195190D01*
X119105217Y-104205833D01*
X119080671Y-104199966D01*
X119047086Y-104188214D01*
X119047085Y-104188213D01*
X119047080Y-104188212D01*
X118884629Y-104169909D01*
X118884621Y-104169909D01*
X118722169Y-104188212D01*
X118567850Y-104242210D01*
X118429420Y-104329192D01*
X118313817Y-104444795D01*
X118226835Y-104583225D01*
X118172837Y-104737544D01*
X118154534Y-104899996D01*
X118154534Y-104900003D01*
X106818824Y-104900003D01*
X106830091Y-104800003D01*
X106830091Y-104799996D01*
X106811787Y-104637544D01*
X106811786Y-104637542D01*
X106811786Y-104637539D01*
X106757789Y-104483225D01*
X106670808Y-104344796D01*
X106555204Y-104229192D01*
X106535586Y-104216865D01*
X106416774Y-104142210D01*
X106262455Y-104088212D01*
X106100004Y-104069909D01*
X106099996Y-104069909D01*
X105937544Y-104088212D01*
X105783225Y-104142210D01*
X105644795Y-104229192D01*
X105529192Y-104344795D01*
X105442210Y-104483225D01*
X105388212Y-104637544D01*
X105369909Y-104799996D01*
X105369909Y-104800003D01*
X105388212Y-104962455D01*
X105442210Y-105116774D01*
X105472564Y-105165082D01*
X105491564Y-105232319D01*
X105471196Y-105299154D01*
X105455253Y-105318734D01*
X105429191Y-105344796D01*
X105404993Y-105383307D01*
X105352658Y-105429598D01*
X105283604Y-105440245D01*
X105219756Y-105411869D01*
X105195007Y-105383307D01*
X105170809Y-105344798D01*
X105170808Y-105344796D01*
X105055204Y-105229192D01*
X105027503Y-105211786D01*
X104916774Y-105142210D01*
X104782939Y-105095379D01*
X104762461Y-105088214D01*
X104762460Y-105088213D01*
X104762455Y-105088212D01*
X104600004Y-105069909D01*
X104599996Y-105069909D01*
X104437544Y-105088212D01*
X104283225Y-105142210D01*
X104144795Y-105229192D01*
X104029190Y-105344797D01*
X103975463Y-105430304D01*
X103923129Y-105476594D01*
X103856586Y-105487551D01*
X103703907Y-105470348D01*
X103639493Y-105443281D01*
X103599938Y-105385686D01*
X103594571Y-105361011D01*
X103581787Y-105247544D01*
X103581786Y-105247542D01*
X103581786Y-105247539D01*
X103527789Y-105093225D01*
X103440808Y-104954796D01*
X103348693Y-104862681D01*
X103315208Y-104801358D01*
X103320192Y-104731666D01*
X103348693Y-104687319D01*
X103378223Y-104657789D01*
X103440808Y-104595204D01*
X103527789Y-104456775D01*
X103581786Y-104302461D01*
X103581787Y-104302455D01*
X103600091Y-104140003D01*
X103600091Y-104139996D01*
X103581787Y-103977544D01*
X103581786Y-103977542D01*
X103581786Y-103977539D01*
X103527789Y-103823225D01*
X103440808Y-103684796D01*
X103348693Y-103592681D01*
X103315208Y-103531358D01*
X103317450Y-103500003D01*
X109269909Y-103500003D01*
X109288212Y-103662455D01*
X109342210Y-103816774D01*
X109412970Y-103929387D01*
X109429192Y-103955204D01*
X109544796Y-104070808D01*
X109683225Y-104157789D01*
X109837539Y-104211786D01*
X109837542Y-104211786D01*
X109837544Y-104211787D01*
X109999996Y-104230091D01*
X110000000Y-104230091D01*
X110000004Y-104230091D01*
X110162455Y-104211787D01*
X110162456Y-104211786D01*
X110162461Y-104211786D01*
X110316775Y-104157789D01*
X110455204Y-104070808D01*
X110563142Y-103962869D01*
X110624461Y-103929387D01*
X110694153Y-103934371D01*
X110750087Y-103976242D01*
X110774040Y-104036669D01*
X110788212Y-104162455D01*
X110842210Y-104316774D01*
X110855261Y-104337544D01*
X110929192Y-104455204D01*
X111044796Y-104570808D01*
X111183225Y-104657789D01*
X111337539Y-104711786D01*
X111337542Y-104711786D01*
X111337544Y-104711787D01*
X111499996Y-104730091D01*
X111500000Y-104730091D01*
X111500004Y-104730091D01*
X111662455Y-104711787D01*
X111662456Y-104711786D01*
X111662461Y-104711786D01*
X111816775Y-104657789D01*
X111955204Y-104570808D01*
X112070808Y-104455204D01*
X112157789Y-104316775D01*
X112211786Y-104162461D01*
X112211787Y-104162455D01*
X112230091Y-104000003D01*
X112230091Y-103999996D01*
X112211787Y-103837544D01*
X112211786Y-103837542D01*
X112211786Y-103837539D01*
X112157789Y-103683225D01*
X112070808Y-103544796D01*
X111955204Y-103429192D01*
X111837119Y-103354994D01*
X111790828Y-103302659D01*
X111780180Y-103233605D01*
X111808555Y-103169757D01*
X111837119Y-103145006D01*
X111894393Y-103109018D01*
X111955204Y-103070808D01*
X112070808Y-102955204D01*
X112157789Y-102816775D01*
X112211786Y-102662461D01*
X112211787Y-102662455D01*
X112230091Y-102500003D01*
X112230091Y-102499996D01*
X112211787Y-102337544D01*
X112211786Y-102337542D01*
X112211786Y-102337539D01*
X112157789Y-102183225D01*
X112070808Y-102044796D01*
X111955204Y-101929192D01*
X111862287Y-101870808D01*
X111816774Y-101842210D01*
X111662455Y-101788212D01*
X111500004Y-101769909D01*
X111499996Y-101769909D01*
X111337544Y-101788212D01*
X111183225Y-101842210D01*
X111044795Y-101929192D01*
X110929190Y-102044797D01*
X110854993Y-102162881D01*
X110802658Y-102209171D01*
X110733605Y-102219819D01*
X110669757Y-102191444D01*
X110645007Y-102162881D01*
X110570809Y-102044797D01*
X110455204Y-101929192D01*
X110316774Y-101842210D01*
X110162455Y-101788212D01*
X110000004Y-101769909D01*
X109999996Y-101769909D01*
X109837544Y-101788212D01*
X109683225Y-101842210D01*
X109544795Y-101929192D01*
X109429192Y-102044795D01*
X109342210Y-102183225D01*
X109288212Y-102337544D01*
X109269909Y-102499996D01*
X109269909Y-102500003D01*
X109288212Y-102662455D01*
X109342210Y-102816774D01*
X109415886Y-102934028D01*
X109434886Y-103001265D01*
X109415886Y-103065972D01*
X109342210Y-103183225D01*
X109288212Y-103337544D01*
X109269909Y-103499996D01*
X109269909Y-103500003D01*
X103317450Y-103500003D01*
X103320192Y-103461666D01*
X103348693Y-103417319D01*
X103356103Y-103409909D01*
X103440808Y-103325204D01*
X103527789Y-103186775D01*
X103581786Y-103032461D01*
X103585301Y-103001265D01*
X103600091Y-102870003D01*
X103600091Y-102869996D01*
X103593883Y-102814898D01*
X103605938Y-102746077D01*
X103653287Y-102694697D01*
X103720897Y-102677073D01*
X103758056Y-102683973D01*
X103825402Y-102707539D01*
X103837542Y-102711787D01*
X103999996Y-102730091D01*
X104000000Y-102730091D01*
X104000004Y-102730091D01*
X104162455Y-102711787D01*
X104162456Y-102711786D01*
X104162461Y-102711786D01*
X104316775Y-102657789D01*
X104455204Y-102570808D01*
X104570808Y-102455204D01*
X104645006Y-102337119D01*
X104697341Y-102290828D01*
X104766395Y-102280180D01*
X104830243Y-102308555D01*
X104854994Y-102337119D01*
X104929192Y-102455204D01*
X105044796Y-102570808D01*
X105183225Y-102657789D01*
X105337539Y-102711786D01*
X105337542Y-102711786D01*
X105337544Y-102711787D01*
X105499996Y-102730091D01*
X105500000Y-102730091D01*
X105500004Y-102730091D01*
X105662455Y-102711787D01*
X105662456Y-102711786D01*
X105662461Y-102711786D01*
X105816775Y-102657789D01*
X105955204Y-102570808D01*
X106070808Y-102455204D01*
X106145006Y-102337119D01*
X106197341Y-102290828D01*
X106266395Y-102280180D01*
X106330243Y-102308555D01*
X106354994Y-102337119D01*
X106429192Y-102455204D01*
X106544796Y-102570808D01*
X106683225Y-102657789D01*
X106837539Y-102711786D01*
X106837542Y-102711786D01*
X106837544Y-102711787D01*
X106999996Y-102730091D01*
X107000000Y-102730091D01*
X107000004Y-102730091D01*
X107162455Y-102711787D01*
X107162456Y-102711786D01*
X107162461Y-102711786D01*
X107316775Y-102657789D01*
X107455204Y-102570808D01*
X107570808Y-102455204D01*
X107657789Y-102316775D01*
X107678429Y-102257789D01*
X107711784Y-102162468D01*
X107711784Y-102162465D01*
X107711786Y-102162461D01*
X107714686Y-102136721D01*
X107741750Y-102072309D01*
X107799344Y-102032752D01*
X107824020Y-102027384D01*
X107884567Y-102020562D01*
X107962455Y-102011787D01*
X107962456Y-102011786D01*
X107962461Y-102011786D01*
X108116775Y-101957789D01*
X108255204Y-101870808D01*
X108370808Y-101755204D01*
X108457789Y-101616775D01*
X108511786Y-101462461D01*
X108514594Y-101437544D01*
X108525364Y-101341949D01*
X108527384Y-101324022D01*
X108554450Y-101259609D01*
X108612045Y-101220054D01*
X108636716Y-101214686D01*
X108662461Y-101211786D01*
X108662465Y-101211784D01*
X108662468Y-101211784D01*
X108803440Y-101162455D01*
X108816775Y-101157789D01*
X108955204Y-101070808D01*
X109070808Y-100955204D01*
X109157789Y-100816775D01*
X109211786Y-100662461D01*
X109211787Y-100662455D01*
X109230091Y-100500003D01*
X109230091Y-100499996D01*
X109211787Y-100337543D01*
X109210093Y-100332703D01*
X109196010Y-100292453D01*
X109192449Y-100222675D01*
X109227178Y-100162048D01*
X109289172Y-100129821D01*
X109313052Y-100127500D01*
X112443414Y-100127500D01*
X112503346Y-100145098D01*
G37*
%TD.AperFunction*%
%TD*%
M02*
