%TF.GenerationSoftware,KiCad,Pcbnew,8.0.0*%
%TF.CreationDate,2024-03-05T20:17:21-06:00*%
%TF.ProjectId,rigel-a-hw,72696765-6c2d-4612-9d68-772e6b696361,rev?*%
%TF.SameCoordinates,Original*%
%TF.FileFunction,Paste,Top*%
%TF.FilePolarity,Positive*%
%FSLAX46Y46*%
G04 Gerber Fmt 4.6, Leading zero omitted, Abs format (unit mm)*
G04 Created by KiCad (PCBNEW 8.0.0) date 2024-03-05 20:17:21*
%MOMM*%
%LPD*%
G01*
G04 APERTURE LIST*
G04 Aperture macros list*
%AMRoundRect*
0 Rectangle with rounded corners*
0 $1 Rounding radius*
0 $2 $3 $4 $5 $6 $7 $8 $9 X,Y pos of 4 corners*
0 Add a 4 corners polygon primitive as box body*
4,1,4,$2,$3,$4,$5,$6,$7,$8,$9,$2,$3,0*
0 Add four circle primitives for the rounded corners*
1,1,$1+$1,$2,$3*
1,1,$1+$1,$4,$5*
1,1,$1+$1,$6,$7*
1,1,$1+$1,$8,$9*
0 Add four rect primitives between the rounded corners*
20,1,$1+$1,$2,$3,$4,$5,0*
20,1,$1+$1,$4,$5,$6,$7,0*
20,1,$1+$1,$6,$7,$8,$9,0*
20,1,$1+$1,$8,$9,$2,$3,0*%
G04 Aperture macros list end*
%ADD10RoundRect,0.140000X-0.170000X0.140000X-0.170000X-0.140000X0.170000X-0.140000X0.170000X0.140000X0*%
%ADD11RoundRect,0.140000X0.140000X0.170000X-0.140000X0.170000X-0.140000X-0.170000X0.140000X-0.170000X0*%
%ADD12C,0.320000*%
%ADD13RoundRect,0.250000X-0.315000X0.315000X-0.315000X-0.315000X0.315000X-0.315000X0.315000X0.315000X0*%
%ADD14RoundRect,0.062500X-0.062500X0.375000X-0.062500X-0.375000X0.062500X-0.375000X0.062500X0.375000X0*%
%ADD15RoundRect,0.062500X-0.375000X0.062500X-0.375000X-0.062500X0.375000X-0.062500X0.375000X0.062500X0*%
G04 APERTURE END LIST*
D10*
%TO.C,C22*%
X111400000Y-113920000D03*
X111400000Y-114880000D03*
%TD*%
D11*
%TO.C,C20*%
X109480000Y-109800000D03*
X108520000Y-109800000D03*
%TD*%
D12*
%TO.C,IC1*%
X112600000Y-111140000D03*
X112600000Y-110430000D03*
X112600000Y-109800000D03*
X111825000Y-111480000D03*
X111910000Y-110640000D03*
X111220000Y-111480000D03*
X111220000Y-110640000D03*
X111220000Y-109800000D03*
%TD*%
D13*
%TO.C,U1*%
X122710000Y-107000000D03*
X121310000Y-107000000D03*
X119910000Y-107000000D03*
X118510000Y-107000000D03*
X122710000Y-108400000D03*
X121310000Y-108400000D03*
X119910000Y-108400000D03*
X118510000Y-108400000D03*
X122710000Y-109800000D03*
X121310000Y-109800000D03*
X119910000Y-109800000D03*
X118510000Y-109800000D03*
X122710000Y-111200000D03*
X121310000Y-111200000D03*
X119910000Y-111200000D03*
X118510000Y-111200000D03*
D14*
X123360000Y-105662500D03*
X122860000Y-105662500D03*
X122360000Y-105662500D03*
X121860000Y-105662500D03*
X121360000Y-105662500D03*
X120860000Y-105662500D03*
X120360000Y-105662500D03*
X119860000Y-105662500D03*
X119360000Y-105662500D03*
X118860000Y-105662500D03*
X118360000Y-105662500D03*
X117860000Y-105662500D03*
D15*
X117172500Y-106350000D03*
X117172500Y-106850000D03*
X117172500Y-107350000D03*
X117172500Y-107850000D03*
X117172500Y-108350000D03*
X117172500Y-108850000D03*
X117172500Y-109350000D03*
X117172500Y-109850000D03*
X117172500Y-110350000D03*
X117172500Y-110850000D03*
X117172500Y-111350000D03*
X117172500Y-111850000D03*
D14*
X117860000Y-112537500D03*
X118360000Y-112537500D03*
X118860000Y-112537500D03*
X119360000Y-112537500D03*
X119860000Y-112537500D03*
X120360000Y-112537500D03*
X120860000Y-112537500D03*
X121360000Y-112537500D03*
X121860000Y-112537500D03*
X122360000Y-112537500D03*
X122860000Y-112537500D03*
X123360000Y-112537500D03*
D15*
X124047500Y-111850000D03*
X124047500Y-111350000D03*
X124047500Y-110850000D03*
X124047500Y-110350000D03*
X124047500Y-109850000D03*
X124047500Y-109350000D03*
X124047500Y-108850000D03*
X124047500Y-108350000D03*
X124047500Y-107850000D03*
X124047500Y-107350000D03*
X124047500Y-106850000D03*
X124047500Y-106350000D03*
%TD*%
D10*
%TO.C,C21*%
X112800000Y-114320000D03*
X112800000Y-115280000D03*
%TD*%
M02*
